%TF.GenerationSoftware,KiCad,Pcbnew,6.0.3-a3aad9c10e~116~ubuntu20.04.1*%
%TF.CreationDate,2022-03-23T21:19:15+01:00*%
%TF.ProjectId,Smart_Charger,536d6172-745f-4436-9861-726765722e6b,ED A0*%
%TF.SameCoordinates,Original*%
%TF.FileFunction,Legend,Bot*%
%TF.FilePolarity,Positive*%
%FSLAX46Y46*%
G04 Gerber Fmt 4.6, Leading zero omitted, Abs format (unit mm)*
G04 Created by KiCad (PCBNEW 6.0.3-a3aad9c10e~116~ubuntu20.04.1) date 2022-03-23 21:19:15*
%MOMM*%
%LPD*%
G01*
G04 APERTURE LIST*
%ADD10C,0.150000*%
%ADD11C,0.010000*%
G04 APERTURE END LIST*
D10*
X155078571Y-72779761D02*
X154935714Y-72827380D01*
X154697619Y-72827380D01*
X154602380Y-72779761D01*
X154554761Y-72732142D01*
X154507142Y-72636904D01*
X154507142Y-72541666D01*
X154554761Y-72446428D01*
X154602380Y-72398809D01*
X154697619Y-72351190D01*
X154888095Y-72303571D01*
X154983333Y-72255952D01*
X155030952Y-72208333D01*
X155078571Y-72113095D01*
X155078571Y-72017857D01*
X155030952Y-71922619D01*
X154983333Y-71875000D01*
X154888095Y-71827380D01*
X154650000Y-71827380D01*
X154507142Y-71875000D01*
X154078571Y-72827380D02*
X154078571Y-72160714D01*
X154078571Y-72255952D02*
X154030952Y-72208333D01*
X153935714Y-72160714D01*
X153792857Y-72160714D01*
X153697619Y-72208333D01*
X153650000Y-72303571D01*
X153650000Y-72827380D01*
X153650000Y-72303571D02*
X153602380Y-72208333D01*
X153507142Y-72160714D01*
X153364285Y-72160714D01*
X153269047Y-72208333D01*
X153221428Y-72303571D01*
X153221428Y-72827380D01*
X152316666Y-72827380D02*
X152316666Y-72303571D01*
X152364285Y-72208333D01*
X152459523Y-72160714D01*
X152650000Y-72160714D01*
X152745238Y-72208333D01*
X152316666Y-72779761D02*
X152411904Y-72827380D01*
X152650000Y-72827380D01*
X152745238Y-72779761D01*
X152792857Y-72684523D01*
X152792857Y-72589285D01*
X152745238Y-72494047D01*
X152650000Y-72446428D01*
X152411904Y-72446428D01*
X152316666Y-72398809D01*
X151840476Y-72827380D02*
X151840476Y-72160714D01*
X151840476Y-72351190D02*
X151792857Y-72255952D01*
X151745238Y-72208333D01*
X151650000Y-72160714D01*
X151554761Y-72160714D01*
X151364285Y-72160714D02*
X150983333Y-72160714D01*
X151221428Y-71827380D02*
X151221428Y-72684523D01*
X151173809Y-72779761D01*
X151078571Y-72827380D01*
X150983333Y-72827380D01*
X149316666Y-72732142D02*
X149364285Y-72779761D01*
X149507142Y-72827380D01*
X149602380Y-72827380D01*
X149745238Y-72779761D01*
X149840476Y-72684523D01*
X149888095Y-72589285D01*
X149935714Y-72398809D01*
X149935714Y-72255952D01*
X149888095Y-72065476D01*
X149840476Y-71970238D01*
X149745238Y-71875000D01*
X149602380Y-71827380D01*
X149507142Y-71827380D01*
X149364285Y-71875000D01*
X149316666Y-71922619D01*
X148888095Y-72827380D02*
X148888095Y-71827380D01*
X148459523Y-72827380D02*
X148459523Y-72303571D01*
X148507142Y-72208333D01*
X148602380Y-72160714D01*
X148745238Y-72160714D01*
X148840476Y-72208333D01*
X148888095Y-72255952D01*
X147554761Y-72827380D02*
X147554761Y-72303571D01*
X147602380Y-72208333D01*
X147697619Y-72160714D01*
X147888095Y-72160714D01*
X147983333Y-72208333D01*
X147554761Y-72779761D02*
X147650000Y-72827380D01*
X147888095Y-72827380D01*
X147983333Y-72779761D01*
X148030952Y-72684523D01*
X148030952Y-72589285D01*
X147983333Y-72494047D01*
X147888095Y-72446428D01*
X147650000Y-72446428D01*
X147554761Y-72398809D01*
X147078571Y-72827380D02*
X147078571Y-72160714D01*
X147078571Y-72351190D02*
X147030952Y-72255952D01*
X146983333Y-72208333D01*
X146888095Y-72160714D01*
X146792857Y-72160714D01*
X146030952Y-72160714D02*
X146030952Y-72970238D01*
X146078571Y-73065476D01*
X146126190Y-73113095D01*
X146221428Y-73160714D01*
X146364285Y-73160714D01*
X146459523Y-73113095D01*
X146030952Y-72779761D02*
X146126190Y-72827380D01*
X146316666Y-72827380D01*
X146411904Y-72779761D01*
X146459523Y-72732142D01*
X146507142Y-72636904D01*
X146507142Y-72351190D01*
X146459523Y-72255952D01*
X146411904Y-72208333D01*
X146316666Y-72160714D01*
X146126190Y-72160714D01*
X146030952Y-72208333D01*
X145173809Y-72779761D02*
X145269047Y-72827380D01*
X145459523Y-72827380D01*
X145554761Y-72779761D01*
X145602380Y-72684523D01*
X145602380Y-72303571D01*
X145554761Y-72208333D01*
X145459523Y-72160714D01*
X145269047Y-72160714D01*
X145173809Y-72208333D01*
X145126190Y-72303571D01*
X145126190Y-72398809D01*
X145602380Y-72494047D01*
X144697619Y-72827380D02*
X144697619Y-72160714D01*
X144697619Y-72351190D02*
X144650000Y-72255952D01*
X144602380Y-72208333D01*
X144507142Y-72160714D01*
X144411904Y-72160714D01*
X143459523Y-72160714D02*
X143078571Y-72160714D01*
X143316666Y-72827380D02*
X143316666Y-71970238D01*
X143269047Y-71875000D01*
X143173809Y-71827380D01*
X143078571Y-71827380D01*
X142602380Y-72827380D02*
X142697619Y-72779761D01*
X142745238Y-72732142D01*
X142792857Y-72636904D01*
X142792857Y-72351190D01*
X142745238Y-72255952D01*
X142697619Y-72208333D01*
X142602380Y-72160714D01*
X142459523Y-72160714D01*
X142364285Y-72208333D01*
X142316666Y-72255952D01*
X142269047Y-72351190D01*
X142269047Y-72636904D01*
X142316666Y-72732142D01*
X142364285Y-72779761D01*
X142459523Y-72827380D01*
X142602380Y-72827380D01*
X141840476Y-72827380D02*
X141840476Y-72160714D01*
X141840476Y-72351190D02*
X141792857Y-72255952D01*
X141745238Y-72208333D01*
X141650000Y-72160714D01*
X141554761Y-72160714D01*
X140459523Y-72827380D02*
X140459523Y-71827380D01*
X140126190Y-72541666D01*
X139792857Y-71827380D01*
X139792857Y-72827380D01*
X139316666Y-72827380D02*
X139316666Y-72160714D01*
X139316666Y-72351190D02*
X139269047Y-72255952D01*
X139221428Y-72208333D01*
X139126190Y-72160714D01*
X139030952Y-72160714D01*
X138697619Y-72732142D02*
X138650000Y-72779761D01*
X138697619Y-72827380D01*
X138745238Y-72779761D01*
X138697619Y-72732142D01*
X138697619Y-72827380D01*
X137554761Y-71827380D02*
X137316666Y-72827380D01*
X137126190Y-72113095D01*
X136935714Y-72827380D01*
X136697619Y-71827380D01*
X136173809Y-72827380D02*
X136269047Y-72779761D01*
X136316666Y-72684523D01*
X136316666Y-71827380D01*
X135364285Y-72827380D02*
X135364285Y-72303571D01*
X135411904Y-72208333D01*
X135507142Y-72160714D01*
X135697619Y-72160714D01*
X135792857Y-72208333D01*
X135364285Y-72779761D02*
X135459523Y-72827380D01*
X135697619Y-72827380D01*
X135792857Y-72779761D01*
X135840476Y-72684523D01*
X135840476Y-72589285D01*
X135792857Y-72494047D01*
X135697619Y-72446428D01*
X135459523Y-72446428D01*
X135364285Y-72398809D01*
X134459523Y-72827380D02*
X134459523Y-71827380D01*
X134459523Y-72779761D02*
X134554761Y-72827380D01*
X134745238Y-72827380D01*
X134840476Y-72779761D01*
X134888095Y-72732142D01*
X134935714Y-72636904D01*
X134935714Y-72351190D01*
X134888095Y-72255952D01*
X134840476Y-72208333D01*
X134745238Y-72160714D01*
X134554761Y-72160714D01*
X134459523Y-72208333D01*
X134078571Y-72160714D02*
X133554761Y-72160714D01*
X134078571Y-72827380D01*
X133554761Y-72827380D01*
X133173809Y-72827380D02*
X133173809Y-72160714D01*
X133173809Y-71827380D02*
X133221428Y-71875000D01*
X133173809Y-71922619D01*
X133126190Y-71875000D01*
X133173809Y-71827380D01*
X133173809Y-71922619D01*
X132554761Y-72827380D02*
X132650000Y-72779761D01*
X132697619Y-72732142D01*
X132745238Y-72636904D01*
X132745238Y-72351190D01*
X132697619Y-72255952D01*
X132650000Y-72208333D01*
X132554761Y-72160714D01*
X132411904Y-72160714D01*
X132316666Y-72208333D01*
X132269047Y-72255952D01*
X132221428Y-72351190D01*
X132221428Y-72636904D01*
X132269047Y-72732142D01*
X132316666Y-72779761D01*
X132411904Y-72827380D01*
X132554761Y-72827380D01*
X146983333Y-74532619D02*
X147078571Y-74485000D01*
X147173809Y-74389761D01*
X147316666Y-74246904D01*
X147411904Y-74199285D01*
X147507142Y-74199285D01*
X147459523Y-74437380D02*
X147554761Y-74389761D01*
X147650000Y-74294523D01*
X147697619Y-74104047D01*
X147697619Y-73770714D01*
X147650000Y-73580238D01*
X147554761Y-73485000D01*
X147459523Y-73437380D01*
X147269047Y-73437380D01*
X147173809Y-73485000D01*
X147078571Y-73580238D01*
X147030952Y-73770714D01*
X147030952Y-74104047D01*
X147078571Y-74294523D01*
X147173809Y-74389761D01*
X147269047Y-74437380D01*
X147459523Y-74437380D01*
X146173809Y-73770714D02*
X146173809Y-74437380D01*
X146602380Y-73770714D02*
X146602380Y-74294523D01*
X146554761Y-74389761D01*
X146459523Y-74437380D01*
X146316666Y-74437380D01*
X146221428Y-74389761D01*
X146173809Y-74342142D01*
X145269047Y-74437380D02*
X145269047Y-73913571D01*
X145316666Y-73818333D01*
X145411904Y-73770714D01*
X145602380Y-73770714D01*
X145697619Y-73818333D01*
X145269047Y-74389761D02*
X145364285Y-74437380D01*
X145602380Y-74437380D01*
X145697619Y-74389761D01*
X145745238Y-74294523D01*
X145745238Y-74199285D01*
X145697619Y-74104047D01*
X145602380Y-74056428D01*
X145364285Y-74056428D01*
X145269047Y-74008809D01*
X144840476Y-74389761D02*
X144745238Y-74437380D01*
X144554761Y-74437380D01*
X144459523Y-74389761D01*
X144411904Y-74294523D01*
X144411904Y-74246904D01*
X144459523Y-74151666D01*
X144554761Y-74104047D01*
X144697619Y-74104047D01*
X144792857Y-74056428D01*
X144840476Y-73961190D01*
X144840476Y-73913571D01*
X144792857Y-73818333D01*
X144697619Y-73770714D01*
X144554761Y-73770714D01*
X144459523Y-73818333D01*
X143983333Y-74437380D02*
X143983333Y-73770714D01*
X143983333Y-73437380D02*
X144030952Y-73485000D01*
X143983333Y-73532619D01*
X143935714Y-73485000D01*
X143983333Y-73437380D01*
X143983333Y-73532619D01*
X142745238Y-74437380D02*
X142745238Y-73437380D01*
X142364285Y-73437380D01*
X142269047Y-73485000D01*
X142221428Y-73532619D01*
X142173809Y-73627857D01*
X142173809Y-73770714D01*
X142221428Y-73865952D01*
X142269047Y-73913571D01*
X142364285Y-73961190D01*
X142745238Y-73961190D01*
X141364285Y-74389761D02*
X141459523Y-74437380D01*
X141650000Y-74437380D01*
X141745238Y-74389761D01*
X141792857Y-74294523D01*
X141792857Y-73913571D01*
X141745238Y-73818333D01*
X141650000Y-73770714D01*
X141459523Y-73770714D01*
X141364285Y-73818333D01*
X141316666Y-73913571D01*
X141316666Y-74008809D01*
X141792857Y-74104047D01*
X140459523Y-74437380D02*
X140459523Y-73913571D01*
X140507142Y-73818333D01*
X140602380Y-73770714D01*
X140792857Y-73770714D01*
X140888095Y-73818333D01*
X140459523Y-74389761D02*
X140554761Y-74437380D01*
X140792857Y-74437380D01*
X140888095Y-74389761D01*
X140935714Y-74294523D01*
X140935714Y-74199285D01*
X140888095Y-74104047D01*
X140792857Y-74056428D01*
X140554761Y-74056428D01*
X140459523Y-74008809D01*
X139983333Y-74437380D02*
X139983333Y-73437380D01*
X139888095Y-74056428D02*
X139602380Y-74437380D01*
X139602380Y-73770714D02*
X139983333Y-74151666D01*
X148816666Y-76047380D02*
X148816666Y-75047380D01*
X148435714Y-75047380D01*
X148340476Y-75095000D01*
X148292857Y-75142619D01*
X148245238Y-75237857D01*
X148245238Y-75380714D01*
X148292857Y-75475952D01*
X148340476Y-75523571D01*
X148435714Y-75571190D01*
X148816666Y-75571190D01*
X147388095Y-76047380D02*
X147388095Y-75523571D01*
X147435714Y-75428333D01*
X147530952Y-75380714D01*
X147721428Y-75380714D01*
X147816666Y-75428333D01*
X147388095Y-75999761D02*
X147483333Y-76047380D01*
X147721428Y-76047380D01*
X147816666Y-75999761D01*
X147864285Y-75904523D01*
X147864285Y-75809285D01*
X147816666Y-75714047D01*
X147721428Y-75666428D01*
X147483333Y-75666428D01*
X147388095Y-75618809D01*
X147054761Y-75380714D02*
X146673809Y-75380714D01*
X146911904Y-75047380D02*
X146911904Y-75904523D01*
X146864285Y-75999761D01*
X146769047Y-76047380D01*
X146673809Y-76047380D01*
X146340476Y-76047380D02*
X146340476Y-75380714D01*
X146340476Y-75571190D02*
X146292857Y-75475952D01*
X146245238Y-75428333D01*
X146150000Y-75380714D01*
X146054761Y-75380714D01*
X145816666Y-75380714D02*
X145578571Y-76047380D01*
X145340476Y-75380714D02*
X145578571Y-76047380D01*
X145673809Y-76285476D01*
X145721428Y-76333095D01*
X145816666Y-76380714D01*
X144959523Y-76047380D02*
X144959523Y-75047380D01*
X144864285Y-75666428D02*
X144578571Y-76047380D01*
X144578571Y-75380714D02*
X144959523Y-75761666D01*
X142816666Y-76047380D02*
X143150000Y-75571190D01*
X143388095Y-76047380D02*
X143388095Y-75047380D01*
X143007142Y-75047380D01*
X142911904Y-75095000D01*
X142864285Y-75142619D01*
X142816666Y-75237857D01*
X142816666Y-75380714D01*
X142864285Y-75475952D01*
X142911904Y-75523571D01*
X143007142Y-75571190D01*
X143388095Y-75571190D01*
X142483333Y-75380714D02*
X141959523Y-75380714D01*
X142483333Y-76047380D01*
X141959523Y-76047380D01*
X141435714Y-76047380D02*
X141530952Y-75999761D01*
X141578571Y-75952142D01*
X141626190Y-75856904D01*
X141626190Y-75571190D01*
X141578571Y-75475952D01*
X141530952Y-75428333D01*
X141435714Y-75380714D01*
X141292857Y-75380714D01*
X141197619Y-75428333D01*
X141150000Y-75475952D01*
X141102380Y-75571190D01*
X141102380Y-75856904D01*
X141150000Y-75952142D01*
X141197619Y-75999761D01*
X141292857Y-76047380D01*
X141435714Y-76047380D01*
X140673809Y-75380714D02*
X140673809Y-76047380D01*
X140673809Y-75475952D02*
X140626190Y-75428333D01*
X140530952Y-75380714D01*
X140388095Y-75380714D01*
X140292857Y-75428333D01*
X140245238Y-75523571D01*
X140245238Y-76047380D01*
X140388095Y-74999761D02*
X140530952Y-75142619D01*
X139340476Y-75999761D02*
X139435714Y-76047380D01*
X139626190Y-76047380D01*
X139721428Y-75999761D01*
X139769047Y-75952142D01*
X139816666Y-75856904D01*
X139816666Y-75571190D01*
X139769047Y-75475952D01*
X139721428Y-75428333D01*
X139626190Y-75380714D01*
X139435714Y-75380714D01*
X139340476Y-75428333D01*
X138483333Y-76047380D02*
X138483333Y-75523571D01*
X138530952Y-75428333D01*
X138626190Y-75380714D01*
X138816666Y-75380714D01*
X138911904Y-75428333D01*
X138483333Y-75999761D02*
X138578571Y-76047380D01*
X138816666Y-76047380D01*
X138911904Y-75999761D01*
X138959523Y-75904523D01*
X138959523Y-75809285D01*
X138911904Y-75714047D01*
X138816666Y-75666428D01*
X138578571Y-75666428D01*
X138483333Y-75618809D01*
X152578571Y-76990714D02*
X152578571Y-77990714D01*
X152578571Y-77038333D02*
X152483333Y-76990714D01*
X152292857Y-76990714D01*
X152197619Y-77038333D01*
X152150000Y-77085952D01*
X152102380Y-77181190D01*
X152102380Y-77466904D01*
X152150000Y-77562142D01*
X152197619Y-77609761D01*
X152292857Y-77657380D01*
X152483333Y-77657380D01*
X152578571Y-77609761D01*
X151245238Y-77657380D02*
X151245238Y-77133571D01*
X151292857Y-77038333D01*
X151388095Y-76990714D01*
X151578571Y-76990714D01*
X151673809Y-77038333D01*
X151245238Y-77609761D02*
X151340476Y-77657380D01*
X151578571Y-77657380D01*
X151673809Y-77609761D01*
X151721428Y-77514523D01*
X151721428Y-77419285D01*
X151673809Y-77324047D01*
X151578571Y-77276428D01*
X151340476Y-77276428D01*
X151245238Y-77228809D01*
X150911904Y-76990714D02*
X150530952Y-76990714D01*
X150769047Y-76657380D02*
X150769047Y-77514523D01*
X150721428Y-77609761D01*
X150626190Y-77657380D01*
X150530952Y-77657380D01*
X150197619Y-77657380D02*
X150197619Y-76990714D01*
X150197619Y-77181190D02*
X150150000Y-77085952D01*
X150102380Y-77038333D01*
X150007142Y-76990714D01*
X149911904Y-76990714D01*
X149673809Y-76990714D02*
X149435714Y-77657380D01*
X149197619Y-76990714D02*
X149435714Y-77657380D01*
X149530952Y-77895476D01*
X149578571Y-77943095D01*
X149673809Y-77990714D01*
X148816666Y-77657380D02*
X148816666Y-76657380D01*
X148721428Y-77276428D02*
X148435714Y-77657380D01*
X148435714Y-76990714D02*
X148816666Y-77371666D01*
X147530952Y-76657380D02*
X148007142Y-76657380D01*
X148054761Y-77133571D01*
X148007142Y-77085952D01*
X147911904Y-77038333D01*
X147673809Y-77038333D01*
X147578571Y-77085952D01*
X147530952Y-77133571D01*
X147483333Y-77228809D01*
X147483333Y-77466904D01*
X147530952Y-77562142D01*
X147578571Y-77609761D01*
X147673809Y-77657380D01*
X147911904Y-77657380D01*
X148007142Y-77609761D01*
X148054761Y-77562142D01*
X146911904Y-77085952D02*
X147007142Y-77038333D01*
X147054761Y-76990714D01*
X147102380Y-76895476D01*
X147102380Y-76847857D01*
X147054761Y-76752619D01*
X147007142Y-76705000D01*
X146911904Y-76657380D01*
X146721428Y-76657380D01*
X146626190Y-76705000D01*
X146578571Y-76752619D01*
X146530952Y-76847857D01*
X146530952Y-76895476D01*
X146578571Y-76990714D01*
X146626190Y-77038333D01*
X146721428Y-77085952D01*
X146911904Y-77085952D01*
X147007142Y-77133571D01*
X147054761Y-77181190D01*
X147102380Y-77276428D01*
X147102380Y-77466904D01*
X147054761Y-77562142D01*
X147007142Y-77609761D01*
X146911904Y-77657380D01*
X146721428Y-77657380D01*
X146626190Y-77609761D01*
X146578571Y-77562142D01*
X146530952Y-77466904D01*
X146530952Y-77276428D01*
X146578571Y-77181190D01*
X146626190Y-77133571D01*
X146721428Y-77085952D01*
X145578571Y-77657380D02*
X146150000Y-77657380D01*
X145864285Y-77657380D02*
X145864285Y-76657380D01*
X145959523Y-76800238D01*
X146054761Y-76895476D01*
X146150000Y-76943095D01*
X144626190Y-77657380D02*
X145197619Y-77657380D01*
X144911904Y-77657380D02*
X144911904Y-76657380D01*
X145007142Y-76800238D01*
X145102380Y-76895476D01*
X145197619Y-76943095D01*
X143673809Y-77657380D02*
X144245238Y-77657380D01*
X143959523Y-77657380D02*
X143959523Y-76657380D01*
X144054761Y-76800238D01*
X144150000Y-76895476D01*
X144245238Y-76943095D01*
X142626190Y-77181190D02*
X142673809Y-77133571D01*
X142769047Y-77085952D01*
X142864285Y-77085952D01*
X142959523Y-77133571D01*
X143007142Y-77181190D01*
X143054761Y-77276428D01*
X143054761Y-77371666D01*
X143007142Y-77466904D01*
X142959523Y-77514523D01*
X142864285Y-77562142D01*
X142769047Y-77562142D01*
X142673809Y-77514523D01*
X142626190Y-77466904D01*
X142626190Y-77085952D02*
X142626190Y-77466904D01*
X142578571Y-77514523D01*
X142530952Y-77514523D01*
X142435714Y-77466904D01*
X142388095Y-77371666D01*
X142388095Y-77133571D01*
X142483333Y-76990714D01*
X142626190Y-76895476D01*
X142816666Y-76847857D01*
X143007142Y-76895476D01*
X143150000Y-76990714D01*
X143245238Y-77133571D01*
X143292857Y-77324047D01*
X143245238Y-77514523D01*
X143150000Y-77657380D01*
X143007142Y-77752619D01*
X142816666Y-77800238D01*
X142626190Y-77752619D01*
X142483333Y-77657380D01*
X141530952Y-76990714D02*
X141530952Y-77800238D01*
X141578571Y-77895476D01*
X141626190Y-77943095D01*
X141721428Y-77990714D01*
X141864285Y-77990714D01*
X141959523Y-77943095D01*
X141530952Y-77609761D02*
X141626190Y-77657380D01*
X141816666Y-77657380D01*
X141911904Y-77609761D01*
X141959523Y-77562142D01*
X142007142Y-77466904D01*
X142007142Y-77181190D01*
X141959523Y-77085952D01*
X141911904Y-77038333D01*
X141816666Y-76990714D01*
X141626190Y-76990714D01*
X141530952Y-77038333D01*
X141054761Y-77657380D02*
X141054761Y-76990714D01*
X141054761Y-77085952D02*
X141007142Y-77038333D01*
X140911904Y-76990714D01*
X140769047Y-76990714D01*
X140673809Y-77038333D01*
X140626190Y-77133571D01*
X140626190Y-77657380D01*
X140626190Y-77133571D02*
X140578571Y-77038333D01*
X140483333Y-76990714D01*
X140340476Y-76990714D01*
X140245238Y-77038333D01*
X140197619Y-77133571D01*
X140197619Y-77657380D01*
X139292857Y-77657380D02*
X139292857Y-77133571D01*
X139340476Y-77038333D01*
X139435714Y-76990714D01*
X139626190Y-76990714D01*
X139721428Y-77038333D01*
X139292857Y-77609761D02*
X139388095Y-77657380D01*
X139626190Y-77657380D01*
X139721428Y-77609761D01*
X139769047Y-77514523D01*
X139769047Y-77419285D01*
X139721428Y-77324047D01*
X139626190Y-77276428D01*
X139388095Y-77276428D01*
X139292857Y-77228809D01*
X138816666Y-77657380D02*
X138816666Y-76990714D01*
X138816666Y-76657380D02*
X138864285Y-76705000D01*
X138816666Y-76752619D01*
X138769047Y-76705000D01*
X138816666Y-76657380D01*
X138816666Y-76752619D01*
X138197619Y-77657380D02*
X138292857Y-77609761D01*
X138340476Y-77514523D01*
X138340476Y-76657380D01*
X137816666Y-77562142D02*
X137769047Y-77609761D01*
X137816666Y-77657380D01*
X137864285Y-77609761D01*
X137816666Y-77562142D01*
X137816666Y-77657380D01*
X136911904Y-77609761D02*
X137007142Y-77657380D01*
X137197619Y-77657380D01*
X137292857Y-77609761D01*
X137340476Y-77562142D01*
X137388095Y-77466904D01*
X137388095Y-77181190D01*
X137340476Y-77085952D01*
X137292857Y-77038333D01*
X137197619Y-76990714D01*
X137007142Y-76990714D01*
X136911904Y-77038333D01*
X136340476Y-77657380D02*
X136435714Y-77609761D01*
X136483333Y-77562142D01*
X136530952Y-77466904D01*
X136530952Y-77181190D01*
X136483333Y-77085952D01*
X136435714Y-77038333D01*
X136340476Y-76990714D01*
X136197619Y-76990714D01*
X136102380Y-77038333D01*
X136054761Y-77085952D01*
X136007142Y-77181190D01*
X136007142Y-77466904D01*
X136054761Y-77562142D01*
X136102380Y-77609761D01*
X136197619Y-77657380D01*
X136340476Y-77657380D01*
X135578571Y-77657380D02*
X135578571Y-76990714D01*
X135578571Y-77085952D02*
X135530952Y-77038333D01*
X135435714Y-76990714D01*
X135292857Y-76990714D01*
X135197619Y-77038333D01*
X135150000Y-77133571D01*
X135150000Y-77657380D01*
X135150000Y-77133571D02*
X135102380Y-77038333D01*
X135007142Y-76990714D01*
X134864285Y-76990714D01*
X134769047Y-77038333D01*
X134721428Y-77133571D01*
X134721428Y-77657380D01*
X150411904Y-78886428D02*
X149650000Y-78886428D01*
X150030952Y-79267380D02*
X150030952Y-78505476D01*
X148745238Y-78600714D02*
X148745238Y-79267380D01*
X148983333Y-78219761D02*
X149221428Y-78934047D01*
X148602380Y-78934047D01*
X148078571Y-78695952D02*
X148173809Y-78648333D01*
X148221428Y-78600714D01*
X148269047Y-78505476D01*
X148269047Y-78457857D01*
X148221428Y-78362619D01*
X148173809Y-78315000D01*
X148078571Y-78267380D01*
X147888095Y-78267380D01*
X147792857Y-78315000D01*
X147745238Y-78362619D01*
X147697619Y-78457857D01*
X147697619Y-78505476D01*
X147745238Y-78600714D01*
X147792857Y-78648333D01*
X147888095Y-78695952D01*
X148078571Y-78695952D01*
X148173809Y-78743571D01*
X148221428Y-78791190D01*
X148269047Y-78886428D01*
X148269047Y-79076904D01*
X148221428Y-79172142D01*
X148173809Y-79219761D01*
X148078571Y-79267380D01*
X147888095Y-79267380D01*
X147792857Y-79219761D01*
X147745238Y-79172142D01*
X147697619Y-79076904D01*
X147697619Y-78886428D01*
X147745238Y-78791190D01*
X147792857Y-78743571D01*
X147888095Y-78695952D01*
X146602380Y-78267380D02*
X145935714Y-78267380D01*
X146364285Y-79267380D01*
X145650000Y-78267380D02*
X145030952Y-78267380D01*
X145364285Y-78648333D01*
X145221428Y-78648333D01*
X145126190Y-78695952D01*
X145078571Y-78743571D01*
X145030952Y-78838809D01*
X145030952Y-79076904D01*
X145078571Y-79172142D01*
X145126190Y-79219761D01*
X145221428Y-79267380D01*
X145507142Y-79267380D01*
X145602380Y-79219761D01*
X145650000Y-79172142D01*
X144078571Y-79267380D02*
X144650000Y-79267380D01*
X144364285Y-79267380D02*
X144364285Y-78267380D01*
X144459523Y-78410238D01*
X144554761Y-78505476D01*
X144650000Y-78553095D01*
X142983333Y-78267380D02*
X142364285Y-78267380D01*
X142697619Y-78648333D01*
X142554761Y-78648333D01*
X142459523Y-78695952D01*
X142411904Y-78743571D01*
X142364285Y-78838809D01*
X142364285Y-79076904D01*
X142411904Y-79172142D01*
X142459523Y-79219761D01*
X142554761Y-79267380D01*
X142840476Y-79267380D01*
X142935714Y-79219761D01*
X142983333Y-79172142D01*
X142030952Y-78267380D02*
X141364285Y-78267380D01*
X141792857Y-79267380D01*
X140507142Y-78267380D02*
X140983333Y-78267380D01*
X141030952Y-78743571D01*
X140983333Y-78695952D01*
X140888095Y-78648333D01*
X140650000Y-78648333D01*
X140554761Y-78695952D01*
X140507142Y-78743571D01*
X140459523Y-78838809D01*
X140459523Y-79076904D01*
X140507142Y-79172142D01*
X140554761Y-79219761D01*
X140650000Y-79267380D01*
X140888095Y-79267380D01*
X140983333Y-79219761D01*
X141030952Y-79172142D01*
X139078571Y-78267380D02*
X138983333Y-78267380D01*
X138888095Y-78315000D01*
X138840476Y-78362619D01*
X138792857Y-78457857D01*
X138745238Y-78648333D01*
X138745238Y-78886428D01*
X138792857Y-79076904D01*
X138840476Y-79172142D01*
X138888095Y-79219761D01*
X138983333Y-79267380D01*
X139078571Y-79267380D01*
X139173809Y-79219761D01*
X139221428Y-79172142D01*
X139269047Y-79076904D01*
X139316666Y-78886428D01*
X139316666Y-78648333D01*
X139269047Y-78457857D01*
X139221428Y-78362619D01*
X139173809Y-78315000D01*
X139078571Y-78267380D01*
X138269047Y-79267380D02*
X138078571Y-79267380D01*
X137983333Y-79219761D01*
X137935714Y-79172142D01*
X137840476Y-79029285D01*
X137792857Y-78838809D01*
X137792857Y-78457857D01*
X137840476Y-78362619D01*
X137888095Y-78315000D01*
X137983333Y-78267380D01*
X138173809Y-78267380D01*
X138269047Y-78315000D01*
X138316666Y-78362619D01*
X138364285Y-78457857D01*
X138364285Y-78695952D01*
X138316666Y-78791190D01*
X138269047Y-78838809D01*
X138173809Y-78886428D01*
X137983333Y-78886428D01*
X137888095Y-78838809D01*
X137840476Y-78791190D01*
X137792857Y-78695952D01*
X137173809Y-78267380D02*
X137078571Y-78267380D01*
X136983333Y-78315000D01*
X136935714Y-78362619D01*
X136888095Y-78457857D01*
X136840476Y-78648333D01*
X136840476Y-78886428D01*
X136888095Y-79076904D01*
X136935714Y-79172142D01*
X136983333Y-79219761D01*
X137078571Y-79267380D01*
X137173809Y-79267380D01*
X137269047Y-79219761D01*
X137316666Y-79172142D01*
X137364285Y-79076904D01*
X137411904Y-78886428D01*
X137411904Y-78648333D01*
X137364285Y-78457857D01*
X137316666Y-78362619D01*
X137269047Y-78315000D01*
X137173809Y-78267380D01*
X145650000Y-80353571D02*
X145316666Y-80353571D01*
X145173809Y-80877380D02*
X145650000Y-80877380D01*
X145650000Y-79877380D01*
X145173809Y-79877380D01*
X144745238Y-80877380D02*
X144745238Y-79877380D01*
X144507142Y-79877380D01*
X144364285Y-79925000D01*
X144269047Y-80020238D01*
X144221428Y-80115476D01*
X144173809Y-80305952D01*
X144173809Y-80448809D01*
X144221428Y-80639285D01*
X144269047Y-80734523D01*
X144364285Y-80829761D01*
X144507142Y-80877380D01*
X144745238Y-80877380D01*
X143030952Y-80591666D02*
X142554761Y-80591666D01*
X143126190Y-80877380D02*
X142792857Y-79877380D01*
X142459523Y-80877380D01*
X141935714Y-79877380D02*
X141840476Y-79877380D01*
X141745238Y-79925000D01*
X141697619Y-79972619D01*
X141650000Y-80067857D01*
X141602380Y-80258333D01*
X141602380Y-80496428D01*
X141650000Y-80686904D01*
X141697619Y-80782142D01*
X141745238Y-80829761D01*
X141840476Y-80877380D01*
X141935714Y-80877380D01*
X142030952Y-80829761D01*
X142078571Y-80782142D01*
X142126190Y-80686904D01*
X142173809Y-80496428D01*
X142173809Y-80258333D01*
X142126190Y-80067857D01*
X142078571Y-79972619D01*
X142030952Y-79925000D01*
X141935714Y-79877380D01*
X152019047Y-87742380D02*
X151352380Y-87742380D01*
X152019047Y-88742380D01*
X151352380Y-88742380D01*
X150542857Y-88742380D02*
X150542857Y-88218571D01*
X150590476Y-88123333D01*
X150685714Y-88075714D01*
X150876190Y-88075714D01*
X150971428Y-88123333D01*
X150542857Y-88694761D02*
X150638095Y-88742380D01*
X150876190Y-88742380D01*
X150971428Y-88694761D01*
X151019047Y-88599523D01*
X151019047Y-88504285D01*
X150971428Y-88409047D01*
X150876190Y-88361428D01*
X150638095Y-88361428D01*
X150542857Y-88313809D01*
X150066666Y-88075714D02*
X150066666Y-89075714D01*
X150066666Y-88123333D02*
X149971428Y-88075714D01*
X149780952Y-88075714D01*
X149685714Y-88123333D01*
X149638095Y-88170952D01*
X149590476Y-88266190D01*
X149590476Y-88551904D01*
X149638095Y-88647142D01*
X149685714Y-88694761D01*
X149780952Y-88742380D01*
X149971428Y-88742380D01*
X150066666Y-88694761D01*
X149161904Y-88742380D02*
X149161904Y-88075714D01*
X149161904Y-88266190D02*
X149114285Y-88170952D01*
X149066666Y-88123333D01*
X148971428Y-88075714D01*
X148876190Y-88075714D01*
X148400000Y-88742380D02*
X148495238Y-88694761D01*
X148542857Y-88647142D01*
X148590476Y-88551904D01*
X148590476Y-88266190D01*
X148542857Y-88170952D01*
X148495238Y-88123333D01*
X148400000Y-88075714D01*
X148257142Y-88075714D01*
X148161904Y-88123333D01*
X148114285Y-88170952D01*
X148066666Y-88266190D01*
X148066666Y-88551904D01*
X148114285Y-88647142D01*
X148161904Y-88694761D01*
X148257142Y-88742380D01*
X148400000Y-88742380D01*
X147638095Y-88075714D02*
X147638095Y-88932857D01*
X147685714Y-89028095D01*
X147780952Y-89075714D01*
X147828571Y-89075714D01*
X147638095Y-87742380D02*
X147685714Y-87790000D01*
X147638095Y-87837619D01*
X147590476Y-87790000D01*
X147638095Y-87742380D01*
X147638095Y-87837619D01*
X146780952Y-88694761D02*
X146876190Y-88742380D01*
X147066666Y-88742380D01*
X147161904Y-88694761D01*
X147209523Y-88599523D01*
X147209523Y-88218571D01*
X147161904Y-88123333D01*
X147066666Y-88075714D01*
X146876190Y-88075714D01*
X146780952Y-88123333D01*
X146733333Y-88218571D01*
X146733333Y-88313809D01*
X147209523Y-88409047D01*
X146304761Y-88742380D02*
X146304761Y-87742380D01*
X146209523Y-88361428D02*
X145923809Y-88742380D01*
X145923809Y-88075714D02*
X146304761Y-88456666D01*
X145638095Y-88075714D02*
X145257142Y-88075714D01*
X145495238Y-87742380D02*
X145495238Y-88599523D01*
X145447619Y-88694761D01*
X145352380Y-88742380D01*
X145257142Y-88742380D01*
X144780952Y-88742380D02*
X144876190Y-88694761D01*
X144923809Y-88647142D01*
X144971428Y-88551904D01*
X144971428Y-88266190D01*
X144923809Y-88170952D01*
X144876190Y-88123333D01*
X144780952Y-88075714D01*
X144638095Y-88075714D01*
X144542857Y-88123333D01*
X144495238Y-88170952D01*
X144447619Y-88266190D01*
X144447619Y-88551904D01*
X144495238Y-88647142D01*
X144542857Y-88694761D01*
X144638095Y-88742380D01*
X144780952Y-88742380D01*
X144114285Y-88075714D02*
X143923809Y-88742380D01*
X143733333Y-88266190D01*
X143542857Y-88742380D01*
X143352380Y-88075714D01*
X142542857Y-88742380D02*
X142542857Y-88218571D01*
X142590476Y-88123333D01*
X142685714Y-88075714D01*
X142876190Y-88075714D01*
X142971428Y-88123333D01*
X142542857Y-88694761D02*
X142638095Y-88742380D01*
X142876190Y-88742380D01*
X142971428Y-88694761D01*
X143019047Y-88599523D01*
X143019047Y-88504285D01*
X142971428Y-88409047D01*
X142876190Y-88361428D01*
X142638095Y-88361428D01*
X142542857Y-88313809D01*
X142066666Y-88075714D02*
X142066666Y-88742380D01*
X142066666Y-88170952D02*
X142019047Y-88123333D01*
X141923809Y-88075714D01*
X141780952Y-88075714D01*
X141685714Y-88123333D01*
X141638095Y-88218571D01*
X141638095Y-88742380D01*
X140780952Y-88694761D02*
X140876190Y-88742380D01*
X141066666Y-88742380D01*
X141161904Y-88694761D01*
X141209523Y-88599523D01*
X141209523Y-88218571D01*
X141161904Y-88123333D01*
X141066666Y-88075714D01*
X140876190Y-88075714D01*
X140780952Y-88123333D01*
X140733333Y-88218571D01*
X140733333Y-88313809D01*
X141209523Y-88409047D01*
X139638095Y-88075714D02*
X139114285Y-88075714D01*
X139638095Y-88742380D01*
X139114285Y-88742380D01*
X137971428Y-88075714D02*
X137971428Y-89075714D01*
X137971428Y-88123333D02*
X137876190Y-88075714D01*
X137685714Y-88075714D01*
X137590476Y-88123333D01*
X137542857Y-88170952D01*
X137495238Y-88266190D01*
X137495238Y-88551904D01*
X137542857Y-88647142D01*
X137590476Y-88694761D01*
X137685714Y-88742380D01*
X137876190Y-88742380D01*
X137971428Y-88694761D01*
X136638095Y-88742380D02*
X136638095Y-88218571D01*
X136685714Y-88123333D01*
X136780952Y-88075714D01*
X136971428Y-88075714D01*
X137066666Y-88123333D01*
X136638095Y-88694761D02*
X136733333Y-88742380D01*
X136971428Y-88742380D01*
X137066666Y-88694761D01*
X137114285Y-88599523D01*
X137114285Y-88504285D01*
X137066666Y-88409047D01*
X136971428Y-88361428D01*
X136733333Y-88361428D01*
X136638095Y-88313809D01*
X136209523Y-88694761D02*
X136114285Y-88742380D01*
X135923809Y-88742380D01*
X135828571Y-88694761D01*
X135780952Y-88599523D01*
X135780952Y-88551904D01*
X135828571Y-88456666D01*
X135923809Y-88409047D01*
X136066666Y-88409047D01*
X136161904Y-88361428D01*
X136209523Y-88266190D01*
X136209523Y-88218571D01*
X136161904Y-88123333D01*
X136066666Y-88075714D01*
X135923809Y-88075714D01*
X135828571Y-88123333D01*
X135352380Y-88075714D02*
X135352380Y-88932857D01*
X135400000Y-89028095D01*
X135495238Y-89075714D01*
X135542857Y-89075714D01*
X135352380Y-87742380D02*
X135400000Y-87790000D01*
X135352380Y-87837619D01*
X135304761Y-87790000D01*
X135352380Y-87742380D01*
X135352380Y-87837619D01*
X134876190Y-88742380D02*
X134876190Y-88075714D01*
X134876190Y-87742380D02*
X134923809Y-87790000D01*
X134876190Y-87837619D01*
X134828571Y-87790000D01*
X134876190Y-87742380D01*
X134876190Y-87837619D01*
X146733333Y-90447619D02*
X146828571Y-90400000D01*
X146923809Y-90304761D01*
X147066666Y-90161904D01*
X147161904Y-90114285D01*
X147257142Y-90114285D01*
X147209523Y-90352380D02*
X147304761Y-90304761D01*
X147400000Y-90209523D01*
X147447619Y-90019047D01*
X147447619Y-89685714D01*
X147400000Y-89495238D01*
X147304761Y-89400000D01*
X147209523Y-89352380D01*
X147019047Y-89352380D01*
X146923809Y-89400000D01*
X146828571Y-89495238D01*
X146780952Y-89685714D01*
X146780952Y-90019047D01*
X146828571Y-90209523D01*
X146923809Y-90304761D01*
X147019047Y-90352380D01*
X147209523Y-90352380D01*
X145923809Y-89685714D02*
X145923809Y-90352380D01*
X146352380Y-89685714D02*
X146352380Y-90209523D01*
X146304761Y-90304761D01*
X146209523Y-90352380D01*
X146066666Y-90352380D01*
X145971428Y-90304761D01*
X145923809Y-90257142D01*
X145019047Y-90352380D02*
X145019047Y-89828571D01*
X145066666Y-89733333D01*
X145161904Y-89685714D01*
X145352380Y-89685714D01*
X145447619Y-89733333D01*
X145019047Y-90304761D02*
X145114285Y-90352380D01*
X145352380Y-90352380D01*
X145447619Y-90304761D01*
X145495238Y-90209523D01*
X145495238Y-90114285D01*
X145447619Y-90019047D01*
X145352380Y-89971428D01*
X145114285Y-89971428D01*
X145019047Y-89923809D01*
X144590476Y-90304761D02*
X144495238Y-90352380D01*
X144304761Y-90352380D01*
X144209523Y-90304761D01*
X144161904Y-90209523D01*
X144161904Y-90161904D01*
X144209523Y-90066666D01*
X144304761Y-90019047D01*
X144447619Y-90019047D01*
X144542857Y-89971428D01*
X144590476Y-89876190D01*
X144590476Y-89828571D01*
X144542857Y-89733333D01*
X144447619Y-89685714D01*
X144304761Y-89685714D01*
X144209523Y-89733333D01*
X143733333Y-90352380D02*
X143733333Y-89685714D01*
X143733333Y-89352380D02*
X143780952Y-89400000D01*
X143733333Y-89447619D01*
X143685714Y-89400000D01*
X143733333Y-89352380D01*
X143733333Y-89447619D01*
X142495238Y-90352380D02*
X142495238Y-89352380D01*
X142114285Y-89352380D01*
X142019047Y-89400000D01*
X141971428Y-89447619D01*
X141923809Y-89542857D01*
X141923809Y-89685714D01*
X141971428Y-89780952D01*
X142019047Y-89828571D01*
X142114285Y-89876190D01*
X142495238Y-89876190D01*
X141114285Y-90304761D02*
X141209523Y-90352380D01*
X141400000Y-90352380D01*
X141495238Y-90304761D01*
X141542857Y-90209523D01*
X141542857Y-89828571D01*
X141495238Y-89733333D01*
X141400000Y-89685714D01*
X141209523Y-89685714D01*
X141114285Y-89733333D01*
X141066666Y-89828571D01*
X141066666Y-89923809D01*
X141542857Y-90019047D01*
X140209523Y-90352380D02*
X140209523Y-89828571D01*
X140257142Y-89733333D01*
X140352380Y-89685714D01*
X140542857Y-89685714D01*
X140638095Y-89733333D01*
X140209523Y-90304761D02*
X140304761Y-90352380D01*
X140542857Y-90352380D01*
X140638095Y-90304761D01*
X140685714Y-90209523D01*
X140685714Y-90114285D01*
X140638095Y-90019047D01*
X140542857Y-89971428D01*
X140304761Y-89971428D01*
X140209523Y-89923809D01*
X139733333Y-90352380D02*
X139733333Y-89352380D01*
X139638095Y-89971428D02*
X139352380Y-90352380D01*
X139352380Y-89685714D02*
X139733333Y-90066666D01*
X145638095Y-91962380D02*
X145638095Y-90962380D01*
X145257142Y-90962380D01*
X145161904Y-91010000D01*
X145114285Y-91057619D01*
X145066666Y-91152857D01*
X145066666Y-91295714D01*
X145114285Y-91390952D01*
X145161904Y-91438571D01*
X145257142Y-91486190D01*
X145638095Y-91486190D01*
X144495238Y-91962380D02*
X144590476Y-91914761D01*
X144638095Y-91867142D01*
X144685714Y-91771904D01*
X144685714Y-91486190D01*
X144638095Y-91390952D01*
X144590476Y-91343333D01*
X144495238Y-91295714D01*
X144352380Y-91295714D01*
X144257142Y-91343333D01*
X144209523Y-91390952D01*
X144161904Y-91486190D01*
X144161904Y-91771904D01*
X144209523Y-91867142D01*
X144257142Y-91914761D01*
X144352380Y-91962380D01*
X144495238Y-91962380D01*
X143590476Y-91962380D02*
X143685714Y-91914761D01*
X143733333Y-91819523D01*
X143733333Y-90962380D01*
X143257142Y-91914761D02*
X143161904Y-91962380D01*
X142971428Y-91962380D01*
X142876190Y-91914761D01*
X142828571Y-91819523D01*
X142828571Y-91771904D01*
X142876190Y-91676666D01*
X142971428Y-91629047D01*
X143114285Y-91629047D01*
X143209523Y-91581428D01*
X143257142Y-91486190D01*
X143257142Y-91438571D01*
X143209523Y-91343333D01*
X143114285Y-91295714D01*
X142971428Y-91295714D01*
X142876190Y-91343333D01*
X142400000Y-91962380D02*
X142400000Y-90962380D01*
X142304761Y-91581428D02*
X142019047Y-91962380D01*
X142019047Y-91295714D02*
X142400000Y-91676666D01*
X141161904Y-91962380D02*
X141161904Y-91438571D01*
X141209523Y-91343333D01*
X141304761Y-91295714D01*
X141495238Y-91295714D01*
X141590476Y-91343333D01*
X141161904Y-91914761D02*
X141257142Y-91962380D01*
X141495238Y-91962380D01*
X141590476Y-91914761D01*
X141638095Y-91819523D01*
X141638095Y-91724285D01*
X141590476Y-91629047D01*
X141495238Y-91581428D01*
X141257142Y-91581428D01*
X141161904Y-91533809D01*
%TO.C,REF\u002A\u002A*%
X120483333Y-75852380D02*
X120816666Y-75376190D01*
X121054761Y-75852380D02*
X121054761Y-74852380D01*
X120673809Y-74852380D01*
X120578571Y-74900000D01*
X120530952Y-74947619D01*
X120483333Y-75042857D01*
X120483333Y-75185714D01*
X120530952Y-75280952D01*
X120578571Y-75328571D01*
X120673809Y-75376190D01*
X121054761Y-75376190D01*
X120054761Y-75328571D02*
X119721428Y-75328571D01*
X119578571Y-75852380D02*
X120054761Y-75852380D01*
X120054761Y-74852380D01*
X119578571Y-74852380D01*
X118816666Y-75328571D02*
X119150000Y-75328571D01*
X119150000Y-75852380D02*
X119150000Y-74852380D01*
X118673809Y-74852380D01*
X118150000Y-74852380D02*
X118150000Y-75090476D01*
X118388095Y-74995238D02*
X118150000Y-75090476D01*
X117911904Y-74995238D01*
X118292857Y-75280952D02*
X118150000Y-75090476D01*
X118007142Y-75280952D01*
X117388095Y-74852380D02*
X117388095Y-75090476D01*
X117626190Y-74995238D02*
X117388095Y-75090476D01*
X117150000Y-74995238D01*
X117530952Y-75280952D02*
X117388095Y-75090476D01*
X117245238Y-75280952D01*
X120233333Y-92102380D02*
X120566666Y-91626190D01*
X120804761Y-92102380D02*
X120804761Y-91102380D01*
X120423809Y-91102380D01*
X120328571Y-91150000D01*
X120280952Y-91197619D01*
X120233333Y-91292857D01*
X120233333Y-91435714D01*
X120280952Y-91530952D01*
X120328571Y-91578571D01*
X120423809Y-91626190D01*
X120804761Y-91626190D01*
X119804761Y-91578571D02*
X119471428Y-91578571D01*
X119328571Y-92102380D02*
X119804761Y-92102380D01*
X119804761Y-91102380D01*
X119328571Y-91102380D01*
X118566666Y-91578571D02*
X118900000Y-91578571D01*
X118900000Y-92102380D02*
X118900000Y-91102380D01*
X118423809Y-91102380D01*
X117900000Y-91102380D02*
X117900000Y-91340476D01*
X118138095Y-91245238D02*
X117900000Y-91340476D01*
X117661904Y-91245238D01*
X118042857Y-91530952D02*
X117900000Y-91340476D01*
X117757142Y-91530952D01*
X117138095Y-91102380D02*
X117138095Y-91340476D01*
X117376190Y-91245238D02*
X117138095Y-91340476D01*
X116900000Y-91245238D01*
X117280952Y-91530952D02*
X117138095Y-91340476D01*
X116995238Y-91530952D01*
X163333333Y-82043704D02*
X163666666Y-81567514D01*
X163904761Y-82043704D02*
X163904761Y-81043704D01*
X163523809Y-81043704D01*
X163428571Y-81091324D01*
X163380952Y-81138943D01*
X163333333Y-81234181D01*
X163333333Y-81377038D01*
X163380952Y-81472276D01*
X163428571Y-81519895D01*
X163523809Y-81567514D01*
X163904761Y-81567514D01*
X162904761Y-81519895D02*
X162571428Y-81519895D01*
X162428571Y-82043704D02*
X162904761Y-82043704D01*
X162904761Y-81043704D01*
X162428571Y-81043704D01*
X161666666Y-81519895D02*
X162000000Y-81519895D01*
X162000000Y-82043704D02*
X162000000Y-81043704D01*
X161523809Y-81043704D01*
X161000000Y-81043704D02*
X161000000Y-81281800D01*
X161238095Y-81186562D02*
X161000000Y-81281800D01*
X160761904Y-81186562D01*
X161142857Y-81472276D02*
X161000000Y-81281800D01*
X160857142Y-81472276D01*
X160238095Y-81043704D02*
X160238095Y-81281800D01*
X160476190Y-81186562D02*
X160238095Y-81281800D01*
X160000000Y-81186562D01*
X160380952Y-81472276D02*
X160238095Y-81281800D01*
X160095238Y-81472276D01*
G36*
X118995560Y-72473175D02*
G01*
X119007093Y-72490511D01*
X119032500Y-72532162D01*
X119070507Y-72595911D01*
X119119837Y-72679545D01*
X119179213Y-72780849D01*
X119247359Y-72897609D01*
X119323000Y-73027608D01*
X119404859Y-73168633D01*
X119491660Y-73318468D01*
X119582126Y-73474900D01*
X119674982Y-73635713D01*
X119768951Y-73798693D01*
X119862757Y-73961624D01*
X119955124Y-74122292D01*
X120044776Y-74278482D01*
X120130436Y-74427980D01*
X120210828Y-74568571D01*
X120284677Y-74698040D01*
X120350705Y-74814172D01*
X120407637Y-74914752D01*
X120454197Y-74997567D01*
X120489108Y-75060400D01*
X120511094Y-75101037D01*
X120518879Y-75117264D01*
X120518887Y-75117388D01*
X120506333Y-75134416D01*
X120470258Y-75163279D01*
X120414417Y-75201247D01*
X120342561Y-75245587D01*
X120294373Y-75273952D01*
X120225032Y-75313396D01*
X120176734Y-75338254D01*
X120146242Y-75349924D01*
X120130320Y-75349806D01*
X120125732Y-75339297D01*
X120125382Y-75337583D01*
X120112268Y-75316682D01*
X120084000Y-75281139D01*
X120045786Y-75237583D01*
X120028155Y-75218875D01*
X119973482Y-75168512D01*
X119913022Y-75125465D01*
X119843182Y-75088473D01*
X119760370Y-75056273D01*
X119660992Y-75027602D01*
X119541455Y-75001198D01*
X119398166Y-74975800D01*
X119227531Y-74950145D01*
X119031134Y-74921227D01*
X118841274Y-74890173D01*
X118675260Y-74859044D01*
X118529382Y-74826942D01*
X118399927Y-74792969D01*
X118283183Y-74756226D01*
X118175440Y-74715817D01*
X118072985Y-74670843D01*
X117997688Y-74633754D01*
X117925765Y-74594725D01*
X117868886Y-74559882D01*
X117831499Y-74531965D01*
X117818049Y-74513714D01*
X117818446Y-74512370D01*
X117829280Y-74490862D01*
X117853845Y-74445822D01*
X117890685Y-74379772D01*
X117938347Y-74295233D01*
X117995376Y-74194727D01*
X118060318Y-74080776D01*
X118131719Y-73955901D01*
X118208124Y-73822624D01*
X118288079Y-73683467D01*
X118370130Y-73540951D01*
X118452822Y-73397598D01*
X118534701Y-73255930D01*
X118614313Y-73118468D01*
X118690204Y-72987734D01*
X118760919Y-72866250D01*
X118825004Y-72756538D01*
X118881004Y-72661118D01*
X118927466Y-72582514D01*
X118962935Y-72523245D01*
X118985957Y-72485835D01*
X118995077Y-72472805D01*
X118995560Y-72473175D01*
G37*
D11*
X118995560Y-72473175D02*
X119007093Y-72490511D01*
X119032500Y-72532162D01*
X119070507Y-72595911D01*
X119119837Y-72679545D01*
X119179213Y-72780849D01*
X119247359Y-72897609D01*
X119323000Y-73027608D01*
X119404859Y-73168633D01*
X119491660Y-73318468D01*
X119582126Y-73474900D01*
X119674982Y-73635713D01*
X119768951Y-73798693D01*
X119862757Y-73961624D01*
X119955124Y-74122292D01*
X120044776Y-74278482D01*
X120130436Y-74427980D01*
X120210828Y-74568571D01*
X120284677Y-74698040D01*
X120350705Y-74814172D01*
X120407637Y-74914752D01*
X120454197Y-74997567D01*
X120489108Y-75060400D01*
X120511094Y-75101037D01*
X120518879Y-75117264D01*
X120518887Y-75117388D01*
X120506333Y-75134416D01*
X120470258Y-75163279D01*
X120414417Y-75201247D01*
X120342561Y-75245587D01*
X120294373Y-75273952D01*
X120225032Y-75313396D01*
X120176734Y-75338254D01*
X120146242Y-75349924D01*
X120130320Y-75349806D01*
X120125732Y-75339297D01*
X120125382Y-75337583D01*
X120112268Y-75316682D01*
X120084000Y-75281139D01*
X120045786Y-75237583D01*
X120028155Y-75218875D01*
X119973482Y-75168512D01*
X119913022Y-75125465D01*
X119843182Y-75088473D01*
X119760370Y-75056273D01*
X119660992Y-75027602D01*
X119541455Y-75001198D01*
X119398166Y-74975800D01*
X119227531Y-74950145D01*
X119031134Y-74921227D01*
X118841274Y-74890173D01*
X118675260Y-74859044D01*
X118529382Y-74826942D01*
X118399927Y-74792969D01*
X118283183Y-74756226D01*
X118175440Y-74715817D01*
X118072985Y-74670843D01*
X117997688Y-74633754D01*
X117925765Y-74594725D01*
X117868886Y-74559882D01*
X117831499Y-74531965D01*
X117818049Y-74513714D01*
X117818446Y-74512370D01*
X117829280Y-74490862D01*
X117853845Y-74445822D01*
X117890685Y-74379772D01*
X117938347Y-74295233D01*
X117995376Y-74194727D01*
X118060318Y-74080776D01*
X118131719Y-73955901D01*
X118208124Y-73822624D01*
X118288079Y-73683467D01*
X118370130Y-73540951D01*
X118452822Y-73397598D01*
X118534701Y-73255930D01*
X118614313Y-73118468D01*
X118690204Y-72987734D01*
X118760919Y-72866250D01*
X118825004Y-72756538D01*
X118881004Y-72661118D01*
X118927466Y-72582514D01*
X118962935Y-72523245D01*
X118985957Y-72485835D01*
X118995077Y-72472805D01*
X118995560Y-72473175D01*
G36*
X117232836Y-75642363D02*
G01*
X117247023Y-75656032D01*
X117288392Y-75697719D01*
X117343107Y-75754472D01*
X117408510Y-75823397D01*
X117481943Y-75901599D01*
X117560746Y-75986182D01*
X117642260Y-76074253D01*
X117723827Y-76162916D01*
X117802788Y-76249276D01*
X117876483Y-76330439D01*
X117942254Y-76403510D01*
X117997441Y-76465594D01*
X118039386Y-76513795D01*
X118065431Y-76545220D01*
X118072915Y-76556974D01*
X118070346Y-76558272D01*
X118045785Y-76571978D01*
X117997204Y-76599613D01*
X117926652Y-76639998D01*
X117836173Y-76691955D01*
X117727815Y-76754305D01*
X117603624Y-76825871D01*
X117465645Y-76905475D01*
X117315926Y-76991938D01*
X117156513Y-77084083D01*
X116989451Y-77180732D01*
X116927008Y-77216867D01*
X116762883Y-77311806D01*
X116607358Y-77401714D01*
X116462454Y-77485424D01*
X116330195Y-77561771D01*
X116212604Y-77629589D01*
X116111702Y-77687711D01*
X116029513Y-77734971D01*
X115968059Y-77770203D01*
X115929364Y-77792242D01*
X115915449Y-77799920D01*
X115916075Y-77795831D01*
X115927493Y-77772330D01*
X115948493Y-77734786D01*
X115961376Y-77712564D01*
X115988772Y-77665173D01*
X116029087Y-77595377D01*
X116081009Y-77505444D01*
X116143231Y-77397642D01*
X116214443Y-77274240D01*
X116293335Y-77137506D01*
X116378598Y-76989709D01*
X116468924Y-76833117D01*
X116563002Y-76670000D01*
X116655121Y-76510323D01*
X116744680Y-76355187D01*
X116828893Y-76209412D01*
X116906497Y-76075183D01*
X116976225Y-75954685D01*
X117036814Y-75850102D01*
X117086998Y-75763619D01*
X117125512Y-75697421D01*
X117151092Y-75653693D01*
X117162472Y-75634619D01*
X117185820Y-75598201D01*
X117232836Y-75642363D01*
G37*
X117232836Y-75642363D02*
X117247023Y-75656032D01*
X117288392Y-75697719D01*
X117343107Y-75754472D01*
X117408510Y-75823397D01*
X117481943Y-75901599D01*
X117560746Y-75986182D01*
X117642260Y-76074253D01*
X117723827Y-76162916D01*
X117802788Y-76249276D01*
X117876483Y-76330439D01*
X117942254Y-76403510D01*
X117997441Y-76465594D01*
X118039386Y-76513795D01*
X118065431Y-76545220D01*
X118072915Y-76556974D01*
X118070346Y-76558272D01*
X118045785Y-76571978D01*
X117997204Y-76599613D01*
X117926652Y-76639998D01*
X117836173Y-76691955D01*
X117727815Y-76754305D01*
X117603624Y-76825871D01*
X117465645Y-76905475D01*
X117315926Y-76991938D01*
X117156513Y-77084083D01*
X116989451Y-77180732D01*
X116927008Y-77216867D01*
X116762883Y-77311806D01*
X116607358Y-77401714D01*
X116462454Y-77485424D01*
X116330195Y-77561771D01*
X116212604Y-77629589D01*
X116111702Y-77687711D01*
X116029513Y-77734971D01*
X115968059Y-77770203D01*
X115929364Y-77792242D01*
X115915449Y-77799920D01*
X115916075Y-77795831D01*
X115927493Y-77772330D01*
X115948493Y-77734786D01*
X115961376Y-77712564D01*
X115988772Y-77665173D01*
X116029087Y-77595377D01*
X116081009Y-77505444D01*
X116143231Y-77397642D01*
X116214443Y-77274240D01*
X116293335Y-77137506D01*
X116378598Y-76989709D01*
X116468924Y-76833117D01*
X116563002Y-76670000D01*
X116655121Y-76510323D01*
X116744680Y-76355187D01*
X116828893Y-76209412D01*
X116906497Y-76075183D01*
X116976225Y-75954685D01*
X117036814Y-75850102D01*
X117086998Y-75763619D01*
X117125512Y-75697421D01*
X117151092Y-75653693D01*
X117162472Y-75634619D01*
X117185820Y-75598201D01*
X117232836Y-75642363D01*
G36*
X120860047Y-75696040D02*
G01*
X120865802Y-75704625D01*
X120886365Y-75738346D01*
X120920179Y-75795200D01*
X120965950Y-75872968D01*
X121022383Y-75969432D01*
X121088184Y-76082371D01*
X121162058Y-76209568D01*
X121242711Y-76348803D01*
X121328848Y-76497857D01*
X121419175Y-76654512D01*
X121443947Y-76697521D01*
X121541900Y-76867575D01*
X121640509Y-77038754D01*
X121737760Y-77207562D01*
X121831638Y-77370503D01*
X121920131Y-77524082D01*
X122001222Y-77664801D01*
X122072898Y-77789166D01*
X122133144Y-77893680D01*
X122179947Y-77974847D01*
X122401030Y-78358171D01*
X119301076Y-78358171D01*
X119172921Y-78358159D01*
X118867500Y-78358042D01*
X118571432Y-78357802D01*
X118286159Y-78357444D01*
X118013123Y-78356976D01*
X117753765Y-78356403D01*
X117509527Y-78355732D01*
X117281849Y-78354968D01*
X117072174Y-78354119D01*
X116881943Y-78353189D01*
X116712597Y-78352186D01*
X116565578Y-78351115D01*
X116442327Y-78349983D01*
X116344286Y-78348796D01*
X116272896Y-78347559D01*
X116229598Y-78346280D01*
X116215835Y-78344963D01*
X116226054Y-78338304D01*
X116261311Y-78317083D01*
X116319221Y-78282920D01*
X116397430Y-78237171D01*
X116493583Y-78181190D01*
X116605323Y-78116333D01*
X116730296Y-78043954D01*
X116866146Y-77965409D01*
X117010518Y-77882054D01*
X117161056Y-77795243D01*
X117315405Y-77706332D01*
X117471210Y-77616676D01*
X117626116Y-77527629D01*
X117777766Y-77440548D01*
X117923806Y-77356788D01*
X118061881Y-77277703D01*
X118189634Y-77204649D01*
X118304711Y-77138981D01*
X118404756Y-77082054D01*
X118487414Y-77035224D01*
X118550329Y-76999846D01*
X118591147Y-76977274D01*
X118607511Y-76968864D01*
X118618189Y-76970949D01*
X118650358Y-76989908D01*
X118696221Y-77025032D01*
X118750740Y-77072669D01*
X118799845Y-77120356D01*
X118862389Y-77185316D01*
X118932368Y-77261155D01*
X119006196Y-77343698D01*
X119080285Y-77428768D01*
X119151048Y-77512190D01*
X119214898Y-77589789D01*
X119268247Y-77657389D01*
X119307509Y-77710814D01*
X119329095Y-77745889D01*
X119343506Y-77771505D01*
X119382643Y-77824516D01*
X119432958Y-77880912D01*
X119487276Y-77933462D01*
X119538424Y-77974930D01*
X119579227Y-77998086D01*
X119624292Y-78003438D01*
X119684426Y-77988645D01*
X119741579Y-77954726D01*
X119785933Y-77906053D01*
X119793613Y-77893425D01*
X119803392Y-77872743D01*
X119809765Y-77847854D01*
X119813142Y-77813409D01*
X119813931Y-77764062D01*
X119812541Y-77694464D01*
X119809381Y-77599268D01*
X119807116Y-77544202D01*
X119802304Y-77457117D01*
X119796625Y-77380899D01*
X119790608Y-77322249D01*
X119784783Y-77287866D01*
X119770679Y-77248588D01*
X119728866Y-77171240D01*
X119663895Y-77079591D01*
X119574970Y-76972567D01*
X119461300Y-76849090D01*
X119411972Y-76797066D01*
X119354938Y-76735696D01*
X119307864Y-76683665D01*
X119274624Y-76645266D01*
X119259089Y-76624796D01*
X119257492Y-76621546D01*
X119255577Y-76607553D01*
X119265145Y-76592039D01*
X119290115Y-76571659D01*
X119334406Y-76543071D01*
X119401938Y-76502932D01*
X119459347Y-76469422D01*
X119564992Y-76408123D01*
X119648171Y-76360509D01*
X119711678Y-76325033D01*
X119758306Y-76300149D01*
X119790850Y-76284313D01*
X119812104Y-76275977D01*
X119834097Y-76266728D01*
X119846951Y-76254307D01*
X119848154Y-76251378D01*
X119866961Y-76235084D01*
X119901335Y-76214098D01*
X119955719Y-76184810D01*
X119995874Y-76222192D01*
X120010057Y-76237336D01*
X120043055Y-76278493D01*
X120083346Y-76333445D01*
X120125182Y-76394531D01*
X120214336Y-76529489D01*
X120210837Y-76879362D01*
X120207339Y-77229235D01*
X120156393Y-77278733D01*
X120139274Y-77296379D01*
X120084376Y-77375660D01*
X120052330Y-77469935D01*
X120041412Y-77583780D01*
X120044123Y-77644779D01*
X120063261Y-77752378D01*
X120098141Y-77850583D01*
X120145742Y-77929382D01*
X120178795Y-77958114D01*
X120237549Y-77979937D01*
X120304061Y-77982454D01*
X120369816Y-77966828D01*
X120426301Y-77934220D01*
X120465003Y-77885793D01*
X120466270Y-77883168D01*
X120489663Y-77835225D01*
X120514439Y-77785122D01*
X120535472Y-77738087D01*
X120565644Y-77658810D01*
X120598932Y-77561072D01*
X120634179Y-77449228D01*
X120670229Y-77327634D01*
X120705925Y-77200645D01*
X120740110Y-77072616D01*
X120771627Y-76947902D01*
X120799320Y-76830859D01*
X120822032Y-76725843D01*
X120838606Y-76637209D01*
X120847885Y-76569312D01*
X120848714Y-76526507D01*
X120846847Y-76516782D01*
X120828658Y-76467556D01*
X120794907Y-76401699D01*
X120748555Y-76325165D01*
X120730764Y-76297585D01*
X120659282Y-76185122D01*
X120598520Y-76086772D01*
X120549817Y-76004832D01*
X120514514Y-75941605D01*
X120493952Y-75899390D01*
X120489469Y-75880487D01*
X120489988Y-75879820D01*
X120508545Y-75866205D01*
X120548202Y-75841319D01*
X120603526Y-75808476D01*
X120669084Y-75770988D01*
X120674626Y-75767876D01*
X120745807Y-75728712D01*
X120795381Y-75703736D01*
X120827906Y-75691158D01*
X120847942Y-75689189D01*
X120860047Y-75696040D01*
G37*
X120860047Y-75696040D02*
X120865802Y-75704625D01*
X120886365Y-75738346D01*
X120920179Y-75795200D01*
X120965950Y-75872968D01*
X121022383Y-75969432D01*
X121088184Y-76082371D01*
X121162058Y-76209568D01*
X121242711Y-76348803D01*
X121328848Y-76497857D01*
X121419175Y-76654512D01*
X121443947Y-76697521D01*
X121541900Y-76867575D01*
X121640509Y-77038754D01*
X121737760Y-77207562D01*
X121831638Y-77370503D01*
X121920131Y-77524082D01*
X122001222Y-77664801D01*
X122072898Y-77789166D01*
X122133144Y-77893680D01*
X122179947Y-77974847D01*
X122401030Y-78358171D01*
X119301076Y-78358171D01*
X119172921Y-78358159D01*
X118867500Y-78358042D01*
X118571432Y-78357802D01*
X118286159Y-78357444D01*
X118013123Y-78356976D01*
X117753765Y-78356403D01*
X117509527Y-78355732D01*
X117281849Y-78354968D01*
X117072174Y-78354119D01*
X116881943Y-78353189D01*
X116712597Y-78352186D01*
X116565578Y-78351115D01*
X116442327Y-78349983D01*
X116344286Y-78348796D01*
X116272896Y-78347559D01*
X116229598Y-78346280D01*
X116215835Y-78344963D01*
X116226054Y-78338304D01*
X116261311Y-78317083D01*
X116319221Y-78282920D01*
X116397430Y-78237171D01*
X116493583Y-78181190D01*
X116605323Y-78116333D01*
X116730296Y-78043954D01*
X116866146Y-77965409D01*
X117010518Y-77882054D01*
X117161056Y-77795243D01*
X117315405Y-77706332D01*
X117471210Y-77616676D01*
X117626116Y-77527629D01*
X117777766Y-77440548D01*
X117923806Y-77356788D01*
X118061881Y-77277703D01*
X118189634Y-77204649D01*
X118304711Y-77138981D01*
X118404756Y-77082054D01*
X118487414Y-77035224D01*
X118550329Y-76999846D01*
X118591147Y-76977274D01*
X118607511Y-76968864D01*
X118618189Y-76970949D01*
X118650358Y-76989908D01*
X118696221Y-77025032D01*
X118750740Y-77072669D01*
X118799845Y-77120356D01*
X118862389Y-77185316D01*
X118932368Y-77261155D01*
X119006196Y-77343698D01*
X119080285Y-77428768D01*
X119151048Y-77512190D01*
X119214898Y-77589789D01*
X119268247Y-77657389D01*
X119307509Y-77710814D01*
X119329095Y-77745889D01*
X119343506Y-77771505D01*
X119382643Y-77824516D01*
X119432958Y-77880912D01*
X119487276Y-77933462D01*
X119538424Y-77974930D01*
X119579227Y-77998086D01*
X119624292Y-78003438D01*
X119684426Y-77988645D01*
X119741579Y-77954726D01*
X119785933Y-77906053D01*
X119793613Y-77893425D01*
X119803392Y-77872743D01*
X119809765Y-77847854D01*
X119813142Y-77813409D01*
X119813931Y-77764062D01*
X119812541Y-77694464D01*
X119809381Y-77599268D01*
X119807116Y-77544202D01*
X119802304Y-77457117D01*
X119796625Y-77380899D01*
X119790608Y-77322249D01*
X119784783Y-77287866D01*
X119770679Y-77248588D01*
X119728866Y-77171240D01*
X119663895Y-77079591D01*
X119574970Y-76972567D01*
X119461300Y-76849090D01*
X119411972Y-76797066D01*
X119354938Y-76735696D01*
X119307864Y-76683665D01*
X119274624Y-76645266D01*
X119259089Y-76624796D01*
X119257492Y-76621546D01*
X119255577Y-76607553D01*
X119265145Y-76592039D01*
X119290115Y-76571659D01*
X119334406Y-76543071D01*
X119401938Y-76502932D01*
X119459347Y-76469422D01*
X119564992Y-76408123D01*
X119648171Y-76360509D01*
X119711678Y-76325033D01*
X119758306Y-76300149D01*
X119790850Y-76284313D01*
X119812104Y-76275977D01*
X119834097Y-76266728D01*
X119846951Y-76254307D01*
X119848154Y-76251378D01*
X119866961Y-76235084D01*
X119901335Y-76214098D01*
X119955719Y-76184810D01*
X119995874Y-76222192D01*
X120010057Y-76237336D01*
X120043055Y-76278493D01*
X120083346Y-76333445D01*
X120125182Y-76394531D01*
X120214336Y-76529489D01*
X120210837Y-76879362D01*
X120207339Y-77229235D01*
X120156393Y-77278733D01*
X120139274Y-77296379D01*
X120084376Y-77375660D01*
X120052330Y-77469935D01*
X120041412Y-77583780D01*
X120044123Y-77644779D01*
X120063261Y-77752378D01*
X120098141Y-77850583D01*
X120145742Y-77929382D01*
X120178795Y-77958114D01*
X120237549Y-77979937D01*
X120304061Y-77982454D01*
X120369816Y-77966828D01*
X120426301Y-77934220D01*
X120465003Y-77885793D01*
X120466270Y-77883168D01*
X120489663Y-77835225D01*
X120514439Y-77785122D01*
X120535472Y-77738087D01*
X120565644Y-77658810D01*
X120598932Y-77561072D01*
X120634179Y-77449228D01*
X120670229Y-77327634D01*
X120705925Y-77200645D01*
X120740110Y-77072616D01*
X120771627Y-76947902D01*
X120799320Y-76830859D01*
X120822032Y-76725843D01*
X120838606Y-76637209D01*
X120847885Y-76569312D01*
X120848714Y-76526507D01*
X120846847Y-76516782D01*
X120828658Y-76467556D01*
X120794907Y-76401699D01*
X120748555Y-76325165D01*
X120730764Y-76297585D01*
X120659282Y-76185122D01*
X120598520Y-76086772D01*
X120549817Y-76004832D01*
X120514514Y-75941605D01*
X120493952Y-75899390D01*
X120489469Y-75880487D01*
X120489988Y-75879820D01*
X120508545Y-75866205D01*
X120548202Y-75841319D01*
X120603526Y-75808476D01*
X120669084Y-75770988D01*
X120674626Y-75767876D01*
X120745807Y-75728712D01*
X120795381Y-75703736D01*
X120827906Y-75691158D01*
X120847942Y-75689189D01*
X120860047Y-75696040D01*
G36*
X120244445Y-88674083D02*
G01*
X120297141Y-88675526D01*
X120387237Y-88675526D01*
X120387237Y-88825921D01*
X120175228Y-88825921D01*
X120155433Y-89062183D01*
X120152775Y-89094483D01*
X120146583Y-89175340D01*
X120142208Y-89241135D01*
X120140030Y-89285791D01*
X120140426Y-89303233D01*
X120146185Y-89298219D01*
X120172462Y-89272083D01*
X120217888Y-89225758D01*
X120280166Y-89161647D01*
X120356997Y-89082150D01*
X120446080Y-88989669D01*
X120545119Y-88886606D01*
X120651814Y-88775362D01*
X120763865Y-88658338D01*
X120878975Y-88537936D01*
X120994844Y-88416558D01*
X121109174Y-88296604D01*
X121219666Y-88180476D01*
X121324021Y-88070575D01*
X121419940Y-87969304D01*
X121505124Y-87879063D01*
X121577275Y-87802253D01*
X121706194Y-87664539D01*
X121706781Y-87781852D01*
X121707368Y-87899164D01*
X120909286Y-88738485D01*
X120111204Y-89577807D01*
X120095250Y-89769106D01*
X120031419Y-90534528D01*
X120020138Y-90670287D01*
X120006140Y-90840154D01*
X119993220Y-90998505D01*
X119981627Y-91142228D01*
X119971607Y-91268210D01*
X119963407Y-91373338D01*
X119957274Y-91454501D01*
X119953456Y-91508586D01*
X119952199Y-91532480D01*
X119955517Y-91543429D01*
X119970429Y-91567071D01*
X119998709Y-91602703D01*
X120012358Y-91618277D01*
X120041864Y-91651948D01*
X120101399Y-91716428D01*
X120178820Y-91797768D01*
X120275632Y-91897591D01*
X120393342Y-92017520D01*
X120533454Y-92159179D01*
X120625628Y-92252136D01*
X120754119Y-92381795D01*
X120882159Y-92511079D01*
X121005900Y-92636097D01*
X121121492Y-92752959D01*
X121225085Y-92857774D01*
X121312831Y-92946652D01*
X121380881Y-93015702D01*
X121647617Y-93286757D01*
X121599169Y-93337326D01*
X121587743Y-93348719D01*
X121554035Y-93376697D01*
X121530910Y-93387895D01*
X121512805Y-93378335D01*
X121479145Y-93349649D01*
X121438792Y-93308520D01*
X121414230Y-93282542D01*
X121368423Y-93235104D01*
X121303683Y-93168566D01*
X121222295Y-93085263D01*
X121126545Y-92987528D01*
X121018721Y-92877695D01*
X120901108Y-92758096D01*
X120775992Y-92631066D01*
X120645659Y-92498938D01*
X119924831Y-91768732D01*
X119895469Y-92148017D01*
X119889068Y-92228972D01*
X119879721Y-92337793D01*
X119871290Y-92420217D01*
X119863151Y-92480575D01*
X119854679Y-92523200D01*
X119845250Y-92552424D01*
X119834237Y-92572580D01*
X119818825Y-92600750D01*
X119806143Y-92652539D01*
X119802368Y-92727152D01*
X119802368Y-92836447D01*
X119501579Y-92836447D01*
X119501579Y-92602500D01*
X118377832Y-92602500D01*
X118312875Y-92676295D01*
X118295110Y-92695511D01*
X118198831Y-92772712D01*
X118090049Y-92820239D01*
X117972262Y-92836447D01*
X117868327Y-92827854D01*
X117750770Y-92791628D01*
X117650134Y-92726882D01*
X117630520Y-92708378D01*
X117581503Y-92648475D01*
X117538497Y-92578693D01*
X117507658Y-92509909D01*
X117495141Y-92453002D01*
X117494899Y-92444741D01*
X117493099Y-92414471D01*
X117488392Y-92393563D01*
X117478544Y-92383669D01*
X117461323Y-92386444D01*
X117434494Y-92403540D01*
X117395824Y-92436610D01*
X117343080Y-92487307D01*
X117274028Y-92557285D01*
X117186434Y-92648197D01*
X117078065Y-92761695D01*
X117020342Y-92822280D01*
X116923855Y-92923718D01*
X116832568Y-93019889D01*
X116750059Y-93107013D01*
X116679906Y-93181311D01*
X116625685Y-93239003D01*
X116590974Y-93276310D01*
X116496092Y-93379539D01*
X116437449Y-93321052D01*
X116378805Y-93262566D01*
X117104179Y-92502237D01*
X117149916Y-92454263D01*
X117312633Y-92282940D01*
X117452313Y-92134738D01*
X117569373Y-92009198D01*
X117664233Y-91905861D01*
X117731309Y-91830967D01*
X118005947Y-91830967D01*
X118008106Y-91848589D01*
X118008483Y-91850430D01*
X118026480Y-91892171D01*
X118062428Y-91911620D01*
X118173237Y-91953083D01*
X118271963Y-92022156D01*
X118349611Y-92113524D01*
X118402828Y-92223195D01*
X118428258Y-92347173D01*
X118436681Y-92452105D01*
X119698482Y-92452105D01*
X119707280Y-92414506D01*
X119708836Y-92405279D01*
X119713672Y-92364018D01*
X119720271Y-92297304D01*
X119728142Y-92210453D01*
X119736797Y-92108777D01*
X119745743Y-91997592D01*
X119775409Y-91618277D01*
X119375532Y-91212198D01*
X119302187Y-91137961D01*
X119212447Y-91047837D01*
X119131940Y-90967775D01*
X119063488Y-90900542D01*
X119009917Y-90848910D01*
X118974052Y-90815646D01*
X118958715Y-90803521D01*
X118948431Y-90809314D01*
X118917801Y-90835675D01*
X118871705Y-90879709D01*
X118814265Y-90937444D01*
X118749605Y-91004911D01*
X118732738Y-91022804D01*
X118657107Y-91102839D01*
X118566984Y-91197977D01*
X118469155Y-91301067D01*
X118370405Y-91404956D01*
X118277520Y-91502493D01*
X118271940Y-91508346D01*
X118185584Y-91599214D01*
X118119690Y-91669577D01*
X118071651Y-91722783D01*
X118038863Y-91762177D01*
X118018720Y-91791108D01*
X118008616Y-91812922D01*
X118005947Y-91830967D01*
X117731309Y-91830967D01*
X117737311Y-91824266D01*
X117789026Y-91763955D01*
X117819796Y-91724466D01*
X117830040Y-91705342D01*
X117830041Y-91705229D01*
X117828636Y-91681394D01*
X117824531Y-91627967D01*
X117818048Y-91548584D01*
X117809508Y-91446880D01*
X117799233Y-91326493D01*
X117787544Y-91191057D01*
X117774763Y-91044211D01*
X117761212Y-90889590D01*
X117747212Y-90730830D01*
X117733085Y-90571568D01*
X117719153Y-90415441D01*
X117705736Y-90266083D01*
X117693157Y-90127133D01*
X117681738Y-90002226D01*
X117671799Y-89894998D01*
X117663662Y-89809087D01*
X117657650Y-89748127D01*
X117654083Y-89715756D01*
X117646891Y-89661538D01*
X117818573Y-89661538D01*
X117820772Y-89702630D01*
X117825611Y-89771735D01*
X117832848Y-89865870D01*
X117842241Y-89982053D01*
X117853547Y-90117299D01*
X117866523Y-90268627D01*
X117880929Y-90433054D01*
X117896521Y-90607597D01*
X117908710Y-90742206D01*
X117923976Y-90909145D01*
X117938269Y-91063618D01*
X117951305Y-91202649D01*
X117962800Y-91323264D01*
X117972470Y-91422489D01*
X117980030Y-91497348D01*
X117985197Y-91544867D01*
X117987686Y-91562072D01*
X117995236Y-91556742D01*
X118022922Y-91530578D01*
X118067909Y-91485637D01*
X118127100Y-91425191D01*
X118197399Y-91352509D01*
X118275708Y-91270864D01*
X118358930Y-91183526D01*
X118443969Y-91093767D01*
X118527727Y-91004858D01*
X118607107Y-90920070D01*
X118679013Y-90842673D01*
X118740347Y-90775941D01*
X118788013Y-90723142D01*
X118818913Y-90687550D01*
X118827941Y-90675186D01*
X119069574Y-90675186D01*
X119435971Y-91041299D01*
X119525569Y-91130679D01*
X119610013Y-91214320D01*
X119675427Y-91278027D01*
X119724208Y-91323868D01*
X119758753Y-91353909D01*
X119781459Y-91370218D01*
X119794722Y-91374862D01*
X119800940Y-91369908D01*
X119802509Y-91357423D01*
X119803515Y-91337363D01*
X119807140Y-91285712D01*
X119813130Y-91207320D01*
X119821198Y-91105759D01*
X119831055Y-90984602D01*
X119842413Y-90847421D01*
X119854984Y-90697787D01*
X119868480Y-90539271D01*
X119880395Y-90399563D01*
X119892811Y-90252414D01*
X119903943Y-90118805D01*
X119913526Y-90002028D01*
X119921290Y-89905378D01*
X119926969Y-89832145D01*
X119930297Y-89785624D01*
X119931004Y-89769106D01*
X119930444Y-89769416D01*
X119914663Y-89784623D01*
X119879606Y-89820303D01*
X119828363Y-89873220D01*
X119764019Y-89940139D01*
X119689664Y-90017823D01*
X119608385Y-90103036D01*
X119523270Y-90192541D01*
X119437406Y-90283102D01*
X119353881Y-90371483D01*
X119275784Y-90454448D01*
X119206202Y-90528760D01*
X119072141Y-90672434D01*
X119069574Y-90675186D01*
X118827941Y-90675186D01*
X118829951Y-90672434D01*
X118819131Y-90657785D01*
X118787674Y-90622722D01*
X118738503Y-90570265D01*
X118674544Y-90503372D01*
X118598723Y-90424999D01*
X118513967Y-90338103D01*
X118423202Y-90245641D01*
X118329356Y-90150569D01*
X118235354Y-90055845D01*
X118144124Y-89964424D01*
X118058591Y-89879265D01*
X117981683Y-89803323D01*
X117916326Y-89739556D01*
X117865446Y-89690920D01*
X117831970Y-89660372D01*
X117818824Y-89650868D01*
X117818573Y-89661538D01*
X117646891Y-89661538D01*
X117644663Y-89644737D01*
X117279079Y-89644737D01*
X117278870Y-89511052D01*
X117412763Y-89511052D01*
X117521382Y-89511052D01*
X117531045Y-89511044D01*
X117585604Y-89509880D01*
X117615276Y-89504902D01*
X117627571Y-89493477D01*
X117630000Y-89472971D01*
X117619301Y-89442829D01*
X117582654Y-89392687D01*
X117521382Y-89327237D01*
X117412763Y-89219584D01*
X117412763Y-89511052D01*
X117278870Y-89511052D01*
X117278641Y-89364835D01*
X117278204Y-89084934D01*
X116677885Y-88475000D01*
X116077567Y-87865066D01*
X116076744Y-87749337D01*
X116075921Y-87633610D01*
X116795969Y-88363449D01*
X116865564Y-88433944D01*
X117009975Y-88579828D01*
X117133442Y-88703875D01*
X117237560Y-88807611D01*
X117323925Y-88892562D01*
X117394132Y-88960256D01*
X117449776Y-89012219D01*
X117492452Y-89049977D01*
X117523756Y-89075057D01*
X117545282Y-89088986D01*
X117558625Y-89093289D01*
X117581125Y-89091986D01*
X117593756Y-89082468D01*
X117595934Y-89056427D01*
X117590697Y-89005559D01*
X117587086Y-88973533D01*
X117582061Y-88920002D01*
X117580037Y-88884408D01*
X117579045Y-88872138D01*
X117569386Y-88858996D01*
X117542703Y-88854641D01*
X117490902Y-88856542D01*
X117477676Y-88857287D01*
X117424733Y-88856447D01*
X117387073Y-88844813D01*
X117360529Y-88825921D01*
X117736974Y-88825921D01*
X117742504Y-88888585D01*
X117745058Y-88917017D01*
X117753018Y-88994642D01*
X117760861Y-89045769D01*
X117770031Y-89075711D01*
X117781973Y-89089780D01*
X117798129Y-89093289D01*
X117812656Y-89095679D01*
X117822289Y-89107098D01*
X117827672Y-89133645D01*
X117830015Y-89181414D01*
X117830526Y-89256502D01*
X117830526Y-89419715D01*
X117883948Y-89472971D01*
X118014342Y-89602960D01*
X118198158Y-89786206D01*
X118198158Y-89644737D01*
X119200790Y-89644737D01*
X119200790Y-89962237D01*
X118378827Y-89962237D01*
X118657589Y-90250493D01*
X118710984Y-90305548D01*
X118784817Y-90381120D01*
X118848929Y-90446082D01*
X118899961Y-90497060D01*
X118934557Y-90530681D01*
X118949357Y-90543574D01*
X118954983Y-90540018D01*
X118981363Y-90516118D01*
X119026849Y-90471862D01*
X119089012Y-90409708D01*
X119165422Y-90332115D01*
X119253649Y-90241540D01*
X119351262Y-90140441D01*
X119455833Y-90031275D01*
X119560940Y-89920964D01*
X119663974Y-89812246D01*
X119747530Y-89723136D01*
X119813654Y-89651271D01*
X119864387Y-89594289D01*
X119901775Y-89549828D01*
X119927860Y-89515525D01*
X119944687Y-89489017D01*
X119954298Y-89467942D01*
X119958739Y-89449939D01*
X119959916Y-89441169D01*
X119965136Y-89392847D01*
X119971742Y-89321707D01*
X119979008Y-89235861D01*
X119986207Y-89143421D01*
X119988648Y-89111225D01*
X119995701Y-89024236D01*
X120002425Y-88949203D01*
X120008160Y-88893255D01*
X120012240Y-88863520D01*
X120020242Y-88825921D01*
X117736974Y-88825921D01*
X117360529Y-88825921D01*
X117349956Y-88818396D01*
X117343563Y-88812835D01*
X117291285Y-88745487D01*
X117270581Y-88675526D01*
X117723481Y-88675526D01*
X119603306Y-88675526D01*
X119885921Y-88675526D01*
X119961706Y-88675526D01*
X119984412Y-88675366D01*
X120018054Y-88672442D01*
X120027766Y-88662970D01*
X120020227Y-88643267D01*
X120017999Y-88639511D01*
X119992990Y-88610623D01*
X119956757Y-88578563D01*
X119920613Y-88552560D01*
X119895874Y-88541842D01*
X119893650Y-88543536D01*
X119888131Y-88566810D01*
X119885921Y-88608684D01*
X119885921Y-88675526D01*
X119603306Y-88675526D01*
X119598397Y-88555007D01*
X119593487Y-88434488D01*
X119493224Y-88414348D01*
X119442943Y-88405214D01*
X119358975Y-88392425D01*
X119280165Y-88382776D01*
X119167368Y-88371345D01*
X119167368Y-88508421D01*
X118398684Y-88508421D01*
X118398684Y-88387596D01*
X118302599Y-88399065D01*
X118155787Y-88423646D01*
X118008032Y-88468089D01*
X117885814Y-88530062D01*
X117787062Y-88610413D01*
X117723481Y-88675526D01*
X117270581Y-88675526D01*
X117268281Y-88667754D01*
X117275328Y-88586211D01*
X117313203Y-88507434D01*
X117316868Y-88502529D01*
X117367486Y-88460327D01*
X117433474Y-88435365D01*
X117504607Y-88428725D01*
X117570664Y-88441492D01*
X117621419Y-88474750D01*
X117638604Y-88491729D01*
X117655345Y-88495844D01*
X117679318Y-88483115D01*
X117719799Y-88451332D01*
X117732219Y-88441564D01*
X117828111Y-88379911D01*
X117941715Y-88325084D01*
X118034630Y-88291184D01*
X118532368Y-88291184D01*
X118532368Y-88374737D01*
X119033684Y-88374737D01*
X119033684Y-88291184D01*
X118532368Y-88291184D01*
X118034630Y-88291184D01*
X118062453Y-88281033D01*
X118179746Y-88251706D01*
X118283017Y-88241052D01*
X118293988Y-88240968D01*
X118354970Y-88235031D01*
X118388460Y-88218385D01*
X118398684Y-88189133D01*
X118399885Y-88179917D01*
X118406449Y-88171991D01*
X118422391Y-88166189D01*
X118451719Y-88162181D01*
X118498440Y-88159639D01*
X118566559Y-88158230D01*
X118660086Y-88157628D01*
X118783026Y-88157500D01*
X118898219Y-88157725D01*
X118996126Y-88158635D01*
X119067800Y-88160469D01*
X119117001Y-88163466D01*
X119147490Y-88167863D01*
X119163025Y-88173898D01*
X119167368Y-88181808D01*
X119181653Y-88201232D01*
X119221678Y-88213627D01*
X119236997Y-88215796D01*
X119289230Y-88223430D01*
X119358737Y-88233778D01*
X119434737Y-88245240D01*
X119476651Y-88251075D01*
X119537992Y-88257394D01*
X119581273Y-88258918D01*
X119599057Y-88255197D01*
X119602094Y-88252773D01*
X119630130Y-88246785D01*
X119680564Y-88242617D01*
X119745274Y-88241052D01*
X119885921Y-88241052D01*
X119885937Y-88291184D01*
X119885938Y-88295362D01*
X119886595Y-88312572D01*
X119895141Y-88341467D01*
X119919466Y-88365972D01*
X119966918Y-88395143D01*
X120008573Y-88421793D01*
X120071989Y-88472960D01*
X120129460Y-88530400D01*
X120173422Y-88586279D01*
X120196311Y-88632762D01*
X120201919Y-88650674D01*
X120212309Y-88662970D01*
X120215812Y-88667116D01*
X120244445Y-88674083D01*
G37*
X120244445Y-88674083D02*
X120297141Y-88675526D01*
X120387237Y-88675526D01*
X120387237Y-88825921D01*
X120175228Y-88825921D01*
X120155433Y-89062183D01*
X120152775Y-89094483D01*
X120146583Y-89175340D01*
X120142208Y-89241135D01*
X120140030Y-89285791D01*
X120140426Y-89303233D01*
X120146185Y-89298219D01*
X120172462Y-89272083D01*
X120217888Y-89225758D01*
X120280166Y-89161647D01*
X120356997Y-89082150D01*
X120446080Y-88989669D01*
X120545119Y-88886606D01*
X120651814Y-88775362D01*
X120763865Y-88658338D01*
X120878975Y-88537936D01*
X120994844Y-88416558D01*
X121109174Y-88296604D01*
X121219666Y-88180476D01*
X121324021Y-88070575D01*
X121419940Y-87969304D01*
X121505124Y-87879063D01*
X121577275Y-87802253D01*
X121706194Y-87664539D01*
X121706781Y-87781852D01*
X121707368Y-87899164D01*
X120909286Y-88738485D01*
X120111204Y-89577807D01*
X120095250Y-89769106D01*
X120031419Y-90534528D01*
X120020138Y-90670287D01*
X120006140Y-90840154D01*
X119993220Y-90998505D01*
X119981627Y-91142228D01*
X119971607Y-91268210D01*
X119963407Y-91373338D01*
X119957274Y-91454501D01*
X119953456Y-91508586D01*
X119952199Y-91532480D01*
X119955517Y-91543429D01*
X119970429Y-91567071D01*
X119998709Y-91602703D01*
X120012358Y-91618277D01*
X120041864Y-91651948D01*
X120101399Y-91716428D01*
X120178820Y-91797768D01*
X120275632Y-91897591D01*
X120393342Y-92017520D01*
X120533454Y-92159179D01*
X120625628Y-92252136D01*
X120754119Y-92381795D01*
X120882159Y-92511079D01*
X121005900Y-92636097D01*
X121121492Y-92752959D01*
X121225085Y-92857774D01*
X121312831Y-92946652D01*
X121380881Y-93015702D01*
X121647617Y-93286757D01*
X121599169Y-93337326D01*
X121587743Y-93348719D01*
X121554035Y-93376697D01*
X121530910Y-93387895D01*
X121512805Y-93378335D01*
X121479145Y-93349649D01*
X121438792Y-93308520D01*
X121414230Y-93282542D01*
X121368423Y-93235104D01*
X121303683Y-93168566D01*
X121222295Y-93085263D01*
X121126545Y-92987528D01*
X121018721Y-92877695D01*
X120901108Y-92758096D01*
X120775992Y-92631066D01*
X120645659Y-92498938D01*
X119924831Y-91768732D01*
X119895469Y-92148017D01*
X119889068Y-92228972D01*
X119879721Y-92337793D01*
X119871290Y-92420217D01*
X119863151Y-92480575D01*
X119854679Y-92523200D01*
X119845250Y-92552424D01*
X119834237Y-92572580D01*
X119818825Y-92600750D01*
X119806143Y-92652539D01*
X119802368Y-92727152D01*
X119802368Y-92836447D01*
X119501579Y-92836447D01*
X119501579Y-92602500D01*
X118377832Y-92602500D01*
X118312875Y-92676295D01*
X118295110Y-92695511D01*
X118198831Y-92772712D01*
X118090049Y-92820239D01*
X117972262Y-92836447D01*
X117868327Y-92827854D01*
X117750770Y-92791628D01*
X117650134Y-92726882D01*
X117630520Y-92708378D01*
X117581503Y-92648475D01*
X117538497Y-92578693D01*
X117507658Y-92509909D01*
X117495141Y-92453002D01*
X117494899Y-92444741D01*
X117493099Y-92414471D01*
X117488392Y-92393563D01*
X117478544Y-92383669D01*
X117461323Y-92386444D01*
X117434494Y-92403540D01*
X117395824Y-92436610D01*
X117343080Y-92487307D01*
X117274028Y-92557285D01*
X117186434Y-92648197D01*
X117078065Y-92761695D01*
X117020342Y-92822280D01*
X116923855Y-92923718D01*
X116832568Y-93019889D01*
X116750059Y-93107013D01*
X116679906Y-93181311D01*
X116625685Y-93239003D01*
X116590974Y-93276310D01*
X116496092Y-93379539D01*
X116437449Y-93321052D01*
X116378805Y-93262566D01*
X117104179Y-92502237D01*
X117149916Y-92454263D01*
X117312633Y-92282940D01*
X117452313Y-92134738D01*
X117569373Y-92009198D01*
X117664233Y-91905861D01*
X117731309Y-91830967D01*
X118005947Y-91830967D01*
X118008106Y-91848589D01*
X118008483Y-91850430D01*
X118026480Y-91892171D01*
X118062428Y-91911620D01*
X118173237Y-91953083D01*
X118271963Y-92022156D01*
X118349611Y-92113524D01*
X118402828Y-92223195D01*
X118428258Y-92347173D01*
X118436681Y-92452105D01*
X119698482Y-92452105D01*
X119707280Y-92414506D01*
X119708836Y-92405279D01*
X119713672Y-92364018D01*
X119720271Y-92297304D01*
X119728142Y-92210453D01*
X119736797Y-92108777D01*
X119745743Y-91997592D01*
X119775409Y-91618277D01*
X119375532Y-91212198D01*
X119302187Y-91137961D01*
X119212447Y-91047837D01*
X119131940Y-90967775D01*
X119063488Y-90900542D01*
X119009917Y-90848910D01*
X118974052Y-90815646D01*
X118958715Y-90803521D01*
X118948431Y-90809314D01*
X118917801Y-90835675D01*
X118871705Y-90879709D01*
X118814265Y-90937444D01*
X118749605Y-91004911D01*
X118732738Y-91022804D01*
X118657107Y-91102839D01*
X118566984Y-91197977D01*
X118469155Y-91301067D01*
X118370405Y-91404956D01*
X118277520Y-91502493D01*
X118271940Y-91508346D01*
X118185584Y-91599214D01*
X118119690Y-91669577D01*
X118071651Y-91722783D01*
X118038863Y-91762177D01*
X118018720Y-91791108D01*
X118008616Y-91812922D01*
X118005947Y-91830967D01*
X117731309Y-91830967D01*
X117737311Y-91824266D01*
X117789026Y-91763955D01*
X117819796Y-91724466D01*
X117830040Y-91705342D01*
X117830041Y-91705229D01*
X117828636Y-91681394D01*
X117824531Y-91627967D01*
X117818048Y-91548584D01*
X117809508Y-91446880D01*
X117799233Y-91326493D01*
X117787544Y-91191057D01*
X117774763Y-91044211D01*
X117761212Y-90889590D01*
X117747212Y-90730830D01*
X117733085Y-90571568D01*
X117719153Y-90415441D01*
X117705736Y-90266083D01*
X117693157Y-90127133D01*
X117681738Y-90002226D01*
X117671799Y-89894998D01*
X117663662Y-89809087D01*
X117657650Y-89748127D01*
X117654083Y-89715756D01*
X117646891Y-89661538D01*
X117818573Y-89661538D01*
X117820772Y-89702630D01*
X117825611Y-89771735D01*
X117832848Y-89865870D01*
X117842241Y-89982053D01*
X117853547Y-90117299D01*
X117866523Y-90268627D01*
X117880929Y-90433054D01*
X117896521Y-90607597D01*
X117908710Y-90742206D01*
X117923976Y-90909145D01*
X117938269Y-91063618D01*
X117951305Y-91202649D01*
X117962800Y-91323264D01*
X117972470Y-91422489D01*
X117980030Y-91497348D01*
X117985197Y-91544867D01*
X117987686Y-91562072D01*
X117995236Y-91556742D01*
X118022922Y-91530578D01*
X118067909Y-91485637D01*
X118127100Y-91425191D01*
X118197399Y-91352509D01*
X118275708Y-91270864D01*
X118358930Y-91183526D01*
X118443969Y-91093767D01*
X118527727Y-91004858D01*
X118607107Y-90920070D01*
X118679013Y-90842673D01*
X118740347Y-90775941D01*
X118788013Y-90723142D01*
X118818913Y-90687550D01*
X118827941Y-90675186D01*
X119069574Y-90675186D01*
X119435971Y-91041299D01*
X119525569Y-91130679D01*
X119610013Y-91214320D01*
X119675427Y-91278027D01*
X119724208Y-91323868D01*
X119758753Y-91353909D01*
X119781459Y-91370218D01*
X119794722Y-91374862D01*
X119800940Y-91369908D01*
X119802509Y-91357423D01*
X119803515Y-91337363D01*
X119807140Y-91285712D01*
X119813130Y-91207320D01*
X119821198Y-91105759D01*
X119831055Y-90984602D01*
X119842413Y-90847421D01*
X119854984Y-90697787D01*
X119868480Y-90539271D01*
X119880395Y-90399563D01*
X119892811Y-90252414D01*
X119903943Y-90118805D01*
X119913526Y-90002028D01*
X119921290Y-89905378D01*
X119926969Y-89832145D01*
X119930297Y-89785624D01*
X119931004Y-89769106D01*
X119930444Y-89769416D01*
X119914663Y-89784623D01*
X119879606Y-89820303D01*
X119828363Y-89873220D01*
X119764019Y-89940139D01*
X119689664Y-90017823D01*
X119608385Y-90103036D01*
X119523270Y-90192541D01*
X119437406Y-90283102D01*
X119353881Y-90371483D01*
X119275784Y-90454448D01*
X119206202Y-90528760D01*
X119072141Y-90672434D01*
X119069574Y-90675186D01*
X118827941Y-90675186D01*
X118829951Y-90672434D01*
X118819131Y-90657785D01*
X118787674Y-90622722D01*
X118738503Y-90570265D01*
X118674544Y-90503372D01*
X118598723Y-90424999D01*
X118513967Y-90338103D01*
X118423202Y-90245641D01*
X118329356Y-90150569D01*
X118235354Y-90055845D01*
X118144124Y-89964424D01*
X118058591Y-89879265D01*
X117981683Y-89803323D01*
X117916326Y-89739556D01*
X117865446Y-89690920D01*
X117831970Y-89660372D01*
X117818824Y-89650868D01*
X117818573Y-89661538D01*
X117646891Y-89661538D01*
X117644663Y-89644737D01*
X117279079Y-89644737D01*
X117278870Y-89511052D01*
X117412763Y-89511052D01*
X117521382Y-89511052D01*
X117531045Y-89511044D01*
X117585604Y-89509880D01*
X117615276Y-89504902D01*
X117627571Y-89493477D01*
X117630000Y-89472971D01*
X117619301Y-89442829D01*
X117582654Y-89392687D01*
X117521382Y-89327237D01*
X117412763Y-89219584D01*
X117412763Y-89511052D01*
X117278870Y-89511052D01*
X117278641Y-89364835D01*
X117278204Y-89084934D01*
X116677885Y-88475000D01*
X116077567Y-87865066D01*
X116076744Y-87749337D01*
X116075921Y-87633610D01*
X116795969Y-88363449D01*
X116865564Y-88433944D01*
X117009975Y-88579828D01*
X117133442Y-88703875D01*
X117237560Y-88807611D01*
X117323925Y-88892562D01*
X117394132Y-88960256D01*
X117449776Y-89012219D01*
X117492452Y-89049977D01*
X117523756Y-89075057D01*
X117545282Y-89088986D01*
X117558625Y-89093289D01*
X117581125Y-89091986D01*
X117593756Y-89082468D01*
X117595934Y-89056427D01*
X117590697Y-89005559D01*
X117587086Y-88973533D01*
X117582061Y-88920002D01*
X117580037Y-88884408D01*
X117579045Y-88872138D01*
X117569386Y-88858996D01*
X117542703Y-88854641D01*
X117490902Y-88856542D01*
X117477676Y-88857287D01*
X117424733Y-88856447D01*
X117387073Y-88844813D01*
X117360529Y-88825921D01*
X117736974Y-88825921D01*
X117742504Y-88888585D01*
X117745058Y-88917017D01*
X117753018Y-88994642D01*
X117760861Y-89045769D01*
X117770031Y-89075711D01*
X117781973Y-89089780D01*
X117798129Y-89093289D01*
X117812656Y-89095679D01*
X117822289Y-89107098D01*
X117827672Y-89133645D01*
X117830015Y-89181414D01*
X117830526Y-89256502D01*
X117830526Y-89419715D01*
X117883948Y-89472971D01*
X118014342Y-89602960D01*
X118198158Y-89786206D01*
X118198158Y-89644737D01*
X119200790Y-89644737D01*
X119200790Y-89962237D01*
X118378827Y-89962237D01*
X118657589Y-90250493D01*
X118710984Y-90305548D01*
X118784817Y-90381120D01*
X118848929Y-90446082D01*
X118899961Y-90497060D01*
X118934557Y-90530681D01*
X118949357Y-90543574D01*
X118954983Y-90540018D01*
X118981363Y-90516118D01*
X119026849Y-90471862D01*
X119089012Y-90409708D01*
X119165422Y-90332115D01*
X119253649Y-90241540D01*
X119351262Y-90140441D01*
X119455833Y-90031275D01*
X119560940Y-89920964D01*
X119663974Y-89812246D01*
X119747530Y-89723136D01*
X119813654Y-89651271D01*
X119864387Y-89594289D01*
X119901775Y-89549828D01*
X119927860Y-89515525D01*
X119944687Y-89489017D01*
X119954298Y-89467942D01*
X119958739Y-89449939D01*
X119959916Y-89441169D01*
X119965136Y-89392847D01*
X119971742Y-89321707D01*
X119979008Y-89235861D01*
X119986207Y-89143421D01*
X119988648Y-89111225D01*
X119995701Y-89024236D01*
X120002425Y-88949203D01*
X120008160Y-88893255D01*
X120012240Y-88863520D01*
X120020242Y-88825921D01*
X117736974Y-88825921D01*
X117360529Y-88825921D01*
X117349956Y-88818396D01*
X117343563Y-88812835D01*
X117291285Y-88745487D01*
X117270581Y-88675526D01*
X117723481Y-88675526D01*
X119603306Y-88675526D01*
X119885921Y-88675526D01*
X119961706Y-88675526D01*
X119984412Y-88675366D01*
X120018054Y-88672442D01*
X120027766Y-88662970D01*
X120020227Y-88643267D01*
X120017999Y-88639511D01*
X119992990Y-88610623D01*
X119956757Y-88578563D01*
X119920613Y-88552560D01*
X119895874Y-88541842D01*
X119893650Y-88543536D01*
X119888131Y-88566810D01*
X119885921Y-88608684D01*
X119885921Y-88675526D01*
X119603306Y-88675526D01*
X119598397Y-88555007D01*
X119593487Y-88434488D01*
X119493224Y-88414348D01*
X119442943Y-88405214D01*
X119358975Y-88392425D01*
X119280165Y-88382776D01*
X119167368Y-88371345D01*
X119167368Y-88508421D01*
X118398684Y-88508421D01*
X118398684Y-88387596D01*
X118302599Y-88399065D01*
X118155787Y-88423646D01*
X118008032Y-88468089D01*
X117885814Y-88530062D01*
X117787062Y-88610413D01*
X117723481Y-88675526D01*
X117270581Y-88675526D01*
X117268281Y-88667754D01*
X117275328Y-88586211D01*
X117313203Y-88507434D01*
X117316868Y-88502529D01*
X117367486Y-88460327D01*
X117433474Y-88435365D01*
X117504607Y-88428725D01*
X117570664Y-88441492D01*
X117621419Y-88474750D01*
X117638604Y-88491729D01*
X117655345Y-88495844D01*
X117679318Y-88483115D01*
X117719799Y-88451332D01*
X117732219Y-88441564D01*
X117828111Y-88379911D01*
X117941715Y-88325084D01*
X118034630Y-88291184D01*
X118532368Y-88291184D01*
X118532368Y-88374737D01*
X119033684Y-88374737D01*
X119033684Y-88291184D01*
X118532368Y-88291184D01*
X118034630Y-88291184D01*
X118062453Y-88281033D01*
X118179746Y-88251706D01*
X118283017Y-88241052D01*
X118293988Y-88240968D01*
X118354970Y-88235031D01*
X118388460Y-88218385D01*
X118398684Y-88189133D01*
X118399885Y-88179917D01*
X118406449Y-88171991D01*
X118422391Y-88166189D01*
X118451719Y-88162181D01*
X118498440Y-88159639D01*
X118566559Y-88158230D01*
X118660086Y-88157628D01*
X118783026Y-88157500D01*
X118898219Y-88157725D01*
X118996126Y-88158635D01*
X119067800Y-88160469D01*
X119117001Y-88163466D01*
X119147490Y-88167863D01*
X119163025Y-88173898D01*
X119167368Y-88181808D01*
X119181653Y-88201232D01*
X119221678Y-88213627D01*
X119236997Y-88215796D01*
X119289230Y-88223430D01*
X119358737Y-88233778D01*
X119434737Y-88245240D01*
X119476651Y-88251075D01*
X119537992Y-88257394D01*
X119581273Y-88258918D01*
X119599057Y-88255197D01*
X119602094Y-88252773D01*
X119630130Y-88246785D01*
X119680564Y-88242617D01*
X119745274Y-88241052D01*
X119885921Y-88241052D01*
X119885937Y-88291184D01*
X119885938Y-88295362D01*
X119886595Y-88312572D01*
X119895141Y-88341467D01*
X119919466Y-88365972D01*
X119966918Y-88395143D01*
X120008573Y-88421793D01*
X120071989Y-88472960D01*
X120129460Y-88530400D01*
X120173422Y-88586279D01*
X120196311Y-88632762D01*
X120201919Y-88650674D01*
X120212309Y-88662970D01*
X120215812Y-88667116D01*
X120244445Y-88674083D01*
G36*
X121256184Y-95660526D02*
G01*
X116577237Y-95660526D01*
X116577237Y-94507500D01*
X121256184Y-94507500D01*
X121256184Y-95660526D01*
G37*
X121256184Y-95660526D02*
X116577237Y-95660526D01*
X116577237Y-94507500D01*
X121256184Y-94507500D01*
X121256184Y-95660526D01*
G36*
X164711252Y-84004324D02*
G01*
X164711651Y-84036663D01*
X164712929Y-84144779D01*
X164713185Y-84227510D01*
X164711634Y-84287750D01*
X164707490Y-84328397D01*
X164699964Y-84352347D01*
X164688271Y-84362495D01*
X164671624Y-84361738D01*
X164649236Y-84352972D01*
X164620321Y-84339093D01*
X164614142Y-84336132D01*
X164588413Y-84321635D01*
X164574976Y-84304389D01*
X164569834Y-84275632D01*
X164568990Y-84226607D01*
X164568952Y-84138581D01*
X164478276Y-84138581D01*
X164422498Y-84136139D01*
X164378640Y-84126232D01*
X164342218Y-84106210D01*
X164339503Y-84104253D01*
X164302546Y-84071193D01*
X164276826Y-84031255D01*
X164260606Y-83978981D01*
X164252148Y-83908912D01*
X164250083Y-83829754D01*
X164394857Y-83829754D01*
X164394882Y-83843021D01*
X164396261Y-83902908D01*
X164400687Y-83942056D01*
X164409461Y-83967477D01*
X164423886Y-83986181D01*
X164424784Y-83987074D01*
X164460237Y-84011276D01*
X164494596Y-84008891D01*
X164533403Y-83979584D01*
X164542895Y-83969568D01*
X164556876Y-83949032D01*
X164564760Y-83922321D01*
X164568245Y-83881823D01*
X164569029Y-83819927D01*
X164568350Y-83782454D01*
X164560983Y-83714304D01*
X164544168Y-83669654D01*
X164516234Y-83645250D01*
X164475509Y-83637838D01*
X164458350Y-83639418D01*
X164428660Y-83655090D01*
X164409031Y-83690015D01*
X164398188Y-83747225D01*
X164394857Y-83829754D01*
X164250083Y-83829754D01*
X164249714Y-83815591D01*
X164250253Y-83747493D01*
X164252707Y-83695911D01*
X164258158Y-83660140D01*
X164267686Y-83633339D01*
X164282371Y-83608662D01*
X164295852Y-83589804D01*
X164344799Y-83538892D01*
X164400256Y-83511242D01*
X164469928Y-83502489D01*
X164549664Y-83511214D01*
X164618595Y-83542509D01*
X164673113Y-83597705D01*
X164677223Y-83603548D01*
X164686808Y-83619077D01*
X164694151Y-83636822D01*
X164699612Y-83660614D01*
X164703550Y-83694282D01*
X164706323Y-83741657D01*
X164708292Y-83806569D01*
X164708528Y-83819927D01*
X164709815Y-83892848D01*
X164711252Y-84004324D01*
G37*
X164711252Y-84004324D02*
X164711651Y-84036663D01*
X164712929Y-84144779D01*
X164713185Y-84227510D01*
X164711634Y-84287750D01*
X164707490Y-84328397D01*
X164699964Y-84352347D01*
X164688271Y-84362495D01*
X164671624Y-84361738D01*
X164649236Y-84352972D01*
X164620321Y-84339093D01*
X164614142Y-84336132D01*
X164588413Y-84321635D01*
X164574976Y-84304389D01*
X164569834Y-84275632D01*
X164568990Y-84226607D01*
X164568952Y-84138581D01*
X164478276Y-84138581D01*
X164422498Y-84136139D01*
X164378640Y-84126232D01*
X164342218Y-84106210D01*
X164339503Y-84104253D01*
X164302546Y-84071193D01*
X164276826Y-84031255D01*
X164260606Y-83978981D01*
X164252148Y-83908912D01*
X164250083Y-83829754D01*
X164394857Y-83829754D01*
X164394882Y-83843021D01*
X164396261Y-83902908D01*
X164400687Y-83942056D01*
X164409461Y-83967477D01*
X164423886Y-83986181D01*
X164424784Y-83987074D01*
X164460237Y-84011276D01*
X164494596Y-84008891D01*
X164533403Y-83979584D01*
X164542895Y-83969568D01*
X164556876Y-83949032D01*
X164564760Y-83922321D01*
X164568245Y-83881823D01*
X164569029Y-83819927D01*
X164568350Y-83782454D01*
X164560983Y-83714304D01*
X164544168Y-83669654D01*
X164516234Y-83645250D01*
X164475509Y-83637838D01*
X164458350Y-83639418D01*
X164428660Y-83655090D01*
X164409031Y-83690015D01*
X164398188Y-83747225D01*
X164394857Y-83829754D01*
X164250083Y-83829754D01*
X164249714Y-83815591D01*
X164250253Y-83747493D01*
X164252707Y-83695911D01*
X164258158Y-83660140D01*
X164267686Y-83633339D01*
X164282371Y-83608662D01*
X164295852Y-83589804D01*
X164344799Y-83538892D01*
X164400256Y-83511242D01*
X164469928Y-83502489D01*
X164549664Y-83511214D01*
X164618595Y-83542509D01*
X164673113Y-83597705D01*
X164677223Y-83603548D01*
X164686808Y-83619077D01*
X164694151Y-83636822D01*
X164699612Y-83660614D01*
X164703550Y-83694282D01*
X164706323Y-83741657D01*
X164708292Y-83806569D01*
X164708528Y-83819927D01*
X164709815Y-83892848D01*
X164711252Y-84004324D01*
G36*
X159482829Y-83542421D02*
G01*
X159542753Y-83564679D01*
X159567673Y-83581404D01*
X159592910Y-83605367D01*
X159610912Y-83635850D01*
X159622858Y-83677347D01*
X159629930Y-83734356D01*
X159633308Y-83811371D01*
X159634171Y-83912889D01*
X159634002Y-83965351D01*
X159633153Y-84037039D01*
X159631711Y-84094249D01*
X159629814Y-84132133D01*
X159627597Y-84145838D01*
X159613172Y-84141305D01*
X159584054Y-84128994D01*
X159583181Y-84128596D01*
X159568060Y-84120680D01*
X159557891Y-84109819D01*
X159551691Y-84090795D01*
X159548478Y-84058393D01*
X159547270Y-84007395D01*
X159547086Y-83932585D01*
X159546714Y-83885128D01*
X159542750Y-83795939D01*
X159533673Y-83730611D01*
X159518524Y-83685717D01*
X159496345Y-83657831D01*
X159466175Y-83643527D01*
X159461990Y-83642530D01*
X159405480Y-83641751D01*
X159361410Y-83667068D01*
X159330972Y-83717826D01*
X159325544Y-83732499D01*
X159313171Y-83764973D01*
X159306905Y-83779896D01*
X159294036Y-83777840D01*
X159265933Y-83766681D01*
X159239721Y-83748251D01*
X159227771Y-83713422D01*
X159231336Y-83688475D01*
X159253235Y-83637871D01*
X159288644Y-83590452D01*
X159330052Y-83557658D01*
X159347400Y-83550076D01*
X159413089Y-83537400D01*
X159482829Y-83542421D01*
G37*
X159482829Y-83542421D02*
X159542753Y-83564679D01*
X159567673Y-83581404D01*
X159592910Y-83605367D01*
X159610912Y-83635850D01*
X159622858Y-83677347D01*
X159629930Y-83734356D01*
X159633308Y-83811371D01*
X159634171Y-83912889D01*
X159634002Y-83965351D01*
X159633153Y-84037039D01*
X159631711Y-84094249D01*
X159629814Y-84132133D01*
X159627597Y-84145838D01*
X159613172Y-84141305D01*
X159584054Y-84128994D01*
X159583181Y-84128596D01*
X159568060Y-84120680D01*
X159557891Y-84109819D01*
X159551691Y-84090795D01*
X159548478Y-84058393D01*
X159547270Y-84007395D01*
X159547086Y-83932585D01*
X159546714Y-83885128D01*
X159542750Y-83795939D01*
X159533673Y-83730611D01*
X159518524Y-83685717D01*
X159496345Y-83657831D01*
X159466175Y-83643527D01*
X159461990Y-83642530D01*
X159405480Y-83641751D01*
X159361410Y-83667068D01*
X159330972Y-83717826D01*
X159325544Y-83732499D01*
X159313171Y-83764973D01*
X159306905Y-83779896D01*
X159294036Y-83777840D01*
X159265933Y-83766681D01*
X159239721Y-83748251D01*
X159227771Y-83713422D01*
X159231336Y-83688475D01*
X159253235Y-83637871D01*
X159288644Y-83590452D01*
X159330052Y-83557658D01*
X159347400Y-83550076D01*
X159413089Y-83537400D01*
X159482829Y-83542421D01*
G36*
X161229537Y-83897637D02*
G01*
X161221345Y-83974786D01*
X161203519Y-84032600D01*
X161173975Y-84076746D01*
X161130625Y-84112892D01*
X161089332Y-84133787D01*
X161019987Y-84145414D01*
X160950736Y-84132701D01*
X160888145Y-84097269D01*
X160838779Y-84040742D01*
X160832818Y-84030319D01*
X160824945Y-84012057D01*
X160819106Y-83988753D01*
X160814999Y-83956409D01*
X160812325Y-83911028D01*
X160810781Y-83848611D01*
X160810734Y-83843072D01*
X160911429Y-83843072D01*
X160911772Y-83895901D01*
X160913942Y-83943686D01*
X160919307Y-83974533D01*
X160929217Y-83995259D01*
X160945021Y-84012680D01*
X160948724Y-84016029D01*
X160996299Y-84040743D01*
X161046635Y-84038214D01*
X161093517Y-84008612D01*
X161107477Y-83993277D01*
X161119160Y-83972946D01*
X161125686Y-83944838D01*
X161128524Y-83901874D01*
X161129143Y-83836971D01*
X161128837Y-83787446D01*
X161126722Y-83739106D01*
X161121390Y-83707911D01*
X161111460Y-83686971D01*
X161095550Y-83669397D01*
X161086204Y-83661483D01*
X161037776Y-83640167D01*
X160987040Y-83643522D01*
X160942987Y-83671431D01*
X160933504Y-83682497D01*
X160921939Y-83703333D01*
X160915252Y-83732430D01*
X160912173Y-83776705D01*
X160911429Y-83843072D01*
X160810734Y-83843072D01*
X160810067Y-83765161D01*
X160809883Y-83656682D01*
X160809829Y-83319925D01*
X160857000Y-83339686D01*
X160869472Y-83345094D01*
X160889324Y-83357309D01*
X160900687Y-83375806D01*
X160906933Y-83408153D01*
X160911429Y-83461917D01*
X160915535Y-83510190D01*
X160920963Y-83541881D01*
X160928739Y-83553707D01*
X160940457Y-83550536D01*
X160970318Y-83539391D01*
X161023684Y-83536628D01*
X161081093Y-83546949D01*
X161130625Y-83569185D01*
X161157876Y-83589767D01*
X161192865Y-83629924D01*
X161215274Y-83681410D01*
X161227190Y-83749892D01*
X161230542Y-83836971D01*
X161230698Y-83841038D01*
X161229537Y-83897637D01*
G37*
X161229537Y-83897637D02*
X161221345Y-83974786D01*
X161203519Y-84032600D01*
X161173975Y-84076746D01*
X161130625Y-84112892D01*
X161089332Y-84133787D01*
X161019987Y-84145414D01*
X160950736Y-84132701D01*
X160888145Y-84097269D01*
X160838779Y-84040742D01*
X160832818Y-84030319D01*
X160824945Y-84012057D01*
X160819106Y-83988753D01*
X160814999Y-83956409D01*
X160812325Y-83911028D01*
X160810781Y-83848611D01*
X160810734Y-83843072D01*
X160911429Y-83843072D01*
X160911772Y-83895901D01*
X160913942Y-83943686D01*
X160919307Y-83974533D01*
X160929217Y-83995259D01*
X160945021Y-84012680D01*
X160948724Y-84016029D01*
X160996299Y-84040743D01*
X161046635Y-84038214D01*
X161093517Y-84008612D01*
X161107477Y-83993277D01*
X161119160Y-83972946D01*
X161125686Y-83944838D01*
X161128524Y-83901874D01*
X161129143Y-83836971D01*
X161128837Y-83787446D01*
X161126722Y-83739106D01*
X161121390Y-83707911D01*
X161111460Y-83686971D01*
X161095550Y-83669397D01*
X161086204Y-83661483D01*
X161037776Y-83640167D01*
X160987040Y-83643522D01*
X160942987Y-83671431D01*
X160933504Y-83682497D01*
X160921939Y-83703333D01*
X160915252Y-83732430D01*
X160912173Y-83776705D01*
X160911429Y-83843072D01*
X160810734Y-83843072D01*
X160810067Y-83765161D01*
X160809883Y-83656682D01*
X160809829Y-83319925D01*
X160857000Y-83339686D01*
X160869472Y-83345094D01*
X160889324Y-83357309D01*
X160900687Y-83375806D01*
X160906933Y-83408153D01*
X160911429Y-83461917D01*
X160915535Y-83510190D01*
X160920963Y-83541881D01*
X160928739Y-83553707D01*
X160940457Y-83550536D01*
X160970318Y-83539391D01*
X161023684Y-83536628D01*
X161081093Y-83546949D01*
X161130625Y-83569185D01*
X161157876Y-83589767D01*
X161192865Y-83629924D01*
X161215274Y-83681410D01*
X161227190Y-83749892D01*
X161230542Y-83836971D01*
X161230698Y-83841038D01*
X161229537Y-83897637D01*
G36*
X162678543Y-83340768D02*
G01*
X162725714Y-83360666D01*
X162725714Y-83757833D01*
X162725519Y-83860822D01*
X162724998Y-83953465D01*
X162724199Y-84032024D01*
X162723172Y-84092763D01*
X162721963Y-84131947D01*
X162720623Y-84145838D01*
X162720099Y-84145792D01*
X162702287Y-84140744D01*
X162669823Y-84129904D01*
X162624114Y-84113970D01*
X162624114Y-83909497D01*
X162623824Y-83829156D01*
X162622474Y-83770886D01*
X162619369Y-83731233D01*
X162613812Y-83704942D01*
X162605107Y-83686760D01*
X162592556Y-83671431D01*
X162583999Y-83663279D01*
X162537728Y-83640699D01*
X162486728Y-83642699D01*
X162439993Y-83669397D01*
X162433189Y-83676022D01*
X162422293Y-83689780D01*
X162414836Y-83707966D01*
X162410169Y-83735501D01*
X162407642Y-83777305D01*
X162406602Y-83838297D01*
X162406400Y-83923397D01*
X162406303Y-83966558D01*
X162405674Y-84037548D01*
X162404556Y-84094400D01*
X162403063Y-84132152D01*
X162401309Y-84145838D01*
X162400785Y-84145792D01*
X162382973Y-84140744D01*
X162350509Y-84129904D01*
X162304800Y-84113970D01*
X162304823Y-83908561D01*
X162304857Y-83890275D01*
X162306778Y-83794950D01*
X162312678Y-83722867D01*
X162324001Y-83669137D01*
X162342187Y-83628873D01*
X162368679Y-83597185D01*
X162404918Y-83569185D01*
X162440263Y-83551657D01*
X162496773Y-83538109D01*
X162552356Y-83537339D01*
X162595086Y-83550519D01*
X162598298Y-83552339D01*
X162608205Y-83552144D01*
X162614975Y-83536896D01*
X162619861Y-83501937D01*
X162624114Y-83442613D01*
X162631371Y-83320871D01*
X162678543Y-83340768D01*
G37*
X162678543Y-83340768D02*
X162725714Y-83360666D01*
X162725714Y-83757833D01*
X162725519Y-83860822D01*
X162724998Y-83953465D01*
X162724199Y-84032024D01*
X162723172Y-84092763D01*
X162721963Y-84131947D01*
X162720623Y-84145838D01*
X162720099Y-84145792D01*
X162702287Y-84140744D01*
X162669823Y-84129904D01*
X162624114Y-84113970D01*
X162624114Y-83909497D01*
X162623824Y-83829156D01*
X162622474Y-83770886D01*
X162619369Y-83731233D01*
X162613812Y-83704942D01*
X162605107Y-83686760D01*
X162592556Y-83671431D01*
X162583999Y-83663279D01*
X162537728Y-83640699D01*
X162486728Y-83642699D01*
X162439993Y-83669397D01*
X162433189Y-83676022D01*
X162422293Y-83689780D01*
X162414836Y-83707966D01*
X162410169Y-83735501D01*
X162407642Y-83777305D01*
X162406602Y-83838297D01*
X162406400Y-83923397D01*
X162406303Y-83966558D01*
X162405674Y-84037548D01*
X162404556Y-84094400D01*
X162403063Y-84132152D01*
X162401309Y-84145838D01*
X162400785Y-84145792D01*
X162382973Y-84140744D01*
X162350509Y-84129904D01*
X162304800Y-84113970D01*
X162304823Y-83908561D01*
X162304857Y-83890275D01*
X162306778Y-83794950D01*
X162312678Y-83722867D01*
X162324001Y-83669137D01*
X162342187Y-83628873D01*
X162368679Y-83597185D01*
X162404918Y-83569185D01*
X162440263Y-83551657D01*
X162496773Y-83538109D01*
X162552356Y-83537339D01*
X162595086Y-83550519D01*
X162598298Y-83552339D01*
X162608205Y-83552144D01*
X162614975Y-83536896D01*
X162619861Y-83501937D01*
X162624114Y-83442613D01*
X162631371Y-83320871D01*
X162678543Y-83340768D01*
G36*
X160653941Y-83540606D02*
G01*
X160685774Y-83553082D01*
X160722743Y-83569926D01*
X160722743Y-84056520D01*
X160676812Y-84102451D01*
X160666320Y-84112751D01*
X160637255Y-84135644D01*
X160607943Y-84143059D01*
X160564326Y-84139645D01*
X160546568Y-84137438D01*
X160500767Y-84132769D01*
X160468743Y-84130909D01*
X160459244Y-84131193D01*
X160420274Y-84134272D01*
X160373160Y-84139645D01*
X160358085Y-84141492D01*
X160320110Y-84142217D01*
X160292325Y-84130753D01*
X160260674Y-84102451D01*
X160214743Y-84056520D01*
X160214743Y-83796379D01*
X160215101Y-83719504D01*
X160216216Y-83646210D01*
X160217952Y-83588174D01*
X160220167Y-83549987D01*
X160222721Y-83536238D01*
X160223256Y-83536275D01*
X160241808Y-83543117D01*
X160273153Y-83558192D01*
X160315608Y-83580146D01*
X160319604Y-83808564D01*
X160323600Y-84036981D01*
X160410686Y-84036981D01*
X160414657Y-83786610D01*
X160415916Y-83718551D01*
X160417718Y-83645806D01*
X160419671Y-83588054D01*
X160421612Y-83549972D01*
X160423377Y-83536238D01*
X160423885Y-83536286D01*
X160441482Y-83541339D01*
X160473834Y-83552173D01*
X160519543Y-83568107D01*
X160519765Y-83788030D01*
X160519988Y-83826233D01*
X160521531Y-83900470D01*
X160524292Y-83962469D01*
X160527977Y-84006632D01*
X160532292Y-84027365D01*
X160547732Y-84038455D01*
X160579241Y-84041880D01*
X160613886Y-84036981D01*
X160617857Y-83786610D01*
X160619278Y-83722987D01*
X160622225Y-83647680D01*
X160626079Y-83588610D01*
X160630542Y-83550042D01*
X160635317Y-83536238D01*
X160653941Y-83540606D01*
G37*
X160653941Y-83540606D02*
X160685774Y-83553082D01*
X160722743Y-83569926D01*
X160722743Y-84056520D01*
X160676812Y-84102451D01*
X160666320Y-84112751D01*
X160637255Y-84135644D01*
X160607943Y-84143059D01*
X160564326Y-84139645D01*
X160546568Y-84137438D01*
X160500767Y-84132769D01*
X160468743Y-84130909D01*
X160459244Y-84131193D01*
X160420274Y-84134272D01*
X160373160Y-84139645D01*
X160358085Y-84141492D01*
X160320110Y-84142217D01*
X160292325Y-84130753D01*
X160260674Y-84102451D01*
X160214743Y-84056520D01*
X160214743Y-83796379D01*
X160215101Y-83719504D01*
X160216216Y-83646210D01*
X160217952Y-83588174D01*
X160220167Y-83549987D01*
X160222721Y-83536238D01*
X160223256Y-83536275D01*
X160241808Y-83543117D01*
X160273153Y-83558192D01*
X160315608Y-83580146D01*
X160319604Y-83808564D01*
X160323600Y-84036981D01*
X160410686Y-84036981D01*
X160414657Y-83786610D01*
X160415916Y-83718551D01*
X160417718Y-83645806D01*
X160419671Y-83588054D01*
X160421612Y-83549972D01*
X160423377Y-83536238D01*
X160423885Y-83536286D01*
X160441482Y-83541339D01*
X160473834Y-83552173D01*
X160519543Y-83568107D01*
X160519765Y-83788030D01*
X160519988Y-83826233D01*
X160521531Y-83900470D01*
X160524292Y-83962469D01*
X160527977Y-84006632D01*
X160532292Y-84027365D01*
X160547732Y-84038455D01*
X160579241Y-84041880D01*
X160613886Y-84036981D01*
X160617857Y-83786610D01*
X160619278Y-83722987D01*
X160622225Y-83647680D01*
X160626079Y-83588610D01*
X160630542Y-83550042D01*
X160635317Y-83536238D01*
X160653941Y-83540606D01*
G36*
X159967495Y-83537544D02*
G01*
X159998599Y-83545445D01*
X160027559Y-83565141D01*
X160064831Y-83601808D01*
X160088801Y-83627702D01*
X160113770Y-83661321D01*
X160125031Y-83692830D01*
X160127657Y-83732809D01*
X160127657Y-83798241D01*
X160083035Y-83775166D01*
X160047673Y-83747048D01*
X160023451Y-83709172D01*
X160019291Y-83698875D01*
X159987594Y-83658961D01*
X159943554Y-83638948D01*
X159895531Y-83640896D01*
X159851886Y-83666867D01*
X159833420Y-83687959D01*
X159822663Y-83714943D01*
X159834178Y-83738958D01*
X159869981Y-83763115D01*
X159932090Y-83790523D01*
X159941515Y-83794309D01*
X159998058Y-83819083D01*
X160046580Y-83843513D01*
X160077451Y-83862810D01*
X160108371Y-83897277D01*
X160128927Y-83952281D01*
X160126744Y-84011307D01*
X160102424Y-84067169D01*
X160056568Y-84112679D01*
X160019438Y-84132051D01*
X159947711Y-84145616D01*
X159907852Y-84143786D01*
X159870953Y-84133892D01*
X159856797Y-84113130D01*
X159862091Y-84078937D01*
X159863631Y-84074416D01*
X159875842Y-84050440D01*
X159896174Y-84041366D01*
X159934908Y-84041973D01*
X159962257Y-84042798D01*
X159994257Y-84035716D01*
X160016182Y-84014543D01*
X160028670Y-83988476D01*
X160030062Y-83961169D01*
X160029998Y-83961009D01*
X160013807Y-83946254D01*
X159979155Y-83924781D01*
X159934321Y-83900782D01*
X159887582Y-83878449D01*
X159847217Y-83861976D01*
X159821504Y-83855553D01*
X159817679Y-83861842D01*
X159812864Y-83891439D01*
X159809566Y-83939771D01*
X159808343Y-84000696D01*
X159808058Y-84042866D01*
X159806718Y-84095977D01*
X159804528Y-84132349D01*
X159801769Y-84145838D01*
X159787344Y-84141305D01*
X159758226Y-84128994D01*
X159721257Y-84112150D01*
X159721257Y-83896045D01*
X159721493Y-83840651D01*
X159723729Y-83756531D01*
X159729423Y-83694124D01*
X159739903Y-83648682D01*
X159756497Y-83615457D01*
X159780531Y-83589702D01*
X159813333Y-83566668D01*
X159855124Y-83547659D01*
X159932287Y-83536238D01*
X159967495Y-83537544D01*
G37*
X159967495Y-83537544D02*
X159998599Y-83545445D01*
X160027559Y-83565141D01*
X160064831Y-83601808D01*
X160088801Y-83627702D01*
X160113770Y-83661321D01*
X160125031Y-83692830D01*
X160127657Y-83732809D01*
X160127657Y-83798241D01*
X160083035Y-83775166D01*
X160047673Y-83747048D01*
X160023451Y-83709172D01*
X160019291Y-83698875D01*
X159987594Y-83658961D01*
X159943554Y-83638948D01*
X159895531Y-83640896D01*
X159851886Y-83666867D01*
X159833420Y-83687959D01*
X159822663Y-83714943D01*
X159834178Y-83738958D01*
X159869981Y-83763115D01*
X159932090Y-83790523D01*
X159941515Y-83794309D01*
X159998058Y-83819083D01*
X160046580Y-83843513D01*
X160077451Y-83862810D01*
X160108371Y-83897277D01*
X160128927Y-83952281D01*
X160126744Y-84011307D01*
X160102424Y-84067169D01*
X160056568Y-84112679D01*
X160019438Y-84132051D01*
X159947711Y-84145616D01*
X159907852Y-84143786D01*
X159870953Y-84133892D01*
X159856797Y-84113130D01*
X159862091Y-84078937D01*
X159863631Y-84074416D01*
X159875842Y-84050440D01*
X159896174Y-84041366D01*
X159934908Y-84041973D01*
X159962257Y-84042798D01*
X159994257Y-84035716D01*
X160016182Y-84014543D01*
X160028670Y-83988476D01*
X160030062Y-83961169D01*
X160029998Y-83961009D01*
X160013807Y-83946254D01*
X159979155Y-83924781D01*
X159934321Y-83900782D01*
X159887582Y-83878449D01*
X159847217Y-83861976D01*
X159821504Y-83855553D01*
X159817679Y-83861842D01*
X159812864Y-83891439D01*
X159809566Y-83939771D01*
X159808343Y-84000696D01*
X159808058Y-84042866D01*
X159806718Y-84095977D01*
X159804528Y-84132349D01*
X159801769Y-84145838D01*
X159787344Y-84141305D01*
X159758226Y-84128994D01*
X159721257Y-84112150D01*
X159721257Y-83896045D01*
X159721493Y-83840651D01*
X159723729Y-83756531D01*
X159729423Y-83694124D01*
X159739903Y-83648682D01*
X159756497Y-83615457D01*
X159780531Y-83589702D01*
X159813333Y-83566668D01*
X159855124Y-83547659D01*
X159932287Y-83536238D01*
X159967495Y-83537544D01*
G36*
X164157684Y-83895402D02*
G01*
X164155078Y-83918711D01*
X164135660Y-84001676D01*
X164100573Y-84064772D01*
X164047212Y-84113132D01*
X164044196Y-84115128D01*
X163976362Y-84143509D01*
X163905535Y-84146035D01*
X163837289Y-84124421D01*
X163777196Y-84080386D01*
X163730829Y-84015646D01*
X163730050Y-84014085D01*
X163714643Y-83973882D01*
X163703357Y-83928190D01*
X163697370Y-83885296D01*
X163697861Y-83853484D01*
X163706007Y-83841038D01*
X163713244Y-83841795D01*
X163747851Y-83855559D01*
X163787078Y-83880870D01*
X163820448Y-83910169D01*
X163837483Y-83935896D01*
X163855192Y-83970795D01*
X163891485Y-84002536D01*
X163933630Y-84015210D01*
X163949077Y-84011545D01*
X163979569Y-83993098D01*
X164006128Y-83967490D01*
X164017486Y-83944258D01*
X164017482Y-83944172D01*
X164004596Y-83933503D01*
X163970241Y-83914257D01*
X163919593Y-83889137D01*
X163857829Y-83860848D01*
X163857489Y-83860698D01*
X163790388Y-83830822D01*
X163745411Y-83809297D01*
X163718145Y-83792761D01*
X163704178Y-83777855D01*
X163699097Y-83761217D01*
X163698490Y-83739486D01*
X163702712Y-83698337D01*
X163846000Y-83698337D01*
X163860791Y-83711273D01*
X163897644Y-83730657D01*
X163898725Y-83731205D01*
X163942205Y-83751911D01*
X163981102Y-83768429D01*
X164005778Y-83775417D01*
X164015676Y-83766077D01*
X164017486Y-83734072D01*
X164009966Y-83694239D01*
X163983897Y-83658041D01*
X163946154Y-83639274D01*
X163904077Y-83641169D01*
X163865005Y-83666956D01*
X163849647Y-83684775D01*
X163846000Y-83698337D01*
X163702712Y-83698337D01*
X163703833Y-83687410D01*
X163730251Y-83616659D01*
X163774473Y-83561059D01*
X163831697Y-83522563D01*
X163897120Y-83503121D01*
X163965937Y-83504683D01*
X164033347Y-83529202D01*
X164094544Y-83578626D01*
X164128450Y-83627536D01*
X164152806Y-83697351D01*
X164156767Y-83734072D01*
X164162299Y-83785379D01*
X164157684Y-83895402D01*
G37*
X164157684Y-83895402D02*
X164155078Y-83918711D01*
X164135660Y-84001676D01*
X164100573Y-84064772D01*
X164047212Y-84113132D01*
X164044196Y-84115128D01*
X163976362Y-84143509D01*
X163905535Y-84146035D01*
X163837289Y-84124421D01*
X163777196Y-84080386D01*
X163730829Y-84015646D01*
X163730050Y-84014085D01*
X163714643Y-83973882D01*
X163703357Y-83928190D01*
X163697370Y-83885296D01*
X163697861Y-83853484D01*
X163706007Y-83841038D01*
X163713244Y-83841795D01*
X163747851Y-83855559D01*
X163787078Y-83880870D01*
X163820448Y-83910169D01*
X163837483Y-83935896D01*
X163855192Y-83970795D01*
X163891485Y-84002536D01*
X163933630Y-84015210D01*
X163949077Y-84011545D01*
X163979569Y-83993098D01*
X164006128Y-83967490D01*
X164017486Y-83944258D01*
X164017482Y-83944172D01*
X164004596Y-83933503D01*
X163970241Y-83914257D01*
X163919593Y-83889137D01*
X163857829Y-83860848D01*
X163857489Y-83860698D01*
X163790388Y-83830822D01*
X163745411Y-83809297D01*
X163718145Y-83792761D01*
X163704178Y-83777855D01*
X163699097Y-83761217D01*
X163698490Y-83739486D01*
X163702712Y-83698337D01*
X163846000Y-83698337D01*
X163860791Y-83711273D01*
X163897644Y-83730657D01*
X163898725Y-83731205D01*
X163942205Y-83751911D01*
X163981102Y-83768429D01*
X164005778Y-83775417D01*
X164015676Y-83766077D01*
X164017486Y-83734072D01*
X164009966Y-83694239D01*
X163983897Y-83658041D01*
X163946154Y-83639274D01*
X163904077Y-83641169D01*
X163865005Y-83666956D01*
X163849647Y-83684775D01*
X163846000Y-83698337D01*
X163702712Y-83698337D01*
X163703833Y-83687410D01*
X163730251Y-83616659D01*
X163774473Y-83561059D01*
X163831697Y-83522563D01*
X163897120Y-83503121D01*
X163965937Y-83504683D01*
X164033347Y-83529202D01*
X164094544Y-83578626D01*
X164128450Y-83627536D01*
X164152806Y-83697351D01*
X164156767Y-83734072D01*
X164162299Y-83785379D01*
X164157684Y-83895402D01*
G36*
X159140307Y-83882629D02*
G01*
X159136762Y-83958845D01*
X159127483Y-84014618D01*
X159110375Y-84055937D01*
X159083344Y-84088791D01*
X159044292Y-84119170D01*
X159019445Y-84132984D01*
X158979615Y-84142289D01*
X158923665Y-84141554D01*
X158892385Y-84138607D01*
X158854653Y-84129607D01*
X158824494Y-84110044D01*
X158789408Y-84073591D01*
X158784720Y-84068267D01*
X158753177Y-84027293D01*
X158738128Y-83991607D01*
X158734286Y-83949290D01*
X158734286Y-83887103D01*
X158777742Y-83903506D01*
X158809424Y-83922680D01*
X158836962Y-83967671D01*
X158842711Y-83982076D01*
X158874855Y-84022870D01*
X158918611Y-84043405D01*
X158966254Y-84041559D01*
X159010057Y-84015210D01*
X159025111Y-83998779D01*
X159038763Y-83973991D01*
X159034493Y-83951468D01*
X159009916Y-83928288D01*
X158962651Y-83901526D01*
X158890314Y-83868258D01*
X158741543Y-83803140D01*
X158737595Y-83738632D01*
X158739079Y-83697544D01*
X158836010Y-83697544D01*
X158843368Y-83722981D01*
X158876848Y-83750138D01*
X158937614Y-83781038D01*
X158947669Y-83785514D01*
X158995751Y-83806341D01*
X159031726Y-83820989D01*
X159048444Y-83826524D01*
X159050977Y-83822450D01*
X159051993Y-83797571D01*
X159048369Y-83757581D01*
X159039242Y-83718476D01*
X159010773Y-83669208D01*
X158969678Y-83641446D01*
X158920590Y-83637688D01*
X158868144Y-83660433D01*
X158853609Y-83671805D01*
X158836010Y-83697544D01*
X158739079Y-83697544D01*
X158739338Y-83690388D01*
X158761281Y-83629420D01*
X158788979Y-83595821D01*
X158846405Y-83558290D01*
X158914527Y-83539330D01*
X158984947Y-83540831D01*
X159049267Y-83564679D01*
X159063426Y-83573837D01*
X159095904Y-83602173D01*
X159118116Y-83638019D01*
X159131804Y-83686708D01*
X159138715Y-83753573D01*
X159139628Y-83797571D01*
X159140590Y-83843946D01*
X159140307Y-83882629D01*
G37*
X159140307Y-83882629D02*
X159136762Y-83958845D01*
X159127483Y-84014618D01*
X159110375Y-84055937D01*
X159083344Y-84088791D01*
X159044292Y-84119170D01*
X159019445Y-84132984D01*
X158979615Y-84142289D01*
X158923665Y-84141554D01*
X158892385Y-84138607D01*
X158854653Y-84129607D01*
X158824494Y-84110044D01*
X158789408Y-84073591D01*
X158784720Y-84068267D01*
X158753177Y-84027293D01*
X158738128Y-83991607D01*
X158734286Y-83949290D01*
X158734286Y-83887103D01*
X158777742Y-83903506D01*
X158809424Y-83922680D01*
X158836962Y-83967671D01*
X158842711Y-83982076D01*
X158874855Y-84022870D01*
X158918611Y-84043405D01*
X158966254Y-84041559D01*
X159010057Y-84015210D01*
X159025111Y-83998779D01*
X159038763Y-83973991D01*
X159034493Y-83951468D01*
X159009916Y-83928288D01*
X158962651Y-83901526D01*
X158890314Y-83868258D01*
X158741543Y-83803140D01*
X158737595Y-83738632D01*
X158739079Y-83697544D01*
X158836010Y-83697544D01*
X158843368Y-83722981D01*
X158876848Y-83750138D01*
X158937614Y-83781038D01*
X158947669Y-83785514D01*
X158995751Y-83806341D01*
X159031726Y-83820989D01*
X159048444Y-83826524D01*
X159050977Y-83822450D01*
X159051993Y-83797571D01*
X159048369Y-83757581D01*
X159039242Y-83718476D01*
X159010773Y-83669208D01*
X158969678Y-83641446D01*
X158920590Y-83637688D01*
X158868144Y-83660433D01*
X158853609Y-83671805D01*
X158836010Y-83697544D01*
X158739079Y-83697544D01*
X158739338Y-83690388D01*
X158761281Y-83629420D01*
X158788979Y-83595821D01*
X158846405Y-83558290D01*
X158914527Y-83539330D01*
X158984947Y-83540831D01*
X159049267Y-83564679D01*
X159063426Y-83573837D01*
X159095904Y-83602173D01*
X159118116Y-83638019D01*
X159131804Y-83686708D01*
X159138715Y-83753573D01*
X159139628Y-83797571D01*
X159140590Y-83843946D01*
X159140307Y-83882629D01*
G36*
X163431020Y-83509146D02*
G01*
X163498810Y-83541004D01*
X163554366Y-83596094D01*
X163565881Y-83613340D01*
X163575432Y-83632886D01*
X163582206Y-83657522D01*
X163586819Y-83692035D01*
X163589888Y-83741213D01*
X163592029Y-83809843D01*
X163593859Y-83902713D01*
X163598404Y-84160331D01*
X163560225Y-84145815D01*
X163525268Y-84132480D01*
X163499097Y-84119647D01*
X163482013Y-84103104D01*
X163472086Y-84077789D01*
X163467386Y-84038640D01*
X163465982Y-83980592D01*
X163465943Y-83898585D01*
X163465744Y-83833219D01*
X163464559Y-83770497D01*
X163461729Y-83727658D01*
X163456609Y-83699544D01*
X163448553Y-83680999D01*
X163436914Y-83666867D01*
X163408303Y-83646924D01*
X163360239Y-83639407D01*
X163312688Y-83658403D01*
X163309550Y-83660835D01*
X163299769Y-83672072D01*
X163292553Y-83690094D01*
X163287299Y-83719350D01*
X163283402Y-83764286D01*
X163280256Y-83829352D01*
X163277257Y-83918994D01*
X163270000Y-84159021D01*
X163208314Y-84131368D01*
X163146629Y-84103715D01*
X163146629Y-83884570D01*
X163146884Y-83825035D01*
X163149086Y-83742216D01*
X163154661Y-83680551D01*
X163164941Y-83635072D01*
X163181258Y-83600808D01*
X163204943Y-83572790D01*
X163237328Y-83546047D01*
X163283907Y-83519104D01*
X163357287Y-83501515D01*
X163431020Y-83509146D01*
G37*
X163431020Y-83509146D02*
X163498810Y-83541004D01*
X163554366Y-83596094D01*
X163565881Y-83613340D01*
X163575432Y-83632886D01*
X163582206Y-83657522D01*
X163586819Y-83692035D01*
X163589888Y-83741213D01*
X163592029Y-83809843D01*
X163593859Y-83902713D01*
X163598404Y-84160331D01*
X163560225Y-84145815D01*
X163525268Y-84132480D01*
X163499097Y-84119647D01*
X163482013Y-84103104D01*
X163472086Y-84077789D01*
X163467386Y-84038640D01*
X163465982Y-83980592D01*
X163465943Y-83898585D01*
X163465744Y-83833219D01*
X163464559Y-83770497D01*
X163461729Y-83727658D01*
X163456609Y-83699544D01*
X163448553Y-83680999D01*
X163436914Y-83666867D01*
X163408303Y-83646924D01*
X163360239Y-83639407D01*
X163312688Y-83658403D01*
X163309550Y-83660835D01*
X163299769Y-83672072D01*
X163292553Y-83690094D01*
X163287299Y-83719350D01*
X163283402Y-83764286D01*
X163280256Y-83829352D01*
X163277257Y-83918994D01*
X163270000Y-84159021D01*
X163208314Y-84131368D01*
X163146629Y-84103715D01*
X163146629Y-83884570D01*
X163146884Y-83825035D01*
X163149086Y-83742216D01*
X163154661Y-83680551D01*
X163164941Y-83635072D01*
X163181258Y-83600808D01*
X163204943Y-83572790D01*
X163237328Y-83546047D01*
X163283907Y-83519104D01*
X163357287Y-83501515D01*
X163431020Y-83509146D01*
G36*
X162113933Y-78833695D02*
G01*
X162189856Y-78834189D01*
X162244491Y-78835459D01*
X162281500Y-78837871D01*
X162304547Y-78841791D01*
X162317296Y-78847586D01*
X162323411Y-78855623D01*
X162326556Y-78866267D01*
X162326646Y-78866649D01*
X162331814Y-78891671D01*
X162341209Y-78940005D01*
X162353867Y-79006584D01*
X162368825Y-79086338D01*
X162385119Y-79174199D01*
X162386448Y-79181388D01*
X162402691Y-79266664D01*
X162417805Y-79341566D01*
X162430808Y-79401543D01*
X162440715Y-79442041D01*
X162446544Y-79458508D01*
X162446575Y-79458534D01*
X162464943Y-79467644D01*
X162502640Y-79482781D01*
X162551543Y-79500682D01*
X162554297Y-79501654D01*
X162616817Y-79525283D01*
X162689543Y-79554919D01*
X162757294Y-79584386D01*
X162868703Y-79634950D01*
X163115399Y-79466484D01*
X163132775Y-79454635D01*
X163207202Y-79404271D01*
X163273614Y-79359936D01*
X163328039Y-79324240D01*
X163366506Y-79299795D01*
X163385042Y-79289213D01*
X163397743Y-79291639D01*
X163426579Y-79310434D01*
X163471143Y-79347654D01*
X163532670Y-79404344D01*
X163612398Y-79481551D01*
X163619532Y-79488579D01*
X163682796Y-79551546D01*
X163738990Y-79608592D01*
X163784677Y-79656141D01*
X163816414Y-79690621D01*
X163830764Y-79708455D01*
X163830810Y-79708541D01*
X163832633Y-79722119D01*
X163825910Y-79744144D01*
X163808946Y-79777628D01*
X163780044Y-79825585D01*
X163737508Y-79891028D01*
X163679644Y-79976969D01*
X163669783Y-79991475D01*
X163619913Y-80064959D01*
X163575905Y-80130011D01*
X163540380Y-80182741D01*
X163515959Y-80219260D01*
X163505264Y-80235680D01*
X163504458Y-80239158D01*
X163509518Y-80265109D01*
X163524677Y-80307483D01*
X163547463Y-80359052D01*
X163578429Y-80426494D01*
X163613004Y-80506519D01*
X163642366Y-80578953D01*
X163649645Y-80597701D01*
X163668710Y-80645570D01*
X163682715Y-80678920D01*
X163689041Y-80691438D01*
X163696025Y-80692374D01*
X163727413Y-80697785D01*
X163778787Y-80707130D01*
X163844802Y-80719393D01*
X163920113Y-80733556D01*
X163999375Y-80748604D01*
X164077243Y-80763519D01*
X164148370Y-80777285D01*
X164207412Y-80788886D01*
X164249022Y-80797304D01*
X164267857Y-80801523D01*
X164270980Y-80802713D01*
X164278591Y-80809129D01*
X164284254Y-80822789D01*
X164288251Y-80847323D01*
X164290866Y-80886362D01*
X164292384Y-80943537D01*
X164293086Y-81022478D01*
X164293257Y-81126816D01*
X164293257Y-81444123D01*
X164217057Y-81459163D01*
X164207840Y-81460966D01*
X164158891Y-81470304D01*
X164091205Y-81482993D01*
X164012478Y-81497597D01*
X163930400Y-81512679D01*
X163898078Y-81518746D01*
X163825855Y-81533505D01*
X163765666Y-81547461D01*
X163723040Y-81559276D01*
X163703510Y-81567611D01*
X163694660Y-81581229D01*
X163678548Y-81617262D01*
X163662065Y-81663896D01*
X163656263Y-81681358D01*
X163634906Y-81738682D01*
X163607359Y-81806525D01*
X163578107Y-81873679D01*
X163562463Y-81908754D01*
X163540174Y-81961146D01*
X163524857Y-82000382D01*
X163519162Y-82019887D01*
X163519478Y-82021360D01*
X163530281Y-82042053D01*
X163554638Y-82081989D01*
X163590081Y-82137296D01*
X163634136Y-82204105D01*
X163684332Y-82278544D01*
X163849501Y-82520947D01*
X163632503Y-82738307D01*
X163611516Y-82759223D01*
X163547342Y-82821829D01*
X163489990Y-82875819D01*
X163442820Y-82918150D01*
X163409192Y-82945781D01*
X163392467Y-82955667D01*
X163374303Y-82948145D01*
X163336265Y-82926551D01*
X163282726Y-82893475D01*
X163217884Y-82851515D01*
X163145940Y-82803267D01*
X163075275Y-82755615D01*
X163011526Y-82713652D01*
X162959513Y-82680489D01*
X162923279Y-82658702D01*
X162906867Y-82650867D01*
X162905905Y-82650938D01*
X162884103Y-82658662D01*
X162845440Y-82676647D01*
X162797612Y-82701337D01*
X162797110Y-82701608D01*
X162733587Y-82733423D01*
X162690060Y-82748966D01*
X162663052Y-82749009D01*
X162649090Y-82734324D01*
X162643180Y-82719868D01*
X162627229Y-82681155D01*
X162602660Y-82621640D01*
X162570779Y-82544489D01*
X162532893Y-82452865D01*
X162490310Y-82349931D01*
X162444337Y-82238850D01*
X162402667Y-82137796D01*
X162360268Y-82034104D01*
X162322756Y-81941443D01*
X162291388Y-81862966D01*
X162267425Y-81801824D01*
X162252123Y-81761167D01*
X162246743Y-81744149D01*
X162257018Y-81728543D01*
X162285563Y-81702486D01*
X162325971Y-81672211D01*
X162422979Y-81593008D01*
X162509793Y-81491799D01*
X162573322Y-81380440D01*
X162613177Y-81262217D01*
X162628965Y-81140419D01*
X162620296Y-81018334D01*
X162586778Y-80899249D01*
X162528021Y-80786453D01*
X162443632Y-80683235D01*
X162399631Y-80643037D01*
X162294211Y-80571962D01*
X162181410Y-80525625D01*
X162064525Y-80502923D01*
X161946853Y-80502752D01*
X161831690Y-80524011D01*
X161722335Y-80565594D01*
X161622083Y-80626400D01*
X161534233Y-80705325D01*
X161462080Y-80801265D01*
X161408922Y-80913119D01*
X161378057Y-81039781D01*
X161372392Y-81100831D01*
X161380185Y-81233100D01*
X161415284Y-81358590D01*
X161476649Y-81475083D01*
X161563243Y-81580363D01*
X161674029Y-81672211D01*
X161712931Y-81701254D01*
X161742104Y-81727596D01*
X161753257Y-81744124D01*
X161748810Y-81758533D01*
X161734378Y-81797139D01*
X161711173Y-81856525D01*
X161680452Y-81933539D01*
X161643474Y-82025027D01*
X161601496Y-82127840D01*
X161555778Y-82238826D01*
X161514178Y-82339396D01*
X161471222Y-82443271D01*
X161432829Y-82536143D01*
X161400305Y-82614849D01*
X161374958Y-82676223D01*
X161358095Y-82717103D01*
X161351025Y-82734324D01*
X161350943Y-82734528D01*
X161336798Y-82749069D01*
X161309659Y-82748903D01*
X161266023Y-82733251D01*
X161202388Y-82701337D01*
X161197379Y-82698650D01*
X161150125Y-82674474D01*
X161112811Y-82657361D01*
X161093133Y-82650867D01*
X161077005Y-82658542D01*
X161040959Y-82680195D01*
X160989092Y-82713252D01*
X160925445Y-82755134D01*
X160854060Y-82803267D01*
X160783724Y-82850455D01*
X160718670Y-82892591D01*
X160664820Y-82925902D01*
X160626374Y-82947793D01*
X160607534Y-82955667D01*
X160604325Y-82954667D01*
X160581954Y-82938908D01*
X160543733Y-82906357D01*
X160493021Y-82860057D01*
X160433181Y-82803050D01*
X160367571Y-82738382D01*
X160150648Y-82521096D01*
X160319601Y-82272577D01*
X160488553Y-82024057D01*
X160437183Y-81912919D01*
X160437031Y-81912590D01*
X160406183Y-81841742D01*
X160374661Y-81762847D01*
X160349266Y-81692924D01*
X160345423Y-81681646D01*
X160326047Y-81629291D01*
X160308574Y-81588607D01*
X160296388Y-81567611D01*
X160291426Y-81564646D01*
X160261634Y-81554699D01*
X160211047Y-81541829D01*
X160145194Y-81527377D01*
X160069600Y-81512679D01*
X160046957Y-81508534D01*
X159965038Y-81493440D01*
X159888600Y-81479223D01*
X159825337Y-81467319D01*
X159782943Y-81459163D01*
X159706743Y-81444123D01*
X159706743Y-81126816D01*
X159706760Y-81087800D01*
X159707082Y-80992616D01*
X159708033Y-80921579D01*
X159709896Y-80871058D01*
X159712955Y-80837422D01*
X159717494Y-80817042D01*
X159723795Y-80806286D01*
X159732143Y-80801523D01*
X159740224Y-80799594D01*
X159773172Y-80792769D01*
X159825736Y-80782346D01*
X159892569Y-80769342D01*
X159968328Y-80754773D01*
X160047665Y-80739657D01*
X160125237Y-80725009D01*
X160195698Y-80711847D01*
X160253702Y-80701187D01*
X160293904Y-80694045D01*
X160310959Y-80691438D01*
X160312112Y-80689865D01*
X160321385Y-80669443D01*
X160337432Y-80630369D01*
X160357635Y-80578953D01*
X160385672Y-80509677D01*
X160420186Y-80429614D01*
X160452538Y-80359052D01*
X160459952Y-80343213D01*
X160480755Y-80293617D01*
X160493219Y-80255362D01*
X160494863Y-80235680D01*
X160494015Y-80234286D01*
X160480548Y-80213744D01*
X160453850Y-80173840D01*
X160416539Y-80118464D01*
X160371234Y-80051501D01*
X160320552Y-79976841D01*
X160263445Y-79892016D01*
X160220607Y-79826124D01*
X160191460Y-79777802D01*
X160174317Y-79744057D01*
X160167495Y-79721896D01*
X160169306Y-79708326D01*
X160169915Y-79707308D01*
X160186297Y-79687534D01*
X160219695Y-79651499D01*
X160266671Y-79602775D01*
X160323786Y-79544936D01*
X160387603Y-79481551D01*
X160453802Y-79417229D01*
X160518648Y-79356771D01*
X160566299Y-79315979D01*
X160597990Y-79293808D01*
X160614958Y-79289213D01*
X160617175Y-79290245D01*
X160640524Y-79304161D01*
X160682912Y-79331354D01*
X160740369Y-79369213D01*
X160808923Y-79415127D01*
X160884601Y-79466484D01*
X161131298Y-79634950D01*
X161242706Y-79584386D01*
X161245943Y-79582921D01*
X161314343Y-79553289D01*
X161386907Y-79523817D01*
X161448457Y-79500682D01*
X161448729Y-79500586D01*
X161497595Y-79482691D01*
X161535212Y-79467577D01*
X161553457Y-79458508D01*
X161553752Y-79458179D01*
X161559946Y-79439606D01*
X161570139Y-79397369D01*
X161583348Y-79336020D01*
X161598590Y-79260113D01*
X161614881Y-79174199D01*
X161615449Y-79171120D01*
X161631713Y-79083452D01*
X161646608Y-79004065D01*
X161659171Y-78938025D01*
X161668438Y-78890403D01*
X161673444Y-78866267D01*
X161673764Y-78864929D01*
X161677060Y-78854597D01*
X161683738Y-78846830D01*
X161697462Y-78841264D01*
X161721895Y-78837531D01*
X161760702Y-78835266D01*
X161817546Y-78834102D01*
X161896090Y-78833672D01*
X162000000Y-78833610D01*
X162013056Y-78833610D01*
X162113933Y-78833695D01*
G37*
X162113933Y-78833695D02*
X162189856Y-78834189D01*
X162244491Y-78835459D01*
X162281500Y-78837871D01*
X162304547Y-78841791D01*
X162317296Y-78847586D01*
X162323411Y-78855623D01*
X162326556Y-78866267D01*
X162326646Y-78866649D01*
X162331814Y-78891671D01*
X162341209Y-78940005D01*
X162353867Y-79006584D01*
X162368825Y-79086338D01*
X162385119Y-79174199D01*
X162386448Y-79181388D01*
X162402691Y-79266664D01*
X162417805Y-79341566D01*
X162430808Y-79401543D01*
X162440715Y-79442041D01*
X162446544Y-79458508D01*
X162446575Y-79458534D01*
X162464943Y-79467644D01*
X162502640Y-79482781D01*
X162551543Y-79500682D01*
X162554297Y-79501654D01*
X162616817Y-79525283D01*
X162689543Y-79554919D01*
X162757294Y-79584386D01*
X162868703Y-79634950D01*
X163115399Y-79466484D01*
X163132775Y-79454635D01*
X163207202Y-79404271D01*
X163273614Y-79359936D01*
X163328039Y-79324240D01*
X163366506Y-79299795D01*
X163385042Y-79289213D01*
X163397743Y-79291639D01*
X163426579Y-79310434D01*
X163471143Y-79347654D01*
X163532670Y-79404344D01*
X163612398Y-79481551D01*
X163619532Y-79488579D01*
X163682796Y-79551546D01*
X163738990Y-79608592D01*
X163784677Y-79656141D01*
X163816414Y-79690621D01*
X163830764Y-79708455D01*
X163830810Y-79708541D01*
X163832633Y-79722119D01*
X163825910Y-79744144D01*
X163808946Y-79777628D01*
X163780044Y-79825585D01*
X163737508Y-79891028D01*
X163679644Y-79976969D01*
X163669783Y-79991475D01*
X163619913Y-80064959D01*
X163575905Y-80130011D01*
X163540380Y-80182741D01*
X163515959Y-80219260D01*
X163505264Y-80235680D01*
X163504458Y-80239158D01*
X163509518Y-80265109D01*
X163524677Y-80307483D01*
X163547463Y-80359052D01*
X163578429Y-80426494D01*
X163613004Y-80506519D01*
X163642366Y-80578953D01*
X163649645Y-80597701D01*
X163668710Y-80645570D01*
X163682715Y-80678920D01*
X163689041Y-80691438D01*
X163696025Y-80692374D01*
X163727413Y-80697785D01*
X163778787Y-80707130D01*
X163844802Y-80719393D01*
X163920113Y-80733556D01*
X163999375Y-80748604D01*
X164077243Y-80763519D01*
X164148370Y-80777285D01*
X164207412Y-80788886D01*
X164249022Y-80797304D01*
X164267857Y-80801523D01*
X164270980Y-80802713D01*
X164278591Y-80809129D01*
X164284254Y-80822789D01*
X164288251Y-80847323D01*
X164290866Y-80886362D01*
X164292384Y-80943537D01*
X164293086Y-81022478D01*
X164293257Y-81126816D01*
X164293257Y-81444123D01*
X164217057Y-81459163D01*
X164207840Y-81460966D01*
X164158891Y-81470304D01*
X164091205Y-81482993D01*
X164012478Y-81497597D01*
X163930400Y-81512679D01*
X163898078Y-81518746D01*
X163825855Y-81533505D01*
X163765666Y-81547461D01*
X163723040Y-81559276D01*
X163703510Y-81567611D01*
X163694660Y-81581229D01*
X163678548Y-81617262D01*
X163662065Y-81663896D01*
X163656263Y-81681358D01*
X163634906Y-81738682D01*
X163607359Y-81806525D01*
X163578107Y-81873679D01*
X163562463Y-81908754D01*
X163540174Y-81961146D01*
X163524857Y-82000382D01*
X163519162Y-82019887D01*
X163519478Y-82021360D01*
X163530281Y-82042053D01*
X163554638Y-82081989D01*
X163590081Y-82137296D01*
X163634136Y-82204105D01*
X163684332Y-82278544D01*
X163849501Y-82520947D01*
X163632503Y-82738307D01*
X163611516Y-82759223D01*
X163547342Y-82821829D01*
X163489990Y-82875819D01*
X163442820Y-82918150D01*
X163409192Y-82945781D01*
X163392467Y-82955667D01*
X163374303Y-82948145D01*
X163336265Y-82926551D01*
X163282726Y-82893475D01*
X163217884Y-82851515D01*
X163145940Y-82803267D01*
X163075275Y-82755615D01*
X163011526Y-82713652D01*
X162959513Y-82680489D01*
X162923279Y-82658702D01*
X162906867Y-82650867D01*
X162905905Y-82650938D01*
X162884103Y-82658662D01*
X162845440Y-82676647D01*
X162797612Y-82701337D01*
X162797110Y-82701608D01*
X162733587Y-82733423D01*
X162690060Y-82748966D01*
X162663052Y-82749009D01*
X162649090Y-82734324D01*
X162643180Y-82719868D01*
X162627229Y-82681155D01*
X162602660Y-82621640D01*
X162570779Y-82544489D01*
X162532893Y-82452865D01*
X162490310Y-82349931D01*
X162444337Y-82238850D01*
X162402667Y-82137796D01*
X162360268Y-82034104D01*
X162322756Y-81941443D01*
X162291388Y-81862966D01*
X162267425Y-81801824D01*
X162252123Y-81761167D01*
X162246743Y-81744149D01*
X162257018Y-81728543D01*
X162285563Y-81702486D01*
X162325971Y-81672211D01*
X162422979Y-81593008D01*
X162509793Y-81491799D01*
X162573322Y-81380440D01*
X162613177Y-81262217D01*
X162628965Y-81140419D01*
X162620296Y-81018334D01*
X162586778Y-80899249D01*
X162528021Y-80786453D01*
X162443632Y-80683235D01*
X162399631Y-80643037D01*
X162294211Y-80571962D01*
X162181410Y-80525625D01*
X162064525Y-80502923D01*
X161946853Y-80502752D01*
X161831690Y-80524011D01*
X161722335Y-80565594D01*
X161622083Y-80626400D01*
X161534233Y-80705325D01*
X161462080Y-80801265D01*
X161408922Y-80913119D01*
X161378057Y-81039781D01*
X161372392Y-81100831D01*
X161380185Y-81233100D01*
X161415284Y-81358590D01*
X161476649Y-81475083D01*
X161563243Y-81580363D01*
X161674029Y-81672211D01*
X161712931Y-81701254D01*
X161742104Y-81727596D01*
X161753257Y-81744124D01*
X161748810Y-81758533D01*
X161734378Y-81797139D01*
X161711173Y-81856525D01*
X161680452Y-81933539D01*
X161643474Y-82025027D01*
X161601496Y-82127840D01*
X161555778Y-82238826D01*
X161514178Y-82339396D01*
X161471222Y-82443271D01*
X161432829Y-82536143D01*
X161400305Y-82614849D01*
X161374958Y-82676223D01*
X161358095Y-82717103D01*
X161351025Y-82734324D01*
X161350943Y-82734528D01*
X161336798Y-82749069D01*
X161309659Y-82748903D01*
X161266023Y-82733251D01*
X161202388Y-82701337D01*
X161197379Y-82698650D01*
X161150125Y-82674474D01*
X161112811Y-82657361D01*
X161093133Y-82650867D01*
X161077005Y-82658542D01*
X161040959Y-82680195D01*
X160989092Y-82713252D01*
X160925445Y-82755134D01*
X160854060Y-82803267D01*
X160783724Y-82850455D01*
X160718670Y-82892591D01*
X160664820Y-82925902D01*
X160626374Y-82947793D01*
X160607534Y-82955667D01*
X160604325Y-82954667D01*
X160581954Y-82938908D01*
X160543733Y-82906357D01*
X160493021Y-82860057D01*
X160433181Y-82803050D01*
X160367571Y-82738382D01*
X160150648Y-82521096D01*
X160319601Y-82272577D01*
X160488553Y-82024057D01*
X160437183Y-81912919D01*
X160437031Y-81912590D01*
X160406183Y-81841742D01*
X160374661Y-81762847D01*
X160349266Y-81692924D01*
X160345423Y-81681646D01*
X160326047Y-81629291D01*
X160308574Y-81588607D01*
X160296388Y-81567611D01*
X160291426Y-81564646D01*
X160261634Y-81554699D01*
X160211047Y-81541829D01*
X160145194Y-81527377D01*
X160069600Y-81512679D01*
X160046957Y-81508534D01*
X159965038Y-81493440D01*
X159888600Y-81479223D01*
X159825337Y-81467319D01*
X159782943Y-81459163D01*
X159706743Y-81444123D01*
X159706743Y-81126816D01*
X159706760Y-81087800D01*
X159707082Y-80992616D01*
X159708033Y-80921579D01*
X159709896Y-80871058D01*
X159712955Y-80837422D01*
X159717494Y-80817042D01*
X159723795Y-80806286D01*
X159732143Y-80801523D01*
X159740224Y-80799594D01*
X159773172Y-80792769D01*
X159825736Y-80782346D01*
X159892569Y-80769342D01*
X159968328Y-80754773D01*
X160047665Y-80739657D01*
X160125237Y-80725009D01*
X160195698Y-80711847D01*
X160253702Y-80701187D01*
X160293904Y-80694045D01*
X160310959Y-80691438D01*
X160312112Y-80689865D01*
X160321385Y-80669443D01*
X160337432Y-80630369D01*
X160357635Y-80578953D01*
X160385672Y-80509677D01*
X160420186Y-80429614D01*
X160452538Y-80359052D01*
X160459952Y-80343213D01*
X160480755Y-80293617D01*
X160493219Y-80255362D01*
X160494863Y-80235680D01*
X160494015Y-80234286D01*
X160480548Y-80213744D01*
X160453850Y-80173840D01*
X160416539Y-80118464D01*
X160371234Y-80051501D01*
X160320552Y-79976841D01*
X160263445Y-79892016D01*
X160220607Y-79826124D01*
X160191460Y-79777802D01*
X160174317Y-79744057D01*
X160167495Y-79721896D01*
X160169306Y-79708326D01*
X160169915Y-79707308D01*
X160186297Y-79687534D01*
X160219695Y-79651499D01*
X160266671Y-79602775D01*
X160323786Y-79544936D01*
X160387603Y-79481551D01*
X160453802Y-79417229D01*
X160518648Y-79356771D01*
X160566299Y-79315979D01*
X160597990Y-79293808D01*
X160614958Y-79289213D01*
X160617175Y-79290245D01*
X160640524Y-79304161D01*
X160682912Y-79331354D01*
X160740369Y-79369213D01*
X160808923Y-79415127D01*
X160884601Y-79466484D01*
X161131298Y-79634950D01*
X161242706Y-79584386D01*
X161245943Y-79582921D01*
X161314343Y-79553289D01*
X161386907Y-79523817D01*
X161448457Y-79500682D01*
X161448729Y-79500586D01*
X161497595Y-79482691D01*
X161535212Y-79467577D01*
X161553457Y-79458508D01*
X161553752Y-79458179D01*
X161559946Y-79439606D01*
X161570139Y-79397369D01*
X161583348Y-79336020D01*
X161598590Y-79260113D01*
X161614881Y-79174199D01*
X161615449Y-79171120D01*
X161631713Y-79083452D01*
X161646608Y-79004065D01*
X161659171Y-78938025D01*
X161668438Y-78890403D01*
X161673444Y-78866267D01*
X161673764Y-78864929D01*
X161677060Y-78854597D01*
X161683738Y-78846830D01*
X161697462Y-78841264D01*
X161721895Y-78837531D01*
X161760702Y-78835266D01*
X161817546Y-78834102D01*
X161896090Y-78833672D01*
X162000000Y-78833610D01*
X162013056Y-78833610D01*
X162113933Y-78833695D01*
G36*
X162089483Y-83551893D02*
G01*
X162139376Y-83580985D01*
X162161325Y-83603651D01*
X162203504Y-83671406D01*
X162217714Y-83745274D01*
X162217714Y-83796094D01*
X162170999Y-83776452D01*
X162138692Y-83756632D01*
X162113231Y-83715484D01*
X162110616Y-83706999D01*
X162082478Y-83663775D01*
X162040067Y-83640427D01*
X161991370Y-83639424D01*
X161944373Y-83663238D01*
X161937357Y-83669380D01*
X161913893Y-83696069D01*
X161910019Y-83719338D01*
X161927768Y-83742186D01*
X161969179Y-83767611D01*
X162036286Y-83798612D01*
X162040824Y-83800576D01*
X162115322Y-83835314D01*
X162166203Y-83866087D01*
X162197525Y-83896812D01*
X162213343Y-83931406D01*
X162217714Y-83973786D01*
X162211986Y-84020770D01*
X162183062Y-84080909D01*
X162132178Y-84124112D01*
X162095374Y-84137083D01*
X162043434Y-84144180D01*
X161992999Y-84142664D01*
X161956983Y-84131956D01*
X161953158Y-84129290D01*
X161942998Y-84110661D01*
X161950048Y-84077829D01*
X161962297Y-84052059D01*
X161981939Y-84041330D01*
X162019191Y-84041863D01*
X162070908Y-84038786D01*
X162104701Y-84017536D01*
X162116114Y-83978201D01*
X162116104Y-83977071D01*
X162109187Y-83954237D01*
X162085659Y-83933287D01*
X162039914Y-83909139D01*
X161977704Y-83880065D01*
X161936499Y-83864249D01*
X161912712Y-83865268D01*
X161901597Y-83886161D01*
X161898408Y-83929965D01*
X161898400Y-83999717D01*
X161898044Y-84042776D01*
X161896413Y-84095950D01*
X161893761Y-84132346D01*
X161890422Y-84145838D01*
X161889530Y-84145747D01*
X161870237Y-84138434D01*
X161838284Y-84123002D01*
X161794124Y-84100166D01*
X161799371Y-83894402D01*
X161799736Y-83880756D01*
X161803904Y-83784975D01*
X161811268Y-83712786D01*
X161823330Y-83659382D01*
X161841593Y-83619957D01*
X161867560Y-83589704D01*
X161902733Y-83563817D01*
X161903384Y-83563411D01*
X161960256Y-83542292D01*
X162026033Y-83538724D01*
X162089483Y-83551893D01*
G37*
X162089483Y-83551893D02*
X162139376Y-83580985D01*
X162161325Y-83603651D01*
X162203504Y-83671406D01*
X162217714Y-83745274D01*
X162217714Y-83796094D01*
X162170999Y-83776452D01*
X162138692Y-83756632D01*
X162113231Y-83715484D01*
X162110616Y-83706999D01*
X162082478Y-83663775D01*
X162040067Y-83640427D01*
X161991370Y-83639424D01*
X161944373Y-83663238D01*
X161937357Y-83669380D01*
X161913893Y-83696069D01*
X161910019Y-83719338D01*
X161927768Y-83742186D01*
X161969179Y-83767611D01*
X162036286Y-83798612D01*
X162040824Y-83800576D01*
X162115322Y-83835314D01*
X162166203Y-83866087D01*
X162197525Y-83896812D01*
X162213343Y-83931406D01*
X162217714Y-83973786D01*
X162211986Y-84020770D01*
X162183062Y-84080909D01*
X162132178Y-84124112D01*
X162095374Y-84137083D01*
X162043434Y-84144180D01*
X161992999Y-84142664D01*
X161956983Y-84131956D01*
X161953158Y-84129290D01*
X161942998Y-84110661D01*
X161950048Y-84077829D01*
X161962297Y-84052059D01*
X161981939Y-84041330D01*
X162019191Y-84041863D01*
X162070908Y-84038786D01*
X162104701Y-84017536D01*
X162116114Y-83978201D01*
X162116104Y-83977071D01*
X162109187Y-83954237D01*
X162085659Y-83933287D01*
X162039914Y-83909139D01*
X161977704Y-83880065D01*
X161936499Y-83864249D01*
X161912712Y-83865268D01*
X161901597Y-83886161D01*
X161898408Y-83929965D01*
X161898400Y-83999717D01*
X161898044Y-84042776D01*
X161896413Y-84095950D01*
X161893761Y-84132346D01*
X161890422Y-84145838D01*
X161889530Y-84145747D01*
X161870237Y-84138434D01*
X161838284Y-84123002D01*
X161794124Y-84100166D01*
X161799371Y-83894402D01*
X161799736Y-83880756D01*
X161803904Y-83784975D01*
X161811268Y-83712786D01*
X161823330Y-83659382D01*
X161841593Y-83619957D01*
X161867560Y-83589704D01*
X161902733Y-83563817D01*
X161903384Y-83563411D01*
X161960256Y-83542292D01*
X162026033Y-83538724D01*
X162089483Y-83551893D01*
G36*
X161607691Y-83557791D02*
G01*
X161612273Y-83560327D01*
X161649704Y-83589381D01*
X161683170Y-83626734D01*
X161689007Y-83635176D01*
X161700165Y-83654877D01*
X161708136Y-83678259D01*
X161713618Y-83710391D01*
X161717307Y-83756343D01*
X161719899Y-83821183D01*
X161722092Y-83909981D01*
X161722402Y-83924993D01*
X161723400Y-84022323D01*
X161721994Y-84091258D01*
X161718164Y-84132272D01*
X161711889Y-84145838D01*
X161692898Y-84141776D01*
X161660638Y-84129468D01*
X161653041Y-84125869D01*
X161641176Y-84117722D01*
X161632994Y-84104328D01*
X161627643Y-84080932D01*
X161624269Y-84042779D01*
X161622019Y-83985114D01*
X161620040Y-83903181D01*
X161619498Y-83879231D01*
X161617403Y-83803590D01*
X161614683Y-83750652D01*
X161610515Y-83715399D01*
X161604079Y-83692811D01*
X161594550Y-83677868D01*
X161581106Y-83665551D01*
X161541305Y-83643958D01*
X161492341Y-83639800D01*
X161448529Y-83656323D01*
X161417008Y-83690534D01*
X161404914Y-83739438D01*
X161404578Y-83752731D01*
X161397972Y-83776796D01*
X161378470Y-83780468D01*
X161340283Y-83766137D01*
X161331438Y-83761541D01*
X161307534Y-83734510D01*
X161307061Y-83694318D01*
X161329836Y-83638733D01*
X161350727Y-83608441D01*
X161404142Y-83565408D01*
X161470074Y-83541079D01*
X161540574Y-83537767D01*
X161607691Y-83557791D01*
G37*
X161607691Y-83557791D02*
X161612273Y-83560327D01*
X161649704Y-83589381D01*
X161683170Y-83626734D01*
X161689007Y-83635176D01*
X161700165Y-83654877D01*
X161708136Y-83678259D01*
X161713618Y-83710391D01*
X161717307Y-83756343D01*
X161719899Y-83821183D01*
X161722092Y-83909981D01*
X161722402Y-83924993D01*
X161723400Y-84022323D01*
X161721994Y-84091258D01*
X161718164Y-84132272D01*
X161711889Y-84145838D01*
X161692898Y-84141776D01*
X161660638Y-84129468D01*
X161653041Y-84125869D01*
X161641176Y-84117722D01*
X161632994Y-84104328D01*
X161627643Y-84080932D01*
X161624269Y-84042779D01*
X161622019Y-83985114D01*
X161620040Y-83903181D01*
X161619498Y-83879231D01*
X161617403Y-83803590D01*
X161614683Y-83750652D01*
X161610515Y-83715399D01*
X161604079Y-83692811D01*
X161594550Y-83677868D01*
X161581106Y-83665551D01*
X161541305Y-83643958D01*
X161492341Y-83639800D01*
X161448529Y-83656323D01*
X161417008Y-83690534D01*
X161404914Y-83739438D01*
X161404578Y-83752731D01*
X161397972Y-83776796D01*
X161378470Y-83780468D01*
X161340283Y-83766137D01*
X161331438Y-83761541D01*
X161307534Y-83734510D01*
X161307061Y-83694318D01*
X161329836Y-83638733D01*
X161350727Y-83608441D01*
X161404142Y-83565408D01*
X161470074Y-83541079D01*
X161540574Y-83537767D01*
X161607691Y-83557791D01*
G36*
X165265701Y-83842259D02*
G01*
X165264914Y-83912443D01*
X165262210Y-83961346D01*
X165256606Y-83995502D01*
X165247119Y-84021448D01*
X165232768Y-84045721D01*
X165229237Y-84050757D01*
X165191878Y-84090467D01*
X165149311Y-84120416D01*
X165127452Y-84130134D01*
X165048908Y-84146344D01*
X164971231Y-84135859D01*
X164899645Y-84100031D01*
X164839374Y-84040211D01*
X164834286Y-84032197D01*
X164817730Y-83985666D01*
X164806573Y-83920876D01*
X164801160Y-83846051D01*
X164801768Y-83776837D01*
X164948248Y-83776837D01*
X164949402Y-83872723D01*
X164949866Y-83878893D01*
X164956629Y-83931802D01*
X164968671Y-83965353D01*
X164989005Y-83988340D01*
X165023097Y-84009872D01*
X165056814Y-84011004D01*
X165091543Y-83986181D01*
X165097584Y-83979649D01*
X165109417Y-83960103D01*
X165116404Y-83931710D01*
X165119727Y-83887754D01*
X165120571Y-83821516D01*
X165119125Y-83759474D01*
X165111907Y-83700366D01*
X165097006Y-83663010D01*
X165072636Y-83643476D01*
X165037008Y-83637838D01*
X165023440Y-83638959D01*
X164985430Y-83659518D01*
X164960312Y-83705623D01*
X164948248Y-83776837D01*
X164801768Y-83776837D01*
X164801833Y-83769420D01*
X164808937Y-83699206D01*
X164822815Y-83643636D01*
X164840649Y-83606625D01*
X164890855Y-83549057D01*
X164958885Y-83513286D01*
X165042158Y-83500989D01*
X165064398Y-83501655D01*
X165129891Y-83515271D01*
X165183687Y-83549573D01*
X165233057Y-83608662D01*
X165235995Y-83613046D01*
X165249287Y-83636623D01*
X165257932Y-83663273D01*
X165262904Y-83699483D01*
X165265174Y-83751737D01*
X165265678Y-83821516D01*
X165265714Y-83826524D01*
X165265701Y-83842259D01*
G37*
X165265701Y-83842259D02*
X165264914Y-83912443D01*
X165262210Y-83961346D01*
X165256606Y-83995502D01*
X165247119Y-84021448D01*
X165232768Y-84045721D01*
X165229237Y-84050757D01*
X165191878Y-84090467D01*
X165149311Y-84120416D01*
X165127452Y-84130134D01*
X165048908Y-84146344D01*
X164971231Y-84135859D01*
X164899645Y-84100031D01*
X164839374Y-84040211D01*
X164834286Y-84032197D01*
X164817730Y-83985666D01*
X164806573Y-83920876D01*
X164801160Y-83846051D01*
X164801768Y-83776837D01*
X164948248Y-83776837D01*
X164949402Y-83872723D01*
X164949866Y-83878893D01*
X164956629Y-83931802D01*
X164968671Y-83965353D01*
X164989005Y-83988340D01*
X165023097Y-84009872D01*
X165056814Y-84011004D01*
X165091543Y-83986181D01*
X165097584Y-83979649D01*
X165109417Y-83960103D01*
X165116404Y-83931710D01*
X165119727Y-83887754D01*
X165120571Y-83821516D01*
X165119125Y-83759474D01*
X165111907Y-83700366D01*
X165097006Y-83663010D01*
X165072636Y-83643476D01*
X165037008Y-83637838D01*
X165023440Y-83638959D01*
X164985430Y-83659518D01*
X164960312Y-83705623D01*
X164948248Y-83776837D01*
X164801768Y-83776837D01*
X164801833Y-83769420D01*
X164808937Y-83699206D01*
X164822815Y-83643636D01*
X164840649Y-83606625D01*
X164890855Y-83549057D01*
X164958885Y-83513286D01*
X165042158Y-83500989D01*
X165064398Y-83501655D01*
X165129891Y-83515271D01*
X165183687Y-83549573D01*
X165233057Y-83608662D01*
X165235995Y-83613046D01*
X165249287Y-83636623D01*
X165257932Y-83663273D01*
X165262904Y-83699483D01*
X165265174Y-83751737D01*
X165265678Y-83821516D01*
X165265714Y-83826524D01*
X165265701Y-83842259D01*
%TD*%
M02*
