%TF.GenerationSoftware,KiCad,Pcbnew,6.0.3-a3aad9c10e~116~ubuntu20.04.1*%
%TF.CreationDate,2022-03-23T21:19:17+01:00*%
%TF.ProjectId,Smart_Charger,536d6172-745f-4436-9861-726765722e6b,ED A0*%
%TF.SameCoordinates,Original*%
%TF.FileFunction,AssemblyDrawing,Bot*%
%FSLAX46Y46*%
G04 Gerber Fmt 4.6, Leading zero omitted, Abs format (unit mm)*
G04 Created by KiCad (PCBNEW 6.0.3-a3aad9c10e~116~ubuntu20.04.1) date 2022-03-23 21:19:17*
%MOMM*%
%LPD*%
G01*
G04 APERTURE LIST*
%ADD10C,0.100000*%
G04 APERTURE END LIST*
D10*
X153450000Y-74375000D02*
X153450000Y-74375000D01*
X153450000Y-75125000D02*
X153450000Y-75125000D01*
X153450000Y-74375000D02*
G75*
G03*
X153450000Y-75125000I0J-375000D01*
G01*
X153450000Y-75125000D02*
G75*
G03*
X153450000Y-74375000I0J375000D01*
G01*
%TO.C,J201*%
X154075000Y-74375000D02*
X154075000Y-75125000D01*
X154825000Y-75125000D01*
X154825000Y-74375000D01*
X154075000Y-74375000D01*
%TD*%
X166600000Y-84500000D02*
X168800000Y-84500000D01*
X166600000Y-82600000D02*
X168800000Y-82600000D01*
X168800000Y-84500000D02*
G75*
G03*
X168800000Y-82600000I0J950000D01*
G01*
X166600000Y-82600000D02*
G75*
G03*
X166600000Y-84500000I0J-950000D01*
G01*
X172050000Y-89450000D02*
X172050000Y-87250000D01*
X170150000Y-89450000D02*
X170150000Y-87250000D01*
X172050000Y-87250000D02*
G75*
G03*
X170150000Y-87250000I-950000J0D01*
G01*
X170150000Y-89450000D02*
G75*
G03*
X172050000Y-89450000I950000J0D01*
G01*
%TO.C,J101*%
X163850000Y-86100000D02*
X163850000Y-90600000D01*
X165750000Y-90600000D01*
X165750000Y-86100000D01*
X163850000Y-86100000D01*
%TD*%
%TO.C,H302*%
X177750000Y-77650000D02*
G75*
G03*
X177750000Y-77650000I-2300000J0D01*
G01*
%TD*%
%TO.C,H301*%
X129975000Y-87425000D02*
G75*
G03*
X129975000Y-87425000I-2300000J0D01*
G01*
%TD*%
X140847500Y-78532500D02*
X140847500Y-78532500D01*
X140847500Y-77782500D02*
X140847500Y-77782500D01*
X140847500Y-78532500D02*
G75*
G03*
X140847500Y-77782500I0J375000D01*
G01*
X140847500Y-77782500D02*
G75*
G03*
X140847500Y-78532500I0J-375000D01*
G01*
%TO.C,J302*%
X139472500Y-77782500D02*
X139472500Y-78532500D01*
X140222500Y-78532500D01*
X140222500Y-77782500D01*
X139472500Y-77782500D01*
%TD*%
%TO.C,U201*%
X153300000Y-82225000D02*
G75*
G03*
X153300000Y-82225000I-250000J0D01*
G01*
X152300000Y-83225000D02*
G75*
G03*
X152300000Y-83225000I-250000J0D01*
G01*
X153300000Y-83225000D02*
G75*
G03*
X153300000Y-83225000I-250000J0D01*
G01*
X152300000Y-82225000D02*
G75*
G03*
X152300000Y-82225000I-250000J0D01*
G01*
%TD*%
M02*
