%TF.GenerationSoftware,KiCad,Pcbnew,6.0.3-a3aad9c10e~116~ubuntu20.04.1*%
%TF.CreationDate,2022-03-23T21:19:16+01:00*%
%TF.ProjectId,Smart_Charger,536d6172-745f-4436-9861-726765722e6b,ED A0*%
%TF.SameCoordinates,Original*%
%TF.FileFunction,Soldermask,Bot*%
%TF.FilePolarity,Negative*%
%FSLAX46Y46*%
G04 Gerber Fmt 4.6, Leading zero omitted, Abs format (unit mm)*
G04 Created by KiCad (PCBNEW 6.0.3-a3aad9c10e~116~ubuntu20.04.1) date 2022-03-23 21:19:16*
%MOMM*%
%LPD*%
G01*
G04 APERTURE LIST*
G04 Aperture macros list*
%AMRoundRect*
0 Rectangle with rounded corners*
0 $1 Rounding radius*
0 $2 $3 $4 $5 $6 $7 $8 $9 X,Y pos of 4 corners*
0 Add a 4 corners polygon primitive as box body*
4,1,4,$2,$3,$4,$5,$6,$7,$8,$9,$2,$3,0*
0 Add four circle primitives for the rounded corners*
1,1,$1+$1,$2,$3*
1,1,$1+$1,$4,$5*
1,1,$1+$1,$6,$7*
1,1,$1+$1,$8,$9*
0 Add four rect primitives between the rounded corners*
20,1,$1+$1,$2,$3,$4,$5,0*
20,1,$1+$1,$4,$5,$6,$7,0*
20,1,$1+$1,$6,$7,$8,$9,0*
20,1,$1+$1,$8,$9,$2,$3,0*%
G04 Aperture macros list end*
%ADD10C,0.010000*%
%ADD11O,0.990000X0.990000*%
%ADD12RoundRect,0.070000X-0.425000X0.425000X-0.425000X-0.425000X0.425000X-0.425000X0.425000X0.425000X0*%
%ADD13O,4.340000X2.140000*%
%ADD14O,2.140000X4.340000*%
%ADD15RoundRect,0.070000X1.000000X-2.300000X1.000000X2.300000X-1.000000X2.300000X-1.000000X-2.300000X0*%
%ADD16C,4.840000*%
%ADD17RoundRect,0.070000X0.425000X-0.425000X0.425000X0.425000X-0.425000X0.425000X-0.425000X-0.425000X0*%
%ADD18C,0.740000*%
G04 APERTURE END LIST*
D10*
G36*
X113125000Y-91375000D02*
G01*
X110875000Y-91375000D01*
X110875000Y-89375000D01*
X113125000Y-89375000D01*
X113125000Y-91375000D01*
G37*
X113125000Y-91375000D02*
X110875000Y-91375000D01*
X110875000Y-89375000D01*
X113125000Y-89375000D01*
X113125000Y-91375000D01*
G36*
X113125000Y-91375000D02*
G01*
X110875000Y-91375000D01*
X110875000Y-89375000D01*
X113125000Y-89375000D01*
X113125000Y-91375000D01*
G37*
X113125000Y-91375000D02*
X110875000Y-91375000D01*
X110875000Y-89375000D01*
X113125000Y-89375000D01*
X113125000Y-91375000D01*
D11*
%TO.C,J201*%
X153450000Y-74750000D03*
D12*
X154450000Y-74750000D03*
%TD*%
D13*
%TO.C,J101*%
X167700000Y-83550000D03*
D14*
X171100000Y-88350000D03*
D15*
X164800000Y-88350000D03*
%TD*%
D16*
%TO.C,H302*%
X175450000Y-77650000D03*
%TD*%
%TO.C,H301*%
X127675000Y-87425000D03*
%TD*%
D11*
%TO.C,J302*%
X140847500Y-78157500D03*
D17*
X139847500Y-78157500D03*
%TD*%
D18*
%TO.C,U201*%
X153050000Y-82225000D03*
X152050000Y-83225000D03*
X153050000Y-83225000D03*
X152050000Y-82225000D03*
%TD*%
G36*
X140340304Y-77711986D02*
G01*
X140345692Y-77720049D01*
X140403469Y-77770719D01*
X140478571Y-77785658D01*
X140551278Y-77760976D01*
X140566229Y-77749535D01*
X140568573Y-77747491D01*
X140568971Y-77747221D01*
X140606241Y-77727984D01*
X140608238Y-77728078D01*
X140609156Y-77729855D01*
X140608225Y-77731452D01*
X140527992Y-77782076D01*
X140435463Y-77886844D01*
X140376061Y-78013366D01*
X140354557Y-78151478D01*
X140372681Y-78290071D01*
X140428974Y-78418009D01*
X140518913Y-78525005D01*
X140598475Y-78577966D01*
X140599363Y-78579758D01*
X140598255Y-78581423D01*
X140596413Y-78581389D01*
X140546241Y-78554147D01*
X140545725Y-78555097D01*
X140544020Y-78556142D01*
X140543050Y-78555920D01*
X140499672Y-78533530D01*
X140423182Y-78537136D01*
X140358579Y-78578609D01*
X140345060Y-78595895D01*
X140340304Y-78603013D01*
X140338510Y-78603898D01*
X140336847Y-78602787D01*
X140336679Y-78601512D01*
X140340500Y-78582301D01*
X140340500Y-77732699D01*
X140336679Y-77713487D01*
X140337322Y-77711593D01*
X140339284Y-77711203D01*
X140340304Y-77711986D01*
G37*
G36*
X153960653Y-74304715D02*
G01*
X153960821Y-74305990D01*
X153957000Y-74325199D01*
X153957000Y-75174801D01*
X153960821Y-75194010D01*
X153960178Y-75195904D01*
X153958216Y-75196294D01*
X153957196Y-75195511D01*
X153951500Y-75186988D01*
X153893723Y-75136318D01*
X153818621Y-75121379D01*
X153745910Y-75146061D01*
X153732134Y-75156489D01*
X153724623Y-75162904D01*
X153724223Y-75163170D01*
X153686310Y-75182239D01*
X153684313Y-75182124D01*
X153683414Y-75180337D01*
X153684365Y-75178748D01*
X153764898Y-75129300D01*
X153858699Y-75025670D01*
X153919643Y-74899881D01*
X153942854Y-74761917D01*
X153942998Y-74750131D01*
X153923165Y-74611638D01*
X153865311Y-74484396D01*
X153774072Y-74378508D01*
X153694175Y-74326721D01*
X153693266Y-74324940D01*
X153694353Y-74323262D01*
X153696199Y-74323275D01*
X153747438Y-74350405D01*
X153748465Y-74349760D01*
X153749437Y-74349972D01*
X153798954Y-74374877D01*
X153875400Y-74370471D01*
X153939571Y-74328322D01*
X153952053Y-74312186D01*
X153957196Y-74304489D01*
X153958990Y-74303604D01*
X153960653Y-74304715D01*
G37*
M02*
