%TF.GenerationSoftware,KiCad,Pcbnew,6.0.3-a3aad9c10e~116~ubuntu20.04.1*%
%TF.CreationDate,2022-03-23T21:19:15+01:00*%
%TF.ProjectId,Smart_Charger,536d6172-745f-4436-9861-726765722e6b,ED A0*%
%TF.SameCoordinates,Original*%
%TF.FileFunction,Copper,L4,Bot*%
%TF.FilePolarity,Positive*%
%FSLAX46Y46*%
G04 Gerber Fmt 4.6, Leading zero omitted, Abs format (unit mm)*
G04 Created by KiCad (PCBNEW 6.0.3-a3aad9c10e~116~ubuntu20.04.1) date 2022-03-23 21:19:15*
%MOMM*%
%LPD*%
G01*
G04 APERTURE LIST*
%ADD10C,0.150000*%
%TA.AperFunction,NonConductor*%
%ADD11C,0.150000*%
%TD*%
%TA.AperFunction,ComponentPad*%
%ADD12O,0.850000X0.850000*%
%TD*%
%TA.AperFunction,ComponentPad*%
%ADD13R,0.850000X0.850000*%
%TD*%
%TA.AperFunction,ComponentPad*%
%ADD14O,4.200000X2.000000*%
%TD*%
%TA.AperFunction,ComponentPad*%
%ADD15O,2.000000X4.200000*%
%TD*%
%TA.AperFunction,ComponentPad*%
%ADD16R,2.000000X4.600000*%
%TD*%
%TA.AperFunction,ComponentPad*%
%ADD17C,4.700000*%
%TD*%
%TA.AperFunction,HeatsinkPad*%
%ADD18C,0.600000*%
%TD*%
%TA.AperFunction,ViaPad*%
%ADD19C,0.500000*%
%TD*%
%TA.AperFunction,Conductor*%
%ADD20C,0.200000*%
%TD*%
%TA.AperFunction,Conductor*%
%ADD21C,0.400000*%
%TD*%
G04 APERTURE END LIST*
D10*
D11*
X111184523Y-90160714D02*
X111184523Y-90827380D01*
X111422619Y-89779761D02*
X111660714Y-90494047D01*
X111041666Y-90494047D01*
D12*
%TO.P,J201,2,Pin_2*%
%TO.N,GND*%
X153450000Y-74750000D03*
D13*
%TO.P,J201,1,Pin_1*%
%TO.N,/BQ24600RVAT/TS*%
X154450000Y-74750000D03*
%TD*%
D14*
%TO.P,J101,3*%
%TO.N,GNDPWR*%
X167700000Y-83550000D03*
D15*
%TO.P,J101,2*%
X171100000Y-88350000D03*
D16*
%TO.P,J101,1*%
%TO.N,/BQ24600RVAT/ADAPTER+*%
X164800000Y-88350000D03*
%TD*%
D17*
%TO.P,H302,1,1*%
%TO.N,GNDPWR*%
X175450000Y-77650000D03*
%TD*%
%TO.P,H301,1,1*%
%TO.N,GNDPWR*%
X127675000Y-87425000D03*
%TD*%
D12*
%TO.P,J302,2,Pin_2*%
%TO.N,GND*%
X140847500Y-78157500D03*
D13*
%TO.P,J302,1,Pin_1*%
%TO.N,/BQ7791502PWR/TS*%
X139847500Y-78157500D03*
%TD*%
D18*
%TO.P,U201,*%
%TO.N,GND*%
X153050000Y-82225000D03*
X152050000Y-83225000D03*
X153050000Y-83225000D03*
X152050000Y-82225000D03*
%TD*%
D19*
%TO.N,/BQ7791502PWR/BQ7791502PWR_CHG*%
X137450000Y-85225000D03*
X126275000Y-96825000D03*
%TO.N,GND*%
X143844466Y-82214944D03*
%TO.N,GNDPWR*%
X145900000Y-74000000D03*
X144500000Y-74000000D03*
X145900000Y-75800000D03*
X145900000Y-78200000D03*
%TO.N,/BQ7791502PWR/BATT-*%
X113900000Y-92400000D03*
%TO.N,GND*%
X116825000Y-74550000D03*
X142150000Y-79650000D03*
X149575000Y-80800000D03*
X133650000Y-81900000D03*
X122550000Y-84950000D03*
X117850000Y-84975000D03*
X111575000Y-74650000D03*
X154150000Y-73150000D03*
X111625000Y-86000000D03*
X132150000Y-74900000D03*
X151464874Y-76496245D03*
X143150000Y-73400000D03*
X123875945Y-83882885D03*
X154475000Y-85100000D03*
X137334416Y-75890283D03*
X158350614Y-77159841D03*
X149600000Y-73325000D03*
X158400000Y-74900000D03*
X126900000Y-73150000D03*
X153881971Y-80913849D03*
X111500000Y-79700000D03*
X130900000Y-73400000D03*
X122650000Y-82400000D03*
X124925000Y-75300000D03*
X157024684Y-81498454D03*
X125250000Y-77325000D03*
X125650000Y-74150000D03*
X120900000Y-84150000D03*
X142275000Y-83000000D03*
X124600000Y-87425000D03*
X116750000Y-86025000D03*
X121900000Y-73650000D03*
X119400000Y-76150000D03*
X127375000Y-77950500D03*
X119400000Y-74400000D03*
X151450000Y-74525000D03*
X142275000Y-81450000D03*
X143422500Y-75872500D03*
X138988921Y-80903225D03*
X154800000Y-86150000D03*
X155249455Y-78550385D03*
X139400000Y-73400000D03*
X143150000Y-77150000D03*
X120400000Y-73150000D03*
X127150000Y-83900000D03*
X135150000Y-74900000D03*
X157850000Y-73500000D03*
X142588060Y-83857608D03*
X157981025Y-75739744D03*
X158110270Y-78582449D03*
X120150000Y-85900000D03*
X154182307Y-75635731D03*
X123900000Y-73150000D03*
X114700000Y-79800000D03*
X129472500Y-81672500D03*
X129847500Y-74072500D03*
X113300000Y-83100000D03*
X151225000Y-80850000D03*
X127486890Y-81856232D03*
X135150000Y-83650000D03*
X126425000Y-77125000D03*
X124150000Y-81650000D03*
X154000000Y-84275000D03*
X132150000Y-79900000D03*
X127650000Y-74150000D03*
X125150000Y-82400000D03*
X150507144Y-76382890D03*
X129062249Y-83443953D03*
X121400000Y-87400000D03*
X155425000Y-77900000D03*
X114725000Y-87250000D03*
X141400000Y-74150000D03*
X137471848Y-81698825D03*
X142900000Y-78150000D03*
X126325000Y-81025000D03*
X114175000Y-76675000D03*
X124237770Y-76360564D03*
X123025000Y-76525000D03*
X122550000Y-83425000D03*
X114675000Y-90125000D03*
X136400000Y-73400000D03*
X140895000Y-81775000D03*
X133150000Y-73400000D03*
X124650000Y-86400000D03*
X158050000Y-81350000D03*
X132150000Y-83650000D03*
X133650000Y-78150000D03*
X140150000Y-79650000D03*
X150225000Y-81450000D03*
X115050000Y-84250000D03*
X135150000Y-79900000D03*
X119139999Y-86929999D03*
X122425000Y-75050000D03*
X120884203Y-76600075D03*
%TO.N,/BQ7791502PWR/VDD*%
X127675000Y-74900000D03*
X138025000Y-76100000D03*
%TO.N,/BQ7791502PWR/AVDD*%
X138700000Y-75875000D03*
X128350000Y-78050000D03*
%TO.N,+12V*%
X117300000Y-80500000D03*
X126650000Y-74900000D03*
%TO.N,/BQ24600RVAT/BQ24600RVAT_~{PG}*%
X153475000Y-80300000D03*
X158625000Y-76400000D03*
%TO.N,/BQ24600RVAT/BQ24600RVAT_STAT*%
X155538556Y-82038556D03*
X158625000Y-77925000D03*
%TO.N,/BQ24600RVAT/ADAPTER+*%
X165075000Y-84400000D03*
X162700000Y-87625000D03*
X164100000Y-92375000D03*
X162650000Y-91025000D03*
X162675000Y-93600000D03*
X165450000Y-91150000D03*
X163825000Y-77150000D03*
X165425000Y-93600000D03*
X165450000Y-78925000D03*
X162700000Y-81875000D03*
X165700000Y-76925000D03*
X162700000Y-84475000D03*
X165450000Y-81225000D03*
%TO.N,Net-(R208-Pad1)*%
X154976827Y-83024121D03*
X154526056Y-78201056D03*
%TO.N,/BQ7791502PWR/BATT-*%
X117900000Y-92400000D03*
X115900000Y-97400000D03*
X117900000Y-90725000D03*
X115900000Y-94900000D03*
X117900000Y-97400000D03*
X117900000Y-94900000D03*
X111900000Y-92400000D03*
X115900000Y-92400000D03*
%TO.N,Net-(Q3-Pad5)*%
X126875000Y-90675000D03*
X126750000Y-95825000D03*
X134175000Y-95800000D03*
X124600000Y-90600000D03*
X129400000Y-93650000D03*
X134175000Y-90625000D03*
X129425000Y-92125000D03*
X132463692Y-95797828D03*
X131925000Y-90575000D03*
X129450000Y-95650500D03*
X124650000Y-95825000D03*
X129425000Y-90675000D03*
%TO.N,GNDPWR*%
X159150000Y-74900000D03*
X158031269Y-87828058D03*
X167400000Y-91150000D03*
X146650000Y-95900000D03*
X170900000Y-78150000D03*
X167150000Y-86900000D03*
X161751151Y-78675807D03*
X173400000Y-80900000D03*
X157975334Y-85798406D03*
X177400000Y-86400000D03*
X133425000Y-84650000D03*
X146400000Y-97400000D03*
X177900000Y-79900000D03*
X177650000Y-92900000D03*
X130400000Y-84650000D03*
X173650000Y-74900000D03*
X144150000Y-93900000D03*
X152150000Y-95900000D03*
X161900000Y-74900000D03*
X138400000Y-88400000D03*
X156650000Y-85725000D03*
X125900000Y-89650000D03*
X146925000Y-86600000D03*
X145925000Y-86600000D03*
X151375000Y-94150000D03*
X169650000Y-81900000D03*
X124150000Y-89650000D03*
X159400000Y-97400000D03*
X144925000Y-86600000D03*
X131400000Y-87900000D03*
X174400000Y-88400000D03*
X160227641Y-78675807D03*
X142875000Y-84875000D03*
X170400000Y-84900000D03*
X142900000Y-97400000D03*
X165900000Y-97400000D03*
X156073534Y-87244733D03*
X170650000Y-91150000D03*
X130150000Y-97400000D03*
X144150000Y-91400000D03*
X150100000Y-94150000D03*
X130288556Y-89788556D03*
X165650000Y-74900000D03*
X142400000Y-88400000D03*
X167400000Y-94150000D03*
X144500000Y-75800000D03*
X150194194Y-85547510D03*
X169400000Y-95900000D03*
X141400000Y-91900000D03*
X160240775Y-77174187D03*
X140600000Y-87100000D03*
X135150000Y-86150000D03*
X133150000Y-87650000D03*
X177650000Y-90150000D03*
X136650000Y-84650000D03*
X169150000Y-75150000D03*
X153900000Y-97400000D03*
X162650000Y-95900000D03*
X141150000Y-83150000D03*
X177900000Y-75150000D03*
X136400000Y-97400000D03*
X136600000Y-86825000D03*
X143925000Y-86600000D03*
X127650000Y-97400000D03*
X146900000Y-92900000D03*
X174650000Y-92150000D03*
X132900000Y-89650000D03*
X166900000Y-78150000D03*
X174650000Y-84400000D03*
X172650000Y-97400000D03*
X150150000Y-97400000D03*
X141400000Y-95900000D03*
X139400000Y-97400000D03*
X170650000Y-93650000D03*
X147925000Y-86600000D03*
X139935000Y-85925000D03*
X149500000Y-85484700D03*
X152650000Y-94100000D03*
X134800000Y-89975000D03*
X144500000Y-78200000D03*
X133400000Y-97400000D03*
X138375000Y-85925000D03*
X155290440Y-86837204D03*
X158023278Y-83784736D03*
X156900000Y-95900000D03*
%TO.N,/BQ24600RVAT/BQ24600RVAT_BTST*%
X150891542Y-85621577D03*
X153800000Y-85400000D03*
%TO.N,/BQ24600RVAT/BQ24600RVAT_HIDRV*%
X155025000Y-94150000D03*
X152898111Y-85274748D03*
%TO.N,/BQ24600RVAT/BQ24600RVAT_LODRV*%
X151500000Y-85240649D03*
X153905000Y-94125000D03*
%TD*%
D20*
%TO.N,/BQ7791502PWR/AVDD*%
X129275000Y-77125000D02*
X128350000Y-78050000D01*
X138000000Y-77125000D02*
X129275000Y-77125000D01*
X138700000Y-75875000D02*
X138700000Y-76425000D01*
X138700000Y-76425000D02*
X138000000Y-77125000D01*
%TO.N,/BQ7791502PWR/BQ7791502PWR_CHG*%
X125975000Y-93325000D02*
X130725000Y-88575000D01*
X126275000Y-96825000D02*
X125975000Y-96525000D01*
X130725000Y-88575000D02*
X130725000Y-87000000D01*
X125975000Y-96525000D02*
X125975000Y-93325000D01*
X130725000Y-87000000D02*
X132375000Y-85350000D01*
X132375000Y-85350000D02*
X137325000Y-85350000D01*
X137325000Y-85350000D02*
X137450000Y-85225000D01*
%TO.N,/BQ24600RVAT/BQ24600RVAT_HIDRV*%
X152898111Y-85665362D02*
X152898111Y-85274748D01*
X155025000Y-87792251D02*
X152898111Y-85665362D01*
X155025000Y-94150000D02*
X155025000Y-87792251D01*
%TO.N,/BQ24600RVAT/BQ24600RVAT_BTST*%
X153800000Y-85400000D02*
X153800000Y-85100000D01*
X153800000Y-85100000D02*
X153368879Y-84668879D01*
X153368879Y-84668879D02*
X151231121Y-84668879D01*
X151231121Y-84668879D02*
X150891542Y-85008458D01*
X150891542Y-85008458D02*
X150891542Y-85621577D01*
%TO.N,/BQ24600RVAT/BQ24600RVAT_~{PG}*%
X158625000Y-76400000D02*
X155529762Y-76400000D01*
X155529762Y-76400000D02*
X153927481Y-78002281D01*
X153927481Y-78002281D02*
X153927481Y-79847519D01*
X153927481Y-79847519D02*
X153475000Y-80300000D01*
%TO.N,Net-(R208-Pad1)*%
X154500000Y-78227112D02*
X154526056Y-78201056D01*
X154500000Y-82547294D02*
X154500000Y-78227112D01*
X154976827Y-83024121D02*
X154500000Y-82547294D01*
%TO.N,/BQ24600RVAT/BQ24600RVAT_STAT*%
X157100000Y-77925000D02*
X154900000Y-80125000D01*
X154900000Y-80125000D02*
X154900000Y-81400000D01*
X154900000Y-81400000D02*
X155538556Y-82038556D01*
X158625000Y-77925000D02*
X157100000Y-77925000D01*
%TO.N,GND*%
X140895000Y-81775000D02*
X141065000Y-81775000D01*
X141065000Y-81775000D02*
X141395000Y-81445000D01*
%TO.N,/BQ7791502PWR/VDD*%
X129500000Y-76725000D02*
X127675000Y-74900000D01*
X137825000Y-76725000D02*
X129500000Y-76725000D01*
X138025000Y-76100000D02*
X138025000Y-76525000D01*
X138025000Y-76525000D02*
X137825000Y-76725000D01*
D21*
%TO.N,+12V*%
X117300000Y-80500000D02*
X121050000Y-80500000D01*
X121050000Y-80500000D02*
X126650000Y-74900000D01*
D20*
%TO.N,/BQ24600RVAT/BQ24600RVAT_LODRV*%
X151500000Y-85258500D02*
X151500000Y-85240649D01*
X153905000Y-87663500D02*
X151500000Y-85258500D01*
X153905000Y-94125000D02*
X153905000Y-87663500D01*
%TD*%
%TA.AperFunction,Conductor*%
%TO.N,GNDPWR*%
G36*
X178070461Y-68675826D02*
G01*
X178085086Y-68675826D01*
X178100000Y-68680672D01*
X178108732Y-68677835D01*
X178111999Y-68678896D01*
X178112215Y-68676703D01*
X178231641Y-68688465D01*
X178250671Y-68692251D01*
X178309298Y-68710035D01*
X178367924Y-68727819D01*
X178385854Y-68735246D01*
X178493910Y-68793003D01*
X178510047Y-68803785D01*
X178604765Y-68881518D01*
X178618482Y-68895235D01*
X178651513Y-68935483D01*
X178696215Y-68989953D01*
X178706997Y-69006090D01*
X178764754Y-69114146D01*
X178772181Y-69132076D01*
X178807749Y-69249327D01*
X178811535Y-69268361D01*
X178823297Y-69387785D01*
X178822181Y-69387895D01*
X178822603Y-69389920D01*
X178819328Y-69400000D01*
X178824174Y-69414914D01*
X178824174Y-69429539D01*
X178824500Y-69431597D01*
X178824500Y-97543403D01*
X178824174Y-97545461D01*
X178824174Y-97560086D01*
X178819328Y-97575000D01*
X178822165Y-97583732D01*
X178821104Y-97586999D01*
X178823297Y-97587215D01*
X178813275Y-97688976D01*
X178811535Y-97706639D01*
X178807749Y-97725671D01*
X178801902Y-97744948D01*
X178772181Y-97842924D01*
X178764754Y-97860854D01*
X178706997Y-97968910D01*
X178696215Y-97985047D01*
X178618482Y-98079765D01*
X178604765Y-98093482D01*
X178554798Y-98134489D01*
X178510047Y-98171215D01*
X178493910Y-98181997D01*
X178385854Y-98239754D01*
X178367924Y-98247181D01*
X178309298Y-98264965D01*
X178250671Y-98282749D01*
X178231641Y-98286535D01*
X178112215Y-98298297D01*
X178112105Y-98297181D01*
X178110080Y-98297603D01*
X178100000Y-98294328D01*
X178085086Y-98299174D01*
X178070461Y-98299174D01*
X178068403Y-98299500D01*
X112756569Y-98299500D01*
X112698378Y-98280593D01*
X112662414Y-98231093D01*
X112657841Y-98207837D01*
X112652928Y-98141718D01*
X112652927Y-98141712D01*
X112652656Y-98138064D01*
X112594688Y-97881882D01*
X112582879Y-97851514D01*
X112538084Y-97736325D01*
X112499490Y-97637082D01*
X112369155Y-97409043D01*
X112366884Y-97406162D01*
X112357643Y-97394440D01*
X115444901Y-97394440D01*
X115445816Y-97401437D01*
X115445816Y-97401438D01*
X115447082Y-97411120D01*
X115461633Y-97522394D01*
X115464471Y-97528845D01*
X115464472Y-97528847D01*
X115502559Y-97615407D01*
X115513605Y-97640510D01*
X115548758Y-97682330D01*
X115592100Y-97733892D01*
X115592103Y-97733894D01*
X115596639Y-97739291D01*
X115704060Y-97810796D01*
X115710788Y-97812898D01*
X115710790Y-97812899D01*
X115765646Y-97830037D01*
X115827233Y-97849278D01*
X115891744Y-97850460D01*
X115949202Y-97851514D01*
X115949204Y-97851514D01*
X115956255Y-97851643D01*
X115963058Y-97849788D01*
X115963060Y-97849788D01*
X116007404Y-97837698D01*
X116080755Y-97817700D01*
X116190724Y-97750179D01*
X116221351Y-97716343D01*
X116272590Y-97659735D01*
X116272590Y-97659734D01*
X116277322Y-97654507D01*
X116333588Y-97538375D01*
X116354997Y-97411120D01*
X116355133Y-97400000D01*
X116354337Y-97394440D01*
X117444901Y-97394440D01*
X117445816Y-97401437D01*
X117445816Y-97401438D01*
X117447082Y-97411120D01*
X117461633Y-97522394D01*
X117464471Y-97528845D01*
X117464472Y-97528847D01*
X117502559Y-97615407D01*
X117513605Y-97640510D01*
X117548758Y-97682330D01*
X117592100Y-97733892D01*
X117592103Y-97733894D01*
X117596639Y-97739291D01*
X117704060Y-97810796D01*
X117710788Y-97812898D01*
X117710790Y-97812899D01*
X117765646Y-97830037D01*
X117827233Y-97849278D01*
X117891744Y-97850460D01*
X117949202Y-97851514D01*
X117949204Y-97851514D01*
X117956255Y-97851643D01*
X117963058Y-97849788D01*
X117963060Y-97849788D01*
X118007404Y-97837698D01*
X118080755Y-97817700D01*
X118190724Y-97750179D01*
X118221351Y-97716343D01*
X118272590Y-97659735D01*
X118272590Y-97659734D01*
X118277322Y-97654507D01*
X118333588Y-97538375D01*
X118354997Y-97411120D01*
X118355133Y-97400000D01*
X118336839Y-97272259D01*
X118283428Y-97154788D01*
X118199193Y-97057028D01*
X118193276Y-97053193D01*
X118193274Y-97053191D01*
X118113609Y-97001556D01*
X118090906Y-96986841D01*
X118084150Y-96984821D01*
X118084149Y-96984820D01*
X118012443Y-96963375D01*
X117967273Y-96949866D01*
X117890644Y-96949398D01*
X117845282Y-96949121D01*
X117838231Y-96949078D01*
X117831454Y-96951015D01*
X117831453Y-96951015D01*
X117720935Y-96982601D01*
X117720933Y-96982602D01*
X117714155Y-96984539D01*
X117605019Y-97053399D01*
X117519596Y-97150122D01*
X117464754Y-97266932D01*
X117444901Y-97394440D01*
X116354337Y-97394440D01*
X116336839Y-97272259D01*
X116283428Y-97154788D01*
X116199193Y-97057028D01*
X116193276Y-97053193D01*
X116193274Y-97053191D01*
X116113609Y-97001556D01*
X116090906Y-96986841D01*
X116084150Y-96984821D01*
X116084149Y-96984820D01*
X116012443Y-96963375D01*
X115967273Y-96949866D01*
X115890644Y-96949398D01*
X115845282Y-96949121D01*
X115838231Y-96949078D01*
X115831454Y-96951015D01*
X115831453Y-96951015D01*
X115720935Y-96982601D01*
X115720933Y-96982602D01*
X115714155Y-96984539D01*
X115605019Y-97053399D01*
X115519596Y-97150122D01*
X115464754Y-97266932D01*
X115444901Y-97394440D01*
X112357643Y-97394440D01*
X112208818Y-97205655D01*
X112208816Y-97205653D01*
X112206545Y-97202772D01*
X112015232Y-97022803D01*
X111850708Y-96908669D01*
X111802438Y-96875183D01*
X111802435Y-96875181D01*
X111799419Y-96873089D01*
X111585063Y-96767380D01*
X111567150Y-96758546D01*
X111567146Y-96758544D01*
X111563848Y-96756918D01*
X111560346Y-96755797D01*
X111560341Y-96755795D01*
X111409022Y-96707358D01*
X111313693Y-96676843D01*
X111310078Y-96676254D01*
X111310077Y-96676254D01*
X111083586Y-96639367D01*
X111029191Y-96611351D01*
X111001652Y-96556714D01*
X111000500Y-96541654D01*
X111000500Y-95819440D01*
X124194901Y-95819440D01*
X124195816Y-95826437D01*
X124195816Y-95826438D01*
X124197082Y-95836120D01*
X124211633Y-95947394D01*
X124214471Y-95953845D01*
X124214472Y-95953847D01*
X124260031Y-96057388D01*
X124263605Y-96065510D01*
X124292410Y-96099778D01*
X124342100Y-96158892D01*
X124342103Y-96158894D01*
X124346639Y-96164291D01*
X124454060Y-96235796D01*
X124460788Y-96237898D01*
X124460790Y-96237899D01*
X124504370Y-96251514D01*
X124577233Y-96274278D01*
X124641744Y-96275460D01*
X124699202Y-96276514D01*
X124699204Y-96276514D01*
X124706255Y-96276643D01*
X124713058Y-96274788D01*
X124713060Y-96274788D01*
X124754828Y-96263400D01*
X124830755Y-96242700D01*
X124940724Y-96175179D01*
X124955466Y-96158892D01*
X125022590Y-96084735D01*
X125022590Y-96084734D01*
X125027322Y-96079507D01*
X125083588Y-95963375D01*
X125094854Y-95896409D01*
X125104363Y-95839891D01*
X125104363Y-95839886D01*
X125104997Y-95836120D01*
X125105133Y-95825000D01*
X125086839Y-95697259D01*
X125033428Y-95579788D01*
X124974199Y-95511049D01*
X124953798Y-95487372D01*
X124953797Y-95487371D01*
X124949193Y-95482028D01*
X124943276Y-95478193D01*
X124943274Y-95478191D01*
X124872813Y-95432522D01*
X124840906Y-95411841D01*
X124834150Y-95409821D01*
X124834149Y-95409820D01*
X124770140Y-95390677D01*
X124717273Y-95374866D01*
X124640644Y-95374398D01*
X124595282Y-95374121D01*
X124588231Y-95374078D01*
X124581454Y-95376015D01*
X124581453Y-95376015D01*
X124470935Y-95407601D01*
X124470933Y-95407602D01*
X124464155Y-95409539D01*
X124355019Y-95478399D01*
X124269596Y-95575122D01*
X124214754Y-95691932D01*
X124194901Y-95819440D01*
X111000500Y-95819440D01*
X111000500Y-94894440D01*
X115444901Y-94894440D01*
X115445816Y-94901437D01*
X115445816Y-94901438D01*
X115447082Y-94911120D01*
X115461633Y-95022394D01*
X115464471Y-95028845D01*
X115464472Y-95028847D01*
X115471458Y-95044724D01*
X115513605Y-95140510D01*
X115555122Y-95189900D01*
X115592100Y-95233892D01*
X115592103Y-95233894D01*
X115596639Y-95239291D01*
X115704060Y-95310796D01*
X115710788Y-95312898D01*
X115710790Y-95312899D01*
X115765647Y-95330037D01*
X115827233Y-95349278D01*
X115891744Y-95350461D01*
X115949202Y-95351514D01*
X115949204Y-95351514D01*
X115956255Y-95351643D01*
X115963058Y-95349788D01*
X115963060Y-95349788D01*
X116004828Y-95338400D01*
X116080755Y-95317700D01*
X116190724Y-95250179D01*
X116201022Y-95238802D01*
X116272590Y-95159735D01*
X116272590Y-95159734D01*
X116277322Y-95154507D01*
X116333588Y-95038375D01*
X116354997Y-94911120D01*
X116355133Y-94900000D01*
X116354337Y-94894440D01*
X117444901Y-94894440D01*
X117445816Y-94901437D01*
X117445816Y-94901438D01*
X117447082Y-94911120D01*
X117461633Y-95022394D01*
X117464471Y-95028845D01*
X117464472Y-95028847D01*
X117471458Y-95044724D01*
X117513605Y-95140510D01*
X117555122Y-95189900D01*
X117592100Y-95233892D01*
X117592103Y-95233894D01*
X117596639Y-95239291D01*
X117704060Y-95310796D01*
X117710788Y-95312898D01*
X117710790Y-95312899D01*
X117765647Y-95330037D01*
X117827233Y-95349278D01*
X117891744Y-95350461D01*
X117949202Y-95351514D01*
X117949204Y-95351514D01*
X117956255Y-95351643D01*
X117963058Y-95349788D01*
X117963060Y-95349788D01*
X118004828Y-95338400D01*
X118080755Y-95317700D01*
X118190724Y-95250179D01*
X118201022Y-95238802D01*
X118272590Y-95159735D01*
X118272590Y-95159734D01*
X118277322Y-95154507D01*
X118333588Y-95038375D01*
X118354997Y-94911120D01*
X118355133Y-94900000D01*
X118336839Y-94772259D01*
X118283428Y-94654788D01*
X118214168Y-94574407D01*
X118203798Y-94562372D01*
X118203797Y-94562371D01*
X118199193Y-94557028D01*
X118193276Y-94553193D01*
X118193274Y-94553191D01*
X118096824Y-94490677D01*
X118090906Y-94486841D01*
X118084150Y-94484821D01*
X118084149Y-94484820D01*
X118028573Y-94468199D01*
X117967273Y-94449866D01*
X117890644Y-94449398D01*
X117845282Y-94449121D01*
X117838231Y-94449078D01*
X117831454Y-94451015D01*
X117831453Y-94451015D01*
X117720935Y-94482601D01*
X117720933Y-94482602D01*
X117714155Y-94484539D01*
X117605019Y-94553399D01*
X117519596Y-94650122D01*
X117464754Y-94766932D01*
X117444901Y-94894440D01*
X116354337Y-94894440D01*
X116336839Y-94772259D01*
X116283428Y-94654788D01*
X116214168Y-94574407D01*
X116203798Y-94562372D01*
X116203797Y-94562371D01*
X116199193Y-94557028D01*
X116193276Y-94553193D01*
X116193274Y-94553191D01*
X116096824Y-94490677D01*
X116090906Y-94486841D01*
X116084150Y-94484821D01*
X116084149Y-94484820D01*
X116028573Y-94468199D01*
X115967273Y-94449866D01*
X115890644Y-94449398D01*
X115845282Y-94449121D01*
X115838231Y-94449078D01*
X115831454Y-94451015D01*
X115831453Y-94451015D01*
X115720935Y-94482601D01*
X115720933Y-94482602D01*
X115714155Y-94484539D01*
X115605019Y-94553399D01*
X115519596Y-94650122D01*
X115464754Y-94766932D01*
X115444901Y-94894440D01*
X111000500Y-94894440D01*
X111000500Y-93310066D01*
X125669660Y-93310066D01*
X125673596Y-93338987D01*
X125674500Y-93352337D01*
X125674500Y-96471492D01*
X125674197Y-96475617D01*
X125672575Y-96480342D01*
X125672918Y-96489476D01*
X125674430Y-96529761D01*
X125674500Y-96533474D01*
X125674500Y-96552948D01*
X125675325Y-96557378D01*
X125675661Y-96562571D01*
X125676774Y-96592208D01*
X125680380Y-96600602D01*
X125680381Y-96600605D01*
X125681317Y-96602783D01*
X125687683Y-96623734D01*
X125689791Y-96635053D01*
X125694588Y-96642835D01*
X125703768Y-96657728D01*
X125710451Y-96670595D01*
X125720964Y-96695063D01*
X125724978Y-96699949D01*
X125729342Y-96704313D01*
X125743613Y-96722368D01*
X125748532Y-96730348D01*
X125771769Y-96748018D01*
X125781839Y-96756810D01*
X125792409Y-96767380D01*
X125820569Y-96824548D01*
X125836633Y-96947394D01*
X125839471Y-96953845D01*
X125839472Y-96953847D01*
X125885764Y-97059054D01*
X125888605Y-97065510D01*
X125930122Y-97114900D01*
X125967100Y-97158892D01*
X125967103Y-97158894D01*
X125971639Y-97164291D01*
X126079060Y-97235796D01*
X126085788Y-97237898D01*
X126085790Y-97237899D01*
X126140647Y-97255037D01*
X126202233Y-97274278D01*
X126266744Y-97275460D01*
X126324202Y-97276514D01*
X126324204Y-97276514D01*
X126331255Y-97276643D01*
X126338058Y-97274788D01*
X126338060Y-97274788D01*
X126390286Y-97260549D01*
X126455755Y-97242700D01*
X126565724Y-97175179D01*
X126584181Y-97154788D01*
X126647590Y-97084735D01*
X126647590Y-97084734D01*
X126652322Y-97079507D01*
X126708588Y-96963375D01*
X126723425Y-96875183D01*
X126729363Y-96839891D01*
X126729363Y-96839886D01*
X126729997Y-96836120D01*
X126730133Y-96825000D01*
X126711839Y-96697259D01*
X126678412Y-96623741D01*
X126661349Y-96586212D01*
X126661348Y-96586211D01*
X126658428Y-96579788D01*
X126574193Y-96482028D01*
X126568276Y-96478193D01*
X126568274Y-96478191D01*
X126471824Y-96415677D01*
X126465906Y-96411841D01*
X126459150Y-96409821D01*
X126459149Y-96409820D01*
X126346133Y-96376020D01*
X126295800Y-96341232D01*
X126275500Y-96281171D01*
X126275500Y-96231251D01*
X126294407Y-96173060D01*
X126343907Y-96137096D01*
X126405093Y-96137096D01*
X126440487Y-96157449D01*
X126442100Y-96158891D01*
X126446639Y-96164291D01*
X126452510Y-96168199D01*
X126452511Y-96168200D01*
X126529660Y-96219554D01*
X126554060Y-96235796D01*
X126560788Y-96237898D01*
X126560790Y-96237899D01*
X126604370Y-96251514D01*
X126677233Y-96274278D01*
X126741744Y-96275460D01*
X126799202Y-96276514D01*
X126799204Y-96276514D01*
X126806255Y-96276643D01*
X126813058Y-96274788D01*
X126813060Y-96274788D01*
X126854828Y-96263400D01*
X126930755Y-96242700D01*
X127040724Y-96175179D01*
X127055466Y-96158892D01*
X127122590Y-96084735D01*
X127122590Y-96084734D01*
X127127322Y-96079507D01*
X127183588Y-95963375D01*
X127194854Y-95896409D01*
X127204363Y-95839891D01*
X127204363Y-95839886D01*
X127204997Y-95836120D01*
X127205133Y-95825000D01*
X127186839Y-95697259D01*
X127163051Y-95644940D01*
X128994901Y-95644940D01*
X128995816Y-95651937D01*
X128995816Y-95651938D01*
X128996658Y-95658377D01*
X129011633Y-95772894D01*
X129014471Y-95779345D01*
X129014472Y-95779347D01*
X129039453Y-95836120D01*
X129063605Y-95891010D01*
X129101594Y-95936203D01*
X129142100Y-95984392D01*
X129142103Y-95984394D01*
X129146639Y-95989791D01*
X129254060Y-96061296D01*
X129260788Y-96063398D01*
X129260790Y-96063399D01*
X129312350Y-96079507D01*
X129377233Y-96099778D01*
X129441744Y-96100961D01*
X129499202Y-96102014D01*
X129499204Y-96102014D01*
X129506255Y-96102143D01*
X129513058Y-96100288D01*
X129513060Y-96100288D01*
X129570106Y-96084735D01*
X129630755Y-96068200D01*
X129740724Y-96000679D01*
X129827322Y-95905007D01*
X129881944Y-95792268D01*
X132008593Y-95792268D01*
X132009508Y-95799265D01*
X132009508Y-95799266D01*
X132010774Y-95808948D01*
X132025325Y-95920222D01*
X132028163Y-95926673D01*
X132028164Y-95926675D01*
X132062351Y-96004371D01*
X132077297Y-96038338D01*
X132102399Y-96068200D01*
X132155792Y-96131720D01*
X132155795Y-96131722D01*
X132160331Y-96137119D01*
X132267752Y-96208624D01*
X132274480Y-96210726D01*
X132274482Y-96210727D01*
X132329339Y-96227865D01*
X132390925Y-96247106D01*
X132455436Y-96248288D01*
X132512894Y-96249342D01*
X132512896Y-96249342D01*
X132519947Y-96249471D01*
X132526750Y-96247616D01*
X132526752Y-96247616D01*
X132586776Y-96231251D01*
X132644447Y-96215528D01*
X132754416Y-96148007D01*
X132829993Y-96064511D01*
X132836282Y-96057563D01*
X132836282Y-96057562D01*
X132841014Y-96052335D01*
X132887486Y-95956418D01*
X132894204Y-95942552D01*
X132894204Y-95942551D01*
X132897280Y-95936203D01*
X132914118Y-95836120D01*
X132918055Y-95812719D01*
X132918055Y-95812714D01*
X132918689Y-95808948D01*
X132918825Y-95797828D01*
X132918340Y-95794440D01*
X133719901Y-95794440D01*
X133720816Y-95801437D01*
X133720816Y-95801438D01*
X133721798Y-95808948D01*
X133736633Y-95922394D01*
X133739471Y-95928845D01*
X133739472Y-95928847D01*
X133785764Y-96034054D01*
X133788605Y-96040510D01*
X133825780Y-96084735D01*
X133867100Y-96133892D01*
X133867103Y-96133894D01*
X133871639Y-96139291D01*
X133979060Y-96210796D01*
X133985788Y-96212898D01*
X133985790Y-96212899D01*
X134040646Y-96230037D01*
X134102233Y-96249278D01*
X134166744Y-96250461D01*
X134224202Y-96251514D01*
X134224204Y-96251514D01*
X134231255Y-96251643D01*
X134238058Y-96249788D01*
X134238060Y-96249788D01*
X134289380Y-96235796D01*
X134355755Y-96217700D01*
X134465724Y-96150179D01*
X134543267Y-96064511D01*
X134547590Y-96059735D01*
X134547590Y-96059734D01*
X134552322Y-96054507D01*
X134593399Y-95969724D01*
X134605512Y-95944724D01*
X134605512Y-95944723D01*
X134608588Y-95938375D01*
X134626434Y-95832299D01*
X134629363Y-95814891D01*
X134629363Y-95814886D01*
X134629997Y-95811120D01*
X134630133Y-95800000D01*
X134611839Y-95672259D01*
X134558428Y-95554788D01*
X134505395Y-95493240D01*
X134478798Y-95462372D01*
X134478797Y-95462371D01*
X134474193Y-95457028D01*
X134468276Y-95453193D01*
X134468274Y-95453191D01*
X134371824Y-95390677D01*
X134365906Y-95386841D01*
X134359150Y-95384821D01*
X134359149Y-95384820D01*
X134316335Y-95372016D01*
X134242273Y-95349866D01*
X134165644Y-95349398D01*
X134120282Y-95349121D01*
X134113231Y-95349078D01*
X134106454Y-95351015D01*
X134106453Y-95351015D01*
X133995935Y-95382601D01*
X133995933Y-95382602D01*
X133989155Y-95384539D01*
X133880019Y-95453399D01*
X133794596Y-95550122D01*
X133739754Y-95666932D01*
X133719901Y-95794440D01*
X132918340Y-95794440D01*
X132900531Y-95670087D01*
X132860255Y-95581504D01*
X132850041Y-95559040D01*
X132850040Y-95559039D01*
X132847120Y-95552616D01*
X132782992Y-95478191D01*
X132767490Y-95460200D01*
X132767489Y-95460199D01*
X132762885Y-95454856D01*
X132756968Y-95451021D01*
X132756966Y-95451019D01*
X132678162Y-95399942D01*
X132654598Y-95384669D01*
X132647842Y-95382649D01*
X132647841Y-95382648D01*
X132544988Y-95351888D01*
X132530965Y-95347694D01*
X132454336Y-95347226D01*
X132408974Y-95346949D01*
X132401923Y-95346906D01*
X132395146Y-95348843D01*
X132395145Y-95348843D01*
X132284627Y-95380429D01*
X132284625Y-95380430D01*
X132277847Y-95382367D01*
X132271883Y-95386130D01*
X132257289Y-95395338D01*
X132168711Y-95451227D01*
X132083288Y-95547950D01*
X132028446Y-95664760D01*
X132008593Y-95792268D01*
X129881944Y-95792268D01*
X129883588Y-95788875D01*
X129899001Y-95697259D01*
X129904363Y-95665391D01*
X129904363Y-95665386D01*
X129904997Y-95661620D01*
X129905133Y-95650500D01*
X129886839Y-95522759D01*
X129837072Y-95413302D01*
X129836349Y-95411712D01*
X129836348Y-95411711D01*
X129833428Y-95405288D01*
X129749193Y-95307528D01*
X129743276Y-95303693D01*
X129743274Y-95303691D01*
X129646824Y-95241177D01*
X129640906Y-95237341D01*
X129634150Y-95235321D01*
X129634149Y-95235320D01*
X129591335Y-95222516D01*
X129517273Y-95200366D01*
X129440644Y-95199898D01*
X129395282Y-95199621D01*
X129388231Y-95199578D01*
X129381454Y-95201515D01*
X129381453Y-95201515D01*
X129270935Y-95233101D01*
X129270933Y-95233102D01*
X129264155Y-95235039D01*
X129155019Y-95303899D01*
X129069596Y-95400622D01*
X129014754Y-95517432D01*
X128994901Y-95644940D01*
X127163051Y-95644940D01*
X127133428Y-95579788D01*
X127074199Y-95511049D01*
X127053798Y-95487372D01*
X127053797Y-95487371D01*
X127049193Y-95482028D01*
X127043276Y-95478193D01*
X127043274Y-95478191D01*
X126972813Y-95432522D01*
X126940906Y-95411841D01*
X126934150Y-95409821D01*
X126934149Y-95409820D01*
X126870140Y-95390677D01*
X126817273Y-95374866D01*
X126740644Y-95374398D01*
X126695282Y-95374121D01*
X126688231Y-95374078D01*
X126681454Y-95376015D01*
X126681453Y-95376015D01*
X126570935Y-95407601D01*
X126570933Y-95407602D01*
X126564155Y-95409539D01*
X126455019Y-95478399D01*
X126450352Y-95483683D01*
X126450350Y-95483685D01*
X126448702Y-95485551D01*
X126446926Y-95486599D01*
X126444978Y-95488257D01*
X126444690Y-95487919D01*
X126396009Y-95516649D01*
X126335101Y-95510836D01*
X126289241Y-95470333D01*
X126275500Y-95420014D01*
X126275500Y-93644440D01*
X128944901Y-93644440D01*
X128945816Y-93651437D01*
X128945816Y-93651438D01*
X128947082Y-93661120D01*
X128961633Y-93772394D01*
X128964471Y-93778845D01*
X128964472Y-93778847D01*
X129004509Y-93869838D01*
X129013605Y-93890510D01*
X129031007Y-93911212D01*
X129092100Y-93983892D01*
X129092103Y-93983894D01*
X129096639Y-93989291D01*
X129204060Y-94060796D01*
X129210788Y-94062898D01*
X129210790Y-94062899D01*
X129265647Y-94080037D01*
X129327233Y-94099278D01*
X129391744Y-94100461D01*
X129449202Y-94101514D01*
X129449204Y-94101514D01*
X129456255Y-94101643D01*
X129463058Y-94099788D01*
X129463060Y-94099788D01*
X129504828Y-94088400D01*
X129580755Y-94067700D01*
X129679797Y-94006888D01*
X129684711Y-94003871D01*
X129690724Y-94000179D01*
X129700579Y-93989291D01*
X129772590Y-93909735D01*
X129772590Y-93909734D01*
X129777322Y-93904507D01*
X129833588Y-93788375D01*
X129854997Y-93661120D01*
X129855133Y-93650000D01*
X129836839Y-93522259D01*
X129795932Y-93432288D01*
X129786349Y-93411212D01*
X129786348Y-93411211D01*
X129783428Y-93404788D01*
X129699193Y-93307028D01*
X129693276Y-93303193D01*
X129693274Y-93303191D01*
X129616131Y-93253191D01*
X129590906Y-93236841D01*
X129584150Y-93234821D01*
X129584149Y-93234820D01*
X129541335Y-93222016D01*
X129467273Y-93199866D01*
X129390644Y-93199398D01*
X129345282Y-93199121D01*
X129338231Y-93199078D01*
X129331454Y-93201015D01*
X129331453Y-93201015D01*
X129220935Y-93232601D01*
X129220933Y-93232602D01*
X129214155Y-93234539D01*
X129208191Y-93238302D01*
X129184264Y-93253399D01*
X129105019Y-93303399D01*
X129019596Y-93400122D01*
X128964754Y-93516932D01*
X128944901Y-93644440D01*
X126275500Y-93644440D01*
X126275500Y-93490479D01*
X126294407Y-93432288D01*
X126304496Y-93420475D01*
X127605532Y-92119440D01*
X128969901Y-92119440D01*
X128970816Y-92126437D01*
X128970816Y-92126438D01*
X128972082Y-92136120D01*
X128986633Y-92247394D01*
X128989471Y-92253845D01*
X128989472Y-92253847D01*
X129035764Y-92359054D01*
X129038605Y-92365510D01*
X129062923Y-92394440D01*
X129117100Y-92458892D01*
X129117103Y-92458894D01*
X129121639Y-92464291D01*
X129229060Y-92535796D01*
X129235788Y-92537898D01*
X129235790Y-92537899D01*
X129290646Y-92555037D01*
X129352233Y-92574278D01*
X129416744Y-92575460D01*
X129474202Y-92576514D01*
X129474204Y-92576514D01*
X129481255Y-92576643D01*
X129488058Y-92574788D01*
X129488060Y-92574788D01*
X129529828Y-92563400D01*
X129605755Y-92542700D01*
X129715724Y-92475179D01*
X129777166Y-92407299D01*
X129797590Y-92384735D01*
X129797590Y-92384734D01*
X129802322Y-92379507D01*
X129858588Y-92263375D01*
X129876568Y-92156504D01*
X129879363Y-92139891D01*
X129879363Y-92139886D01*
X129879997Y-92136120D01*
X129880054Y-92131504D01*
X129880086Y-92128825D01*
X129880133Y-92125000D01*
X129861839Y-91997259D01*
X129808428Y-91879788D01*
X129724193Y-91782028D01*
X129718276Y-91778193D01*
X129718274Y-91778191D01*
X129621824Y-91715677D01*
X129615906Y-91711841D01*
X129609150Y-91709821D01*
X129609149Y-91709820D01*
X129566335Y-91697016D01*
X129492273Y-91674866D01*
X129415644Y-91674398D01*
X129370282Y-91674121D01*
X129363231Y-91674078D01*
X129356454Y-91676015D01*
X129356453Y-91676015D01*
X129245935Y-91707601D01*
X129245933Y-91707602D01*
X129239155Y-91709539D01*
X129130019Y-91778399D01*
X129044596Y-91875122D01*
X128989754Y-91991932D01*
X128969901Y-92119440D01*
X127605532Y-92119440D01*
X128866254Y-90858718D01*
X128920771Y-90830941D01*
X128981203Y-90840512D01*
X129026873Y-90888849D01*
X129035762Y-90909051D01*
X129035764Y-90909054D01*
X129038605Y-90915510D01*
X129070751Y-90953752D01*
X129117100Y-91008892D01*
X129117103Y-91008894D01*
X129121639Y-91014291D01*
X129229060Y-91085796D01*
X129235788Y-91087898D01*
X129235790Y-91087899D01*
X129290646Y-91105037D01*
X129352233Y-91124278D01*
X129416744Y-91125460D01*
X129474202Y-91126514D01*
X129474204Y-91126514D01*
X129481255Y-91126643D01*
X129488058Y-91124788D01*
X129488060Y-91124788D01*
X129529828Y-91113400D01*
X129605755Y-91092700D01*
X129715724Y-91025179D01*
X129720459Y-91019948D01*
X129797590Y-90934735D01*
X129797590Y-90934734D01*
X129802322Y-90929507D01*
X129858588Y-90813375D01*
X129872809Y-90728847D01*
X129879363Y-90689891D01*
X129879363Y-90689886D01*
X129879997Y-90686120D01*
X129880133Y-90675000D01*
X129865016Y-90569440D01*
X131469901Y-90569440D01*
X131470816Y-90576437D01*
X131470816Y-90576438D01*
X131472082Y-90586120D01*
X131486633Y-90697394D01*
X131489471Y-90703845D01*
X131489472Y-90703847D01*
X131533473Y-90803847D01*
X131538605Y-90815510D01*
X131572992Y-90856418D01*
X131617100Y-90908892D01*
X131617103Y-90908894D01*
X131621639Y-90914291D01*
X131729060Y-90985796D01*
X131735788Y-90987898D01*
X131735790Y-90987899D01*
X131790646Y-91005037D01*
X131852233Y-91024278D01*
X131916744Y-91025461D01*
X131974202Y-91026514D01*
X131974204Y-91026514D01*
X131981255Y-91026643D01*
X131988058Y-91024788D01*
X131988060Y-91024788D01*
X132046364Y-91008892D01*
X132105755Y-90992700D01*
X132215724Y-90925179D01*
X132234674Y-90904243D01*
X132297590Y-90834735D01*
X132297590Y-90834734D01*
X132302322Y-90829507D01*
X132345741Y-90739891D01*
X132355512Y-90719724D01*
X132355512Y-90719723D01*
X132358588Y-90713375D01*
X132372228Y-90632299D01*
X132374391Y-90619440D01*
X133719901Y-90619440D01*
X133720816Y-90626437D01*
X133720816Y-90626438D01*
X133722082Y-90636120D01*
X133736633Y-90747394D01*
X133739471Y-90753845D01*
X133739472Y-90753847D01*
X133784604Y-90856418D01*
X133788605Y-90865510D01*
X133821622Y-90904788D01*
X133867100Y-90958892D01*
X133867103Y-90958894D01*
X133871639Y-90964291D01*
X133962523Y-91024788D01*
X133969216Y-91029243D01*
X133979060Y-91035796D01*
X133985788Y-91037898D01*
X133985790Y-91037899D01*
X134029370Y-91051514D01*
X134102233Y-91074278D01*
X134166744Y-91075460D01*
X134224202Y-91076514D01*
X134224204Y-91076514D01*
X134231255Y-91076643D01*
X134238058Y-91074788D01*
X134238060Y-91074788D01*
X134296364Y-91058892D01*
X134355755Y-91042700D01*
X134465724Y-90975179D01*
X134510982Y-90925179D01*
X134547590Y-90884735D01*
X134547590Y-90884734D01*
X134552322Y-90879507D01*
X134597412Y-90786442D01*
X134605512Y-90769724D01*
X134605512Y-90769723D01*
X134608588Y-90763375D01*
X134622274Y-90682028D01*
X134629363Y-90639891D01*
X134629363Y-90639886D01*
X134629997Y-90636120D01*
X134630133Y-90625000D01*
X134611839Y-90497259D01*
X134558428Y-90379788D01*
X134474193Y-90282028D01*
X134468276Y-90278193D01*
X134468274Y-90278191D01*
X134385935Y-90224823D01*
X134365906Y-90211841D01*
X134359150Y-90209821D01*
X134359149Y-90209820D01*
X134295140Y-90190677D01*
X134242273Y-90174866D01*
X134165644Y-90174398D01*
X134120282Y-90174121D01*
X134113231Y-90174078D01*
X134106454Y-90176015D01*
X134106453Y-90176015D01*
X133995935Y-90207601D01*
X133995933Y-90207602D01*
X133989155Y-90209539D01*
X133983191Y-90213302D01*
X133959264Y-90228399D01*
X133880019Y-90278399D01*
X133794596Y-90375122D01*
X133739754Y-90491932D01*
X133719901Y-90619440D01*
X132374391Y-90619440D01*
X132379363Y-90589891D01*
X132379363Y-90589886D01*
X132379997Y-90586120D01*
X132380133Y-90575000D01*
X132361839Y-90447259D01*
X132322716Y-90361212D01*
X132311349Y-90336212D01*
X132311348Y-90336211D01*
X132308428Y-90329788D01*
X132245209Y-90256418D01*
X132228798Y-90237372D01*
X132228797Y-90237371D01*
X132224193Y-90232028D01*
X132218276Y-90228193D01*
X132218274Y-90228191D01*
X132121824Y-90165677D01*
X132115906Y-90161841D01*
X132109150Y-90159821D01*
X132109149Y-90159820D01*
X132042512Y-90139891D01*
X131992273Y-90124866D01*
X131915644Y-90124398D01*
X131870282Y-90124121D01*
X131863231Y-90124078D01*
X131856454Y-90126015D01*
X131856453Y-90126015D01*
X131745935Y-90157601D01*
X131745933Y-90157602D01*
X131739155Y-90159539D01*
X131630019Y-90228399D01*
X131544596Y-90325122D01*
X131489754Y-90441932D01*
X131469901Y-90569440D01*
X129865016Y-90569440D01*
X129861839Y-90547259D01*
X129828731Y-90474442D01*
X129811349Y-90436212D01*
X129811348Y-90436211D01*
X129808428Y-90429788D01*
X129724193Y-90332028D01*
X129625894Y-90268315D01*
X129587347Y-90220799D01*
X129584091Y-90159700D01*
X129609736Y-90115235D01*
X130250972Y-89474000D01*
X130899656Y-88825316D01*
X130902781Y-88822619D01*
X130907269Y-88820425D01*
X130940880Y-88784192D01*
X130943456Y-88781516D01*
X130957248Y-88767724D01*
X130959793Y-88764013D01*
X130963234Y-88760094D01*
X130977185Y-88745055D01*
X130977185Y-88745054D01*
X130983401Y-88738354D01*
X130986787Y-88729866D01*
X130986789Y-88729863D01*
X130987667Y-88727662D01*
X130997981Y-88708346D01*
X130999322Y-88706391D01*
X130999323Y-88706389D01*
X131004492Y-88698854D01*
X131010641Y-88672941D01*
X131015014Y-88659116D01*
X131022294Y-88640868D01*
X131022294Y-88640866D01*
X131024883Y-88634378D01*
X131025500Y-88628085D01*
X131025500Y-88621916D01*
X131028175Y-88599057D01*
X131028230Y-88598827D01*
X131028230Y-88598825D01*
X131030340Y-88589934D01*
X131026404Y-88561012D01*
X131025500Y-88547663D01*
X131025500Y-87165479D01*
X131044407Y-87107288D01*
X131054496Y-87095475D01*
X132470476Y-85679496D01*
X132524993Y-85651719D01*
X132540480Y-85650500D01*
X137271493Y-85650500D01*
X137275617Y-85650803D01*
X137280342Y-85652425D01*
X137289476Y-85652082D01*
X137298517Y-85653417D01*
X137298484Y-85653640D01*
X137320631Y-85656595D01*
X137370496Y-85672174D01*
X137370501Y-85672175D01*
X137377233Y-85674278D01*
X137441744Y-85675461D01*
X137499202Y-85676514D01*
X137499204Y-85676514D01*
X137506255Y-85676643D01*
X137513058Y-85674788D01*
X137513060Y-85674788D01*
X137579789Y-85656595D01*
X137630755Y-85642700D01*
X137740724Y-85575179D01*
X137745459Y-85569948D01*
X137822590Y-85484735D01*
X137822590Y-85484734D01*
X137827322Y-85479507D01*
X137883588Y-85363375D01*
X137897409Y-85281225D01*
X137904363Y-85239891D01*
X137904363Y-85239886D01*
X137904997Y-85236120D01*
X137905133Y-85225000D01*
X137886839Y-85097259D01*
X137840543Y-84995437D01*
X137836349Y-84986212D01*
X137836348Y-84986211D01*
X137833428Y-84979788D01*
X137773740Y-84910516D01*
X137753798Y-84887372D01*
X137753797Y-84887371D01*
X137749193Y-84882028D01*
X137743276Y-84878193D01*
X137743274Y-84878191D01*
X137652806Y-84819554D01*
X137640906Y-84811841D01*
X137634150Y-84809821D01*
X137634149Y-84809820D01*
X137591335Y-84797016D01*
X137517273Y-84774866D01*
X137440644Y-84774398D01*
X137395282Y-84774121D01*
X137388231Y-84774078D01*
X137381454Y-84776015D01*
X137381453Y-84776015D01*
X137270935Y-84807601D01*
X137270933Y-84807602D01*
X137264155Y-84809539D01*
X137155019Y-84878399D01*
X137069596Y-84975122D01*
X137066599Y-84981505D01*
X137066598Y-84981507D01*
X137061401Y-84992575D01*
X137019555Y-85037213D01*
X136971787Y-85049500D01*
X132428508Y-85049500D01*
X132424383Y-85049197D01*
X132419658Y-85047575D01*
X132370238Y-85049430D01*
X132366525Y-85049500D01*
X132347052Y-85049500D01*
X132342622Y-85050325D01*
X132337429Y-85050661D01*
X132318298Y-85051379D01*
X132316926Y-85051431D01*
X132307791Y-85051774D01*
X132299394Y-85055382D01*
X132299393Y-85055382D01*
X132297212Y-85056319D01*
X132276263Y-85062683D01*
X132273936Y-85063116D01*
X132273931Y-85063118D01*
X132264947Y-85064791D01*
X132252613Y-85072394D01*
X132242272Y-85078768D01*
X132229404Y-85085452D01*
X132211358Y-85093205D01*
X132211357Y-85093206D01*
X132204937Y-85095964D01*
X132200051Y-85099978D01*
X132195687Y-85104342D01*
X132177632Y-85118613D01*
X132169652Y-85123532D01*
X132151982Y-85146769D01*
X132143190Y-85156839D01*
X130550349Y-86749680D01*
X130547220Y-86752380D01*
X130542731Y-86754575D01*
X130536513Y-86761278D01*
X130509107Y-86790822D01*
X130506531Y-86793498D01*
X130492752Y-86807277D01*
X130490207Y-86810987D01*
X130486771Y-86814900D01*
X130466599Y-86836646D01*
X130463212Y-86845134D01*
X130463212Y-86845135D01*
X130462334Y-86847336D01*
X130452020Y-86866652D01*
X130450679Y-86868607D01*
X130450678Y-86868610D01*
X130445508Y-86876146D01*
X130443398Y-86885038D01*
X130439359Y-86902058D01*
X130434986Y-86915884D01*
X130431573Y-86924439D01*
X130425117Y-86940622D01*
X130424500Y-86946915D01*
X130424500Y-86953084D01*
X130421825Y-86975943D01*
X130419660Y-86985066D01*
X130421709Y-87000122D01*
X130423596Y-87013987D01*
X130424500Y-87027337D01*
X130424500Y-88409521D01*
X130405593Y-88467712D01*
X130395504Y-88479525D01*
X125800349Y-93074680D01*
X125797220Y-93077380D01*
X125792731Y-93079575D01*
X125786513Y-93086278D01*
X125759107Y-93115822D01*
X125756531Y-93118498D01*
X125742752Y-93132277D01*
X125740207Y-93135987D01*
X125736771Y-93139900D01*
X125716599Y-93161646D01*
X125713212Y-93170134D01*
X125713212Y-93170135D01*
X125712334Y-93172336D01*
X125702020Y-93191652D01*
X125700679Y-93193607D01*
X125700678Y-93193610D01*
X125695508Y-93201146D01*
X125693398Y-93210038D01*
X125689359Y-93227058D01*
X125684986Y-93240884D01*
X125677885Y-93258684D01*
X125675117Y-93265622D01*
X125674500Y-93271915D01*
X125674500Y-93278084D01*
X125671825Y-93300943D01*
X125669660Y-93310066D01*
X111000500Y-93310066D01*
X111000500Y-92394440D01*
X111444901Y-92394440D01*
X111445816Y-92401437D01*
X111445816Y-92401438D01*
X111447082Y-92411120D01*
X111461633Y-92522394D01*
X111464471Y-92528845D01*
X111464472Y-92528847D01*
X111510764Y-92634054D01*
X111513605Y-92640510D01*
X111555122Y-92689900D01*
X111592100Y-92733892D01*
X111592103Y-92733894D01*
X111596639Y-92739291D01*
X111704060Y-92810796D01*
X111710788Y-92812898D01*
X111710790Y-92812899D01*
X111754370Y-92826514D01*
X111827233Y-92849278D01*
X111891744Y-92850460D01*
X111949202Y-92851514D01*
X111949204Y-92851514D01*
X111956255Y-92851643D01*
X111963058Y-92849788D01*
X111963060Y-92849788D01*
X112004828Y-92838400D01*
X112080755Y-92817700D01*
X112190724Y-92750179D01*
X112277322Y-92654507D01*
X112315946Y-92574788D01*
X112330512Y-92544724D01*
X112330512Y-92544723D01*
X112333588Y-92538375D01*
X112354997Y-92411120D01*
X112355133Y-92400000D01*
X112354337Y-92394440D01*
X113444901Y-92394440D01*
X113445816Y-92401437D01*
X113445816Y-92401438D01*
X113447082Y-92411120D01*
X113461633Y-92522394D01*
X113464471Y-92528845D01*
X113464472Y-92528847D01*
X113510764Y-92634054D01*
X113513605Y-92640510D01*
X113555122Y-92689900D01*
X113592100Y-92733892D01*
X113592103Y-92733894D01*
X113596639Y-92739291D01*
X113704060Y-92810796D01*
X113710788Y-92812898D01*
X113710790Y-92812899D01*
X113754370Y-92826514D01*
X113827233Y-92849278D01*
X113891744Y-92850460D01*
X113949202Y-92851514D01*
X113949204Y-92851514D01*
X113956255Y-92851643D01*
X113963058Y-92849788D01*
X113963060Y-92849788D01*
X114004828Y-92838400D01*
X114080755Y-92817700D01*
X114190724Y-92750179D01*
X114277322Y-92654507D01*
X114315946Y-92574788D01*
X114330512Y-92544724D01*
X114330512Y-92544723D01*
X114333588Y-92538375D01*
X114354997Y-92411120D01*
X114355133Y-92400000D01*
X114354337Y-92394440D01*
X115444901Y-92394440D01*
X115445816Y-92401437D01*
X115445816Y-92401438D01*
X115447082Y-92411120D01*
X115461633Y-92522394D01*
X115464471Y-92528845D01*
X115464472Y-92528847D01*
X115510764Y-92634054D01*
X115513605Y-92640510D01*
X115555122Y-92689900D01*
X115592100Y-92733892D01*
X115592103Y-92733894D01*
X115596639Y-92739291D01*
X115704060Y-92810796D01*
X115710788Y-92812898D01*
X115710790Y-92812899D01*
X115754370Y-92826514D01*
X115827233Y-92849278D01*
X115891744Y-92850460D01*
X115949202Y-92851514D01*
X115949204Y-92851514D01*
X115956255Y-92851643D01*
X115963058Y-92849788D01*
X115963060Y-92849788D01*
X116004828Y-92838400D01*
X116080755Y-92817700D01*
X116190724Y-92750179D01*
X116277322Y-92654507D01*
X116315946Y-92574788D01*
X116330512Y-92544724D01*
X116330512Y-92544723D01*
X116333588Y-92538375D01*
X116354997Y-92411120D01*
X116355133Y-92400000D01*
X116354337Y-92394440D01*
X117444901Y-92394440D01*
X117445816Y-92401437D01*
X117445816Y-92401438D01*
X117447082Y-92411120D01*
X117461633Y-92522394D01*
X117464471Y-92528845D01*
X117464472Y-92528847D01*
X117510764Y-92634054D01*
X117513605Y-92640510D01*
X117555122Y-92689900D01*
X117592100Y-92733892D01*
X117592103Y-92733894D01*
X117596639Y-92739291D01*
X117704060Y-92810796D01*
X117710788Y-92812898D01*
X117710790Y-92812899D01*
X117754370Y-92826514D01*
X117827233Y-92849278D01*
X117891744Y-92850460D01*
X117949202Y-92851514D01*
X117949204Y-92851514D01*
X117956255Y-92851643D01*
X117963058Y-92849788D01*
X117963060Y-92849788D01*
X118004828Y-92838400D01*
X118080755Y-92817700D01*
X118190724Y-92750179D01*
X118277322Y-92654507D01*
X118315946Y-92574788D01*
X118330512Y-92544724D01*
X118330512Y-92544723D01*
X118333588Y-92538375D01*
X118354997Y-92411120D01*
X118355133Y-92400000D01*
X118336839Y-92272259D01*
X118283428Y-92154788D01*
X118199193Y-92057028D01*
X118193276Y-92053193D01*
X118193274Y-92053191D01*
X118106979Y-91997259D01*
X118090906Y-91986841D01*
X118084150Y-91984821D01*
X118084149Y-91984820D01*
X118020140Y-91965677D01*
X117967273Y-91949866D01*
X117890644Y-91949398D01*
X117845282Y-91949121D01*
X117838231Y-91949078D01*
X117831454Y-91951015D01*
X117831453Y-91951015D01*
X117720935Y-91982601D01*
X117720933Y-91982602D01*
X117714155Y-91984539D01*
X117605019Y-92053399D01*
X117519596Y-92150122D01*
X117464754Y-92266932D01*
X117444901Y-92394440D01*
X116354337Y-92394440D01*
X116336839Y-92272259D01*
X116283428Y-92154788D01*
X116199193Y-92057028D01*
X116193276Y-92053193D01*
X116193274Y-92053191D01*
X116106979Y-91997259D01*
X116090906Y-91986841D01*
X116084150Y-91984821D01*
X116084149Y-91984820D01*
X116020140Y-91965677D01*
X115967273Y-91949866D01*
X115890644Y-91949398D01*
X115845282Y-91949121D01*
X115838231Y-91949078D01*
X115831454Y-91951015D01*
X115831453Y-91951015D01*
X115720935Y-91982601D01*
X115720933Y-91982602D01*
X115714155Y-91984539D01*
X115605019Y-92053399D01*
X115519596Y-92150122D01*
X115464754Y-92266932D01*
X115444901Y-92394440D01*
X114354337Y-92394440D01*
X114336839Y-92272259D01*
X114283428Y-92154788D01*
X114199193Y-92057028D01*
X114193276Y-92053193D01*
X114193274Y-92053191D01*
X114106979Y-91997259D01*
X114090906Y-91986841D01*
X114084150Y-91984821D01*
X114084149Y-91984820D01*
X114020140Y-91965677D01*
X113967273Y-91949866D01*
X113890644Y-91949398D01*
X113845282Y-91949121D01*
X113838231Y-91949078D01*
X113831454Y-91951015D01*
X113831453Y-91951015D01*
X113720935Y-91982601D01*
X113720933Y-91982602D01*
X113714155Y-91984539D01*
X113605019Y-92053399D01*
X113519596Y-92150122D01*
X113464754Y-92266932D01*
X113444901Y-92394440D01*
X112354337Y-92394440D01*
X112336839Y-92272259D01*
X112283428Y-92154788D01*
X112199193Y-92057028D01*
X112193276Y-92053193D01*
X112193274Y-92053191D01*
X112106979Y-91997259D01*
X112090906Y-91986841D01*
X112084150Y-91984821D01*
X112084149Y-91984820D01*
X112020140Y-91965677D01*
X111967273Y-91949866D01*
X111890644Y-91949398D01*
X111845282Y-91949121D01*
X111838231Y-91949078D01*
X111831454Y-91951015D01*
X111831453Y-91951015D01*
X111720935Y-91982601D01*
X111720933Y-91982602D01*
X111714155Y-91984539D01*
X111605019Y-92053399D01*
X111519596Y-92150122D01*
X111464754Y-92266932D01*
X111444901Y-92394440D01*
X111000500Y-92394440D01*
X111000500Y-91592000D01*
X111019407Y-91533809D01*
X111068907Y-91497845D01*
X111099500Y-91493000D01*
X112126691Y-91493000D01*
X112126691Y-91474000D01*
X112145598Y-91415809D01*
X112195098Y-91379845D01*
X112225691Y-91375000D01*
X113125000Y-91375000D01*
X113125000Y-90719440D01*
X117444901Y-90719440D01*
X117445816Y-90726437D01*
X117445816Y-90726438D01*
X117447082Y-90736120D01*
X117461633Y-90847394D01*
X117464471Y-90853845D01*
X117464472Y-90853847D01*
X117510693Y-90958892D01*
X117513605Y-90965510D01*
X117532425Y-90987899D01*
X117592100Y-91058892D01*
X117592103Y-91058894D01*
X117596639Y-91064291D01*
X117704060Y-91135796D01*
X117710788Y-91137898D01*
X117710790Y-91137899D01*
X117765646Y-91155037D01*
X117827233Y-91174278D01*
X117891744Y-91175461D01*
X117949202Y-91176514D01*
X117949204Y-91176514D01*
X117956255Y-91176643D01*
X117963058Y-91174788D01*
X117963060Y-91174788D01*
X118027207Y-91157299D01*
X118080755Y-91142700D01*
X118190724Y-91075179D01*
X118212028Y-91051643D01*
X118272590Y-90984735D01*
X118272590Y-90984734D01*
X118277322Y-90979507D01*
X118333588Y-90863375D01*
X118347362Y-90781504D01*
X118354363Y-90739891D01*
X118354363Y-90739886D01*
X118354997Y-90736120D01*
X118355133Y-90725000D01*
X118336839Y-90597259D01*
X118335557Y-90594440D01*
X124144901Y-90594440D01*
X124145816Y-90601437D01*
X124145816Y-90601438D01*
X124147575Y-90614891D01*
X124161633Y-90722394D01*
X124164471Y-90728845D01*
X124164472Y-90728847D01*
X124210764Y-90834054D01*
X124213605Y-90840510D01*
X124250780Y-90884735D01*
X124292100Y-90933892D01*
X124292103Y-90933894D01*
X124296639Y-90939291D01*
X124404060Y-91010796D01*
X124410788Y-91012898D01*
X124410790Y-91012899D01*
X124449524Y-91025000D01*
X124527233Y-91049278D01*
X124591744Y-91050460D01*
X124649202Y-91051514D01*
X124649204Y-91051514D01*
X124656255Y-91051643D01*
X124663058Y-91049788D01*
X124663060Y-91049788D01*
X124727207Y-91032299D01*
X124780755Y-91017700D01*
X124890724Y-90950179D01*
X124905466Y-90933892D01*
X124972590Y-90859735D01*
X124972590Y-90859734D01*
X124977322Y-90854507D01*
X125018399Y-90769724D01*
X125030512Y-90744724D01*
X125030512Y-90744723D01*
X125033588Y-90738375D01*
X125045185Y-90669440D01*
X126419901Y-90669440D01*
X126420816Y-90676437D01*
X126420816Y-90676438D01*
X126421764Y-90683684D01*
X126436633Y-90797394D01*
X126439471Y-90803845D01*
X126439472Y-90803847D01*
X126478230Y-90891932D01*
X126488605Y-90915510D01*
X126520751Y-90953752D01*
X126567100Y-91008892D01*
X126567103Y-91008894D01*
X126571639Y-91014291D01*
X126679060Y-91085796D01*
X126685788Y-91087898D01*
X126685790Y-91087899D01*
X126740646Y-91105037D01*
X126802233Y-91124278D01*
X126866744Y-91125460D01*
X126924202Y-91126514D01*
X126924204Y-91126514D01*
X126931255Y-91126643D01*
X126938058Y-91124788D01*
X126938060Y-91124788D01*
X126979828Y-91113400D01*
X127055755Y-91092700D01*
X127165724Y-91025179D01*
X127170459Y-91019948D01*
X127247590Y-90934735D01*
X127247590Y-90934734D01*
X127252322Y-90929507D01*
X127308588Y-90813375D01*
X127322809Y-90728847D01*
X127329363Y-90689891D01*
X127329363Y-90689886D01*
X127329997Y-90686120D01*
X127330133Y-90675000D01*
X127311839Y-90547259D01*
X127278731Y-90474442D01*
X127261349Y-90436212D01*
X127261348Y-90436211D01*
X127258428Y-90429788D01*
X127174193Y-90332028D01*
X127168275Y-90328192D01*
X127168274Y-90328191D01*
X127085935Y-90274823D01*
X127065906Y-90261841D01*
X127059150Y-90259821D01*
X127059149Y-90259820D01*
X126984089Y-90237372D01*
X126942273Y-90224866D01*
X126865644Y-90224398D01*
X126820282Y-90224121D01*
X126813231Y-90224078D01*
X126806454Y-90226015D01*
X126806453Y-90226015D01*
X126695935Y-90257601D01*
X126695933Y-90257602D01*
X126689155Y-90259539D01*
X126683191Y-90263302D01*
X126659264Y-90278399D01*
X126580019Y-90328399D01*
X126494596Y-90425122D01*
X126439754Y-90541932D01*
X126419901Y-90669440D01*
X125045185Y-90669440D01*
X125051434Y-90632299D01*
X125054363Y-90614891D01*
X125054363Y-90614886D01*
X125054997Y-90611120D01*
X125055133Y-90600000D01*
X125036839Y-90472259D01*
X124992673Y-90375122D01*
X124986349Y-90361212D01*
X124986348Y-90361211D01*
X124983428Y-90354788D01*
X124920734Y-90282028D01*
X124903798Y-90262372D01*
X124903797Y-90262371D01*
X124899193Y-90257028D01*
X124893276Y-90253193D01*
X124893274Y-90253191D01*
X124796824Y-90190677D01*
X124790906Y-90186841D01*
X124784150Y-90184821D01*
X124784149Y-90184820D01*
X124720140Y-90165677D01*
X124667273Y-90149866D01*
X124590644Y-90149398D01*
X124545282Y-90149121D01*
X124538231Y-90149078D01*
X124531454Y-90151015D01*
X124531453Y-90151015D01*
X124420935Y-90182601D01*
X124420933Y-90182602D01*
X124414155Y-90184539D01*
X124305019Y-90253399D01*
X124219596Y-90350122D01*
X124164754Y-90466932D01*
X124144901Y-90594440D01*
X118335557Y-90594440D01*
X118283428Y-90479788D01*
X118199193Y-90382028D01*
X118193276Y-90378193D01*
X118193274Y-90378191D01*
X118111396Y-90325122D01*
X118090906Y-90311841D01*
X118084150Y-90309821D01*
X118084149Y-90309820D01*
X118009089Y-90287372D01*
X117967273Y-90274866D01*
X117890644Y-90274398D01*
X117845282Y-90274121D01*
X117838231Y-90274078D01*
X117831454Y-90276015D01*
X117831453Y-90276015D01*
X117720935Y-90307601D01*
X117720933Y-90307602D01*
X117714155Y-90309539D01*
X117708191Y-90313302D01*
X117684592Y-90328192D01*
X117605019Y-90378399D01*
X117519596Y-90475122D01*
X117464754Y-90591932D01*
X117444901Y-90719440D01*
X113125000Y-90719440D01*
X113125000Y-90119440D01*
X114219901Y-90119440D01*
X114220816Y-90126437D01*
X114220816Y-90126438D01*
X114222082Y-90136120D01*
X114236633Y-90247394D01*
X114239471Y-90253845D01*
X114239472Y-90253847D01*
X114276224Y-90337372D01*
X114288605Y-90365510D01*
X114306007Y-90386212D01*
X114367100Y-90458892D01*
X114367103Y-90458894D01*
X114371639Y-90464291D01*
X114479060Y-90535796D01*
X114485788Y-90537898D01*
X114485790Y-90537899D01*
X114538105Y-90554243D01*
X114602233Y-90574278D01*
X114666744Y-90575461D01*
X114724202Y-90576514D01*
X114724204Y-90576514D01*
X114731255Y-90576643D01*
X114738058Y-90574788D01*
X114738060Y-90574788D01*
X114783255Y-90562466D01*
X114855755Y-90542700D01*
X114955423Y-90481504D01*
X114959711Y-90478871D01*
X114965724Y-90475179D01*
X114970459Y-90469948D01*
X115047590Y-90384735D01*
X115047590Y-90384734D01*
X115052322Y-90379507D01*
X115103021Y-90274866D01*
X115105512Y-90269724D01*
X115105512Y-90269723D01*
X115108588Y-90263375D01*
X115119596Y-90197941D01*
X115129363Y-90139891D01*
X115129363Y-90139886D01*
X115129997Y-90136120D01*
X115130133Y-90125000D01*
X115111839Y-89997259D01*
X115058428Y-89879788D01*
X114974193Y-89782028D01*
X114968276Y-89778193D01*
X114968274Y-89778191D01*
X114871824Y-89715677D01*
X114865906Y-89711841D01*
X114859150Y-89709821D01*
X114859149Y-89709820D01*
X114816335Y-89697016D01*
X114742273Y-89674866D01*
X114665644Y-89674398D01*
X114620282Y-89674121D01*
X114613231Y-89674078D01*
X114606454Y-89676015D01*
X114606453Y-89676015D01*
X114495935Y-89707601D01*
X114495933Y-89707602D01*
X114489155Y-89709539D01*
X114380019Y-89778399D01*
X114294596Y-89875122D01*
X114239754Y-89991932D01*
X114219901Y-90119440D01*
X113125000Y-90119440D01*
X113125000Y-89474000D01*
X113143907Y-89415809D01*
X113193407Y-89379845D01*
X113224000Y-89375000D01*
X124875000Y-89375000D01*
X125125000Y-89125000D01*
X125125000Y-85920533D01*
X125143907Y-85862342D01*
X125159572Y-85845367D01*
X126847194Y-84398834D01*
X126903680Y-84375319D01*
X126911622Y-84375000D01*
X137375000Y-84375000D01*
X137625000Y-84125000D01*
X137625000Y-82916008D01*
X137643907Y-82857817D01*
X137653996Y-82846004D01*
X137846004Y-82653996D01*
X137900521Y-82626219D01*
X137916008Y-82625000D01*
X141333992Y-82625000D01*
X141392183Y-82643907D01*
X141403996Y-82653996D01*
X141596004Y-82846004D01*
X141623781Y-82900521D01*
X141625000Y-82916008D01*
X141625000Y-84125000D01*
X141875000Y-84375000D01*
X148875000Y-84375000D01*
X149096004Y-84153996D01*
X149150521Y-84126219D01*
X149166008Y-84125000D01*
X150330178Y-84125000D01*
X150388369Y-84143907D01*
X150399578Y-84153399D01*
X150625000Y-84375000D01*
X150861021Y-84375000D01*
X150919212Y-84393907D01*
X150955176Y-84443407D01*
X150955176Y-84504593D01*
X150931025Y-84544004D01*
X150716891Y-84758138D01*
X150713762Y-84760838D01*
X150709273Y-84763033D01*
X150703055Y-84769736D01*
X150675649Y-84799280D01*
X150673073Y-84801956D01*
X150659294Y-84815735D01*
X150656749Y-84819445D01*
X150653313Y-84823358D01*
X150633141Y-84845104D01*
X150629754Y-84853592D01*
X150629754Y-84853593D01*
X150628876Y-84855794D01*
X150618562Y-84875110D01*
X150617221Y-84877065D01*
X150617220Y-84877068D01*
X150612050Y-84884604D01*
X150609940Y-84893496D01*
X150605901Y-84910516D01*
X150601528Y-84924342D01*
X150594248Y-84942590D01*
X150591659Y-84949080D01*
X150591042Y-84955373D01*
X150591042Y-84961542D01*
X150588367Y-84984401D01*
X150586202Y-84993524D01*
X150590138Y-85022445D01*
X150591042Y-85035795D01*
X150591042Y-85243766D01*
X150572135Y-85301957D01*
X150566246Y-85309301D01*
X150511138Y-85371699D01*
X150456296Y-85488509D01*
X150436443Y-85616017D01*
X150453175Y-85743971D01*
X150456013Y-85750422D01*
X150456014Y-85750424D01*
X150501089Y-85852865D01*
X150505147Y-85862087D01*
X150530657Y-85892435D01*
X150583642Y-85955469D01*
X150583645Y-85955471D01*
X150588181Y-85960868D01*
X150695602Y-86032373D01*
X150702330Y-86034475D01*
X150702332Y-86034476D01*
X150757189Y-86051614D01*
X150818775Y-86070855D01*
X150883286Y-86072038D01*
X150940744Y-86073091D01*
X150940746Y-86073091D01*
X150947797Y-86073220D01*
X150954600Y-86071365D01*
X150954602Y-86071365D01*
X151007188Y-86057028D01*
X151072297Y-86039277D01*
X151182266Y-85971756D01*
X151242285Y-85905448D01*
X151264132Y-85881312D01*
X151264132Y-85881311D01*
X151268864Y-85876084D01*
X151312371Y-85786287D01*
X151322054Y-85766301D01*
X151322054Y-85766300D01*
X151325130Y-85759952D01*
X151325715Y-85756473D01*
X151360472Y-85708100D01*
X151418562Y-85688885D01*
X151425669Y-85689438D01*
X151427233Y-85689927D01*
X151433399Y-85690040D01*
X151467992Y-85690674D01*
X151525827Y-85710644D01*
X151536182Y-85719653D01*
X153575504Y-87758975D01*
X153603281Y-87813492D01*
X153604500Y-87828979D01*
X153604500Y-93747189D01*
X153585593Y-93805380D01*
X153579704Y-93812724D01*
X153524596Y-93875122D01*
X153469754Y-93991932D01*
X153449901Y-94119440D01*
X153466633Y-94247394D01*
X153469471Y-94253845D01*
X153469472Y-94253847D01*
X153515764Y-94359054D01*
X153518605Y-94365510D01*
X153555780Y-94409735D01*
X153597100Y-94458892D01*
X153597103Y-94458894D01*
X153601639Y-94464291D01*
X153709060Y-94535796D01*
X153715788Y-94537898D01*
X153715790Y-94537899D01*
X153770646Y-94555037D01*
X153832233Y-94574278D01*
X153896744Y-94575460D01*
X153954202Y-94576514D01*
X153954204Y-94576514D01*
X153961255Y-94576643D01*
X153968058Y-94574788D01*
X153968060Y-94574788D01*
X154033201Y-94557028D01*
X154085755Y-94542700D01*
X154195724Y-94475179D01*
X154234298Y-94432564D01*
X154287365Y-94402110D01*
X154307695Y-94400000D01*
X154600470Y-94400000D01*
X154658661Y-94418907D01*
X154676253Y-94435298D01*
X154717100Y-94483892D01*
X154717103Y-94483894D01*
X154721639Y-94489291D01*
X154829060Y-94560796D01*
X154835788Y-94562898D01*
X154835790Y-94562899D01*
X154879370Y-94576514D01*
X154952233Y-94599278D01*
X155016744Y-94600460D01*
X155074202Y-94601514D01*
X155074204Y-94601514D01*
X155081255Y-94601643D01*
X155088058Y-94599788D01*
X155088060Y-94599788D01*
X155129828Y-94588400D01*
X155205755Y-94567700D01*
X155315724Y-94500179D01*
X155361304Y-94449823D01*
X155397590Y-94409735D01*
X155397590Y-94409734D01*
X155402322Y-94404507D01*
X155458588Y-94288375D01*
X155479997Y-94161120D01*
X155480133Y-94150000D01*
X155461839Y-94022259D01*
X155426688Y-93944948D01*
X155411349Y-93911212D01*
X155411348Y-93911211D01*
X155408428Y-93904788D01*
X155349501Y-93836399D01*
X155325840Y-93779975D01*
X155325500Y-93771777D01*
X155325500Y-93594440D01*
X162219901Y-93594440D01*
X162220816Y-93601437D01*
X162220816Y-93601438D01*
X162222082Y-93611120D01*
X162236633Y-93722394D01*
X162239471Y-93728845D01*
X162239472Y-93728847D01*
X162285764Y-93834054D01*
X162288605Y-93840510D01*
X162330122Y-93889901D01*
X162367100Y-93933892D01*
X162367103Y-93933894D01*
X162371639Y-93939291D01*
X162479060Y-94010796D01*
X162485788Y-94012898D01*
X162485790Y-94012899D01*
X162538105Y-94029243D01*
X162602233Y-94049278D01*
X162666744Y-94050461D01*
X162724202Y-94051514D01*
X162724204Y-94051514D01*
X162731255Y-94051643D01*
X162738058Y-94049788D01*
X162738060Y-94049788D01*
X162779828Y-94038400D01*
X162855755Y-94017700D01*
X162965724Y-93950179D01*
X163011649Y-93899442D01*
X163047590Y-93859735D01*
X163047590Y-93859734D01*
X163052322Y-93854507D01*
X163108588Y-93738375D01*
X163122228Y-93657299D01*
X163129363Y-93614891D01*
X163129363Y-93614886D01*
X163129997Y-93611120D01*
X163130133Y-93600000D01*
X163129337Y-93594440D01*
X164969901Y-93594440D01*
X164970816Y-93601437D01*
X164970816Y-93601438D01*
X164972082Y-93611120D01*
X164986633Y-93722394D01*
X164989471Y-93728845D01*
X164989472Y-93728847D01*
X165035764Y-93834054D01*
X165038605Y-93840510D01*
X165080122Y-93889901D01*
X165117100Y-93933892D01*
X165117103Y-93933894D01*
X165121639Y-93939291D01*
X165229060Y-94010796D01*
X165235788Y-94012898D01*
X165235790Y-94012899D01*
X165288105Y-94029243D01*
X165352233Y-94049278D01*
X165416744Y-94050461D01*
X165474202Y-94051514D01*
X165474204Y-94051514D01*
X165481255Y-94051643D01*
X165488058Y-94049788D01*
X165488060Y-94049788D01*
X165529828Y-94038400D01*
X165605755Y-94017700D01*
X165715724Y-93950179D01*
X165761649Y-93899442D01*
X165797590Y-93859735D01*
X165797590Y-93859734D01*
X165802322Y-93854507D01*
X165858588Y-93738375D01*
X165872228Y-93657299D01*
X165879363Y-93614891D01*
X165879363Y-93614886D01*
X165879997Y-93611120D01*
X165880133Y-93600000D01*
X165861839Y-93472259D01*
X165808428Y-93354788D01*
X165739103Y-93274332D01*
X165728798Y-93262372D01*
X165728797Y-93262371D01*
X165724193Y-93257028D01*
X165718276Y-93253193D01*
X165718274Y-93253191D01*
X165626345Y-93193607D01*
X165615906Y-93186841D01*
X165609150Y-93184821D01*
X165609149Y-93184820D01*
X165560046Y-93170135D01*
X165492273Y-93149866D01*
X165415644Y-93149398D01*
X165370282Y-93149121D01*
X165363231Y-93149078D01*
X165356454Y-93151015D01*
X165356453Y-93151015D01*
X165245935Y-93182601D01*
X165245933Y-93182602D01*
X165239155Y-93184539D01*
X165130019Y-93253399D01*
X165044596Y-93350122D01*
X164989754Y-93466932D01*
X164969901Y-93594440D01*
X163129337Y-93594440D01*
X163111839Y-93472259D01*
X163058428Y-93354788D01*
X162989103Y-93274332D01*
X162978798Y-93262372D01*
X162978797Y-93262371D01*
X162974193Y-93257028D01*
X162968276Y-93253193D01*
X162968274Y-93253191D01*
X162876345Y-93193607D01*
X162865906Y-93186841D01*
X162859150Y-93184821D01*
X162859149Y-93184820D01*
X162810046Y-93170135D01*
X162742273Y-93149866D01*
X162665644Y-93149398D01*
X162620282Y-93149121D01*
X162613231Y-93149078D01*
X162606454Y-93151015D01*
X162606453Y-93151015D01*
X162495935Y-93182601D01*
X162495933Y-93182602D01*
X162489155Y-93184539D01*
X162380019Y-93253399D01*
X162294596Y-93350122D01*
X162239754Y-93466932D01*
X162219901Y-93594440D01*
X155325500Y-93594440D01*
X155325500Y-92369440D01*
X163644901Y-92369440D01*
X163645816Y-92376437D01*
X163645816Y-92376438D01*
X163646901Y-92384735D01*
X163661633Y-92497394D01*
X163664471Y-92503845D01*
X163664472Y-92503847D01*
X163695519Y-92574407D01*
X163713605Y-92615510D01*
X163750780Y-92659735D01*
X163792100Y-92708892D01*
X163792103Y-92708894D01*
X163796639Y-92714291D01*
X163904060Y-92785796D01*
X163910788Y-92787898D01*
X163910790Y-92787899D01*
X163965647Y-92805037D01*
X164027233Y-92824278D01*
X164091744Y-92825461D01*
X164149202Y-92826514D01*
X164149204Y-92826514D01*
X164156255Y-92826643D01*
X164163058Y-92824788D01*
X164163060Y-92824788D01*
X164214380Y-92810796D01*
X164280755Y-92792700D01*
X164390724Y-92725179D01*
X164477322Y-92629507D01*
X164521167Y-92539011D01*
X164530512Y-92519724D01*
X164530512Y-92519723D01*
X164533588Y-92513375D01*
X164551434Y-92407299D01*
X164554363Y-92389891D01*
X164554363Y-92389886D01*
X164554997Y-92386120D01*
X164555133Y-92375000D01*
X164536839Y-92247259D01*
X164483428Y-92129788D01*
X164420734Y-92057028D01*
X164403798Y-92037372D01*
X164403797Y-92037371D01*
X164399193Y-92032028D01*
X164393276Y-92028193D01*
X164393274Y-92028191D01*
X164296824Y-91965677D01*
X164290906Y-91961841D01*
X164284150Y-91959821D01*
X164284149Y-91959820D01*
X164241335Y-91947016D01*
X164167273Y-91924866D01*
X164090644Y-91924398D01*
X164045282Y-91924121D01*
X164038231Y-91924078D01*
X164031454Y-91926015D01*
X164031453Y-91926015D01*
X163920935Y-91957601D01*
X163920933Y-91957602D01*
X163914155Y-91959539D01*
X163805019Y-92028399D01*
X163719596Y-92125122D01*
X163664754Y-92241932D01*
X163644901Y-92369440D01*
X155325500Y-92369440D01*
X155325500Y-91019440D01*
X162194901Y-91019440D01*
X162195816Y-91026437D01*
X162195816Y-91026438D01*
X162197040Y-91035796D01*
X162211633Y-91147394D01*
X162214471Y-91153845D01*
X162214472Y-91153847D01*
X162260764Y-91259054D01*
X162263605Y-91265510D01*
X162282825Y-91288375D01*
X162342100Y-91358892D01*
X162342103Y-91358894D01*
X162346639Y-91364291D01*
X162454060Y-91435796D01*
X162460788Y-91437898D01*
X162460790Y-91437899D01*
X162515646Y-91455037D01*
X162577233Y-91474278D01*
X162641744Y-91475461D01*
X162699202Y-91476514D01*
X162699204Y-91476514D01*
X162706255Y-91476643D01*
X162713058Y-91474788D01*
X162713060Y-91474788D01*
X162754828Y-91463400D01*
X162830755Y-91442700D01*
X162940724Y-91375179D01*
X163027322Y-91279507D01*
X163078243Y-91174407D01*
X163080512Y-91169724D01*
X163080512Y-91169723D01*
X163083588Y-91163375D01*
X163098556Y-91074407D01*
X163104363Y-91039891D01*
X163104363Y-91039886D01*
X163104997Y-91036120D01*
X163105133Y-91025000D01*
X163086839Y-90897259D01*
X163064167Y-90847394D01*
X163036349Y-90786212D01*
X163036348Y-90786211D01*
X163033428Y-90779788D01*
X162970209Y-90706418D01*
X162953798Y-90687372D01*
X162953797Y-90687371D01*
X162949193Y-90682028D01*
X162943276Y-90678193D01*
X162943274Y-90678191D01*
X162930248Y-90669748D01*
X163599500Y-90669748D01*
X163611133Y-90728231D01*
X163655448Y-90794552D01*
X163721769Y-90838867D01*
X163731332Y-90840769D01*
X163731334Y-90840770D01*
X163754005Y-90845279D01*
X163780252Y-90850500D01*
X164937045Y-90850500D01*
X164995236Y-90869407D01*
X165031200Y-90918907D01*
X165031200Y-90980093D01*
X165026659Y-90991575D01*
X165019470Y-91006888D01*
X165014754Y-91016932D01*
X164994901Y-91144440D01*
X164995816Y-91151437D01*
X164995816Y-91151438D01*
X164997082Y-91161120D01*
X165011633Y-91272394D01*
X165014471Y-91278845D01*
X165014472Y-91278847D01*
X165058912Y-91379845D01*
X165063605Y-91390510D01*
X165084871Y-91415809D01*
X165142100Y-91483892D01*
X165142103Y-91483894D01*
X165146639Y-91489291D01*
X165254060Y-91560796D01*
X165260788Y-91562898D01*
X165260790Y-91562899D01*
X165315647Y-91580037D01*
X165377233Y-91599278D01*
X165441744Y-91600461D01*
X165499202Y-91601514D01*
X165499204Y-91601514D01*
X165506255Y-91601643D01*
X165513058Y-91599788D01*
X165513060Y-91599788D01*
X165554828Y-91588400D01*
X165630755Y-91567700D01*
X165740724Y-91500179D01*
X165762028Y-91476643D01*
X165822590Y-91409735D01*
X165822590Y-91409734D01*
X165827322Y-91404507D01*
X165883588Y-91288375D01*
X165894596Y-91222941D01*
X165904363Y-91164891D01*
X165904363Y-91164886D01*
X165904997Y-91161120D01*
X165905133Y-91150000D01*
X165886839Y-91022259D01*
X165871722Y-90989011D01*
X165855691Y-90953752D01*
X165848818Y-90892954D01*
X165878994Y-90839727D01*
X165890811Y-90830461D01*
X165905107Y-90820909D01*
X165944552Y-90794552D01*
X165988867Y-90728231D01*
X166000500Y-90669748D01*
X166000500Y-86030252D01*
X165995279Y-86004005D01*
X165990770Y-85981334D01*
X165990769Y-85981332D01*
X165988867Y-85971769D01*
X165944552Y-85905448D01*
X165878231Y-85861133D01*
X165868668Y-85859231D01*
X165868666Y-85859230D01*
X165845995Y-85854721D01*
X165819748Y-85849500D01*
X163780252Y-85849500D01*
X163754005Y-85854721D01*
X163731334Y-85859230D01*
X163731332Y-85859231D01*
X163721769Y-85861133D01*
X163655448Y-85905448D01*
X163611133Y-85971769D01*
X163609231Y-85981332D01*
X163609230Y-85981334D01*
X163604721Y-86004005D01*
X163599500Y-86030252D01*
X163599500Y-90669748D01*
X162930248Y-90669748D01*
X162872469Y-90632299D01*
X162840906Y-90611841D01*
X162834150Y-90609821D01*
X162834149Y-90609820D01*
X162767512Y-90589891D01*
X162717273Y-90574866D01*
X162640644Y-90574398D01*
X162595282Y-90574121D01*
X162588231Y-90574078D01*
X162581454Y-90576015D01*
X162581453Y-90576015D01*
X162470935Y-90607601D01*
X162470933Y-90607602D01*
X162464155Y-90609539D01*
X162355019Y-90678399D01*
X162269596Y-90775122D01*
X162214754Y-90891932D01*
X162194901Y-91019440D01*
X155325500Y-91019440D01*
X155325500Y-87845759D01*
X155325803Y-87841634D01*
X155327425Y-87836909D01*
X155325570Y-87787489D01*
X155325500Y-87783776D01*
X155325500Y-87764303D01*
X155324675Y-87759873D01*
X155324338Y-87754668D01*
X155323569Y-87734177D01*
X155323226Y-87725042D01*
X155318681Y-87714463D01*
X155312317Y-87693514D01*
X155311884Y-87691187D01*
X155311882Y-87691182D01*
X155310209Y-87682198D01*
X155296232Y-87659522D01*
X155289548Y-87646655D01*
X155281795Y-87628609D01*
X155281794Y-87628608D01*
X155279036Y-87622188D01*
X155276778Y-87619440D01*
X162244901Y-87619440D01*
X162245816Y-87626437D01*
X162245816Y-87626438D01*
X162247008Y-87635552D01*
X162261633Y-87747394D01*
X162264471Y-87753845D01*
X162264472Y-87753847D01*
X162307503Y-87851643D01*
X162313605Y-87865510D01*
X162355122Y-87914900D01*
X162392100Y-87958892D01*
X162392103Y-87958894D01*
X162396639Y-87964291D01*
X162504060Y-88035796D01*
X162510788Y-88037898D01*
X162510790Y-88037899D01*
X162565647Y-88055037D01*
X162627233Y-88074278D01*
X162691744Y-88075460D01*
X162749202Y-88076514D01*
X162749204Y-88076514D01*
X162756255Y-88076643D01*
X162763058Y-88074788D01*
X162763060Y-88074788D01*
X162804828Y-88063400D01*
X162880755Y-88042700D01*
X162990724Y-87975179D01*
X163077322Y-87879507D01*
X163133588Y-87763375D01*
X163151060Y-87659523D01*
X163154363Y-87639891D01*
X163154363Y-87639886D01*
X163154997Y-87636120D01*
X163155133Y-87625000D01*
X163136839Y-87497259D01*
X163083428Y-87379788D01*
X162999193Y-87282028D01*
X162993276Y-87278193D01*
X162993274Y-87278191D01*
X162896824Y-87215677D01*
X162890906Y-87211841D01*
X162884150Y-87209821D01*
X162884149Y-87209820D01*
X162799506Y-87184506D01*
X162767273Y-87174866D01*
X162690644Y-87174398D01*
X162645282Y-87174121D01*
X162638231Y-87174078D01*
X162631454Y-87176015D01*
X162631453Y-87176015D01*
X162520935Y-87207601D01*
X162520933Y-87207602D01*
X162514155Y-87209539D01*
X162405019Y-87278399D01*
X162319596Y-87375122D01*
X162264754Y-87491932D01*
X162244901Y-87619440D01*
X155276778Y-87619440D01*
X155275022Y-87617302D01*
X155270658Y-87612938D01*
X155256387Y-87594883D01*
X155256264Y-87594684D01*
X155251468Y-87586903D01*
X155228231Y-87569233D01*
X155218161Y-87560441D01*
X154451724Y-86794004D01*
X154423947Y-86739487D01*
X154433518Y-86679055D01*
X154476783Y-86635790D01*
X154521728Y-86625000D01*
X156125000Y-86625000D01*
X156375000Y-86375000D01*
X156375000Y-84469440D01*
X162244901Y-84469440D01*
X162245816Y-84476437D01*
X162245816Y-84476438D01*
X162247082Y-84486120D01*
X162261633Y-84597394D01*
X162264471Y-84603845D01*
X162264472Y-84603847D01*
X162306834Y-84700122D01*
X162313605Y-84715510D01*
X162349438Y-84758138D01*
X162392100Y-84808892D01*
X162392103Y-84808894D01*
X162396639Y-84814291D01*
X162504060Y-84885796D01*
X162510788Y-84887898D01*
X162510790Y-84887899D01*
X162565647Y-84905037D01*
X162627233Y-84924278D01*
X162691744Y-84925460D01*
X162749202Y-84926514D01*
X162749204Y-84926514D01*
X162756255Y-84926643D01*
X162763058Y-84924788D01*
X162763060Y-84924788D01*
X162815407Y-84910516D01*
X162880755Y-84892700D01*
X162990724Y-84825179D01*
X162995459Y-84819948D01*
X163072590Y-84734735D01*
X163072590Y-84734734D01*
X163077322Y-84729507D01*
X163133588Y-84613375D01*
X163147809Y-84528847D01*
X163154363Y-84489891D01*
X163154363Y-84489886D01*
X163154997Y-84486120D01*
X163155133Y-84475000D01*
X163143596Y-84394440D01*
X164619901Y-84394440D01*
X164620816Y-84401437D01*
X164620816Y-84401438D01*
X164621998Y-84410478D01*
X164636633Y-84522394D01*
X164639471Y-84528845D01*
X164639472Y-84528847D01*
X164676665Y-84613375D01*
X164688605Y-84640510D01*
X164711461Y-84667700D01*
X164767100Y-84733892D01*
X164767103Y-84733894D01*
X164771639Y-84739291D01*
X164879060Y-84810796D01*
X164885788Y-84812898D01*
X164885790Y-84812899D01*
X164919268Y-84823358D01*
X165002233Y-84849278D01*
X165066744Y-84850460D01*
X165124202Y-84851514D01*
X165124204Y-84851514D01*
X165131255Y-84851643D01*
X165138058Y-84849788D01*
X165138060Y-84849788D01*
X165179828Y-84838400D01*
X165255755Y-84817700D01*
X165365724Y-84750179D01*
X165384181Y-84729788D01*
X165447590Y-84659735D01*
X165447590Y-84659734D01*
X165452322Y-84654507D01*
X165508588Y-84538375D01*
X165526226Y-84433534D01*
X165529363Y-84414891D01*
X165529363Y-84414886D01*
X165529997Y-84411120D01*
X165530133Y-84400000D01*
X165511839Y-84272259D01*
X165458428Y-84154788D01*
X165383389Y-84067700D01*
X165378798Y-84062372D01*
X165378797Y-84062371D01*
X165374193Y-84057028D01*
X165368276Y-84053193D01*
X165368274Y-84053191D01*
X165286396Y-84000122D01*
X165265906Y-83986841D01*
X165259150Y-83984821D01*
X165259149Y-83984820D01*
X165216335Y-83972016D01*
X165142273Y-83949866D01*
X165065644Y-83949398D01*
X165020282Y-83949121D01*
X165013231Y-83949078D01*
X165006454Y-83951015D01*
X165006453Y-83951015D01*
X164895935Y-83982601D01*
X164895933Y-83982602D01*
X164889155Y-83984539D01*
X164780019Y-84053399D01*
X164694596Y-84150122D01*
X164639754Y-84266932D01*
X164619901Y-84394440D01*
X163143596Y-84394440D01*
X163136839Y-84347259D01*
X163115618Y-84300585D01*
X163086349Y-84236212D01*
X163086348Y-84236211D01*
X163083428Y-84229788D01*
X163018122Y-84153996D01*
X163003798Y-84137372D01*
X163003797Y-84137371D01*
X162999193Y-84132028D01*
X162993276Y-84128193D01*
X162993274Y-84128191D01*
X162896824Y-84065677D01*
X162890906Y-84061841D01*
X162884150Y-84059821D01*
X162884149Y-84059820D01*
X162812443Y-84038375D01*
X162767273Y-84024866D01*
X162690644Y-84024398D01*
X162645282Y-84024121D01*
X162638231Y-84024078D01*
X162631454Y-84026015D01*
X162631453Y-84026015D01*
X162520935Y-84057601D01*
X162520933Y-84057602D01*
X162514155Y-84059539D01*
X162405019Y-84128399D01*
X162319596Y-84225122D01*
X162264754Y-84341932D01*
X162244901Y-84469440D01*
X156375000Y-84469440D01*
X156375000Y-83916008D01*
X156393907Y-83857817D01*
X156403996Y-83846004D01*
X156596004Y-83653996D01*
X156650521Y-83626219D01*
X156666008Y-83625000D01*
X157125000Y-83625000D01*
X157375000Y-83375000D01*
X157375000Y-82416008D01*
X157393907Y-82357817D01*
X157403996Y-82346004D01*
X157646004Y-82103996D01*
X157700521Y-82076219D01*
X157716008Y-82075000D01*
X158675000Y-82075000D01*
X158875000Y-81875000D01*
X158875000Y-81869440D01*
X162244901Y-81869440D01*
X162245816Y-81876437D01*
X162245816Y-81876438D01*
X162247082Y-81886120D01*
X162261633Y-81997394D01*
X162264471Y-82003845D01*
X162264472Y-82003847D01*
X162310764Y-82109054D01*
X162313605Y-82115510D01*
X162346622Y-82154788D01*
X162392100Y-82208892D01*
X162392103Y-82208894D01*
X162396639Y-82214291D01*
X162504060Y-82285796D01*
X162510788Y-82287898D01*
X162510790Y-82287899D01*
X162565647Y-82305037D01*
X162627233Y-82324278D01*
X162691744Y-82325460D01*
X162749202Y-82326514D01*
X162749204Y-82326514D01*
X162756255Y-82326643D01*
X162763058Y-82324788D01*
X162763060Y-82324788D01*
X162825094Y-82307875D01*
X162880755Y-82292700D01*
X162990724Y-82225179D01*
X163077322Y-82129507D01*
X163121388Y-82038556D01*
X163130512Y-82019724D01*
X163130512Y-82019723D01*
X163133588Y-82013375D01*
X163150791Y-81911120D01*
X163154363Y-81889891D01*
X163154363Y-81889886D01*
X163154997Y-81886120D01*
X163155133Y-81875000D01*
X163136839Y-81747259D01*
X163083428Y-81629788D01*
X163020734Y-81557028D01*
X163003798Y-81537372D01*
X163003797Y-81537371D01*
X162999193Y-81532028D01*
X162993276Y-81528193D01*
X162993274Y-81528191D01*
X162908372Y-81473162D01*
X162890906Y-81461841D01*
X162884150Y-81459821D01*
X162884149Y-81459820D01*
X162832722Y-81444440D01*
X162767273Y-81424866D01*
X162690644Y-81424398D01*
X162645282Y-81424121D01*
X162638231Y-81424078D01*
X162631454Y-81426015D01*
X162631453Y-81426015D01*
X162520935Y-81457601D01*
X162520933Y-81457602D01*
X162514155Y-81459539D01*
X162405019Y-81528399D01*
X162319596Y-81625122D01*
X162264754Y-81741932D01*
X162244901Y-81869440D01*
X158875000Y-81869440D01*
X158875000Y-81219440D01*
X164994901Y-81219440D01*
X164995816Y-81226437D01*
X164995816Y-81226438D01*
X164998623Y-81247903D01*
X165011633Y-81347394D01*
X165014471Y-81353845D01*
X165014472Y-81353847D01*
X165056780Y-81450000D01*
X165063605Y-81465510D01*
X165100645Y-81509574D01*
X165142100Y-81558892D01*
X165142103Y-81558894D01*
X165146639Y-81564291D01*
X165254060Y-81635796D01*
X165260788Y-81637898D01*
X165260790Y-81637899D01*
X165315647Y-81655037D01*
X165377233Y-81674278D01*
X165441744Y-81675460D01*
X165499202Y-81676514D01*
X165499204Y-81676514D01*
X165506255Y-81676643D01*
X165513058Y-81674788D01*
X165513060Y-81674788D01*
X165563192Y-81661120D01*
X165630755Y-81642700D01*
X165740724Y-81575179D01*
X165747042Y-81568199D01*
X165822590Y-81484735D01*
X165822590Y-81484734D01*
X165827322Y-81479507D01*
X165883588Y-81363375D01*
X165900846Y-81260796D01*
X165904363Y-81239891D01*
X165904363Y-81239886D01*
X165904997Y-81236120D01*
X165905133Y-81225000D01*
X165886839Y-81097259D01*
X165833428Y-80979788D01*
X165771821Y-80908289D01*
X165753798Y-80887372D01*
X165753797Y-80887371D01*
X165749193Y-80882028D01*
X165743276Y-80878193D01*
X165743274Y-80878191D01*
X165646824Y-80815677D01*
X165640906Y-80811841D01*
X165634150Y-80809821D01*
X165634149Y-80809820D01*
X165582722Y-80794440D01*
X165517273Y-80774866D01*
X165440644Y-80774398D01*
X165395282Y-80774121D01*
X165388231Y-80774078D01*
X165381454Y-80776015D01*
X165381453Y-80776015D01*
X165270935Y-80807601D01*
X165270933Y-80807602D01*
X165264155Y-80809539D01*
X165155019Y-80878399D01*
X165069596Y-80975122D01*
X165014754Y-81091932D01*
X164994901Y-81219440D01*
X158875000Y-81219440D01*
X158875000Y-78919440D01*
X164994901Y-78919440D01*
X164995816Y-78926437D01*
X164995816Y-78926438D01*
X164997082Y-78936120D01*
X165011633Y-79047394D01*
X165014471Y-79053845D01*
X165014472Y-79053847D01*
X165021458Y-79069724D01*
X165063605Y-79165510D01*
X165091822Y-79199078D01*
X165142100Y-79258892D01*
X165142103Y-79258894D01*
X165146639Y-79264291D01*
X165254060Y-79335796D01*
X165260788Y-79337898D01*
X165260790Y-79337899D01*
X165315647Y-79355037D01*
X165377233Y-79374278D01*
X165441744Y-79375461D01*
X165499202Y-79376514D01*
X165499204Y-79376514D01*
X165506255Y-79376643D01*
X165513058Y-79374788D01*
X165513060Y-79374788D01*
X165578201Y-79357028D01*
X165630755Y-79342700D01*
X165740724Y-79275179D01*
X165763636Y-79249866D01*
X165822590Y-79184735D01*
X165822590Y-79184734D01*
X165827322Y-79179507D01*
X165883588Y-79063375D01*
X165895386Y-78993245D01*
X165904363Y-78939891D01*
X165904363Y-78939886D01*
X165904997Y-78936120D01*
X165905133Y-78925000D01*
X165886839Y-78797259D01*
X165844820Y-78704843D01*
X165836349Y-78686212D01*
X165836348Y-78686211D01*
X165833428Y-78679788D01*
X165766094Y-78601643D01*
X165753798Y-78587372D01*
X165753797Y-78587371D01*
X165749193Y-78582028D01*
X165743276Y-78578193D01*
X165743274Y-78578191D01*
X165646824Y-78515677D01*
X165640906Y-78511841D01*
X165634150Y-78509821D01*
X165634149Y-78509820D01*
X165591335Y-78497016D01*
X165517273Y-78474866D01*
X165440644Y-78474398D01*
X165395282Y-78474121D01*
X165388231Y-78474078D01*
X165381454Y-78476015D01*
X165381453Y-78476015D01*
X165270935Y-78507601D01*
X165270933Y-78507602D01*
X165264155Y-78509539D01*
X165155019Y-78578399D01*
X165069596Y-78675122D01*
X165014754Y-78791932D01*
X164994901Y-78919440D01*
X158875000Y-78919440D01*
X158875000Y-78354170D01*
X158893907Y-78295979D01*
X158910263Y-78278532D01*
X158915724Y-78275179D01*
X158920452Y-78269956D01*
X158920454Y-78269954D01*
X158997590Y-78184735D01*
X158997590Y-78184734D01*
X159002322Y-78179507D01*
X159058588Y-78063375D01*
X159077797Y-77949196D01*
X159079363Y-77939891D01*
X159079363Y-77939886D01*
X159079997Y-77936120D01*
X159080133Y-77925000D01*
X159061839Y-77797259D01*
X159033322Y-77734539D01*
X159011349Y-77686212D01*
X159011348Y-77686211D01*
X159008428Y-77679788D01*
X158955395Y-77618240D01*
X158928798Y-77587372D01*
X158928797Y-77587371D01*
X158924193Y-77582028D01*
X158918274Y-77578192D01*
X158912959Y-77573555D01*
X158914225Y-77572103D01*
X158881606Y-77531892D01*
X158875000Y-77496334D01*
X158875000Y-77144440D01*
X163369901Y-77144440D01*
X163370816Y-77151437D01*
X163370816Y-77151438D01*
X163371812Y-77159054D01*
X163386633Y-77272394D01*
X163389471Y-77278845D01*
X163389472Y-77278847D01*
X163435764Y-77384054D01*
X163438605Y-77390510D01*
X163458643Y-77414348D01*
X163517100Y-77483892D01*
X163517103Y-77483894D01*
X163521639Y-77489291D01*
X163629060Y-77560796D01*
X163635788Y-77562898D01*
X163635790Y-77562899D01*
X163672213Y-77574278D01*
X163752233Y-77599278D01*
X163816744Y-77600460D01*
X163874202Y-77601514D01*
X163874204Y-77601514D01*
X163881255Y-77601643D01*
X163888058Y-77599788D01*
X163888060Y-77599788D01*
X163953201Y-77582028D01*
X164005755Y-77567700D01*
X164115724Y-77500179D01*
X164184227Y-77424498D01*
X164197590Y-77409735D01*
X164197590Y-77409734D01*
X164202322Y-77404507D01*
X164258588Y-77288375D01*
X164277971Y-77173162D01*
X164279363Y-77164891D01*
X164279363Y-77164886D01*
X164279997Y-77161120D01*
X164280133Y-77150000D01*
X164261839Y-77022259D01*
X164229100Y-76950254D01*
X164215090Y-76919440D01*
X165244901Y-76919440D01*
X165245816Y-76926437D01*
X165245816Y-76926438D01*
X165247040Y-76935796D01*
X165261633Y-77047394D01*
X165264471Y-77053845D01*
X165264472Y-77053847D01*
X165308664Y-77154281D01*
X165313605Y-77165510D01*
X165340293Y-77197259D01*
X165392100Y-77258892D01*
X165392103Y-77258894D01*
X165396639Y-77264291D01*
X165504060Y-77335796D01*
X165510788Y-77337898D01*
X165510790Y-77337899D01*
X165554223Y-77351468D01*
X165627233Y-77374278D01*
X165691744Y-77375461D01*
X165749202Y-77376514D01*
X165749204Y-77376514D01*
X165756255Y-77376643D01*
X165763058Y-77374788D01*
X165763060Y-77374788D01*
X165808248Y-77362468D01*
X165880755Y-77342700D01*
X165990724Y-77275179D01*
X166000579Y-77264291D01*
X166072590Y-77184735D01*
X166072590Y-77184734D01*
X166077322Y-77179507D01*
X166133588Y-77063375D01*
X166148180Y-76976643D01*
X166154363Y-76939891D01*
X166154363Y-76939886D01*
X166154997Y-76936120D01*
X166155133Y-76925000D01*
X166136839Y-76797259D01*
X166108322Y-76734539D01*
X166086349Y-76686212D01*
X166086348Y-76686211D01*
X166083428Y-76679788D01*
X166014743Y-76600075D01*
X166003798Y-76587372D01*
X166003797Y-76587371D01*
X165999193Y-76582028D01*
X165993276Y-76578193D01*
X165993274Y-76578191D01*
X165911208Y-76525000D01*
X165890906Y-76511841D01*
X165884150Y-76509821D01*
X165884149Y-76509820D01*
X165820167Y-76490685D01*
X165767273Y-76474866D01*
X165690644Y-76474398D01*
X165645282Y-76474121D01*
X165638231Y-76474078D01*
X165631454Y-76476015D01*
X165631453Y-76476015D01*
X165520935Y-76507601D01*
X165520933Y-76507602D01*
X165514155Y-76509539D01*
X165405019Y-76578399D01*
X165319596Y-76675122D01*
X165264754Y-76791932D01*
X165244901Y-76919440D01*
X164215090Y-76919440D01*
X164211349Y-76911212D01*
X164211348Y-76911211D01*
X164208428Y-76904788D01*
X164124193Y-76807028D01*
X164118276Y-76803193D01*
X164118274Y-76803191D01*
X164021824Y-76740677D01*
X164015906Y-76736841D01*
X164009150Y-76734821D01*
X164009149Y-76734820D01*
X163966335Y-76722016D01*
X163892273Y-76699866D01*
X163815644Y-76699398D01*
X163770282Y-76699121D01*
X163763231Y-76699078D01*
X163756454Y-76701015D01*
X163756453Y-76701015D01*
X163645935Y-76732601D01*
X163645933Y-76732602D01*
X163639155Y-76734539D01*
X163530019Y-76803399D01*
X163444596Y-76900122D01*
X163389754Y-77016932D01*
X163369901Y-77144440D01*
X158875000Y-77144440D01*
X158875000Y-76829170D01*
X158893907Y-76770979D01*
X158910263Y-76753532D01*
X158915724Y-76750179D01*
X158920452Y-76744956D01*
X158920454Y-76744954D01*
X158997590Y-76659735D01*
X158997590Y-76659734D01*
X159002322Y-76654507D01*
X159058588Y-76538375D01*
X159071718Y-76460329D01*
X159079363Y-76414891D01*
X159079363Y-76414886D01*
X159079997Y-76411120D01*
X159080133Y-76400000D01*
X159061839Y-76272259D01*
X159039296Y-76222679D01*
X159011349Y-76161212D01*
X159011348Y-76161211D01*
X159008428Y-76154788D01*
X158946646Y-76083086D01*
X158928798Y-76062372D01*
X158928797Y-76062371D01*
X158924193Y-76057028D01*
X158918274Y-76053192D01*
X158912959Y-76048555D01*
X158914225Y-76047103D01*
X158881606Y-76006892D01*
X158875000Y-75971334D01*
X158875000Y-73375000D01*
X158125000Y-72625000D01*
X149625000Y-72625000D01*
X148925000Y-73325000D01*
X148925000Y-80033992D01*
X148906093Y-80092183D01*
X148896004Y-80103996D01*
X148653996Y-80346004D01*
X148599479Y-80373781D01*
X148583992Y-80375000D01*
X144416008Y-80375000D01*
X144357817Y-80356093D01*
X144346004Y-80346004D01*
X144153996Y-80153996D01*
X144126219Y-80099479D01*
X144125000Y-80083992D01*
X144125000Y-73375000D01*
X143375000Y-72625000D01*
X119875000Y-72625000D01*
X118854701Y-73863935D01*
X118803114Y-73896835D01*
X118778280Y-73900000D01*
X111099500Y-73900000D01*
X111041309Y-73881093D01*
X111005345Y-73831593D01*
X111000500Y-73801000D01*
X111000500Y-69431597D01*
X111000826Y-69429539D01*
X111000826Y-69414914D01*
X111005672Y-69400000D01*
X111002835Y-69391268D01*
X111003896Y-69388001D01*
X111001703Y-69387785D01*
X111013465Y-69268361D01*
X111017251Y-69249327D01*
X111052819Y-69132076D01*
X111060246Y-69114146D01*
X111118003Y-69006090D01*
X111128785Y-68989953D01*
X111173487Y-68935483D01*
X111206518Y-68895235D01*
X111220235Y-68881518D01*
X111314953Y-68803785D01*
X111331090Y-68793003D01*
X111439146Y-68735246D01*
X111457076Y-68727819D01*
X111515702Y-68710035D01*
X111574329Y-68692251D01*
X111593359Y-68688465D01*
X111712785Y-68676703D01*
X111712895Y-68677819D01*
X111714920Y-68677397D01*
X111725000Y-68680672D01*
X111739914Y-68675826D01*
X111754539Y-68675826D01*
X111756597Y-68675500D01*
X178068403Y-68675500D01*
X178070461Y-68675826D01*
G37*
%TD.AperFunction*%
%TD*%
%TA.AperFunction,Conductor*%
%TO.N,GND*%
G36*
X143142183Y-72893907D02*
G01*
X143153996Y-72903996D01*
X143846004Y-73596004D01*
X143873781Y-73650521D01*
X143875000Y-73666008D01*
X143875000Y-80375000D01*
X144125000Y-80625000D01*
X148600000Y-80650000D01*
X149125000Y-80125000D01*
X149125136Y-80088302D01*
X149137079Y-76851560D01*
X149143193Y-75194748D01*
X153824500Y-75194748D01*
X153825448Y-75199512D01*
X153834138Y-75243199D01*
X153836133Y-75253231D01*
X153880448Y-75319552D01*
X153946769Y-75363867D01*
X153956332Y-75365769D01*
X153956334Y-75365770D01*
X153979005Y-75370279D01*
X154005252Y-75375500D01*
X154894748Y-75375500D01*
X154920995Y-75370279D01*
X154943666Y-75365770D01*
X154943668Y-75365769D01*
X154953231Y-75363867D01*
X155019552Y-75319552D01*
X155063867Y-75253231D01*
X155065863Y-75243199D01*
X155074552Y-75199512D01*
X155075500Y-75194748D01*
X155075500Y-74305252D01*
X155063867Y-74246769D01*
X155019552Y-74180448D01*
X154953231Y-74136133D01*
X154943668Y-74134231D01*
X154943666Y-74134230D01*
X154920995Y-74129721D01*
X154894748Y-74124500D01*
X154005252Y-74124500D01*
X153979005Y-74129721D01*
X153956334Y-74134230D01*
X153956332Y-74134231D01*
X153946769Y-74136133D01*
X153880448Y-74180448D01*
X153836133Y-74246769D01*
X153824500Y-74305252D01*
X153824500Y-75194748D01*
X149143193Y-75194748D01*
X149149849Y-73390794D01*
X149168971Y-73332674D01*
X149178844Y-73321156D01*
X149596004Y-72903996D01*
X149650521Y-72876219D01*
X149666008Y-72875000D01*
X157833992Y-72875000D01*
X157892183Y-72893907D01*
X157903996Y-72903996D01*
X158596004Y-73596004D01*
X158623781Y-73650521D01*
X158625000Y-73666008D01*
X158625000Y-75856754D01*
X158606093Y-75914945D01*
X158553205Y-75951943D01*
X158445935Y-75982601D01*
X158445933Y-75982602D01*
X158439155Y-75984539D01*
X158330019Y-76053399D01*
X158325351Y-76058685D01*
X158325347Y-76058688D01*
X158318858Y-76066035D01*
X158266166Y-76097135D01*
X158244655Y-76099500D01*
X155583276Y-76099500D01*
X155579147Y-76099197D01*
X155574420Y-76097574D01*
X155533028Y-76099128D01*
X155524985Y-76099430D01*
X155521271Y-76099500D01*
X155501814Y-76099500D01*
X155497384Y-76100325D01*
X155492198Y-76100661D01*
X155471687Y-76101431D01*
X155471686Y-76101431D01*
X155462554Y-76101774D01*
X155454160Y-76105380D01*
X155454157Y-76105381D01*
X155451979Y-76106317D01*
X155431028Y-76112683D01*
X155419709Y-76114791D01*
X155397031Y-76128770D01*
X155384172Y-76135450D01*
X155359700Y-76145964D01*
X155354814Y-76149977D01*
X155350449Y-76154342D01*
X155332394Y-76168613D01*
X155324414Y-76173532D01*
X155306744Y-76196769D01*
X155297952Y-76206839D01*
X153752830Y-77751961D01*
X153749701Y-77754661D01*
X153745212Y-77756856D01*
X153738994Y-77763559D01*
X153711588Y-77793103D01*
X153709012Y-77795779D01*
X153695233Y-77809558D01*
X153692688Y-77813268D01*
X153689252Y-77817181D01*
X153669080Y-77838927D01*
X153665693Y-77847415D01*
X153665693Y-77847416D01*
X153664815Y-77849617D01*
X153654501Y-77868933D01*
X153653160Y-77870888D01*
X153653159Y-77870891D01*
X153647989Y-77878427D01*
X153645879Y-77887319D01*
X153641840Y-77904339D01*
X153637467Y-77918165D01*
X153630304Y-77936120D01*
X153627598Y-77942903D01*
X153626981Y-77949196D01*
X153626981Y-77955365D01*
X153624306Y-77978224D01*
X153622141Y-77987347D01*
X153624106Y-78001784D01*
X153626077Y-78016268D01*
X153626981Y-78029618D01*
X153626981Y-79682039D01*
X153608074Y-79740230D01*
X153597985Y-79752043D01*
X153529664Y-79820364D01*
X153475147Y-79848141D01*
X153459060Y-79849358D01*
X153422529Y-79849135D01*
X153420282Y-79849121D01*
X153413231Y-79849078D01*
X153406455Y-79851015D01*
X153406452Y-79851015D01*
X153295935Y-79882601D01*
X153295933Y-79882602D01*
X153289155Y-79884539D01*
X153180019Y-79953399D01*
X153094596Y-80050122D01*
X153039754Y-80166932D01*
X153019901Y-80294440D01*
X153020816Y-80301437D01*
X153020816Y-80301438D01*
X153022082Y-80311120D01*
X153036633Y-80422394D01*
X153039471Y-80428845D01*
X153039472Y-80428847D01*
X153071413Y-80501438D01*
X153088605Y-80540510D01*
X153130122Y-80589900D01*
X153167100Y-80633892D01*
X153167103Y-80633894D01*
X153171639Y-80639291D01*
X153279060Y-80710796D01*
X153285788Y-80712898D01*
X153285790Y-80712899D01*
X153340647Y-80730037D01*
X153402233Y-80749278D01*
X153466744Y-80750461D01*
X153524202Y-80751514D01*
X153524204Y-80751514D01*
X153531255Y-80751643D01*
X153538058Y-80749788D01*
X153538060Y-80749788D01*
X153595770Y-80734054D01*
X153655755Y-80717700D01*
X153765724Y-80650179D01*
X153852322Y-80554507D01*
X153908588Y-80438375D01*
X153929997Y-80311120D01*
X153930044Y-80307301D01*
X153930386Y-80303484D01*
X153932081Y-80303636D01*
X153949648Y-80251784D01*
X153959003Y-80240968D01*
X154030496Y-80169475D01*
X154085013Y-80141698D01*
X154145445Y-80151269D01*
X154188710Y-80194534D01*
X154199500Y-80239479D01*
X154199500Y-82493786D01*
X154199197Y-82497911D01*
X154197575Y-82502636D01*
X154197918Y-82511770D01*
X154199430Y-82552055D01*
X154199500Y-82555768D01*
X154199500Y-82575242D01*
X154200325Y-82579672D01*
X154200661Y-82584865D01*
X154201774Y-82614502D01*
X154205380Y-82622896D01*
X154205381Y-82622899D01*
X154206317Y-82625077D01*
X154212683Y-82646028D01*
X154214791Y-82657347D01*
X154228768Y-82680022D01*
X154235451Y-82692889D01*
X154245964Y-82717357D01*
X154249978Y-82722243D01*
X154254342Y-82726607D01*
X154268613Y-82744662D01*
X154273532Y-82752642D01*
X154296769Y-82770312D01*
X154306839Y-82779104D01*
X154494236Y-82966501D01*
X154522396Y-83023669D01*
X154538460Y-83146515D01*
X154541298Y-83152966D01*
X154541299Y-83152968D01*
X154548285Y-83168845D01*
X154590432Y-83264631D01*
X154610391Y-83288375D01*
X154668927Y-83358013D01*
X154668930Y-83358015D01*
X154673466Y-83363412D01*
X154780887Y-83434917D01*
X154787615Y-83437019D01*
X154787617Y-83437020D01*
X154842474Y-83454158D01*
X154904060Y-83473399D01*
X154968571Y-83474582D01*
X155026029Y-83475635D01*
X155026031Y-83475635D01*
X155033082Y-83475764D01*
X155039885Y-83473909D01*
X155039887Y-83473909D01*
X155081655Y-83462521D01*
X155157582Y-83441821D01*
X155267551Y-83374300D01*
X155304197Y-83333814D01*
X155349417Y-83283856D01*
X155349417Y-83283855D01*
X155354149Y-83278628D01*
X155410415Y-83162496D01*
X155431824Y-83035241D01*
X155431960Y-83024121D01*
X155413666Y-82896380D01*
X155360255Y-82778909D01*
X155276020Y-82681149D01*
X155270103Y-82677314D01*
X155270101Y-82677312D01*
X155173651Y-82614798D01*
X155167733Y-82610962D01*
X155160977Y-82608942D01*
X155160976Y-82608941D01*
X155118162Y-82596137D01*
X155044100Y-82573987D01*
X155025171Y-82573871D01*
X154991749Y-82573667D01*
X154933675Y-82554404D01*
X154922350Y-82544673D01*
X154829496Y-82451819D01*
X154801719Y-82397302D01*
X154800500Y-82381815D01*
X154800500Y-81964479D01*
X154819407Y-81906288D01*
X154868907Y-81870324D01*
X154930093Y-81870324D01*
X154969504Y-81894475D01*
X155055965Y-81980936D01*
X155084125Y-82038104D01*
X155100189Y-82160950D01*
X155103027Y-82167401D01*
X155103028Y-82167403D01*
X155110014Y-82183280D01*
X155152161Y-82279066D01*
X155193678Y-82328456D01*
X155230656Y-82372448D01*
X155230659Y-82372450D01*
X155235195Y-82377847D01*
X155342616Y-82449352D01*
X155349344Y-82451454D01*
X155349346Y-82451455D01*
X155404202Y-82468593D01*
X155465789Y-82487834D01*
X155530300Y-82489017D01*
X155587758Y-82490070D01*
X155587760Y-82490070D01*
X155594811Y-82490199D01*
X155601614Y-82488344D01*
X155601616Y-82488344D01*
X155643384Y-82476956D01*
X155719311Y-82456256D01*
X155829280Y-82388735D01*
X155915878Y-82293063D01*
X155972144Y-82176931D01*
X155993553Y-82049676D01*
X155993689Y-82038556D01*
X155975395Y-81910815D01*
X155921984Y-81793344D01*
X155837749Y-81695584D01*
X155831832Y-81691749D01*
X155831830Y-81691747D01*
X155735380Y-81629233D01*
X155729462Y-81625397D01*
X155722706Y-81623377D01*
X155722705Y-81623376D01*
X155679891Y-81610572D01*
X155605829Y-81588422D01*
X155586750Y-81588305D01*
X155553478Y-81588102D01*
X155495404Y-81568839D01*
X155484080Y-81559108D01*
X155229497Y-81304526D01*
X155201719Y-81250009D01*
X155200500Y-81234522D01*
X155200500Y-80290479D01*
X155219407Y-80232288D01*
X155229496Y-80220475D01*
X157195475Y-78254496D01*
X157249992Y-78226719D01*
X157265479Y-78225500D01*
X158242920Y-78225500D01*
X158301111Y-78244407D01*
X158311738Y-78254309D01*
X158311843Y-78254191D01*
X158317100Y-78258891D01*
X158321639Y-78264291D01*
X158429060Y-78335796D01*
X158435788Y-78337898D01*
X158435790Y-78337899D01*
X158552233Y-78374278D01*
X158551520Y-78376560D01*
X158596250Y-78399551D01*
X158623835Y-78454165D01*
X158625000Y-78469307D01*
X158625000Y-81583992D01*
X158606093Y-81642183D01*
X158596004Y-81653996D01*
X158403996Y-81846004D01*
X158349479Y-81873781D01*
X158333992Y-81875000D01*
X157375000Y-81875000D01*
X157125000Y-82125000D01*
X157125000Y-83083992D01*
X157106093Y-83142183D01*
X157096004Y-83153996D01*
X156903996Y-83346004D01*
X156849479Y-83373781D01*
X156833992Y-83375000D01*
X156375000Y-83375000D01*
X156125000Y-83625000D01*
X156125000Y-86083992D01*
X156106093Y-86142183D01*
X156096004Y-86153996D01*
X155903996Y-86346004D01*
X155849479Y-86373781D01*
X155833992Y-86375000D01*
X154666008Y-86375000D01*
X154607817Y-86356093D01*
X154596004Y-86346004D01*
X154403996Y-86153996D01*
X154376219Y-86099479D01*
X154375000Y-86083992D01*
X154375000Y-85875000D01*
X154219671Y-85719671D01*
X154191894Y-85665154D01*
X154200581Y-85606501D01*
X154230512Y-85544724D01*
X154230512Y-85544723D01*
X154233588Y-85538375D01*
X154254997Y-85411120D01*
X154255133Y-85400000D01*
X154236839Y-85272259D01*
X154215352Y-85225000D01*
X154186349Y-85161212D01*
X154186348Y-85161211D01*
X154183428Y-85154788D01*
X154119099Y-85080130D01*
X154098464Y-85039146D01*
X154098226Y-85032792D01*
X154094620Y-85024398D01*
X154094619Y-85024395D01*
X154093683Y-85022217D01*
X154087317Y-85001266D01*
X154085209Y-84989947D01*
X154071232Y-84967271D01*
X154064548Y-84954404D01*
X154056795Y-84936358D01*
X154056794Y-84936357D01*
X154054036Y-84929937D01*
X154050022Y-84925051D01*
X154045658Y-84920687D01*
X154031387Y-84902632D01*
X154031264Y-84902433D01*
X154026468Y-84894652D01*
X154003231Y-84876982D01*
X153993161Y-84868190D01*
X153903996Y-84779025D01*
X153876219Y-84724508D01*
X153875000Y-84709021D01*
X153875000Y-84375000D01*
X153625000Y-84125000D01*
X150766008Y-84125000D01*
X150707817Y-84106093D01*
X150696004Y-84096004D01*
X150475000Y-83875000D01*
X148875000Y-83875000D01*
X148653996Y-84096004D01*
X148599479Y-84123781D01*
X148583992Y-84125000D01*
X142166008Y-84125000D01*
X142107817Y-84106093D01*
X142096004Y-84096004D01*
X141903996Y-83903996D01*
X141876219Y-83849479D01*
X141875000Y-83833992D01*
X141875000Y-82625000D01*
X141625000Y-82375000D01*
X137625000Y-82375000D01*
X137375000Y-82625000D01*
X137375000Y-83833992D01*
X137356093Y-83892183D01*
X137346004Y-83903996D01*
X137153996Y-84096004D01*
X137099479Y-84123781D01*
X137083992Y-84125000D01*
X126625000Y-84125000D01*
X124875000Y-85625000D01*
X124875000Y-88833992D01*
X124856093Y-88892183D01*
X124846004Y-88903996D01*
X124653996Y-89096004D01*
X124599479Y-89123781D01*
X124583992Y-89125000D01*
X111166008Y-89125000D01*
X111107817Y-89106093D01*
X111096004Y-89096004D01*
X111029496Y-89029496D01*
X111001719Y-88974979D01*
X111000500Y-88959492D01*
X111000500Y-80494440D01*
X116844901Y-80494440D01*
X116861633Y-80622394D01*
X116864471Y-80628845D01*
X116864472Y-80628847D01*
X116901456Y-80712899D01*
X116913605Y-80740510D01*
X116955122Y-80789901D01*
X116992100Y-80833892D01*
X116992103Y-80833894D01*
X116996639Y-80839291D01*
X117104060Y-80910796D01*
X117110788Y-80912898D01*
X117110790Y-80912899D01*
X117165646Y-80930037D01*
X117227233Y-80949278D01*
X117291744Y-80950460D01*
X117349202Y-80951514D01*
X117349204Y-80951514D01*
X117356255Y-80951643D01*
X117363058Y-80949788D01*
X117363060Y-80949788D01*
X117404828Y-80938400D01*
X117480755Y-80917700D01*
X117486764Y-80914010D01*
X117493238Y-80911209D01*
X117493847Y-80912617D01*
X117536735Y-80900500D01*
X121113433Y-80900500D01*
X121136380Y-80893044D01*
X121151481Y-80889419D01*
X121167609Y-80886865D01*
X121167611Y-80886864D01*
X121175304Y-80885646D01*
X121196797Y-80874695D01*
X121211143Y-80868752D01*
X121226679Y-80863704D01*
X121234090Y-80861296D01*
X121253607Y-80847116D01*
X121266846Y-80839002D01*
X121288342Y-80828050D01*
X121310905Y-80805487D01*
X121310909Y-80805484D01*
X123514145Y-78602248D01*
X139222000Y-78602248D01*
X139225074Y-78617700D01*
X139231355Y-78649278D01*
X139233633Y-78660731D01*
X139277948Y-78727052D01*
X139344269Y-78771367D01*
X139353832Y-78773269D01*
X139353834Y-78773270D01*
X139376505Y-78777779D01*
X139402752Y-78783000D01*
X140292248Y-78783000D01*
X140318495Y-78777779D01*
X140341166Y-78773270D01*
X140341168Y-78773269D01*
X140350731Y-78771367D01*
X140417052Y-78727052D01*
X140461367Y-78660731D01*
X140463646Y-78649278D01*
X140469926Y-78617700D01*
X140473000Y-78602248D01*
X140473000Y-77712752D01*
X140461367Y-77654269D01*
X140417052Y-77587948D01*
X140350731Y-77543633D01*
X140341168Y-77541731D01*
X140341166Y-77541730D01*
X140318495Y-77537221D01*
X140292248Y-77532000D01*
X139402752Y-77532000D01*
X139376505Y-77537221D01*
X139353834Y-77541730D01*
X139353832Y-77541731D01*
X139344269Y-77543633D01*
X139277948Y-77587948D01*
X139233633Y-77654269D01*
X139222000Y-77712752D01*
X139222000Y-78602248D01*
X123514145Y-78602248D01*
X126768082Y-75348311D01*
X126812046Y-75322801D01*
X126823948Y-75319556D01*
X126823949Y-75319556D01*
X126830755Y-75317700D01*
X126940724Y-75250179D01*
X126955466Y-75233892D01*
X127022590Y-75159735D01*
X127022590Y-75159734D01*
X127027322Y-75154507D01*
X127052248Y-75103059D01*
X127074059Y-75058044D01*
X127116447Y-75013920D01*
X127176675Y-75003138D01*
X127231738Y-75029816D01*
X127253769Y-75061339D01*
X127288605Y-75140510D01*
X127330113Y-75189890D01*
X127367100Y-75233892D01*
X127367103Y-75233894D01*
X127371639Y-75239291D01*
X127479060Y-75310796D01*
X127485788Y-75312898D01*
X127485790Y-75312899D01*
X127524431Y-75324971D01*
X127602233Y-75349278D01*
X127636452Y-75349905D01*
X127661178Y-75350359D01*
X127719013Y-75370330D01*
X127729367Y-75379338D01*
X129091774Y-76741745D01*
X129119551Y-76796262D01*
X129109980Y-76856694D01*
X129082860Y-76886112D01*
X129084205Y-76887595D01*
X129077433Y-76893735D01*
X129069652Y-76898532D01*
X129051992Y-76921757D01*
X129043191Y-76931838D01*
X128404664Y-77570364D01*
X128350147Y-77598141D01*
X128334060Y-77599358D01*
X128297529Y-77599135D01*
X128295282Y-77599121D01*
X128288231Y-77599078D01*
X128281455Y-77601015D01*
X128281452Y-77601015D01*
X128170935Y-77632601D01*
X128170933Y-77632602D01*
X128164155Y-77634539D01*
X128055019Y-77703399D01*
X127969596Y-77800122D01*
X127914754Y-77916932D01*
X127894901Y-78044440D01*
X127895816Y-78051437D01*
X127895816Y-78051438D01*
X127897082Y-78061120D01*
X127911633Y-78172394D01*
X127914471Y-78178845D01*
X127914472Y-78178847D01*
X127952068Y-78264291D01*
X127963605Y-78290510D01*
X127998387Y-78331888D01*
X128042100Y-78383892D01*
X128042103Y-78383894D01*
X128046639Y-78389291D01*
X128123585Y-78440510D01*
X128146199Y-78455563D01*
X128154060Y-78460796D01*
X128160788Y-78462898D01*
X128160790Y-78462899D01*
X128215646Y-78480037D01*
X128277233Y-78499278D01*
X128341744Y-78500460D01*
X128399202Y-78501514D01*
X128399204Y-78501514D01*
X128406255Y-78501643D01*
X128413058Y-78499788D01*
X128413060Y-78499788D01*
X128454828Y-78488400D01*
X128530755Y-78467700D01*
X128640724Y-78400179D01*
X128662103Y-78376560D01*
X128722590Y-78309735D01*
X128722590Y-78309734D01*
X128727322Y-78304507D01*
X128783588Y-78188375D01*
X128794596Y-78122941D01*
X128804363Y-78064891D01*
X128804363Y-78064886D01*
X128804997Y-78061120D01*
X128805044Y-78057301D01*
X128805386Y-78053484D01*
X128807081Y-78053636D01*
X128824648Y-78001784D01*
X128834003Y-77990968D01*
X129370475Y-77454496D01*
X129424992Y-77426719D01*
X129440479Y-77425500D01*
X137946492Y-77425500D01*
X137950617Y-77425803D01*
X137955342Y-77427425D01*
X138004761Y-77425570D01*
X138008474Y-77425500D01*
X138027948Y-77425500D01*
X138032378Y-77424675D01*
X138037571Y-77424339D01*
X138053602Y-77423737D01*
X138058075Y-77423569D01*
X138067208Y-77423226D01*
X138075602Y-77419620D01*
X138075605Y-77419619D01*
X138077783Y-77418683D01*
X138098734Y-77412317D01*
X138110053Y-77410209D01*
X138132729Y-77396232D01*
X138145596Y-77389548D01*
X138163642Y-77381795D01*
X138163643Y-77381794D01*
X138170063Y-77379036D01*
X138174949Y-77375022D01*
X138179313Y-77370658D01*
X138197368Y-77356387D01*
X138205348Y-77351468D01*
X138223018Y-77328231D01*
X138231810Y-77318161D01*
X138874651Y-76675320D01*
X138877780Y-76672620D01*
X138882269Y-76670425D01*
X138915893Y-76634178D01*
X138918469Y-76631502D01*
X138932247Y-76617724D01*
X138934792Y-76614013D01*
X138938220Y-76610108D01*
X138958401Y-76588354D01*
X138962666Y-76577664D01*
X138972980Y-76558348D01*
X138974321Y-76556393D01*
X138974322Y-76556390D01*
X138979492Y-76548854D01*
X138985641Y-76522941D01*
X138990014Y-76509116D01*
X138997294Y-76490868D01*
X138997294Y-76490866D01*
X138999883Y-76484378D01*
X139000500Y-76478085D01*
X139000500Y-76471916D01*
X139003175Y-76449057D01*
X139003230Y-76448827D01*
X139003230Y-76448825D01*
X139005340Y-76439934D01*
X139001404Y-76411012D01*
X139000500Y-76397663D01*
X139000500Y-76252530D01*
X139019407Y-76194339D01*
X139026102Y-76186094D01*
X139030890Y-76180805D01*
X139077322Y-76129507D01*
X139133588Y-76013375D01*
X139146206Y-75938375D01*
X139154363Y-75889891D01*
X139154363Y-75889886D01*
X139154997Y-75886120D01*
X139155133Y-75875000D01*
X139136839Y-75747259D01*
X139103462Y-75673850D01*
X139086349Y-75636212D01*
X139086348Y-75636211D01*
X139083428Y-75629788D01*
X138999193Y-75532028D01*
X138993276Y-75528193D01*
X138993274Y-75528191D01*
X138896824Y-75465677D01*
X138890906Y-75461841D01*
X138884150Y-75459821D01*
X138884149Y-75459820D01*
X138841335Y-75447016D01*
X138767273Y-75424866D01*
X138690644Y-75424398D01*
X138645282Y-75424121D01*
X138638231Y-75424078D01*
X138631454Y-75426015D01*
X138631453Y-75426015D01*
X138520935Y-75457601D01*
X138520933Y-75457602D01*
X138514155Y-75459539D01*
X138405019Y-75528399D01*
X138319596Y-75625122D01*
X138316600Y-75631504D01*
X138312726Y-75637401D01*
X138311038Y-75636292D01*
X138275839Y-75673850D01*
X138215748Y-75685375D01*
X138199692Y-75681992D01*
X138149336Y-75666932D01*
X138092273Y-75649866D01*
X138015644Y-75649398D01*
X137970282Y-75649121D01*
X137963231Y-75649078D01*
X137956454Y-75651015D01*
X137956453Y-75651015D01*
X137845935Y-75682601D01*
X137845933Y-75682602D01*
X137839155Y-75684539D01*
X137730019Y-75753399D01*
X137644596Y-75850122D01*
X137589754Y-75966932D01*
X137569901Y-76094440D01*
X137586633Y-76222394D01*
X137589472Y-76228846D01*
X137589473Y-76228850D01*
X137614456Y-76285629D01*
X137620586Y-76346506D01*
X137589762Y-76399360D01*
X137533758Y-76424002D01*
X137523840Y-76424500D01*
X129665480Y-76424500D01*
X129607289Y-76405593D01*
X129595476Y-76395504D01*
X128158282Y-74958310D01*
X128130505Y-74903793D01*
X128130128Y-74900414D01*
X128130133Y-74900000D01*
X128111839Y-74772259D01*
X128058428Y-74654788D01*
X127974193Y-74557028D01*
X127968276Y-74553193D01*
X127968274Y-74553191D01*
X127871824Y-74490677D01*
X127865906Y-74486841D01*
X127859150Y-74484821D01*
X127859149Y-74484820D01*
X127816335Y-74472016D01*
X127742273Y-74449866D01*
X127665644Y-74449398D01*
X127620282Y-74449121D01*
X127613231Y-74449078D01*
X127606454Y-74451015D01*
X127606453Y-74451015D01*
X127495935Y-74482601D01*
X127495933Y-74482602D01*
X127489155Y-74484539D01*
X127380019Y-74553399D01*
X127294596Y-74650122D01*
X127263867Y-74715573D01*
X127251896Y-74741070D01*
X127210050Y-74785709D01*
X127149959Y-74797226D01*
X127094574Y-74771223D01*
X127072159Y-74739972D01*
X127036349Y-74661212D01*
X127036348Y-74661211D01*
X127033428Y-74654788D01*
X126949193Y-74557028D01*
X126943276Y-74553193D01*
X126943274Y-74553191D01*
X126846824Y-74490677D01*
X126840906Y-74486841D01*
X126834150Y-74484821D01*
X126834149Y-74484820D01*
X126791335Y-74472016D01*
X126717273Y-74449866D01*
X126640644Y-74449398D01*
X126595282Y-74449121D01*
X126588231Y-74449078D01*
X126581454Y-74451015D01*
X126581453Y-74451015D01*
X126470935Y-74482601D01*
X126470933Y-74482602D01*
X126464155Y-74484539D01*
X126355019Y-74553399D01*
X126269596Y-74650122D01*
X126234058Y-74725817D01*
X126220416Y-74754872D01*
X126200805Y-74782802D01*
X120913103Y-80070504D01*
X120858586Y-80098281D01*
X120843099Y-80099500D01*
X117537686Y-80099500D01*
X117496449Y-80090433D01*
X117490906Y-80086841D01*
X117484150Y-80084821D01*
X117484149Y-80084820D01*
X117389468Y-80056504D01*
X117367273Y-80049866D01*
X117290644Y-80049398D01*
X117245282Y-80049121D01*
X117238231Y-80049078D01*
X117231454Y-80051015D01*
X117231453Y-80051015D01*
X117120935Y-80082601D01*
X117120933Y-80082602D01*
X117114155Y-80084539D01*
X117005019Y-80153399D01*
X116919596Y-80250122D01*
X116864754Y-80366932D01*
X116844901Y-80494440D01*
X111000500Y-80494440D01*
X111000500Y-74329704D01*
X111019407Y-74271513D01*
X111032905Y-74256450D01*
X111121679Y-74175746D01*
X111177455Y-74150593D01*
X111188274Y-74150000D01*
X118900000Y-74150000D01*
X119920300Y-72911064D01*
X119971886Y-72878165D01*
X119996720Y-72875000D01*
X143083992Y-72875000D01*
X143142183Y-72893907D01*
G37*
%TD.AperFunction*%
%TA.AperFunction,Conductor*%
G36*
X158301111Y-76719407D02*
G01*
X158311738Y-76729309D01*
X158311843Y-76729191D01*
X158317100Y-76733891D01*
X158321639Y-76739291D01*
X158429060Y-76810796D01*
X158435788Y-76812898D01*
X158435790Y-76812899D01*
X158552233Y-76849278D01*
X158551520Y-76851560D01*
X158596250Y-76874551D01*
X158623835Y-76929165D01*
X158625000Y-76944307D01*
X158625000Y-77381754D01*
X158606093Y-77439945D01*
X158553205Y-77476943D01*
X158445935Y-77507601D01*
X158445933Y-77507602D01*
X158439155Y-77509539D01*
X158330019Y-77578399D01*
X158325351Y-77583685D01*
X158325347Y-77583688D01*
X158318858Y-77591035D01*
X158266166Y-77622135D01*
X158244655Y-77624500D01*
X157153508Y-77624500D01*
X157149383Y-77624197D01*
X157144658Y-77622575D01*
X157095239Y-77624430D01*
X157091526Y-77624500D01*
X157072052Y-77624500D01*
X157067622Y-77625325D01*
X157062429Y-77625661D01*
X157046398Y-77626263D01*
X157041925Y-77626431D01*
X157032792Y-77626774D01*
X157024398Y-77630380D01*
X157024395Y-77630381D01*
X157022217Y-77631317D01*
X157001266Y-77637683D01*
X156989947Y-77639791D01*
X156967272Y-77653768D01*
X156954404Y-77660452D01*
X156936358Y-77668205D01*
X156936357Y-77668206D01*
X156929937Y-77670964D01*
X156925051Y-77674978D01*
X156920687Y-77679342D01*
X156902632Y-77693613D01*
X156894652Y-77698532D01*
X156876982Y-77721769D01*
X156868190Y-77731839D01*
X154969504Y-79630525D01*
X154914987Y-79658302D01*
X154854555Y-79648731D01*
X154811290Y-79605466D01*
X154800500Y-79560521D01*
X154800500Y-78607372D01*
X154819407Y-78549181D01*
X154826102Y-78540936D01*
X154863348Y-78499788D01*
X154903378Y-78455563D01*
X154959644Y-78339431D01*
X154975631Y-78244407D01*
X154980419Y-78215947D01*
X154980419Y-78215942D01*
X154981053Y-78212176D01*
X154981189Y-78201056D01*
X154962895Y-78073315D01*
X154909484Y-77955844D01*
X154825249Y-77858084D01*
X154819332Y-77854249D01*
X154819330Y-77854247D01*
X154728558Y-77795413D01*
X154690011Y-77747897D01*
X154686755Y-77686798D01*
X154712400Y-77642333D01*
X155625237Y-76729496D01*
X155679754Y-76701719D01*
X155695241Y-76700500D01*
X158242920Y-76700500D01*
X158301111Y-76719407D01*
G37*
%TD.AperFunction*%
%TD*%
M02*
