%TF.GenerationSoftware,KiCad,Pcbnew,6.0.3-a3aad9c10e~116~ubuntu20.04.1*%
%TF.CreationDate,2022-03-23T21:19:15+01:00*%
%TF.ProjectId,Smart_Charger,536d6172-745f-4436-9861-726765722e6b,ED A0*%
%TF.SameCoordinates,Original*%
%TF.FileFunction,Soldermask,Top*%
%TF.FilePolarity,Negative*%
%FSLAX46Y46*%
G04 Gerber Fmt 4.6, Leading zero omitted, Abs format (unit mm)*
G04 Created by KiCad (PCBNEW 6.0.3-a3aad9c10e~116~ubuntu20.04.1) date 2022-03-23 21:19:15*
%MOMM*%
%LPD*%
G01*
G04 APERTURE LIST*
G04 Aperture macros list*
%AMRoundRect*
0 Rectangle with rounded corners*
0 $1 Rounding radius*
0 $2 $3 $4 $5 $6 $7 $8 $9 X,Y pos of 4 corners*
0 Add a 4 corners polygon primitive as box body*
4,1,4,$2,$3,$4,$5,$6,$7,$8,$9,$2,$3,0*
0 Add four circle primitives for the rounded corners*
1,1,$1+$1,$2,$3*
1,1,$1+$1,$4,$5*
1,1,$1+$1,$6,$7*
1,1,$1+$1,$8,$9*
0 Add four rect primitives between the rounded corners*
20,1,$1+$1,$2,$3,$4,$5,0*
20,1,$1+$1,$4,$5,$6,$7,0*
20,1,$1+$1,$6,$7,$8,$9,0*
20,1,$1+$1,$8,$9,$2,$3,0*%
%AMFreePoly0*
4,1,67,-1.038311,1.915212,-1.037957,1.915066,-0.999934,1.877043,-0.999788,1.876689,-0.994500,1.850000,-0.994500,1.445500,1.924500,1.445500,1.924500,1.850000,1.929788,1.876689,1.929934,1.877043,1.967957,1.915066,1.968311,1.915212,1.995000,1.920500,2.745000,1.920500,2.771689,1.915212,2.772043,1.915066,2.810066,1.877043,2.810212,1.876689,2.815500,1.850000,2.815500,-1.279500,
3.240000,-1.279500,3.266689,-1.284788,3.267043,-1.284934,3.305066,-1.322957,3.305212,-1.323311,3.310500,-1.350000,3.310500,-2.255000,3.305212,-2.281689,3.305066,-2.282043,3.267043,-2.320066,3.266689,-2.320212,3.240000,-2.325500,2.815500,-2.325500,2.815500,-2.680000,2.810212,-2.706689,2.810066,-2.707043,2.772043,-2.745066,2.771689,-2.745212,2.745000,-2.750500,-1.815000,-2.750500,
-1.841689,-2.745212,-1.842043,-2.745066,-1.880066,-2.707043,-1.880212,-2.706689,-1.885500,-2.680000,-1.885500,-2.325500,-2.310000,-2.325500,-2.336689,-2.320212,-2.337043,-2.320066,-2.375066,-2.282043,-2.375212,-2.281689,-2.380500,-2.255000,-2.380500,-1.350000,-2.375212,-1.323311,-2.375066,-1.322957,-2.337043,-1.284934,-2.336689,-1.284788,-2.310000,-1.279500,-1.885500,-1.279500,-1.885500,1.850000,
-1.880212,1.876689,-1.880066,1.877043,-1.842043,1.915066,-1.841689,1.915212,-1.815000,1.920500,-1.065000,1.920500,-1.038311,1.915212,-1.038311,1.915212,$1*%
%AMFreePoly1*
4,1,25,0.449497,0.189497,0.470000,0.140000,0.470000,-0.140000,0.449497,-0.189497,0.400000,-0.210000,-0.260000,-0.210000,-0.273656,-0.208655,-0.327232,-0.197998,-0.352466,-0.187546,-0.397885,-0.157198,-0.417198,-0.137885,-0.447546,-0.092466,-0.457998,-0.067232,-0.468655,-0.013656,-0.468655,0.013656,-0.457998,0.067232,-0.447546,0.092466,-0.417198,0.137885,-0.397885,0.157198,-0.352466,0.187546,
-0.327232,0.197998,-0.273656,0.208655,-0.260000,0.210000,0.400000,0.210000,0.449497,0.189497,0.449497,0.189497,$1*%
G04 Aperture macros list end*
%ADD10C,0.010000*%
%ADD11C,0.100000*%
%ADD12RoundRect,0.270000X0.200000X0.275000X-0.200000X0.275000X-0.200000X-0.275000X0.200000X-0.275000X0*%
%ADD13RoundRect,0.070000X-0.550000X0.550000X-0.550000X-0.550000X0.550000X-0.550000X0.550000X0.550000X0*%
%ADD14RoundRect,0.070000X0.750000X-0.500000X0.750000X0.500000X-0.750000X0.500000X-0.750000X-0.500000X0*%
%ADD15RoundRect,0.070000X-2.000000X-2.000000X2.000000X-2.000000X2.000000X2.000000X-2.000000X2.000000X0*%
%ADD16C,1.500000*%
%ADD17RoundRect,0.070000X-0.300000X-0.350000X0.300000X-0.350000X0.300000X0.350000X-0.300000X0.350000X0*%
%ADD18RoundRect,0.295000X0.225000X0.250000X-0.225000X0.250000X-0.225000X-0.250000X0.225000X-0.250000X0*%
%ADD19RoundRect,0.205000X-0.135000X-0.185000X0.135000X-0.185000X0.135000X0.185000X-0.135000X0.185000X0*%
%ADD20RoundRect,0.270000X-0.200000X-0.275000X0.200000X-0.275000X0.200000X0.275000X-0.200000X0.275000X0*%
%ADD21RoundRect,0.205000X0.185000X-0.135000X0.185000X0.135000X-0.185000X0.135000X-0.185000X-0.135000X0*%
%ADD22RoundRect,0.210000X0.140000X0.170000X-0.140000X0.170000X-0.140000X-0.170000X0.140000X-0.170000X0*%
%ADD23RoundRect,0.070000X-0.500000X-0.750000X0.500000X-0.750000X0.500000X0.750000X-0.500000X0.750000X0*%
%ADD24O,0.990000X0.990000*%
%ADD25RoundRect,0.070000X-0.425000X0.425000X-0.425000X-0.425000X0.425000X-0.425000X0.425000X0.425000X0*%
%ADD26RoundRect,0.070000X2.100000X-0.750000X2.100000X0.750000X-2.100000X0.750000X-2.100000X-0.750000X0*%
%ADD27RoundRect,0.295000X0.250000X-0.225000X0.250000X0.225000X-0.250000X0.225000X-0.250000X-0.225000X0*%
%ADD28RoundRect,0.295000X-0.225000X-0.250000X0.225000X-0.250000X0.225000X0.250000X-0.225000X0.250000X0*%
%ADD29O,4.340000X2.140000*%
%ADD30O,2.140000X4.340000*%
%ADD31RoundRect,0.070000X1.000000X-2.300000X1.000000X2.300000X-1.000000X2.300000X-1.000000X-2.300000X0*%
%ADD32RoundRect,0.100000X0.700000X0.175000X-0.700000X0.175000X-0.700000X-0.175000X0.700000X-0.175000X0*%
%ADD33RoundRect,0.100000X-0.700000X-0.175000X0.700000X-0.175000X0.700000X0.175000X-0.700000X0.175000X0*%
%ADD34C,4.840000*%
%ADD35RoundRect,0.205000X0.135000X0.185000X-0.135000X0.185000X-0.135000X-0.185000X0.135000X-0.185000X0*%
%ADD36RoundRect,0.070000X-0.700000X-1.050000X0.700000X-1.050000X0.700000X1.050000X-0.700000X1.050000X0*%
%ADD37RoundRect,0.295000X-0.250000X0.225000X-0.250000X-0.225000X0.250000X-0.225000X0.250000X0.225000X0*%
%ADD38RoundRect,0.320000X-0.325000X-0.650000X0.325000X-0.650000X0.325000X0.650000X-0.325000X0.650000X0*%
%ADD39RoundRect,0.270000X0.275000X-0.200000X0.275000X0.200000X-0.275000X0.200000X-0.275000X-0.200000X0*%
%ADD40RoundRect,0.070000X0.425000X-0.425000X0.425000X0.425000X-0.425000X0.425000X-0.425000X-0.425000X0*%
%ADD41RoundRect,0.205000X-0.185000X0.135000X-0.185000X-0.135000X0.185000X-0.135000X0.185000X0.135000X0*%
%ADD42FreePoly0,0.000000*%
%ADD43RoundRect,0.070000X-0.375000X-0.500000X0.375000X-0.500000X0.375000X0.500000X-0.375000X0.500000X0*%
%ADD44FreePoly0,270.000000*%
%ADD45RoundRect,0.070000X-0.500000X0.375000X-0.500000X-0.375000X0.500000X-0.375000X0.500000X0.375000X0*%
%ADD46RoundRect,0.050000X-0.825000X-0.425000X0.825000X-0.425000X0.825000X0.425000X-0.825000X0.425000X0*%
%ADD47RoundRect,0.288750X-0.218750X-0.256250X0.218750X-0.256250X0.218750X0.256250X-0.218750X0.256250X0*%
%ADD48FreePoly0,90.000000*%
%ADD49RoundRect,0.070000X0.500000X-0.375000X0.500000X0.375000X-0.500000X0.375000X-0.500000X-0.375000X0*%
%ADD50RoundRect,0.217500X0.147500X0.172500X-0.147500X0.172500X-0.147500X-0.172500X0.147500X-0.172500X0*%
%ADD51RoundRect,0.320000X0.450000X-0.262500X0.450000X0.262500X-0.450000X0.262500X-0.450000X-0.262500X0*%
%ADD52RoundRect,0.320000X-0.325000X-2.350000X0.325000X-2.350000X0.325000X2.350000X-0.325000X2.350000X0*%
%ADD53RoundRect,0.070000X1.070000X1.070000X-1.070000X1.070000X-1.070000X-1.070000X1.070000X-1.070000X0*%
%ADD54FreePoly1,270.000000*%
%ADD55FreePoly1,180.000000*%
%ADD56FreePoly1,90.000000*%
%ADD57FreePoly1,0.000000*%
%ADD58C,0.740000*%
G04 APERTURE END LIST*
D10*
G36*
X113125000Y-91375000D02*
G01*
X110875000Y-91375000D01*
X110875000Y-89375000D01*
X113125000Y-89375000D01*
X113125000Y-91375000D01*
G37*
X113125000Y-91375000D02*
X110875000Y-91375000D01*
X110875000Y-89375000D01*
X113125000Y-89375000D01*
X113125000Y-91375000D01*
D11*
G36*
X178900000Y-83150000D02*
G01*
X174900000Y-83150000D01*
X174900000Y-80650000D01*
X178900000Y-80650000D01*
X178900000Y-83150000D01*
G37*
X178900000Y-83150000D02*
X174900000Y-83150000D01*
X174900000Y-80650000D01*
X178900000Y-80650000D01*
X178900000Y-83150000D01*
D10*
G36*
X113125000Y-91375000D02*
G01*
X110875000Y-91375000D01*
X110875000Y-89375000D01*
X113125000Y-89375000D01*
X113125000Y-91375000D01*
G37*
X113125000Y-91375000D02*
X110875000Y-91375000D01*
X110875000Y-89375000D01*
X113125000Y-89375000D01*
X113125000Y-91375000D01*
D11*
G36*
X178900000Y-83150000D02*
G01*
X174900000Y-83150000D01*
X174900000Y-80650000D01*
X178900000Y-80650000D01*
X178900000Y-83150000D01*
G37*
X178900000Y-83150000D02*
X174900000Y-83150000D01*
X174900000Y-80650000D01*
X178900000Y-80650000D01*
X178900000Y-83150000D01*
D12*
%TO.C,R316*%
X138380000Y-81775000D03*
X140030000Y-81775000D03*
%TD*%
D13*
%TO.C,D302*%
X139174999Y-92349999D03*
X139174999Y-89549999D03*
%TD*%
D14*
%TO.C,JP302*%
X123650000Y-77550000D03*
X123650000Y-78850000D03*
%TD*%
D15*
%TO.C,TP304*%
X176350000Y-95825000D03*
%TD*%
D16*
%TO.C,FID301*%
X137875000Y-74125000D03*
%TD*%
D17*
%TO.C,D204*%
X149525000Y-86300000D03*
X150925000Y-86300000D03*
%TD*%
D18*
%TO.C,C305*%
X120075000Y-83425000D03*
X121625000Y-83425000D03*
%TD*%
D19*
%TO.C,R209*%
X153835000Y-77175000D03*
X152815000Y-77175000D03*
%TD*%
D20*
%TO.C,R213*%
X151250000Y-79875000D03*
X149600000Y-79875000D03*
%TD*%
D18*
%TO.C,C301*%
X120075000Y-77325000D03*
X121625000Y-77325000D03*
%TD*%
D21*
%TO.C,R203*%
X157175000Y-79140000D03*
X157175000Y-80160000D03*
%TD*%
D12*
%TO.C,R212*%
X149600000Y-78350000D03*
X151250000Y-78350000D03*
%TD*%
D22*
%TO.C,C215*%
X149945000Y-77100000D03*
X150905000Y-77100000D03*
%TD*%
D16*
%TO.C,FID304*%
X171625000Y-76375000D03*
%TD*%
D23*
%TO.C,JP303*%
X142197500Y-75872500D03*
X140897500Y-75872500D03*
X139597500Y-75872500D03*
%TD*%
D24*
%TO.C,J201*%
X153450000Y-74750000D03*
D25*
X154450000Y-74750000D03*
%TD*%
D19*
%TO.C,R305*%
X118870000Y-83000000D03*
X117850000Y-83000000D03*
%TD*%
D26*
%TO.C,L201*%
X146052500Y-85002500D03*
X146052500Y-88602500D03*
%TD*%
D27*
%TO.C,C208*%
X149700000Y-83275000D03*
X149700000Y-84825000D03*
%TD*%
D18*
%TO.C,C310*%
X119674999Y-88449999D03*
X121224999Y-88449999D03*
%TD*%
D19*
%TO.C,R204*%
X163247500Y-76400000D03*
X162227500Y-76400000D03*
%TD*%
D28*
%TO.C,C309*%
X128922500Y-77122500D03*
X127372500Y-77122500D03*
%TD*%
D29*
%TO.C,J101*%
X167700000Y-83550000D03*
D30*
X171100000Y-88350000D03*
D31*
X164800000Y-88350000D03*
%TD*%
D19*
%TO.C,R313*%
X125409999Y-96849999D03*
X124389999Y-96849999D03*
%TD*%
D32*
%TO.C,U301*%
X136497500Y-76472500D03*
X136497500Y-77122500D03*
X136497500Y-77772500D03*
X136497500Y-78422500D03*
X136497500Y-79072500D03*
X136497500Y-79722500D03*
X136497500Y-80372500D03*
X136497500Y-81022500D03*
X136497500Y-81672500D03*
X136497500Y-82322500D03*
X136497500Y-82972500D03*
X136497500Y-83622500D03*
D33*
X130697500Y-83622500D03*
X130697500Y-82972500D03*
X130697500Y-82322500D03*
X130697500Y-81672500D03*
X130697500Y-81022500D03*
X130697500Y-80372500D03*
X130697500Y-79722500D03*
X130697500Y-79072500D03*
X130697500Y-78422500D03*
X130697500Y-77772500D03*
X130697500Y-77122500D03*
X130697500Y-76472500D03*
%TD*%
D15*
%TO.C,TP303*%
X176350000Y-71150000D03*
%TD*%
D34*
%TO.C,H302*%
X175450000Y-77650000D03*
%TD*%
D35*
%TO.C,R210*%
X152815000Y-76175000D03*
X153835000Y-76175000D03*
%TD*%
%TO.C,R311*%
X120899999Y-89709999D03*
X121919999Y-89709999D03*
%TD*%
D34*
%TO.C,H301*%
X127675000Y-87425000D03*
%TD*%
D36*
%TO.C,D203*%
X164100000Y-81800000D03*
X159700000Y-81800000D03*
%TD*%
D37*
%TO.C,C308*%
X118179999Y-88474999D03*
X118179999Y-86924999D03*
%TD*%
D28*
%TO.C,C203*%
X161000000Y-79500000D03*
X159450000Y-79500000D03*
%TD*%
D38*
%TO.C,C207*%
X159975000Y-84525000D03*
X157025000Y-84525000D03*
%TD*%
D19*
%TO.C,R301*%
X118870000Y-78000000D03*
X117850000Y-78000000D03*
%TD*%
D38*
%TO.C,C213*%
X148050000Y-76950000D03*
X145100000Y-76950000D03*
%TD*%
D39*
%TO.C,R320*%
X139935000Y-83450000D03*
X139935000Y-85100000D03*
%TD*%
D35*
%TO.C,R208*%
X152815000Y-78175000D03*
X153835000Y-78175000D03*
%TD*%
D24*
%TO.C,J302*%
X140847500Y-78157500D03*
D40*
X139847500Y-78157500D03*
%TD*%
D41*
%TO.C,R312*%
X138047500Y-80557500D03*
X138047500Y-79537500D03*
%TD*%
D27*
%TO.C,C204*%
X155400000Y-84075000D03*
X155400000Y-85625000D03*
%TD*%
D19*
%TO.C,R302*%
X118870000Y-79250000D03*
X117850000Y-79250000D03*
%TD*%
D28*
%TO.C,C306*%
X121625000Y-84950000D03*
X120075000Y-84950000D03*
%TD*%
%TO.C,C214*%
X147325000Y-75000000D03*
X145775000Y-75000000D03*
%TD*%
%TO.C,C216*%
X144675000Y-81450000D03*
X143125000Y-81450000D03*
%TD*%
D18*
%TO.C,C303*%
X120075000Y-80375000D03*
X121625000Y-80375000D03*
%TD*%
D38*
%TO.C,C212*%
X148050000Y-79325000D03*
X145100000Y-79325000D03*
%TD*%
D19*
%TO.C,R315*%
X125409999Y-97849999D03*
X124389999Y-97849999D03*
%TD*%
D18*
%TO.C,C311*%
X122694999Y-88449999D03*
X124244999Y-88449999D03*
%TD*%
D15*
%TO.C,TP301*%
X113500000Y-71150000D03*
%TD*%
D27*
%TO.C,C210*%
X146175000Y-81450000D03*
X146175000Y-83000000D03*
%TD*%
D18*
%TO.C,C205*%
X152850000Y-79450000D03*
X154400000Y-79450000D03*
%TD*%
D19*
%TO.C,R307*%
X127682500Y-75622500D03*
X126662500Y-75622500D03*
%TD*%
D16*
%TO.C,FID302*%
X137875000Y-95375000D03*
%TD*%
D42*
%TO.C,Q2*%
X151535000Y-89150000D03*
D43*
X153905000Y-93235000D03*
X152635000Y-93235000D03*
X151365000Y-93235000D03*
X150095000Y-93235000D03*
%TD*%
D15*
%TO.C,TP302*%
X113450000Y-95825000D03*
%TD*%
D20*
%TO.C,R206*%
X164075000Y-79500000D03*
X162425000Y-79500000D03*
%TD*%
D18*
%TO.C,C209*%
X152250000Y-86300000D03*
X153800000Y-86300000D03*
%TD*%
D19*
%TO.C,R304*%
X118870000Y-81750000D03*
X117850000Y-81750000D03*
%TD*%
D39*
%TO.C,R319*%
X137224999Y-90924999D03*
X137224999Y-92574999D03*
%TD*%
D12*
%TO.C,R318*%
X135649999Y-89474999D03*
X137299999Y-89474999D03*
%TD*%
D28*
%TO.C,C201*%
X156925000Y-76925000D03*
X155375000Y-76925000D03*
%TD*%
D16*
%TO.C,FID303*%
X171625000Y-95375000D03*
%TD*%
D44*
%TO.C,Q3*%
X127307499Y-92819999D03*
D45*
X123222499Y-95189999D03*
X123222499Y-93919999D03*
X123222499Y-92649999D03*
X123222499Y-91379999D03*
%TD*%
D19*
%TO.C,R303*%
X118870000Y-80500000D03*
X117850000Y-80500000D03*
%TD*%
D46*
%TO.C,J301*%
X116212500Y-84250000D03*
X116212500Y-83000000D03*
X116212500Y-81750000D03*
X116212500Y-80500000D03*
X116212500Y-79250000D03*
X116212500Y-78000000D03*
%TD*%
D19*
%TO.C,R205*%
X163247500Y-77925000D03*
X162227500Y-77925000D03*
%TD*%
D28*
%TO.C,C211*%
X144675000Y-83000000D03*
X143125000Y-83000000D03*
%TD*%
D20*
%TO.C,R207*%
X158025000Y-82575000D03*
X156375000Y-82575000D03*
%TD*%
D37*
%TO.C,C202*%
X155900000Y-80975000D03*
X155900000Y-79425000D03*
%TD*%
D39*
%TO.C,R321*%
X138415000Y-83450000D03*
X138415000Y-85100000D03*
%TD*%
D38*
%TO.C,C206*%
X159975000Y-86925000D03*
X157025000Y-86925000D03*
%TD*%
D47*
%TO.C,D201*%
X161050000Y-76400000D03*
X159475000Y-76400000D03*
%TD*%
D44*
%TO.C,Q1*%
X159917500Y-90685000D03*
D45*
X155832500Y-93055000D03*
X155832500Y-91785000D03*
X155832500Y-90515000D03*
X155832500Y-89245000D03*
%TD*%
D18*
%TO.C,C304*%
X120075000Y-81900000D03*
X121625000Y-81900000D03*
%TD*%
D48*
%TO.C,Q4*%
X131589999Y-93749999D03*
D49*
X135674999Y-91379999D03*
X135674999Y-92649999D03*
X135674999Y-93919999D03*
X135674999Y-95189999D03*
%TD*%
D41*
%TO.C,R309*%
X138022500Y-77657500D03*
X138022500Y-76637500D03*
%TD*%
D50*
%TO.C,D301*%
X136539999Y-88199999D03*
X137509999Y-88199999D03*
%TD*%
D19*
%TO.C,R308*%
X119999999Y-89709999D03*
X118979999Y-89709999D03*
%TD*%
D51*
%TO.C,R211*%
X147925000Y-81312500D03*
X147925000Y-83137500D03*
%TD*%
D20*
%TO.C,R314*%
X123224999Y-97099999D03*
X121574999Y-97099999D03*
%TD*%
D19*
%TO.C,R306*%
X118870000Y-84250000D03*
X117850000Y-84250000D03*
%TD*%
%TO.C,R202*%
X157210000Y-78175000D03*
X156190000Y-78175000D03*
%TD*%
%TO.C,R201*%
X157210000Y-75675000D03*
X156190000Y-75675000D03*
%TD*%
D35*
%TO.C,R317*%
X134582499Y-88199999D03*
X135602499Y-88199999D03*
%TD*%
D14*
%TO.C,JP301*%
X123650000Y-74175000D03*
X123650000Y-75475000D03*
%TD*%
D52*
%TO.C,R310*%
X121574999Y-93089999D03*
X119324999Y-93089999D03*
%TD*%
D37*
%TO.C,C307*%
X128897500Y-75622500D03*
X128897500Y-74072500D03*
%TD*%
D47*
%TO.C,D202*%
X161050000Y-77925000D03*
X159475000Y-77925000D03*
%TD*%
D18*
%TO.C,C302*%
X120075000Y-78850000D03*
X121625000Y-78850000D03*
%TD*%
D53*
%TO.C,U201*%
X152550000Y-82725000D03*
D54*
X153300000Y-84475000D03*
X152800000Y-84475000D03*
X152300000Y-84475000D03*
X151800000Y-84475000D03*
D55*
X150800000Y-83475000D03*
X150800000Y-82975000D03*
X150800000Y-82475000D03*
X150800000Y-81975000D03*
D56*
X151800000Y-80975000D03*
X152300000Y-80975000D03*
X152800000Y-80975000D03*
X153300000Y-80975000D03*
D57*
X154300000Y-81975000D03*
X154300000Y-82475000D03*
X154300000Y-82975000D03*
X154300000Y-83475000D03*
D58*
X153050000Y-82225000D03*
X152050000Y-83225000D03*
X153050000Y-83225000D03*
X152050000Y-82225000D03*
%TD*%
G36*
X125622468Y-97223569D02*
G01*
X125622858Y-97225531D01*
X125622280Y-97226394D01*
X125575127Y-97267600D01*
X125550387Y-97340068D01*
X125565193Y-97415194D01*
X125615125Y-97472333D01*
X125615512Y-97474295D01*
X125614006Y-97475611D01*
X125613229Y-97475611D01*
X125544800Y-97461999D01*
X125275198Y-97461999D01*
X125199424Y-97477072D01*
X125197530Y-97476429D01*
X125197140Y-97474467D01*
X125197718Y-97473604D01*
X125244871Y-97432398D01*
X125269611Y-97359930D01*
X125254805Y-97284804D01*
X125204873Y-97227665D01*
X125204486Y-97225703D01*
X125205992Y-97224387D01*
X125206769Y-97224387D01*
X125275198Y-97237999D01*
X125544800Y-97237999D01*
X125620574Y-97222926D01*
X125622468Y-97223569D01*
G37*
G36*
X124602468Y-97223569D02*
G01*
X124602858Y-97225531D01*
X124602280Y-97226394D01*
X124555127Y-97267600D01*
X124530387Y-97340068D01*
X124545193Y-97415194D01*
X124595125Y-97472333D01*
X124595512Y-97474295D01*
X124594006Y-97475611D01*
X124593229Y-97475611D01*
X124524800Y-97461999D01*
X124255198Y-97461999D01*
X124179424Y-97477072D01*
X124177530Y-97476429D01*
X124177140Y-97474467D01*
X124177718Y-97473604D01*
X124224871Y-97432398D01*
X124249611Y-97359930D01*
X124234805Y-97284804D01*
X124184873Y-97227665D01*
X124184486Y-97225703D01*
X124185992Y-97224387D01*
X124186769Y-97224387D01*
X124255198Y-97237999D01*
X124524800Y-97237999D01*
X124600574Y-97222926D01*
X124602468Y-97223569D01*
G37*
G36*
X120326394Y-89447718D02*
G01*
X120367600Y-89494871D01*
X120440068Y-89519611D01*
X120515194Y-89504805D01*
X120572333Y-89454873D01*
X120574295Y-89454486D01*
X120575611Y-89455992D01*
X120575611Y-89456769D01*
X120561999Y-89525198D01*
X120561999Y-89894800D01*
X120577072Y-89970574D01*
X120576429Y-89972468D01*
X120574467Y-89972858D01*
X120573604Y-89972280D01*
X120532398Y-89925127D01*
X120459930Y-89900387D01*
X120384804Y-89915193D01*
X120327665Y-89965125D01*
X120325703Y-89965512D01*
X120324387Y-89964006D01*
X120324387Y-89963229D01*
X120337999Y-89894800D01*
X120337999Y-89525198D01*
X120322926Y-89449424D01*
X120323569Y-89447530D01*
X120325531Y-89447140D01*
X120326394Y-89447718D01*
G37*
G36*
X135930896Y-87947783D02*
G01*
X135978813Y-88002614D01*
X136051281Y-88027355D01*
X136126407Y-88012547D01*
X136184220Y-87962025D01*
X136187077Y-87957065D01*
X136188808Y-87956063D01*
X136190541Y-87957061D01*
X136190772Y-87958453D01*
X136176999Y-88027698D01*
X136176999Y-88372300D01*
X136191842Y-88446921D01*
X136191199Y-88448815D01*
X136189237Y-88449205D01*
X136188374Y-88448627D01*
X136143579Y-88397368D01*
X136071111Y-88372628D01*
X135995984Y-88387434D01*
X135938173Y-88437955D01*
X135931642Y-88449289D01*
X135929911Y-88450290D01*
X135928178Y-88449291D01*
X135927947Y-88447900D01*
X135940499Y-88384800D01*
X135940499Y-88015198D01*
X135927428Y-87949489D01*
X135928071Y-87947595D01*
X135930033Y-87947205D01*
X135930896Y-87947783D01*
G37*
G36*
X136893051Y-87958542D02*
G01*
X136942625Y-88015270D01*
X137015092Y-88040011D01*
X137090219Y-88025205D01*
X137148031Y-87974684D01*
X137156494Y-87959996D01*
X137158225Y-87958995D01*
X137159958Y-87959994D01*
X137160189Y-87961385D01*
X137146999Y-88027698D01*
X137146999Y-88372300D01*
X137160415Y-88439750D01*
X137159772Y-88441644D01*
X137157810Y-88442034D01*
X137156947Y-88441456D01*
X137107373Y-88384728D01*
X137034906Y-88359987D01*
X136959779Y-88374793D01*
X136901967Y-88425314D01*
X136893504Y-88440002D01*
X136891773Y-88441003D01*
X136890040Y-88440004D01*
X136889809Y-88438613D01*
X136902999Y-88372300D01*
X136902999Y-88027698D01*
X136889583Y-87960248D01*
X136890226Y-87958354D01*
X136892188Y-87957964D01*
X136893051Y-87958542D01*
G37*
G36*
X153599138Y-83864000D02*
G01*
X153599138Y-83866000D01*
X153597924Y-83866932D01*
X153523445Y-83886889D01*
X153469301Y-83941033D01*
X153449472Y-84015034D01*
X153464660Y-84080431D01*
X153477074Y-84105716D01*
X153476940Y-84107711D01*
X153475145Y-84108592D01*
X153473616Y-84107708D01*
X153447050Y-84067950D01*
X153379585Y-84022870D01*
X153300000Y-84007040D01*
X153220415Y-84022870D01*
X153152950Y-84067950D01*
X153107870Y-84135415D01*
X153092000Y-84215199D01*
X153092000Y-84874801D01*
X153097213Y-84901009D01*
X153111945Y-84923055D01*
X153123902Y-84931045D01*
X153124787Y-84932839D01*
X153123676Y-84934502D01*
X153122148Y-84934602D01*
X153059677Y-84913395D01*
X152988145Y-84927623D01*
X152986251Y-84926980D01*
X152985861Y-84925018D01*
X152986644Y-84923998D01*
X152988055Y-84923055D01*
X153002787Y-84901009D01*
X153008000Y-84874801D01*
X153008000Y-84215199D01*
X152992130Y-84135415D01*
X152947050Y-84067950D01*
X152879585Y-84022870D01*
X152800000Y-84007040D01*
X152720415Y-84022870D01*
X152652950Y-84067950D01*
X152607870Y-84135415D01*
X152592000Y-84215199D01*
X152592000Y-84874801D01*
X152597213Y-84901009D01*
X152611945Y-84923055D01*
X152623902Y-84931045D01*
X152624787Y-84932839D01*
X152623676Y-84934502D01*
X152622148Y-84934602D01*
X152559677Y-84913395D01*
X152488145Y-84927623D01*
X152486251Y-84926980D01*
X152485861Y-84925018D01*
X152486644Y-84923998D01*
X152488055Y-84923055D01*
X152502787Y-84901009D01*
X152508000Y-84874801D01*
X152508000Y-84215199D01*
X152492130Y-84135415D01*
X152447050Y-84067950D01*
X152379585Y-84022870D01*
X152300000Y-84007040D01*
X152220415Y-84022870D01*
X152152950Y-84067950D01*
X152107870Y-84135415D01*
X152092000Y-84215199D01*
X152092000Y-84874801D01*
X152097213Y-84901009D01*
X152111945Y-84923055D01*
X152123902Y-84931045D01*
X152124787Y-84932839D01*
X152123676Y-84934502D01*
X152122148Y-84934602D01*
X152059677Y-84913395D01*
X151988145Y-84927623D01*
X151986251Y-84926980D01*
X151985861Y-84925018D01*
X151986644Y-84923998D01*
X151988055Y-84923055D01*
X152002787Y-84901009D01*
X152008000Y-84874801D01*
X152008000Y-84215199D01*
X151992130Y-84135415D01*
X151947050Y-84067950D01*
X151879585Y-84022870D01*
X151800000Y-84007040D01*
X151720415Y-84022870D01*
X151652950Y-84067950D01*
X151626237Y-84107927D01*
X151624443Y-84108812D01*
X151622780Y-84107701D01*
X151622777Y-84105938D01*
X151635344Y-84080230D01*
X151650072Y-84004810D01*
X151625205Y-83932385D01*
X151567433Y-83882075D01*
X151502044Y-83866949D01*
X151500582Y-83865584D01*
X151501033Y-83863635D01*
X151502495Y-83863000D01*
X153597406Y-83863000D01*
X153599138Y-83864000D01*
G37*
G36*
X154771932Y-83472293D02*
G01*
X154791889Y-83546773D01*
X154846033Y-83600916D01*
X154919998Y-83620735D01*
X154987692Y-83602597D01*
X154989624Y-83603115D01*
X154990142Y-83605047D01*
X154989022Y-83606357D01*
X154984061Y-83608560D01*
X154908271Y-83684484D01*
X154864864Y-83782665D01*
X154857495Y-83845874D01*
X154856301Y-83847478D01*
X154854314Y-83847247D01*
X154853536Y-83845976D01*
X154841043Y-83772117D01*
X154792234Y-83713116D01*
X154720345Y-83686382D01*
X154700101Y-83687416D01*
X154698320Y-83686506D01*
X154697999Y-83685419D01*
X154697999Y-83685000D01*
X154698999Y-83683268D01*
X154699623Y-83683101D01*
X154699610Y-83683038D01*
X154726009Y-83677787D01*
X154748055Y-83663055D01*
X154762787Y-83641009D01*
X154768000Y-83614801D01*
X154768000Y-83472811D01*
X154769000Y-83471079D01*
X154771000Y-83471079D01*
X154771932Y-83472293D01*
G37*
G36*
X153691932Y-81677076D02*
G01*
X153711889Y-81751556D01*
X153766033Y-81805699D01*
X153840034Y-81825528D01*
X153905431Y-81810340D01*
X153930716Y-81797926D01*
X153932711Y-81798060D01*
X153933592Y-81799855D01*
X153932708Y-81801384D01*
X153892950Y-81827950D01*
X153847870Y-81895415D01*
X153832040Y-81975000D01*
X153847870Y-82054585D01*
X153892950Y-82122050D01*
X153960415Y-82167130D01*
X154040199Y-82183000D01*
X154699801Y-82183000D01*
X154726009Y-82177787D01*
X154748055Y-82163055D01*
X154756045Y-82151098D01*
X154757839Y-82150213D01*
X154759502Y-82151324D01*
X154759602Y-82152852D01*
X154738395Y-82215323D01*
X154752623Y-82286855D01*
X154751980Y-82288749D01*
X154750018Y-82289139D01*
X154748998Y-82288356D01*
X154748055Y-82286945D01*
X154726009Y-82272213D01*
X154699801Y-82267000D01*
X154040199Y-82267000D01*
X153960415Y-82282870D01*
X153892950Y-82327950D01*
X153847870Y-82395415D01*
X153832040Y-82475000D01*
X153847870Y-82554585D01*
X153892950Y-82622050D01*
X153960415Y-82667130D01*
X154040199Y-82683000D01*
X154699801Y-82683000D01*
X154726009Y-82677787D01*
X154748055Y-82663055D01*
X154756045Y-82651098D01*
X154757839Y-82650213D01*
X154759502Y-82651324D01*
X154759602Y-82652852D01*
X154738395Y-82715323D01*
X154752623Y-82786855D01*
X154751980Y-82788749D01*
X154750018Y-82789139D01*
X154748998Y-82788356D01*
X154748055Y-82786945D01*
X154726009Y-82772213D01*
X154699801Y-82767000D01*
X154040199Y-82767000D01*
X153960415Y-82782870D01*
X153892950Y-82827950D01*
X153847870Y-82895415D01*
X153832040Y-82975000D01*
X153847870Y-83054585D01*
X153892950Y-83122050D01*
X153960415Y-83167130D01*
X154040199Y-83183000D01*
X154699801Y-83183000D01*
X154726009Y-83177787D01*
X154748055Y-83163055D01*
X154756045Y-83151098D01*
X154757839Y-83150213D01*
X154759502Y-83151324D01*
X154759602Y-83152852D01*
X154738395Y-83215323D01*
X154752623Y-83286855D01*
X154751980Y-83288749D01*
X154750018Y-83289139D01*
X154748998Y-83288356D01*
X154748055Y-83286945D01*
X154726009Y-83272213D01*
X154699801Y-83267000D01*
X154040199Y-83267000D01*
X153960415Y-83282870D01*
X153892950Y-83327950D01*
X153847870Y-83395415D01*
X153832040Y-83475000D01*
X153847870Y-83554585D01*
X153892950Y-83622050D01*
X153932927Y-83648763D01*
X153933812Y-83650557D01*
X153932701Y-83652220D01*
X153930938Y-83652223D01*
X153905230Y-83639656D01*
X153829810Y-83624928D01*
X153757385Y-83649795D01*
X153707075Y-83707567D01*
X153691949Y-83772956D01*
X153690584Y-83774418D01*
X153688635Y-83773967D01*
X153688000Y-83772505D01*
X153688000Y-81677594D01*
X153689000Y-81675862D01*
X153691000Y-81675862D01*
X153691932Y-81677076D01*
G37*
G36*
X151411365Y-81676033D02*
G01*
X151412000Y-81677495D01*
X151412000Y-83772406D01*
X151411000Y-83774138D01*
X151409000Y-83774138D01*
X151408068Y-83772924D01*
X151388111Y-83698445D01*
X151333968Y-83644301D01*
X151259966Y-83624472D01*
X151194569Y-83639660D01*
X151169284Y-83652074D01*
X151167289Y-83651940D01*
X151166408Y-83650145D01*
X151167292Y-83648616D01*
X151207050Y-83622050D01*
X151252130Y-83554585D01*
X151267960Y-83475000D01*
X151252130Y-83395415D01*
X151207050Y-83327950D01*
X151139585Y-83282870D01*
X151059801Y-83267000D01*
X150400199Y-83267000D01*
X150373991Y-83272213D01*
X150351945Y-83286945D01*
X150337213Y-83308991D01*
X150332000Y-83335199D01*
X150332000Y-83614801D01*
X150337213Y-83641009D01*
X150351945Y-83663055D01*
X150353692Y-83664222D01*
X150354577Y-83666015D01*
X150353466Y-83667679D01*
X150351938Y-83667779D01*
X150289463Y-83646572D01*
X150214335Y-83661517D01*
X150160601Y-83706444D01*
X150159015Y-83708592D01*
X150158594Y-83709013D01*
X150140834Y-83722131D01*
X150138847Y-83722355D01*
X150137659Y-83720747D01*
X150138231Y-83719109D01*
X150191729Y-83665516D01*
X150235136Y-83567335D01*
X150243000Y-83499880D01*
X150243000Y-83114801D01*
X150332000Y-83114801D01*
X150337213Y-83141009D01*
X150351945Y-83163055D01*
X150373991Y-83177787D01*
X150400199Y-83183000D01*
X151059801Y-83183000D01*
X151139585Y-83167130D01*
X151207050Y-83122050D01*
X151252130Y-83054585D01*
X151267960Y-82975000D01*
X151252130Y-82895415D01*
X151207050Y-82827950D01*
X151139585Y-82782870D01*
X151059801Y-82767000D01*
X150400199Y-82767000D01*
X150373991Y-82772213D01*
X150351945Y-82786945D01*
X150337213Y-82808991D01*
X150332000Y-82835199D01*
X150332000Y-83114801D01*
X150243000Y-83114801D01*
X150243000Y-83050114D01*
X150235019Y-82982171D01*
X150191440Y-82884061D01*
X150117993Y-82810743D01*
X150117474Y-82808812D01*
X150118887Y-82807397D01*
X150120137Y-82807467D01*
X150176862Y-82829755D01*
X150252587Y-82818369D01*
X150312471Y-82770648D01*
X150340514Y-82699274D01*
X150338606Y-82653743D01*
X150337551Y-82648441D01*
X150338194Y-82646547D01*
X150340156Y-82646157D01*
X150341176Y-82646940D01*
X150351945Y-82663055D01*
X150373991Y-82677787D01*
X150400199Y-82683000D01*
X151059801Y-82683000D01*
X151139585Y-82667130D01*
X151207050Y-82622050D01*
X151252130Y-82554585D01*
X151267960Y-82475000D01*
X151252130Y-82395415D01*
X151207050Y-82327950D01*
X151139585Y-82282870D01*
X151059801Y-82267000D01*
X150400199Y-82267000D01*
X150373991Y-82272213D01*
X150351945Y-82286945D01*
X150343955Y-82298902D01*
X150342161Y-82299787D01*
X150340498Y-82298676D01*
X150340398Y-82297148D01*
X150361605Y-82234677D01*
X150347377Y-82163145D01*
X150348020Y-82161251D01*
X150349982Y-82160861D01*
X150351002Y-82161644D01*
X150351945Y-82163055D01*
X150373991Y-82177787D01*
X150400199Y-82183000D01*
X151059801Y-82183000D01*
X151139585Y-82167130D01*
X151207050Y-82122050D01*
X151252130Y-82054585D01*
X151267960Y-81975000D01*
X151252130Y-81895415D01*
X151207050Y-81827950D01*
X151167073Y-81801237D01*
X151166188Y-81799443D01*
X151167299Y-81797780D01*
X151169062Y-81797777D01*
X151194770Y-81810344D01*
X151270190Y-81825072D01*
X151342615Y-81800205D01*
X151392925Y-81742433D01*
X151408051Y-81677044D01*
X151409416Y-81675582D01*
X151411365Y-81676033D01*
G37*
G36*
X137267443Y-83219927D02*
G01*
X137267341Y-83220701D01*
X137244555Y-83287825D01*
X137259535Y-83363130D01*
X137264896Y-83372417D01*
X137264896Y-83374417D01*
X137263164Y-83375417D01*
X137262053Y-83375080D01*
X137234989Y-83356997D01*
X137197301Y-83349500D01*
X135797699Y-83349500D01*
X135760011Y-83356997D01*
X135730664Y-83376605D01*
X135728668Y-83376736D01*
X135727557Y-83375073D01*
X135727659Y-83374299D01*
X135750445Y-83307175D01*
X135735465Y-83231870D01*
X135730104Y-83222583D01*
X135730104Y-83220583D01*
X135731836Y-83219583D01*
X135732947Y-83219920D01*
X135760011Y-83238003D01*
X135797699Y-83245500D01*
X137197301Y-83245500D01*
X137234989Y-83238003D01*
X137264336Y-83218395D01*
X137266332Y-83218264D01*
X137267443Y-83219927D01*
G37*
G36*
X131467443Y-83219927D02*
G01*
X131467341Y-83220701D01*
X131444555Y-83287825D01*
X131459535Y-83363130D01*
X131464896Y-83372417D01*
X131464896Y-83374417D01*
X131463164Y-83375417D01*
X131462053Y-83375080D01*
X131434989Y-83356997D01*
X131397301Y-83349500D01*
X129997699Y-83349500D01*
X129960011Y-83356997D01*
X129930664Y-83376605D01*
X129928668Y-83376736D01*
X129927557Y-83375073D01*
X129927659Y-83374299D01*
X129950445Y-83307175D01*
X129935465Y-83231870D01*
X129930104Y-83222583D01*
X129930104Y-83220583D01*
X129931836Y-83219583D01*
X129932947Y-83219920D01*
X129960011Y-83238003D01*
X129997699Y-83245500D01*
X131397301Y-83245500D01*
X131434989Y-83238003D01*
X131464336Y-83218395D01*
X131466332Y-83218264D01*
X131467443Y-83219927D01*
G37*
G36*
X131467443Y-82569927D02*
G01*
X131467341Y-82570701D01*
X131444555Y-82637825D01*
X131459535Y-82713130D01*
X131464896Y-82722417D01*
X131464896Y-82724417D01*
X131463164Y-82725417D01*
X131462053Y-82725080D01*
X131434989Y-82706997D01*
X131397301Y-82699500D01*
X129997699Y-82699500D01*
X129960011Y-82706997D01*
X129930664Y-82726605D01*
X129928668Y-82726736D01*
X129927557Y-82725073D01*
X129927659Y-82724299D01*
X129950445Y-82657175D01*
X129935465Y-82581870D01*
X129930104Y-82572583D01*
X129930104Y-82570583D01*
X129931836Y-82569583D01*
X129932947Y-82569920D01*
X129960011Y-82588003D01*
X129997699Y-82595500D01*
X131397301Y-82595500D01*
X131434989Y-82588003D01*
X131464336Y-82568395D01*
X131466332Y-82568264D01*
X131467443Y-82569927D01*
G37*
G36*
X137267443Y-82569927D02*
G01*
X137267341Y-82570701D01*
X137244555Y-82637825D01*
X137259535Y-82713130D01*
X137264896Y-82722417D01*
X137264896Y-82724417D01*
X137263164Y-82725417D01*
X137262053Y-82725080D01*
X137234989Y-82706997D01*
X137197301Y-82699500D01*
X135797699Y-82699500D01*
X135760011Y-82706997D01*
X135730664Y-82726605D01*
X135728668Y-82726736D01*
X135727557Y-82725073D01*
X135727659Y-82724299D01*
X135750445Y-82657175D01*
X135735465Y-82581870D01*
X135730104Y-82572583D01*
X135730104Y-82570583D01*
X135731836Y-82569583D01*
X135732947Y-82569920D01*
X135760011Y-82588003D01*
X135797699Y-82595500D01*
X137197301Y-82595500D01*
X137234989Y-82588003D01*
X137264336Y-82568395D01*
X137266332Y-82568264D01*
X137267443Y-82569927D01*
G37*
G36*
X137267443Y-81919927D02*
G01*
X137267341Y-81920701D01*
X137244555Y-81987825D01*
X137259535Y-82063130D01*
X137264896Y-82072417D01*
X137264896Y-82074417D01*
X137263164Y-82075417D01*
X137262053Y-82075080D01*
X137234989Y-82056997D01*
X137197301Y-82049500D01*
X135797699Y-82049500D01*
X135760011Y-82056997D01*
X135730664Y-82076605D01*
X135728668Y-82076736D01*
X135727557Y-82075073D01*
X135727659Y-82074299D01*
X135750445Y-82007175D01*
X135735465Y-81931870D01*
X135730104Y-81922583D01*
X135730104Y-81920583D01*
X135731836Y-81919583D01*
X135732947Y-81919920D01*
X135760011Y-81938003D01*
X135797699Y-81945500D01*
X137197301Y-81945500D01*
X137234989Y-81938003D01*
X137264336Y-81918395D01*
X137266332Y-81918264D01*
X137267443Y-81919927D01*
G37*
G36*
X131467443Y-81919927D02*
G01*
X131467341Y-81920701D01*
X131444555Y-81987825D01*
X131459535Y-82063130D01*
X131464896Y-82072417D01*
X131464896Y-82074417D01*
X131463164Y-82075417D01*
X131462053Y-82075080D01*
X131434989Y-82056997D01*
X131397301Y-82049500D01*
X129997699Y-82049500D01*
X129960011Y-82056997D01*
X129930664Y-82076605D01*
X129928668Y-82076736D01*
X129927557Y-82075073D01*
X129927659Y-82074299D01*
X129950445Y-82007175D01*
X129935465Y-81931870D01*
X129930104Y-81922583D01*
X129930104Y-81920583D01*
X129931836Y-81919583D01*
X129932947Y-81919920D01*
X129960011Y-81938003D01*
X129997699Y-81945500D01*
X131397301Y-81945500D01*
X131434989Y-81938003D01*
X131464336Y-81918395D01*
X131466332Y-81918264D01*
X131467443Y-81919927D01*
G37*
G36*
X153040323Y-80536605D02*
G01*
X153111855Y-80522377D01*
X153113749Y-80523020D01*
X153114139Y-80524982D01*
X153113356Y-80526002D01*
X153111945Y-80526945D01*
X153097213Y-80548991D01*
X153092000Y-80575199D01*
X153092000Y-81234801D01*
X153107870Y-81314585D01*
X153152950Y-81382050D01*
X153220415Y-81427130D01*
X153300000Y-81442960D01*
X153379585Y-81427130D01*
X153447050Y-81382050D01*
X153473763Y-81342073D01*
X153475557Y-81341188D01*
X153477220Y-81342299D01*
X153477223Y-81344062D01*
X153464656Y-81369770D01*
X153449928Y-81445190D01*
X153474795Y-81517615D01*
X153532567Y-81567925D01*
X153597956Y-81583051D01*
X153599418Y-81584416D01*
X153598967Y-81586365D01*
X153597505Y-81587000D01*
X151502594Y-81587000D01*
X151500862Y-81586000D01*
X151500862Y-81584000D01*
X151502076Y-81583068D01*
X151576556Y-81563111D01*
X151630699Y-81508968D01*
X151650528Y-81434966D01*
X151635340Y-81369569D01*
X151622926Y-81344284D01*
X151623060Y-81342289D01*
X151624855Y-81341408D01*
X151626384Y-81342292D01*
X151652950Y-81382050D01*
X151720415Y-81427130D01*
X151800000Y-81442960D01*
X151879585Y-81427130D01*
X151947050Y-81382050D01*
X151992130Y-81314585D01*
X152008000Y-81234801D01*
X152008000Y-80575199D01*
X152002787Y-80548991D01*
X151988055Y-80526945D01*
X151976098Y-80518955D01*
X151975213Y-80517161D01*
X151976324Y-80515498D01*
X151977852Y-80515398D01*
X152040323Y-80536605D01*
X152111855Y-80522377D01*
X152113749Y-80523020D01*
X152114139Y-80524982D01*
X152113356Y-80526002D01*
X152111945Y-80526945D01*
X152097213Y-80548991D01*
X152092000Y-80575199D01*
X152092000Y-81234801D01*
X152107870Y-81314585D01*
X152152950Y-81382050D01*
X152220415Y-81427130D01*
X152300000Y-81442960D01*
X152379585Y-81427130D01*
X152447050Y-81382050D01*
X152492130Y-81314585D01*
X152508000Y-81234801D01*
X152508000Y-80575199D01*
X152502787Y-80548991D01*
X152488055Y-80526945D01*
X152476098Y-80518955D01*
X152475213Y-80517161D01*
X152476324Y-80515498D01*
X152477852Y-80515398D01*
X152540323Y-80536605D01*
X152611855Y-80522377D01*
X152613749Y-80523020D01*
X152614139Y-80524982D01*
X152613356Y-80526002D01*
X152611945Y-80526945D01*
X152597213Y-80548991D01*
X152592000Y-80575199D01*
X152592000Y-81234801D01*
X152607870Y-81314585D01*
X152652950Y-81382050D01*
X152720415Y-81427130D01*
X152800000Y-81442960D01*
X152879585Y-81427130D01*
X152947050Y-81382050D01*
X152992130Y-81314585D01*
X153008000Y-81234801D01*
X153008000Y-80575199D01*
X153002787Y-80548991D01*
X152988055Y-80526945D01*
X152976098Y-80518955D01*
X152975213Y-80517161D01*
X152976324Y-80515498D01*
X152977852Y-80515398D01*
X153040323Y-80536605D01*
G37*
G36*
X131467443Y-81269927D02*
G01*
X131467341Y-81270701D01*
X131444555Y-81337825D01*
X131459535Y-81413130D01*
X131464896Y-81422417D01*
X131464896Y-81424417D01*
X131463164Y-81425417D01*
X131462053Y-81425080D01*
X131434989Y-81406997D01*
X131397301Y-81399500D01*
X129997699Y-81399500D01*
X129960011Y-81406997D01*
X129930664Y-81426605D01*
X129928668Y-81426736D01*
X129927557Y-81425073D01*
X129927659Y-81424299D01*
X129950445Y-81357175D01*
X129935465Y-81281870D01*
X129930104Y-81272583D01*
X129930104Y-81270583D01*
X129931836Y-81269583D01*
X129932947Y-81269920D01*
X129960011Y-81288003D01*
X129997699Y-81295500D01*
X131397301Y-81295500D01*
X131434989Y-81288003D01*
X131464336Y-81268395D01*
X131466332Y-81268264D01*
X131467443Y-81269927D01*
G37*
G36*
X137267443Y-81269927D02*
G01*
X137267341Y-81270701D01*
X137244555Y-81337825D01*
X137259535Y-81413130D01*
X137264896Y-81422417D01*
X137264896Y-81424417D01*
X137263164Y-81425417D01*
X137262053Y-81425080D01*
X137234989Y-81406997D01*
X137197301Y-81399500D01*
X135797699Y-81399500D01*
X135760011Y-81406997D01*
X135730664Y-81426605D01*
X135728668Y-81426736D01*
X135727557Y-81425073D01*
X135727659Y-81424299D01*
X135750445Y-81357175D01*
X135735465Y-81281870D01*
X135730104Y-81272583D01*
X135730104Y-81270583D01*
X135731836Y-81269583D01*
X135732947Y-81269920D01*
X135760011Y-81288003D01*
X135797699Y-81295500D01*
X137197301Y-81295500D01*
X137234989Y-81288003D01*
X137264336Y-81268395D01*
X137266332Y-81268264D01*
X137267443Y-81269927D01*
G37*
G36*
X131467443Y-80619927D02*
G01*
X131467341Y-80620701D01*
X131444555Y-80687825D01*
X131459535Y-80763130D01*
X131464896Y-80772417D01*
X131464896Y-80774417D01*
X131463164Y-80775417D01*
X131462053Y-80775080D01*
X131434989Y-80756997D01*
X131397301Y-80749500D01*
X129997699Y-80749500D01*
X129960011Y-80756997D01*
X129930664Y-80776605D01*
X129928668Y-80776736D01*
X129927557Y-80775073D01*
X129927659Y-80774299D01*
X129950445Y-80707175D01*
X129935465Y-80631870D01*
X129930104Y-80622583D01*
X129930104Y-80620583D01*
X129931836Y-80619583D01*
X129932947Y-80619920D01*
X129960011Y-80638003D01*
X129997699Y-80645500D01*
X131397301Y-80645500D01*
X131434989Y-80638003D01*
X131464336Y-80618395D01*
X131466332Y-80618264D01*
X131467443Y-80619927D01*
G37*
G36*
X137267443Y-80619927D02*
G01*
X137267341Y-80620701D01*
X137244555Y-80687825D01*
X137259535Y-80763130D01*
X137264896Y-80772417D01*
X137264896Y-80774417D01*
X137263164Y-80775417D01*
X137262053Y-80775080D01*
X137234989Y-80756997D01*
X137197301Y-80749500D01*
X135797699Y-80749500D01*
X135760011Y-80756997D01*
X135730664Y-80776605D01*
X135728668Y-80776736D01*
X135727557Y-80775073D01*
X135727659Y-80774299D01*
X135750445Y-80707175D01*
X135735465Y-80631870D01*
X135730104Y-80622583D01*
X135730104Y-80620583D01*
X135731836Y-80619583D01*
X135732947Y-80619920D01*
X135760011Y-80638003D01*
X135797699Y-80645500D01*
X137197301Y-80645500D01*
X137234989Y-80638003D01*
X137264336Y-80618395D01*
X137266332Y-80618264D01*
X137267443Y-80619927D01*
G37*
G36*
X151680732Y-80283135D02*
G01*
X151680720Y-80284928D01*
X151679370Y-80287576D01*
X151663394Y-80362741D01*
X151687056Y-80435569D01*
X151743980Y-80486824D01*
X151811586Y-80503055D01*
X151813037Y-80504432D01*
X151812570Y-80506377D01*
X151811119Y-80507000D01*
X151660199Y-80507000D01*
X151633991Y-80512213D01*
X151611945Y-80526945D01*
X151597213Y-80548991D01*
X151591962Y-80575390D01*
X151590643Y-80576894D01*
X151590000Y-80577000D01*
X151586523Y-80577000D01*
X151584791Y-80576000D01*
X151584527Y-80575131D01*
X151581074Y-80522449D01*
X151538533Y-80458781D01*
X151469700Y-80424835D01*
X151440810Y-80421990D01*
X151439184Y-80420825D01*
X151439380Y-80418835D01*
X151441006Y-80418000D01*
X151449801Y-80418000D01*
X151552546Y-80397562D01*
X151639477Y-80339477D01*
X151677275Y-80282909D01*
X151679069Y-80282024D01*
X151680732Y-80283135D01*
G37*
G36*
X137267443Y-79969927D02*
G01*
X137267341Y-79970701D01*
X137244555Y-80037825D01*
X137259535Y-80113130D01*
X137264896Y-80122417D01*
X137264896Y-80124417D01*
X137263164Y-80125417D01*
X137262053Y-80125080D01*
X137234989Y-80106997D01*
X137197301Y-80099500D01*
X135797699Y-80099500D01*
X135760011Y-80106997D01*
X135730664Y-80126605D01*
X135728668Y-80126736D01*
X135727557Y-80125073D01*
X135727659Y-80124299D01*
X135750445Y-80057175D01*
X135735465Y-79981870D01*
X135730104Y-79972583D01*
X135730104Y-79970583D01*
X135731836Y-79969583D01*
X135732947Y-79969920D01*
X135760011Y-79988003D01*
X135797699Y-79995500D01*
X137197301Y-79995500D01*
X137234989Y-79988003D01*
X137264336Y-79968395D01*
X137266332Y-79968264D01*
X137267443Y-79969927D01*
G37*
G36*
X131467443Y-79969927D02*
G01*
X131467341Y-79970701D01*
X131444555Y-80037825D01*
X131459535Y-80113130D01*
X131464896Y-80122417D01*
X131464896Y-80124417D01*
X131463164Y-80125417D01*
X131462053Y-80125080D01*
X131434989Y-80106997D01*
X131397301Y-80099500D01*
X129997699Y-80099500D01*
X129960011Y-80106997D01*
X129930664Y-80126605D01*
X129928668Y-80126736D01*
X129927557Y-80125073D01*
X129927659Y-80124299D01*
X129950445Y-80057175D01*
X129935465Y-79981870D01*
X129930104Y-79972583D01*
X129930104Y-79970583D01*
X129931836Y-79969583D01*
X129932947Y-79969920D01*
X129960011Y-79988003D01*
X129997699Y-79995500D01*
X131397301Y-79995500D01*
X131434989Y-79988003D01*
X131464336Y-79968395D01*
X131466332Y-79968264D01*
X131467443Y-79969927D01*
G37*
G36*
X131467443Y-79319927D02*
G01*
X131467341Y-79320701D01*
X131444555Y-79387825D01*
X131459535Y-79463130D01*
X131464896Y-79472417D01*
X131464896Y-79474417D01*
X131463164Y-79475417D01*
X131462053Y-79475080D01*
X131434989Y-79456997D01*
X131397301Y-79449500D01*
X129997699Y-79449500D01*
X129960011Y-79456997D01*
X129930664Y-79476605D01*
X129928668Y-79476736D01*
X129927557Y-79475073D01*
X129927659Y-79474299D01*
X129950445Y-79407175D01*
X129935465Y-79331870D01*
X129930104Y-79322583D01*
X129930104Y-79320583D01*
X129931836Y-79319583D01*
X129932947Y-79319920D01*
X129960011Y-79338003D01*
X129997699Y-79345500D01*
X131397301Y-79345500D01*
X131434989Y-79338003D01*
X131464336Y-79318395D01*
X131466332Y-79318264D01*
X131467443Y-79319927D01*
G37*
G36*
X137267443Y-79319927D02*
G01*
X137267341Y-79320701D01*
X137244555Y-79387825D01*
X137259535Y-79463130D01*
X137264896Y-79472417D01*
X137264896Y-79474417D01*
X137263164Y-79475417D01*
X137262053Y-79475080D01*
X137234989Y-79456997D01*
X137197301Y-79449500D01*
X135797699Y-79449500D01*
X135760011Y-79456997D01*
X135730664Y-79476605D01*
X135728668Y-79476736D01*
X135727557Y-79475073D01*
X135727659Y-79474299D01*
X135750445Y-79407175D01*
X135735465Y-79331870D01*
X135730104Y-79322583D01*
X135730104Y-79320583D01*
X135731836Y-79319583D01*
X135732947Y-79319920D01*
X135760011Y-79338003D01*
X135797699Y-79345500D01*
X137197301Y-79345500D01*
X137234989Y-79338003D01*
X137264336Y-79318395D01*
X137266332Y-79318264D01*
X137267443Y-79319927D01*
G37*
G36*
X131467443Y-78669927D02*
G01*
X131467341Y-78670701D01*
X131444555Y-78737825D01*
X131459535Y-78813130D01*
X131464896Y-78822417D01*
X131464896Y-78824417D01*
X131463164Y-78825417D01*
X131462053Y-78825080D01*
X131434989Y-78806997D01*
X131397301Y-78799500D01*
X129997699Y-78799500D01*
X129960011Y-78806997D01*
X129930664Y-78826605D01*
X129928668Y-78826736D01*
X129927557Y-78825073D01*
X129927659Y-78824299D01*
X129950445Y-78757175D01*
X129935465Y-78681870D01*
X129930104Y-78672583D01*
X129930104Y-78670583D01*
X129931836Y-78669583D01*
X129932947Y-78669920D01*
X129960011Y-78688003D01*
X129997699Y-78695500D01*
X131397301Y-78695500D01*
X131434989Y-78688003D01*
X131464336Y-78668395D01*
X131466332Y-78668264D01*
X131467443Y-78669927D01*
G37*
G36*
X137267443Y-78669927D02*
G01*
X137267341Y-78670701D01*
X137244555Y-78737825D01*
X137259535Y-78813130D01*
X137264896Y-78822417D01*
X137264896Y-78824417D01*
X137263164Y-78825417D01*
X137262053Y-78825080D01*
X137234989Y-78806997D01*
X137197301Y-78799500D01*
X135797699Y-78799500D01*
X135760011Y-78806997D01*
X135730664Y-78826605D01*
X135728668Y-78826736D01*
X135727557Y-78825073D01*
X135727659Y-78824299D01*
X135750445Y-78757175D01*
X135735465Y-78681870D01*
X135730104Y-78672583D01*
X135730104Y-78670583D01*
X135731836Y-78669583D01*
X135732947Y-78669920D01*
X135760011Y-78688003D01*
X135797699Y-78695500D01*
X137197301Y-78695500D01*
X137234989Y-78688003D01*
X137264336Y-78668395D01*
X137266332Y-78668264D01*
X137267443Y-78669927D01*
G37*
G36*
X156951778Y-78517074D02*
G01*
X156997329Y-78547510D01*
X157075199Y-78563000D01*
X157344801Y-78563000D01*
X157416135Y-78548811D01*
X157418029Y-78549454D01*
X157418419Y-78551416D01*
X157417841Y-78552279D01*
X157367303Y-78596443D01*
X157342563Y-78668911D01*
X157357369Y-78744038D01*
X157407891Y-78801851D01*
X157423118Y-78810624D01*
X157424120Y-78812355D01*
X157423122Y-78814088D01*
X157421730Y-78814319D01*
X157359801Y-78802000D01*
X156990199Y-78802000D01*
X156928730Y-78814227D01*
X156926836Y-78813584D01*
X156926446Y-78811622D01*
X156927459Y-78810470D01*
X156951418Y-78798707D01*
X156951324Y-78798515D01*
X156951458Y-78796519D01*
X156952326Y-78795797D01*
X156990166Y-78779464D01*
X157035877Y-78718030D01*
X157044748Y-78641972D01*
X157014387Y-78571632D01*
X156963179Y-78530385D01*
X156956278Y-78527012D01*
X156955743Y-78526630D01*
X156949254Y-78520152D01*
X156948735Y-78518221D01*
X156950148Y-78516806D01*
X156951778Y-78517074D01*
G37*
G36*
X140340304Y-77711986D02*
G01*
X140345692Y-77720049D01*
X140403469Y-77770719D01*
X140478571Y-77785658D01*
X140551278Y-77760976D01*
X140566229Y-77749535D01*
X140568573Y-77747491D01*
X140568971Y-77747221D01*
X140606241Y-77727984D01*
X140608238Y-77728078D01*
X140609156Y-77729855D01*
X140608225Y-77731452D01*
X140527992Y-77782076D01*
X140435463Y-77886844D01*
X140376061Y-78013366D01*
X140354557Y-78151478D01*
X140372681Y-78290071D01*
X140428974Y-78418009D01*
X140518913Y-78525005D01*
X140598475Y-78577966D01*
X140599363Y-78579758D01*
X140598255Y-78581423D01*
X140596413Y-78581389D01*
X140546241Y-78554147D01*
X140545725Y-78555097D01*
X140544020Y-78556142D01*
X140543050Y-78555920D01*
X140499672Y-78533530D01*
X140423182Y-78537136D01*
X140358579Y-78578609D01*
X140345060Y-78595895D01*
X140340304Y-78603013D01*
X140338510Y-78603898D01*
X140336847Y-78602787D01*
X140336679Y-78601512D01*
X140340500Y-78582301D01*
X140340500Y-77732699D01*
X140336679Y-77713487D01*
X140337322Y-77711593D01*
X140339284Y-77711203D01*
X140340304Y-77711986D01*
G37*
G36*
X122857874Y-78102017D02*
G01*
X122873991Y-78112787D01*
X122900199Y-78118000D01*
X124399801Y-78118000D01*
X124426009Y-78112787D01*
X124442126Y-78102017D01*
X124444121Y-78101886D01*
X124445233Y-78103549D01*
X124444900Y-78104791D01*
X124436371Y-78117557D01*
X124411668Y-78190324D01*
X124426648Y-78265630D01*
X124436260Y-78282278D01*
X124444900Y-78295209D01*
X124445031Y-78297205D01*
X124443368Y-78298316D01*
X124442126Y-78297983D01*
X124426009Y-78287213D01*
X124399801Y-78282000D01*
X122900199Y-78282000D01*
X122873991Y-78287213D01*
X122857874Y-78297983D01*
X122855879Y-78298114D01*
X122854767Y-78296451D01*
X122855100Y-78295209D01*
X122863629Y-78282443D01*
X122888332Y-78209676D01*
X122873352Y-78134370D01*
X122863740Y-78117722D01*
X122855100Y-78104791D01*
X122854969Y-78102795D01*
X122856632Y-78101684D01*
X122857874Y-78102017D01*
G37*
G36*
X131467443Y-78019927D02*
G01*
X131467341Y-78020701D01*
X131444555Y-78087825D01*
X131459535Y-78163130D01*
X131464896Y-78172417D01*
X131464896Y-78174417D01*
X131463164Y-78175417D01*
X131462053Y-78175080D01*
X131434989Y-78156997D01*
X131397301Y-78149500D01*
X129997699Y-78149500D01*
X129960011Y-78156997D01*
X129930664Y-78176605D01*
X129928668Y-78176736D01*
X129927557Y-78175073D01*
X129927659Y-78174299D01*
X129950445Y-78107175D01*
X129935465Y-78031870D01*
X129930104Y-78022583D01*
X129930104Y-78020583D01*
X129931836Y-78019583D01*
X129932947Y-78019920D01*
X129960011Y-78038003D01*
X129997699Y-78045500D01*
X131397301Y-78045500D01*
X131434989Y-78038003D01*
X131464336Y-78018395D01*
X131466332Y-78018264D01*
X131467443Y-78019927D01*
G37*
G36*
X137267443Y-78019927D02*
G01*
X137267341Y-78020701D01*
X137244555Y-78087825D01*
X137259535Y-78163130D01*
X137264896Y-78172417D01*
X137264896Y-78174417D01*
X137263164Y-78175417D01*
X137262053Y-78175080D01*
X137234989Y-78156997D01*
X137197301Y-78149500D01*
X135797699Y-78149500D01*
X135760011Y-78156997D01*
X135730664Y-78176605D01*
X135728668Y-78176736D01*
X135727557Y-78175073D01*
X135727659Y-78174299D01*
X135750445Y-78107175D01*
X135735465Y-78031870D01*
X135730104Y-78022583D01*
X135730104Y-78020583D01*
X135731836Y-78019583D01*
X135732947Y-78019920D01*
X135760011Y-78038003D01*
X135797699Y-78045500D01*
X137197301Y-78045500D01*
X137234989Y-78038003D01*
X137264336Y-78018395D01*
X137266332Y-78018264D01*
X137267443Y-78019927D01*
G37*
G36*
X154047469Y-77548570D02*
G01*
X154047859Y-77550532D01*
X154047281Y-77551395D01*
X154000128Y-77592601D01*
X153975388Y-77665069D01*
X153990194Y-77740195D01*
X154040126Y-77797334D01*
X154040513Y-77799296D01*
X154039007Y-77800612D01*
X154038230Y-77800612D01*
X153969801Y-77787000D01*
X153700199Y-77787000D01*
X153624425Y-77802073D01*
X153622531Y-77801430D01*
X153622141Y-77799468D01*
X153622719Y-77798605D01*
X153669872Y-77757399D01*
X153694612Y-77684931D01*
X153679806Y-77609805D01*
X153629874Y-77552666D01*
X153629487Y-77550704D01*
X153630993Y-77549388D01*
X153631770Y-77549388D01*
X153700199Y-77563000D01*
X153969801Y-77563000D01*
X154045575Y-77547927D01*
X154047469Y-77548570D01*
G37*
G36*
X153027469Y-77548570D02*
G01*
X153027859Y-77550532D01*
X153027281Y-77551395D01*
X152980128Y-77592601D01*
X152955388Y-77665069D01*
X152970194Y-77740195D01*
X153020126Y-77797334D01*
X153020513Y-77799296D01*
X153019007Y-77800612D01*
X153018230Y-77800612D01*
X152949801Y-77787000D01*
X152680199Y-77787000D01*
X152604425Y-77802073D01*
X152602531Y-77801430D01*
X152602141Y-77799468D01*
X152602719Y-77798605D01*
X152649872Y-77757399D01*
X152674612Y-77684931D01*
X152659806Y-77609805D01*
X152609874Y-77552666D01*
X152609487Y-77550704D01*
X152610993Y-77549388D01*
X152611770Y-77549388D01*
X152680199Y-77563000D01*
X152949801Y-77563000D01*
X153025575Y-77547927D01*
X153027469Y-77548570D01*
G37*
G36*
X131467443Y-77369927D02*
G01*
X131467341Y-77370701D01*
X131444555Y-77437825D01*
X131459535Y-77513130D01*
X131464896Y-77522417D01*
X131464896Y-77524417D01*
X131463164Y-77525417D01*
X131462053Y-77525080D01*
X131434989Y-77506997D01*
X131397301Y-77499500D01*
X129997699Y-77499500D01*
X129960011Y-77506997D01*
X129930664Y-77526605D01*
X129928668Y-77526736D01*
X129927557Y-77525073D01*
X129927659Y-77524299D01*
X129950445Y-77457175D01*
X129935465Y-77381870D01*
X129930104Y-77372583D01*
X129930104Y-77370583D01*
X129931836Y-77369583D01*
X129932947Y-77369920D01*
X129960011Y-77388003D01*
X129997699Y-77395500D01*
X131397301Y-77395500D01*
X131434989Y-77388003D01*
X131464336Y-77368395D01*
X131466332Y-77368264D01*
X131467443Y-77369927D01*
G37*
G36*
X137267443Y-77369927D02*
G01*
X137267341Y-77370701D01*
X137244555Y-77437825D01*
X137259535Y-77513130D01*
X137264896Y-77522417D01*
X137264896Y-77524417D01*
X137263164Y-77525417D01*
X137262053Y-77525080D01*
X137234989Y-77506997D01*
X137197301Y-77499500D01*
X135797699Y-77499500D01*
X135760011Y-77506997D01*
X135730664Y-77526605D01*
X135728668Y-77526736D01*
X135727557Y-77525073D01*
X135727659Y-77524299D01*
X135750445Y-77457175D01*
X135735465Y-77381870D01*
X135730104Y-77372583D01*
X135730104Y-77370583D01*
X135731836Y-77369583D01*
X135732947Y-77369920D01*
X135760011Y-77388003D01*
X135797699Y-77395500D01*
X137197301Y-77395500D01*
X137234989Y-77388003D01*
X137264336Y-77368395D01*
X137266332Y-77368264D01*
X137267443Y-77369927D01*
G37*
G36*
X150284194Y-76865770D02*
G01*
X150292078Y-76881827D01*
X150342646Y-76939692D01*
X150415114Y-76964432D01*
X150490241Y-76949626D01*
X150548054Y-76899104D01*
X150558038Y-76881775D01*
X150565765Y-76865967D01*
X150567424Y-76864850D01*
X150569221Y-76865728D01*
X150569524Y-76867235D01*
X150557000Y-76930199D01*
X150557000Y-77269801D01*
X150569563Y-77332959D01*
X150568920Y-77334853D01*
X150566958Y-77335243D01*
X150565806Y-77334230D01*
X150557922Y-77318173D01*
X150507354Y-77260308D01*
X150434886Y-77235568D01*
X150359759Y-77250374D01*
X150301946Y-77300896D01*
X150291962Y-77318225D01*
X150284235Y-77334033D01*
X150282576Y-77335150D01*
X150280779Y-77334272D01*
X150280476Y-77332765D01*
X150293000Y-77269801D01*
X150293000Y-76930199D01*
X150280437Y-76867041D01*
X150281080Y-76865147D01*
X150283042Y-76864757D01*
X150284194Y-76865770D01*
G37*
G36*
X131467443Y-76719927D02*
G01*
X131467341Y-76720701D01*
X131444555Y-76787825D01*
X131459535Y-76863130D01*
X131464896Y-76872417D01*
X131464896Y-76874417D01*
X131463164Y-76875417D01*
X131462053Y-76875080D01*
X131434989Y-76856997D01*
X131397301Y-76849500D01*
X129997699Y-76849500D01*
X129960011Y-76856997D01*
X129930664Y-76876605D01*
X129928668Y-76876736D01*
X129927557Y-76875073D01*
X129927659Y-76874299D01*
X129950445Y-76807175D01*
X129935465Y-76731870D01*
X129930104Y-76722583D01*
X129930104Y-76720583D01*
X129931836Y-76719583D01*
X129932947Y-76719920D01*
X129960011Y-76738003D01*
X129997699Y-76745500D01*
X131397301Y-76745500D01*
X131434989Y-76738003D01*
X131464336Y-76718395D01*
X131466332Y-76718264D01*
X131467443Y-76719927D01*
G37*
G36*
X137267443Y-76719927D02*
G01*
X137267341Y-76720701D01*
X137244555Y-76787825D01*
X137259535Y-76863130D01*
X137264896Y-76872417D01*
X137264896Y-76874417D01*
X137263164Y-76875417D01*
X137262053Y-76875080D01*
X137234989Y-76856997D01*
X137197301Y-76849500D01*
X135797699Y-76849500D01*
X135760011Y-76856997D01*
X135730664Y-76876605D01*
X135728668Y-76876736D01*
X135727557Y-76875073D01*
X135727659Y-76874299D01*
X135750445Y-76807175D01*
X135735465Y-76731870D01*
X135730104Y-76722583D01*
X135730104Y-76720583D01*
X135731836Y-76719583D01*
X135732947Y-76719920D01*
X135760011Y-76738003D01*
X135797699Y-76745500D01*
X137197301Y-76745500D01*
X137234989Y-76738003D01*
X137264336Y-76718395D01*
X137266332Y-76718264D01*
X137267443Y-76719927D01*
G37*
G36*
X153027469Y-76548570D02*
G01*
X153027859Y-76550532D01*
X153027281Y-76551395D01*
X152980128Y-76592601D01*
X152955388Y-76665069D01*
X152970194Y-76740195D01*
X153020126Y-76797334D01*
X153020513Y-76799296D01*
X153019007Y-76800612D01*
X153018230Y-76800612D01*
X152949801Y-76787000D01*
X152680199Y-76787000D01*
X152604425Y-76802073D01*
X152602531Y-76801430D01*
X152602141Y-76799468D01*
X152602719Y-76798605D01*
X152649872Y-76757399D01*
X152674612Y-76684931D01*
X152659806Y-76609805D01*
X152609874Y-76552666D01*
X152609487Y-76550704D01*
X152610993Y-76549388D01*
X152611770Y-76549388D01*
X152680199Y-76563000D01*
X152949801Y-76563000D01*
X153025575Y-76547927D01*
X153027469Y-76548570D01*
G37*
G36*
X154047469Y-76548570D02*
G01*
X154047859Y-76550532D01*
X154047281Y-76551395D01*
X154000128Y-76592601D01*
X153975388Y-76665069D01*
X153990194Y-76740195D01*
X154040126Y-76797334D01*
X154040513Y-76799296D01*
X154039007Y-76800612D01*
X154038230Y-76800612D01*
X153969801Y-76787000D01*
X153700199Y-76787000D01*
X153624425Y-76802073D01*
X153622531Y-76801430D01*
X153622141Y-76799468D01*
X153622719Y-76798605D01*
X153669872Y-76757399D01*
X153694612Y-76684931D01*
X153679806Y-76609805D01*
X153629874Y-76552666D01*
X153629487Y-76550704D01*
X153630993Y-76549388D01*
X153631770Y-76549388D01*
X153700199Y-76563000D01*
X153969801Y-76563000D01*
X154045575Y-76547927D01*
X154047469Y-76548570D01*
G37*
G36*
X140152291Y-75077600D02*
G01*
X140165057Y-75086129D01*
X140237824Y-75110832D01*
X140313130Y-75095852D01*
X140329778Y-75086240D01*
X140342709Y-75077600D01*
X140344705Y-75077469D01*
X140345816Y-75079132D01*
X140345483Y-75080374D01*
X140334713Y-75096491D01*
X140329500Y-75122699D01*
X140329500Y-76622301D01*
X140334713Y-76648509D01*
X140345483Y-76664626D01*
X140345614Y-76666621D01*
X140343951Y-76667733D01*
X140342709Y-76667400D01*
X140329943Y-76658871D01*
X140257176Y-76634168D01*
X140181870Y-76649148D01*
X140165222Y-76658760D01*
X140152291Y-76667400D01*
X140150295Y-76667531D01*
X140149184Y-76665868D01*
X140149517Y-76664626D01*
X140160287Y-76648509D01*
X140165500Y-76622301D01*
X140165500Y-75122699D01*
X140160287Y-75096491D01*
X140149517Y-75080374D01*
X140149386Y-75078379D01*
X140151049Y-75077267D01*
X140152291Y-75077600D01*
G37*
G36*
X141452291Y-75077600D02*
G01*
X141465057Y-75086129D01*
X141537824Y-75110832D01*
X141613130Y-75095852D01*
X141629778Y-75086240D01*
X141642709Y-75077600D01*
X141644705Y-75077469D01*
X141645816Y-75079132D01*
X141645483Y-75080374D01*
X141634713Y-75096491D01*
X141629500Y-75122699D01*
X141629500Y-76622301D01*
X141634713Y-76648509D01*
X141645483Y-76664626D01*
X141645614Y-76666621D01*
X141643951Y-76667733D01*
X141642709Y-76667400D01*
X141629943Y-76658871D01*
X141557176Y-76634168D01*
X141481870Y-76649148D01*
X141465222Y-76658760D01*
X141452291Y-76667400D01*
X141450295Y-76667531D01*
X141449184Y-76665868D01*
X141449517Y-76664626D01*
X141460287Y-76648509D01*
X141465500Y-76622301D01*
X141465500Y-75122699D01*
X141460287Y-75096491D01*
X141449517Y-75080374D01*
X141449386Y-75078379D01*
X141451049Y-75077267D01*
X141452291Y-75077600D01*
G37*
G36*
X153960653Y-74304715D02*
G01*
X153960821Y-74305990D01*
X153957000Y-74325199D01*
X153957000Y-75174801D01*
X153960821Y-75194010D01*
X153960178Y-75195904D01*
X153958216Y-75196294D01*
X153957196Y-75195511D01*
X153951500Y-75186988D01*
X153893723Y-75136318D01*
X153818621Y-75121379D01*
X153745910Y-75146061D01*
X153732134Y-75156489D01*
X153724623Y-75162904D01*
X153724223Y-75163170D01*
X153686310Y-75182239D01*
X153684313Y-75182124D01*
X153683414Y-75180337D01*
X153684365Y-75178748D01*
X153764898Y-75129300D01*
X153858699Y-75025670D01*
X153919643Y-74899881D01*
X153942854Y-74761917D01*
X153942998Y-74750131D01*
X153923165Y-74611638D01*
X153865311Y-74484396D01*
X153774072Y-74378508D01*
X153694175Y-74326721D01*
X153693266Y-74324940D01*
X153694353Y-74323262D01*
X153696199Y-74323275D01*
X153747438Y-74350405D01*
X153748465Y-74349760D01*
X153749437Y-74349972D01*
X153798954Y-74374877D01*
X153875400Y-74370471D01*
X153939571Y-74328322D01*
X153952053Y-74312186D01*
X153957196Y-74304489D01*
X153958990Y-74303604D01*
X153960653Y-74304715D01*
G37*
G36*
X122857874Y-74727017D02*
G01*
X122873991Y-74737787D01*
X122900199Y-74743000D01*
X124399801Y-74743000D01*
X124426009Y-74737787D01*
X124442126Y-74727017D01*
X124444121Y-74726886D01*
X124445233Y-74728549D01*
X124444900Y-74729791D01*
X124436371Y-74742557D01*
X124411668Y-74815324D01*
X124426648Y-74890630D01*
X124436260Y-74907278D01*
X124444900Y-74920209D01*
X124445031Y-74922205D01*
X124443368Y-74923316D01*
X124442126Y-74922983D01*
X124426009Y-74912213D01*
X124399801Y-74907000D01*
X122900199Y-74907000D01*
X122873991Y-74912213D01*
X122857874Y-74922983D01*
X122855879Y-74923114D01*
X122854767Y-74921451D01*
X122855100Y-74920209D01*
X122863629Y-74907443D01*
X122888332Y-74834676D01*
X122873352Y-74759370D01*
X122863740Y-74742722D01*
X122855100Y-74729791D01*
X122854969Y-74727795D01*
X122856632Y-74726684D01*
X122857874Y-74727017D01*
G37*
M02*
