%TF.GenerationSoftware,KiCad,Pcbnew,6.0.3-a3aad9c10e~116~ubuntu20.04.1*%
%TF.CreationDate,2022-03-23T21:19:15+01:00*%
%TF.ProjectId,Smart_Charger,536d6172-745f-4436-9861-726765722e6b,ED A0*%
%TF.SameCoordinates,Original*%
%TF.FileFunction,Legend,Top*%
%TF.FilePolarity,Positive*%
%FSLAX46Y46*%
G04 Gerber Fmt 4.6, Leading zero omitted, Abs format (unit mm)*
G04 Created by KiCad (PCBNEW 6.0.3-a3aad9c10e~116~ubuntu20.04.1) date 2022-03-23 21:19:15*
%MOMM*%
%LPD*%
G01*
G04 APERTURE LIST*
%ADD10C,0.120000*%
%ADD11C,0.050000*%
%ADD12C,0.300000*%
%ADD13C,0.150000*%
%ADD14C,0.000003*%
%ADD15C,0.100000*%
%ADD16C,0.200000*%
G04 APERTURE END LIST*
D10*
X151825000Y-77350000D02*
X151900000Y-77275000D01*
X152050000Y-75700000D02*
X152275000Y-75700000D01*
X151675000Y-73650000D02*
X151725000Y-77275000D01*
X152050000Y-75700000D02*
X152050000Y-80175000D01*
X151825000Y-77200000D02*
X151825000Y-77350000D01*
X152050000Y-80175000D02*
X152275000Y-80175000D01*
D11*
X151150000Y-73650000D02*
X151675000Y-73650000D01*
D10*
X151725000Y-77275000D02*
X151900000Y-77275000D01*
D11*
X151675000Y-73650000D02*
X151675000Y-73125000D01*
D10*
X151900000Y-77275000D02*
X151825000Y-77200000D01*
D12*
X120914285Y-70757142D02*
X121128571Y-70828571D01*
X121485714Y-70828571D01*
X121628571Y-70757142D01*
X121700000Y-70685714D01*
X121771428Y-70542857D01*
X121771428Y-70400000D01*
X121700000Y-70257142D01*
X121628571Y-70185714D01*
X121485714Y-70114285D01*
X121200000Y-70042857D01*
X121057142Y-69971428D01*
X120985714Y-69900000D01*
X120914285Y-69757142D01*
X120914285Y-69614285D01*
X120985714Y-69471428D01*
X121057142Y-69400000D01*
X121200000Y-69328571D01*
X121557142Y-69328571D01*
X121771428Y-69400000D01*
X122414285Y-70828571D02*
X122414285Y-69828571D01*
X122414285Y-69971428D02*
X122485714Y-69900000D01*
X122628571Y-69828571D01*
X122842857Y-69828571D01*
X122985714Y-69900000D01*
X123057142Y-70042857D01*
X123057142Y-70828571D01*
X123057142Y-70042857D02*
X123128571Y-69900000D01*
X123271428Y-69828571D01*
X123485714Y-69828571D01*
X123628571Y-69900000D01*
X123700000Y-70042857D01*
X123700000Y-70828571D01*
X125057142Y-70828571D02*
X125057142Y-70042857D01*
X124985714Y-69900000D01*
X124842857Y-69828571D01*
X124557142Y-69828571D01*
X124414285Y-69900000D01*
X125057142Y-70757142D02*
X124914285Y-70828571D01*
X124557142Y-70828571D01*
X124414285Y-70757142D01*
X124342857Y-70614285D01*
X124342857Y-70471428D01*
X124414285Y-70328571D01*
X124557142Y-70257142D01*
X124914285Y-70257142D01*
X125057142Y-70185714D01*
X125771428Y-70828571D02*
X125771428Y-69828571D01*
X125771428Y-70114285D02*
X125842857Y-69971428D01*
X125914285Y-69900000D01*
X126057142Y-69828571D01*
X126200000Y-69828571D01*
X126485714Y-69828571D02*
X127057142Y-69828571D01*
X126700000Y-69328571D02*
X126700000Y-70614285D01*
X126771428Y-70757142D01*
X126914285Y-70828571D01*
X127057142Y-70828571D01*
X129557142Y-70685714D02*
X129485714Y-70757142D01*
X129271428Y-70828571D01*
X129128571Y-70828571D01*
X128914285Y-70757142D01*
X128771428Y-70614285D01*
X128700000Y-70471428D01*
X128628571Y-70185714D01*
X128628571Y-69971428D01*
X128700000Y-69685714D01*
X128771428Y-69542857D01*
X128914285Y-69400000D01*
X129128571Y-69328571D01*
X129271428Y-69328571D01*
X129485714Y-69400000D01*
X129557142Y-69471428D01*
X130200000Y-70828571D02*
X130200000Y-69328571D01*
X130842857Y-70828571D02*
X130842857Y-70042857D01*
X130771428Y-69900000D01*
X130628571Y-69828571D01*
X130414285Y-69828571D01*
X130271428Y-69900000D01*
X130200000Y-69971428D01*
X132200000Y-70828571D02*
X132200000Y-70042857D01*
X132128571Y-69900000D01*
X131985714Y-69828571D01*
X131700000Y-69828571D01*
X131557142Y-69900000D01*
X132200000Y-70757142D02*
X132057142Y-70828571D01*
X131700000Y-70828571D01*
X131557142Y-70757142D01*
X131485714Y-70614285D01*
X131485714Y-70471428D01*
X131557142Y-70328571D01*
X131700000Y-70257142D01*
X132057142Y-70257142D01*
X132200000Y-70185714D01*
X132914285Y-70828571D02*
X132914285Y-69828571D01*
X132914285Y-70114285D02*
X132985714Y-69971428D01*
X133057142Y-69900000D01*
X133200000Y-69828571D01*
X133342857Y-69828571D01*
X134485714Y-69828571D02*
X134485714Y-71042857D01*
X134414285Y-71185714D01*
X134342857Y-71257142D01*
X134200000Y-71328571D01*
X133985714Y-71328571D01*
X133842857Y-71257142D01*
X134485714Y-70757142D02*
X134342857Y-70828571D01*
X134057142Y-70828571D01*
X133914285Y-70757142D01*
X133842857Y-70685714D01*
X133771428Y-70542857D01*
X133771428Y-70114285D01*
X133842857Y-69971428D01*
X133914285Y-69900000D01*
X134057142Y-69828571D01*
X134342857Y-69828571D01*
X134485714Y-69900000D01*
X135771428Y-70757142D02*
X135628571Y-70828571D01*
X135342857Y-70828571D01*
X135200000Y-70757142D01*
X135128571Y-70614285D01*
X135128571Y-70042857D01*
X135200000Y-69900000D01*
X135342857Y-69828571D01*
X135628571Y-69828571D01*
X135771428Y-69900000D01*
X135842857Y-70042857D01*
X135842857Y-70185714D01*
X135128571Y-70328571D01*
X136485714Y-70828571D02*
X136485714Y-69828571D01*
X136485714Y-70114285D02*
X136557142Y-69971428D01*
X136628571Y-69900000D01*
X136771428Y-69828571D01*
X136914285Y-69828571D01*
X137414285Y-70685714D02*
X137485714Y-70757142D01*
X137414285Y-70828571D01*
X137342857Y-70757142D01*
X137414285Y-70685714D01*
X137414285Y-70828571D01*
X139271428Y-70828571D02*
X139271428Y-69328571D01*
X139842857Y-69328571D01*
X139985714Y-69400000D01*
X140057142Y-69471428D01*
X140128571Y-69614285D01*
X140128571Y-69828571D01*
X140057142Y-69971428D01*
X139985714Y-70042857D01*
X139842857Y-70114285D01*
X139271428Y-70114285D01*
X140771428Y-70828571D02*
X140771428Y-69828571D01*
X140771428Y-70114285D02*
X140842857Y-69971428D01*
X140914285Y-69900000D01*
X141057142Y-69828571D01*
X141200000Y-69828571D01*
X141914285Y-70828571D02*
X141771428Y-70757142D01*
X141700000Y-70685714D01*
X141628571Y-70542857D01*
X141628571Y-70114285D01*
X141700000Y-69971428D01*
X141771428Y-69900000D01*
X141914285Y-69828571D01*
X142128571Y-69828571D01*
X142271428Y-69900000D01*
X142342857Y-69971428D01*
X142414285Y-70114285D01*
X142414285Y-70542857D01*
X142342857Y-70685714D01*
X142271428Y-70757142D01*
X142128571Y-70828571D01*
X141914285Y-70828571D01*
X143057142Y-69828571D02*
X143057142Y-71114285D01*
X142985714Y-71257142D01*
X142842857Y-71328571D01*
X142771428Y-71328571D01*
X143057142Y-69328571D02*
X142985714Y-69400000D01*
X143057142Y-69471428D01*
X143128571Y-69400000D01*
X143057142Y-69328571D01*
X143057142Y-69471428D01*
X144342857Y-70757142D02*
X144200000Y-70828571D01*
X143914285Y-70828571D01*
X143771428Y-70757142D01*
X143700000Y-70614285D01*
X143700000Y-70042857D01*
X143771428Y-69900000D01*
X143914285Y-69828571D01*
X144200000Y-69828571D01*
X144342857Y-69900000D01*
X144414285Y-70042857D01*
X144414285Y-70185714D01*
X143700000Y-70328571D01*
X145700000Y-70757142D02*
X145557142Y-70828571D01*
X145271428Y-70828571D01*
X145128571Y-70757142D01*
X145057142Y-70685714D01*
X144985714Y-70542857D01*
X144985714Y-70114285D01*
X145057142Y-69971428D01*
X145128571Y-69900000D01*
X145271428Y-69828571D01*
X145557142Y-69828571D01*
X145700000Y-69900000D01*
X146128571Y-69828571D02*
X146700000Y-69828571D01*
X146342857Y-69328571D02*
X146342857Y-70614285D01*
X146414285Y-70757142D01*
X146557142Y-70828571D01*
X146700000Y-70828571D01*
X148128571Y-69828571D02*
X148700000Y-69828571D01*
X148342857Y-70828571D02*
X148342857Y-69542857D01*
X148414285Y-69400000D01*
X148557142Y-69328571D01*
X148700000Y-69328571D01*
X149414285Y-70828571D02*
X149271428Y-70757142D01*
X149200000Y-70685714D01*
X149128571Y-70542857D01*
X149128571Y-70114285D01*
X149200000Y-69971428D01*
X149271428Y-69900000D01*
X149414285Y-69828571D01*
X149628571Y-69828571D01*
X149771428Y-69900000D01*
X149842857Y-69971428D01*
X149914285Y-70114285D01*
X149914285Y-70542857D01*
X149842857Y-70685714D01*
X149771428Y-70757142D01*
X149628571Y-70828571D01*
X149414285Y-70828571D01*
X150557142Y-70828571D02*
X150557142Y-69828571D01*
X150557142Y-70114285D02*
X150628571Y-69971428D01*
X150700000Y-69900000D01*
X150842857Y-69828571D01*
X150985714Y-69828571D01*
X152628571Y-70828571D02*
X152628571Y-69328571D01*
X153128571Y-70400000D01*
X153628571Y-69328571D01*
X153628571Y-70828571D01*
X154342857Y-70828571D02*
X154342857Y-69828571D01*
X154342857Y-70114285D02*
X154414285Y-69971428D01*
X154485714Y-69900000D01*
X154628571Y-69828571D01*
X154771428Y-69828571D01*
X155271428Y-70685714D02*
X155342857Y-70757142D01*
X155271428Y-70828571D01*
X155200000Y-70757142D01*
X155271428Y-70685714D01*
X155271428Y-70828571D01*
X156985714Y-69328571D02*
X157342857Y-70828571D01*
X157628571Y-69757142D01*
X157914285Y-70828571D01*
X158271428Y-69328571D01*
X159057142Y-70828571D02*
X158914285Y-70757142D01*
X158842857Y-70614285D01*
X158842857Y-69328571D01*
X160271428Y-70828571D02*
X160271428Y-70042857D01*
X160200000Y-69900000D01*
X160057142Y-69828571D01*
X159771428Y-69828571D01*
X159628571Y-69900000D01*
X160271428Y-70757142D02*
X160128571Y-70828571D01*
X159771428Y-70828571D01*
X159628571Y-70757142D01*
X159557142Y-70614285D01*
X159557142Y-70471428D01*
X159628571Y-70328571D01*
X159771428Y-70257142D01*
X160128571Y-70257142D01*
X160271428Y-70185714D01*
X161628571Y-70828571D02*
X161628571Y-69328571D01*
X161628571Y-70757142D02*
X161485714Y-70828571D01*
X161200000Y-70828571D01*
X161057142Y-70757142D01*
X160985714Y-70685714D01*
X160914285Y-70542857D01*
X160914285Y-70114285D01*
X160985714Y-69971428D01*
X161057142Y-69900000D01*
X161200000Y-69828571D01*
X161485714Y-69828571D01*
X161628571Y-69900000D01*
X162200000Y-69828571D02*
X162985714Y-69828571D01*
X162200000Y-70828571D01*
X162985714Y-70828571D01*
X163557142Y-70828571D02*
X163557142Y-69828571D01*
X163557142Y-69328571D02*
X163485714Y-69400000D01*
X163557142Y-69471428D01*
X163628571Y-69400000D01*
X163557142Y-69328571D01*
X163557142Y-69471428D01*
X164485714Y-70828571D02*
X164342857Y-70757142D01*
X164271428Y-70685714D01*
X164200000Y-70542857D01*
X164200000Y-70114285D01*
X164271428Y-69971428D01*
X164342857Y-69900000D01*
X164485714Y-69828571D01*
X164700000Y-69828571D01*
X164842857Y-69900000D01*
X164914285Y-69971428D01*
X164985714Y-70114285D01*
X164985714Y-70542857D01*
X164914285Y-70685714D01*
X164842857Y-70757142D01*
X164700000Y-70828571D01*
X164485714Y-70828571D01*
X112517857Y-92267857D02*
X112732142Y-92339285D01*
X112803571Y-92410714D01*
X112875000Y-92553571D01*
X112875000Y-92767857D01*
X112803571Y-92910714D01*
X112732142Y-92982142D01*
X112589285Y-93053571D01*
X112017857Y-93053571D01*
X112017857Y-91553571D01*
X112517857Y-91553571D01*
X112660714Y-91625000D01*
X112732142Y-91696428D01*
X112803571Y-91839285D01*
X112803571Y-91982142D01*
X112732142Y-92125000D01*
X112660714Y-92196428D01*
X112517857Y-92267857D01*
X112017857Y-92267857D01*
X113446428Y-92625000D02*
X114160714Y-92625000D01*
X113303571Y-93053571D02*
X113803571Y-91553571D01*
X114303571Y-93053571D01*
X114589285Y-91553571D02*
X115446428Y-91553571D01*
X115017857Y-93053571D02*
X115017857Y-91553571D01*
X115732142Y-91553571D02*
X116589285Y-91553571D01*
X116160714Y-93053571D02*
X116160714Y-91553571D01*
X117089285Y-92482142D02*
X118232142Y-92482142D01*
D13*
X166800000Y-72503571D02*
X167133333Y-72503571D01*
X167276190Y-73027380D02*
X166800000Y-73027380D01*
X166800000Y-72027380D01*
X167276190Y-72027380D01*
X167704761Y-73027380D02*
X167704761Y-72027380D01*
X167942857Y-72027380D01*
X168085714Y-72075000D01*
X168180952Y-72170238D01*
X168228571Y-72265476D01*
X168276190Y-72455952D01*
X168276190Y-72598809D01*
X168228571Y-72789285D01*
X168180952Y-72884523D01*
X168085714Y-72979761D01*
X167942857Y-73027380D01*
X167704761Y-73027380D01*
X169419047Y-72741666D02*
X169895238Y-72741666D01*
X169323809Y-73027380D02*
X169657142Y-72027380D01*
X169990476Y-73027380D01*
X170514285Y-72027380D02*
X170609523Y-72027380D01*
X170704761Y-72075000D01*
X170752380Y-72122619D01*
X170800000Y-72217857D01*
X170847619Y-72408333D01*
X170847619Y-72646428D01*
X170800000Y-72836904D01*
X170752380Y-72932142D01*
X170704761Y-72979761D01*
X170609523Y-73027380D01*
X170514285Y-73027380D01*
X170419047Y-72979761D01*
X170371428Y-72932142D01*
X170323809Y-72836904D01*
X170276190Y-72646428D01*
X170276190Y-72408333D01*
X170323809Y-72217857D01*
X170371428Y-72122619D01*
X170419047Y-72075000D01*
X170514285Y-72027380D01*
D12*
X116767857Y-72517857D02*
X116982142Y-72589285D01*
X117053571Y-72660714D01*
X117125000Y-72803571D01*
X117125000Y-73017857D01*
X117053571Y-73160714D01*
X116982142Y-73232142D01*
X116839285Y-73303571D01*
X116267857Y-73303571D01*
X116267857Y-71803571D01*
X116767857Y-71803571D01*
X116910714Y-71875000D01*
X116982142Y-71946428D01*
X117053571Y-72089285D01*
X117053571Y-72232142D01*
X116982142Y-72375000D01*
X116910714Y-72446428D01*
X116767857Y-72517857D01*
X116267857Y-72517857D01*
X117696428Y-72875000D02*
X118410714Y-72875000D01*
X117553571Y-73303571D02*
X118053571Y-71803571D01*
X118553571Y-73303571D01*
X118839285Y-71803571D02*
X119696428Y-71803571D01*
X119267857Y-73303571D02*
X119267857Y-71803571D01*
X119982142Y-71803571D02*
X120839285Y-71803571D01*
X120410714Y-73303571D02*
X120410714Y-71803571D01*
X121339285Y-72732142D02*
X122482142Y-72732142D01*
X121910714Y-73303571D02*
X121910714Y-72160714D01*
D14*
%TO.C,kibuzzard-623A4100*%
X129148040Y-71069476D02*
X129148040Y-71069222D01*
X129148064Y-71069380D02*
X129148137Y-71069476D01*
X129148137Y-71069307D02*
X129148040Y-71069404D01*
X129148246Y-71069476D02*
X129148246Y-71069307D01*
X129148246Y-71069222D02*
X129148234Y-71069235D01*
X129148246Y-71069247D01*
X129148258Y-71069235D01*
X129148246Y-71069222D01*
X129148246Y-71069247D01*
X129148367Y-71069476D02*
X129148367Y-71069222D01*
X129148367Y-71069319D02*
X129148391Y-71069307D01*
X129148439Y-71069307D01*
X129148463Y-71069319D01*
X129148476Y-71069331D01*
X129148488Y-71069355D01*
X129148488Y-71069428D01*
X129148476Y-71069452D01*
X129148463Y-71069464D01*
X129148439Y-71069476D01*
X129148391Y-71069476D01*
X129148367Y-71069464D01*
X129148705Y-71069307D02*
X129148705Y-71069476D01*
X129148596Y-71069307D02*
X129148596Y-71069440D01*
X129148609Y-71069464D01*
X129148633Y-71069476D01*
X129148669Y-71069476D01*
X129148693Y-71069464D01*
X129148705Y-71069452D01*
X129148802Y-71069307D02*
X129148935Y-71069307D01*
X129148802Y-71069476D01*
X129148935Y-71069476D01*
X129149008Y-71069307D02*
X129149141Y-71069307D01*
X129149008Y-71069476D01*
X129149141Y-71069476D01*
X129149346Y-71069476D02*
X129149346Y-71069343D01*
X129149334Y-71069319D01*
X129149310Y-71069307D01*
X129149262Y-71069307D01*
X129149238Y-71069319D01*
X129149346Y-71069464D02*
X129149322Y-71069476D01*
X129149262Y-71069476D01*
X129149238Y-71069464D01*
X129149225Y-71069440D01*
X129149225Y-71069416D01*
X129149238Y-71069392D01*
X129149262Y-71069380D01*
X129149322Y-71069380D01*
X129149346Y-71069368D01*
X129149467Y-71069476D02*
X129149467Y-71069307D01*
X129149467Y-71069355D02*
X129149479Y-71069331D01*
X129149492Y-71069319D01*
X129149516Y-71069307D01*
X129149540Y-71069307D01*
X129149733Y-71069476D02*
X129149733Y-71069222D01*
X129149733Y-71069464D02*
X129149709Y-71069476D01*
X129149661Y-71069476D01*
X129149637Y-71069464D01*
X129149625Y-71069452D01*
X129149612Y-71069428D01*
X129149612Y-71069355D01*
X129149625Y-71069331D01*
X129149637Y-71069319D01*
X129149661Y-71069307D01*
X129149709Y-71069307D01*
X129149733Y-71069319D01*
X129149854Y-71069380D02*
X129150048Y-71069380D01*
X129150278Y-71069222D02*
X129150229Y-71069222D01*
X129150205Y-71069235D01*
X129150193Y-71069247D01*
X129150169Y-71069283D01*
X129150157Y-71069331D01*
X129150157Y-71069428D01*
X129150169Y-71069452D01*
X129150181Y-71069464D01*
X129150205Y-71069476D01*
X129150254Y-71069476D01*
X129150278Y-71069464D01*
X129150290Y-71069452D01*
X129150302Y-71069428D01*
X129150302Y-71069368D01*
X129150290Y-71069343D01*
X129150278Y-71069331D01*
X129150254Y-71069319D01*
X129150205Y-71069319D01*
X129150181Y-71069331D01*
X129150169Y-71069343D01*
X129150157Y-71069368D01*
X129150399Y-71069247D02*
X129150411Y-71069235D01*
X129150435Y-71069222D01*
X129150495Y-71069222D01*
X129150520Y-71069235D01*
X129150532Y-71069247D01*
X129150544Y-71069271D01*
X129150544Y-71069295D01*
X129150532Y-71069331D01*
X129150387Y-71069476D01*
X129150544Y-71069476D01*
X129150628Y-71069222D02*
X129150786Y-71069222D01*
X129150701Y-71069319D01*
X129150737Y-71069319D01*
X129150762Y-71069331D01*
X129150774Y-71069343D01*
X129150786Y-71069368D01*
X129150786Y-71069428D01*
X129150774Y-71069452D01*
X129150762Y-71069464D01*
X129150737Y-71069476D01*
X129150665Y-71069476D01*
X129150641Y-71069464D01*
X129150628Y-71069452D01*
X129150882Y-71069404D02*
X129151003Y-71069404D01*
X129150858Y-71069476D02*
X129150943Y-71069222D01*
X129151028Y-71069476D01*
X129151221Y-71069307D02*
X129151221Y-71069476D01*
X129151161Y-71069210D02*
X129151100Y-71069392D01*
X129151257Y-71069392D01*
X129151487Y-71069476D02*
X129151342Y-71069476D01*
X129151415Y-71069476D02*
X129151415Y-71069222D01*
X129151390Y-71069259D01*
X129151366Y-71069283D01*
X129151342Y-71069295D01*
X129151644Y-71069222D02*
X129151669Y-71069222D01*
X129151693Y-71069235D01*
X129151705Y-71069247D01*
X129151717Y-71069271D01*
X129151729Y-71069319D01*
X129151729Y-71069380D01*
X129151717Y-71069428D01*
X129151705Y-71069452D01*
X129151693Y-71069464D01*
X129151669Y-71069476D01*
X129151644Y-71069476D01*
X129151620Y-71069464D01*
X129151608Y-71069452D01*
X129151596Y-71069428D01*
X129151584Y-71069380D01*
X129151584Y-71069319D01*
X129151596Y-71069271D01*
X129151608Y-71069247D01*
X129151620Y-71069235D01*
X129151644Y-71069222D01*
X129151886Y-71069222D02*
X129151911Y-71069222D01*
X129151935Y-71069235D01*
X129151947Y-71069247D01*
X129151959Y-71069271D01*
X129151971Y-71069319D01*
X129151971Y-71069380D01*
X129151959Y-71069428D01*
X129151947Y-71069452D01*
X129151935Y-71069464D01*
X129151911Y-71069476D01*
X129151886Y-71069476D01*
X129151862Y-71069464D01*
X129151850Y-71069452D01*
X129151838Y-71069428D01*
X129151826Y-71069380D01*
X129151826Y-71069319D01*
X129151838Y-71069271D01*
X129151850Y-71069247D01*
X129151862Y-71069235D01*
X129151886Y-71069222D01*
%TO.C,kibuzzard-623A40DC*%
X144148028Y-95569476D02*
X144148028Y-95569222D01*
X144148052Y-95569380D02*
X144148125Y-95569476D01*
X144148125Y-95569307D02*
X144148028Y-95569404D01*
X144148234Y-95569476D02*
X144148234Y-95569307D01*
X144148234Y-95569222D02*
X144148222Y-95569235D01*
X144148234Y-95569247D01*
X144148246Y-95569235D01*
X144148234Y-95569222D01*
X144148234Y-95569247D01*
X144148355Y-95569476D02*
X144148355Y-95569222D01*
X144148355Y-95569319D02*
X144148379Y-95569307D01*
X144148427Y-95569307D01*
X144148451Y-95569319D01*
X144148463Y-95569331D01*
X144148476Y-95569355D01*
X144148476Y-95569428D01*
X144148463Y-95569452D01*
X144148451Y-95569464D01*
X144148427Y-95569476D01*
X144148379Y-95569476D01*
X144148355Y-95569464D01*
X144148693Y-95569307D02*
X144148693Y-95569476D01*
X144148584Y-95569307D02*
X144148584Y-95569440D01*
X144148596Y-95569464D01*
X144148621Y-95569476D01*
X144148657Y-95569476D01*
X144148681Y-95569464D01*
X144148693Y-95569452D01*
X144148790Y-95569307D02*
X144148923Y-95569307D01*
X144148790Y-95569476D01*
X144148923Y-95569476D01*
X144148996Y-95569307D02*
X144149129Y-95569307D01*
X144148996Y-95569476D01*
X144149129Y-95569476D01*
X144149334Y-95569476D02*
X144149334Y-95569343D01*
X144149322Y-95569319D01*
X144149298Y-95569307D01*
X144149250Y-95569307D01*
X144149225Y-95569319D01*
X144149334Y-95569464D02*
X144149310Y-95569476D01*
X144149250Y-95569476D01*
X144149225Y-95569464D01*
X144149213Y-95569440D01*
X144149213Y-95569416D01*
X144149225Y-95569392D01*
X144149250Y-95569380D01*
X144149310Y-95569380D01*
X144149334Y-95569368D01*
X144149455Y-95569476D02*
X144149455Y-95569307D01*
X144149455Y-95569355D02*
X144149467Y-95569331D01*
X144149479Y-95569319D01*
X144149504Y-95569307D01*
X144149528Y-95569307D01*
X144149721Y-95569476D02*
X144149721Y-95569222D01*
X144149721Y-95569464D02*
X144149697Y-95569476D01*
X144149649Y-95569476D01*
X144149625Y-95569464D01*
X144149612Y-95569452D01*
X144149600Y-95569428D01*
X144149600Y-95569355D01*
X144149612Y-95569331D01*
X144149625Y-95569319D01*
X144149649Y-95569307D01*
X144149697Y-95569307D01*
X144149721Y-95569319D01*
X144149842Y-95569380D02*
X144150036Y-95569380D01*
X144150266Y-95569222D02*
X144150217Y-95569222D01*
X144150193Y-95569235D01*
X144150181Y-95569247D01*
X144150157Y-95569283D01*
X144150145Y-95569331D01*
X144150145Y-95569428D01*
X144150157Y-95569452D01*
X144150169Y-95569464D01*
X144150193Y-95569476D01*
X144150241Y-95569476D01*
X144150266Y-95569464D01*
X144150278Y-95569452D01*
X144150290Y-95569428D01*
X144150290Y-95569368D01*
X144150278Y-95569343D01*
X144150266Y-95569331D01*
X144150241Y-95569319D01*
X144150193Y-95569319D01*
X144150169Y-95569331D01*
X144150157Y-95569343D01*
X144150145Y-95569368D01*
X144150387Y-95569247D02*
X144150399Y-95569235D01*
X144150423Y-95569222D01*
X144150483Y-95569222D01*
X144150508Y-95569235D01*
X144150520Y-95569247D01*
X144150532Y-95569271D01*
X144150532Y-95569295D01*
X144150520Y-95569331D01*
X144150374Y-95569476D01*
X144150532Y-95569476D01*
X144150616Y-95569222D02*
X144150774Y-95569222D01*
X144150689Y-95569319D01*
X144150725Y-95569319D01*
X144150749Y-95569331D01*
X144150762Y-95569343D01*
X144150774Y-95569368D01*
X144150774Y-95569428D01*
X144150762Y-95569452D01*
X144150749Y-95569464D01*
X144150725Y-95569476D01*
X144150653Y-95569476D01*
X144150628Y-95569464D01*
X144150616Y-95569452D01*
X144150870Y-95569404D02*
X144150991Y-95569404D01*
X144150846Y-95569476D02*
X144150931Y-95569222D01*
X144151016Y-95569476D01*
X144151209Y-95569307D02*
X144151209Y-95569476D01*
X144151149Y-95569210D02*
X144151088Y-95569392D01*
X144151245Y-95569392D01*
X144151390Y-95569222D02*
X144151415Y-95569222D01*
X144151439Y-95569235D01*
X144151451Y-95569247D01*
X144151463Y-95569271D01*
X144151475Y-95569319D01*
X144151475Y-95569380D01*
X144151463Y-95569428D01*
X144151451Y-95569452D01*
X144151439Y-95569464D01*
X144151415Y-95569476D01*
X144151390Y-95569476D01*
X144151366Y-95569464D01*
X144151354Y-95569452D01*
X144151342Y-95569428D01*
X144151330Y-95569380D01*
X144151330Y-95569319D01*
X144151342Y-95569271D01*
X144151354Y-95569247D01*
X144151366Y-95569235D01*
X144151390Y-95569222D01*
X144151584Y-95569476D02*
X144151584Y-95569222D01*
X144151644Y-95569222D01*
X144151681Y-95569235D01*
X144151705Y-95569259D01*
X144151717Y-95569283D01*
X144151729Y-95569331D01*
X144151729Y-95569368D01*
X144151717Y-95569416D01*
X144151705Y-95569440D01*
X144151681Y-95569464D01*
X144151644Y-95569476D01*
X144151584Y-95569476D01*
X144151983Y-95569452D02*
X144151971Y-95569464D01*
X144151935Y-95569476D01*
X144151911Y-95569476D01*
X144151874Y-95569464D01*
X144151850Y-95569440D01*
X144151838Y-95569416D01*
X144151826Y-95569368D01*
X144151826Y-95569331D01*
X144151838Y-95569283D01*
X144151850Y-95569259D01*
X144151874Y-95569235D01*
X144151911Y-95569222D01*
X144151935Y-95569222D01*
X144151971Y-95569235D01*
X144151983Y-95569247D01*
D15*
%TO.C,R316*%
X139577380Y-81030952D02*
X139444047Y-80840476D01*
X139348809Y-81030952D02*
X139348809Y-80630952D01*
X139501190Y-80630952D01*
X139539285Y-80650000D01*
X139558333Y-80669047D01*
X139577380Y-80707142D01*
X139577380Y-80764285D01*
X139558333Y-80802380D01*
X139539285Y-80821428D01*
X139501190Y-80840476D01*
X139348809Y-80840476D01*
X139710714Y-80630952D02*
X139958333Y-80630952D01*
X139825000Y-80783333D01*
X139882142Y-80783333D01*
X139920238Y-80802380D01*
X139939285Y-80821428D01*
X139958333Y-80859523D01*
X139958333Y-80954761D01*
X139939285Y-80992857D01*
X139920238Y-81011904D01*
X139882142Y-81030952D01*
X139767857Y-81030952D01*
X139729761Y-81011904D01*
X139710714Y-80992857D01*
X140339285Y-81030952D02*
X140110714Y-81030952D01*
X140225000Y-81030952D02*
X140225000Y-80630952D01*
X140186904Y-80688095D01*
X140148809Y-80726190D01*
X140110714Y-80745238D01*
X140682142Y-80630952D02*
X140605952Y-80630952D01*
X140567857Y-80650000D01*
X140548809Y-80669047D01*
X140510714Y-80726190D01*
X140491666Y-80802380D01*
X140491666Y-80954761D01*
X140510714Y-80992857D01*
X140529761Y-81011904D01*
X140567857Y-81030952D01*
X140644047Y-81030952D01*
X140682142Y-81011904D01*
X140701190Y-80992857D01*
X140720238Y-80954761D01*
X140720238Y-80859523D01*
X140701190Y-80821428D01*
X140682142Y-80802380D01*
X140644047Y-80783333D01*
X140567857Y-80783333D01*
X140529761Y-80802380D01*
X140510714Y-80821428D01*
X140491666Y-80859523D01*
%TO.C,D302*%
X140438808Y-93135951D02*
X140438808Y-92735951D01*
X140534046Y-92735951D01*
X140591189Y-92754999D01*
X140629284Y-92793094D01*
X140648332Y-92831189D01*
X140667379Y-92907379D01*
X140667379Y-92964522D01*
X140648332Y-93040713D01*
X140629284Y-93078808D01*
X140591189Y-93116903D01*
X140534046Y-93135951D01*
X140438808Y-93135951D01*
X140800713Y-92735951D02*
X141048332Y-92735951D01*
X140914999Y-92888332D01*
X140972141Y-92888332D01*
X141010237Y-92907379D01*
X141029284Y-92926427D01*
X141048332Y-92964522D01*
X141048332Y-93059760D01*
X141029284Y-93097856D01*
X141010237Y-93116903D01*
X140972141Y-93135951D01*
X140857856Y-93135951D01*
X140819760Y-93116903D01*
X140800713Y-93097856D01*
X141295951Y-92735951D02*
X141334046Y-92735951D01*
X141372141Y-92754999D01*
X141391189Y-92774046D01*
X141410237Y-92812141D01*
X141429284Y-92888332D01*
X141429284Y-92983570D01*
X141410237Y-93059760D01*
X141391189Y-93097856D01*
X141372141Y-93116903D01*
X141334046Y-93135951D01*
X141295951Y-93135951D01*
X141257856Y-93116903D01*
X141238808Y-93097856D01*
X141219760Y-93059760D01*
X141200713Y-92983570D01*
X141200713Y-92888332D01*
X141219760Y-92812141D01*
X141238808Y-92774046D01*
X141257856Y-92754999D01*
X141295951Y-92735951D01*
X141581665Y-92774046D02*
X141600713Y-92754999D01*
X141638808Y-92735951D01*
X141734046Y-92735951D01*
X141772141Y-92754999D01*
X141791189Y-92774046D01*
X141810237Y-92812141D01*
X141810237Y-92850237D01*
X141791189Y-92907379D01*
X141562618Y-93135951D01*
X141810237Y-93135951D01*
%TO.C,JP302*%
X122935714Y-79930952D02*
X122935714Y-80216666D01*
X122916666Y-80273809D01*
X122878571Y-80311904D01*
X122821428Y-80330952D01*
X122783333Y-80330952D01*
X123126190Y-80330952D02*
X123126190Y-79930952D01*
X123278571Y-79930952D01*
X123316666Y-79950000D01*
X123335714Y-79969047D01*
X123354761Y-80007142D01*
X123354761Y-80064285D01*
X123335714Y-80102380D01*
X123316666Y-80121428D01*
X123278571Y-80140476D01*
X123126190Y-80140476D01*
X123488095Y-79930952D02*
X123735714Y-79930952D01*
X123602380Y-80083333D01*
X123659523Y-80083333D01*
X123697619Y-80102380D01*
X123716666Y-80121428D01*
X123735714Y-80159523D01*
X123735714Y-80254761D01*
X123716666Y-80292857D01*
X123697619Y-80311904D01*
X123659523Y-80330952D01*
X123545238Y-80330952D01*
X123507142Y-80311904D01*
X123488095Y-80292857D01*
X123983333Y-79930952D02*
X124021428Y-79930952D01*
X124059523Y-79950000D01*
X124078571Y-79969047D01*
X124097619Y-80007142D01*
X124116666Y-80083333D01*
X124116666Y-80178571D01*
X124097619Y-80254761D01*
X124078571Y-80292857D01*
X124059523Y-80311904D01*
X124021428Y-80330952D01*
X123983333Y-80330952D01*
X123945238Y-80311904D01*
X123926190Y-80292857D01*
X123907142Y-80254761D01*
X123888095Y-80178571D01*
X123888095Y-80083333D01*
X123907142Y-80007142D01*
X123926190Y-79969047D01*
X123945238Y-79950000D01*
X123983333Y-79930952D01*
X124269047Y-79969047D02*
X124288095Y-79950000D01*
X124326190Y-79930952D01*
X124421428Y-79930952D01*
X124459523Y-79950000D01*
X124478571Y-79969047D01*
X124497619Y-80007142D01*
X124497619Y-80045238D01*
X124478571Y-80102380D01*
X124250000Y-80330952D01*
X124497619Y-80330952D01*
%TO.C,TP304*%
X172264285Y-93630952D02*
X172492857Y-93630952D01*
X172378571Y-94030952D02*
X172378571Y-93630952D01*
X172626190Y-94030952D02*
X172626190Y-93630952D01*
X172778571Y-93630952D01*
X172816666Y-93650000D01*
X172835714Y-93669047D01*
X172854761Y-93707142D01*
X172854761Y-93764285D01*
X172835714Y-93802380D01*
X172816666Y-93821428D01*
X172778571Y-93840476D01*
X172626190Y-93840476D01*
X172988095Y-93630952D02*
X173235714Y-93630952D01*
X173102380Y-93783333D01*
X173159523Y-93783333D01*
X173197619Y-93802380D01*
X173216666Y-93821428D01*
X173235714Y-93859523D01*
X173235714Y-93954761D01*
X173216666Y-93992857D01*
X173197619Y-94011904D01*
X173159523Y-94030952D01*
X173045238Y-94030952D01*
X173007142Y-94011904D01*
X172988095Y-93992857D01*
X173483333Y-93630952D02*
X173521428Y-93630952D01*
X173559523Y-93650000D01*
X173578571Y-93669047D01*
X173597619Y-93707142D01*
X173616666Y-93783333D01*
X173616666Y-93878571D01*
X173597619Y-93954761D01*
X173578571Y-93992857D01*
X173559523Y-94011904D01*
X173521428Y-94030952D01*
X173483333Y-94030952D01*
X173445238Y-94011904D01*
X173426190Y-93992857D01*
X173407142Y-93954761D01*
X173388095Y-93878571D01*
X173388095Y-93783333D01*
X173407142Y-93707142D01*
X173426190Y-93669047D01*
X173445238Y-93650000D01*
X173483333Y-93630952D01*
X173959523Y-93764285D02*
X173959523Y-94030952D01*
X173864285Y-93611904D02*
X173769047Y-93897619D01*
X174016666Y-93897619D01*
%TO.C,FID301*%
X137065476Y-72096428D02*
X136932142Y-72096428D01*
X136932142Y-72305952D02*
X136932142Y-71905952D01*
X137122619Y-71905952D01*
X137275000Y-72305952D02*
X137275000Y-71905952D01*
X137465476Y-72305952D02*
X137465476Y-71905952D01*
X137560714Y-71905952D01*
X137617857Y-71925000D01*
X137655952Y-71963095D01*
X137675000Y-72001190D01*
X137694047Y-72077380D01*
X137694047Y-72134523D01*
X137675000Y-72210714D01*
X137655952Y-72248809D01*
X137617857Y-72286904D01*
X137560714Y-72305952D01*
X137465476Y-72305952D01*
X137827380Y-71905952D02*
X138075000Y-71905952D01*
X137941666Y-72058333D01*
X137998809Y-72058333D01*
X138036904Y-72077380D01*
X138055952Y-72096428D01*
X138075000Y-72134523D01*
X138075000Y-72229761D01*
X138055952Y-72267857D01*
X138036904Y-72286904D01*
X137998809Y-72305952D01*
X137884523Y-72305952D01*
X137846428Y-72286904D01*
X137827380Y-72267857D01*
X138322619Y-71905952D02*
X138360714Y-71905952D01*
X138398809Y-71925000D01*
X138417857Y-71944047D01*
X138436904Y-71982142D01*
X138455952Y-72058333D01*
X138455952Y-72153571D01*
X138436904Y-72229761D01*
X138417857Y-72267857D01*
X138398809Y-72286904D01*
X138360714Y-72305952D01*
X138322619Y-72305952D01*
X138284523Y-72286904D01*
X138265476Y-72267857D01*
X138246428Y-72229761D01*
X138227380Y-72153571D01*
X138227380Y-72058333D01*
X138246428Y-71982142D01*
X138265476Y-71944047D01*
X138284523Y-71925000D01*
X138322619Y-71905952D01*
X138836904Y-72305952D02*
X138608333Y-72305952D01*
X138722619Y-72305952D02*
X138722619Y-71905952D01*
X138684523Y-71963095D01*
X138646428Y-72001190D01*
X138608333Y-72020238D01*
%TO.C,D204*%
X150523809Y-85505952D02*
X150523809Y-85105952D01*
X150619047Y-85105952D01*
X150676190Y-85125000D01*
X150714285Y-85163095D01*
X150733333Y-85201190D01*
X150752380Y-85277380D01*
X150752380Y-85334523D01*
X150733333Y-85410714D01*
X150714285Y-85448809D01*
X150676190Y-85486904D01*
X150619047Y-85505952D01*
X150523809Y-85505952D01*
X150904761Y-85144047D02*
X150923809Y-85125000D01*
X150961904Y-85105952D01*
X151057142Y-85105952D01*
X151095238Y-85125000D01*
X151114285Y-85144047D01*
X151133333Y-85182142D01*
X151133333Y-85220238D01*
X151114285Y-85277380D01*
X150885714Y-85505952D01*
X151133333Y-85505952D01*
X151380952Y-85105952D02*
X151419047Y-85105952D01*
X151457142Y-85125000D01*
X151476190Y-85144047D01*
X151495238Y-85182142D01*
X151514285Y-85258333D01*
X151514285Y-85353571D01*
X151495238Y-85429761D01*
X151476190Y-85467857D01*
X151457142Y-85486904D01*
X151419047Y-85505952D01*
X151380952Y-85505952D01*
X151342857Y-85486904D01*
X151323809Y-85467857D01*
X151304761Y-85429761D01*
X151285714Y-85353571D01*
X151285714Y-85258333D01*
X151304761Y-85182142D01*
X151323809Y-85144047D01*
X151342857Y-85125000D01*
X151380952Y-85105952D01*
X151857142Y-85239285D02*
X151857142Y-85505952D01*
X151761904Y-85086904D02*
X151666666Y-85372619D01*
X151914285Y-85372619D01*
%TO.C,C305*%
X120404880Y-75942857D02*
X120385833Y-75961904D01*
X120328690Y-75980952D01*
X120290595Y-75980952D01*
X120233452Y-75961904D01*
X120195357Y-75923809D01*
X120176309Y-75885714D01*
X120157261Y-75809523D01*
X120157261Y-75752380D01*
X120176309Y-75676190D01*
X120195357Y-75638095D01*
X120233452Y-75600000D01*
X120290595Y-75580952D01*
X120328690Y-75580952D01*
X120385833Y-75600000D01*
X120404880Y-75619047D01*
X120538214Y-75580952D02*
X120785833Y-75580952D01*
X120652500Y-75733333D01*
X120709642Y-75733333D01*
X120747738Y-75752380D01*
X120766785Y-75771428D01*
X120785833Y-75809523D01*
X120785833Y-75904761D01*
X120766785Y-75942857D01*
X120747738Y-75961904D01*
X120709642Y-75980952D01*
X120595357Y-75980952D01*
X120557261Y-75961904D01*
X120538214Y-75942857D01*
X121033452Y-75580952D02*
X121071547Y-75580952D01*
X121109642Y-75600000D01*
X121128690Y-75619047D01*
X121147738Y-75657142D01*
X121166785Y-75733333D01*
X121166785Y-75828571D01*
X121147738Y-75904761D01*
X121128690Y-75942857D01*
X121109642Y-75961904D01*
X121071547Y-75980952D01*
X121033452Y-75980952D01*
X120995357Y-75961904D01*
X120976309Y-75942857D01*
X120957261Y-75904761D01*
X120938214Y-75828571D01*
X120938214Y-75733333D01*
X120957261Y-75657142D01*
X120976309Y-75619047D01*
X120995357Y-75600000D01*
X121033452Y-75580952D01*
X121528690Y-75580952D02*
X121338214Y-75580952D01*
X121319166Y-75771428D01*
X121338214Y-75752380D01*
X121376309Y-75733333D01*
X121471547Y-75733333D01*
X121509642Y-75752380D01*
X121528690Y-75771428D01*
X121547738Y-75809523D01*
X121547738Y-75904761D01*
X121528690Y-75942857D01*
X121509642Y-75961904D01*
X121471547Y-75980952D01*
X121376309Y-75980952D01*
X121338214Y-75961904D01*
X121319166Y-75942857D01*
%TO.C,R209*%
X150402380Y-71980952D02*
X150269047Y-71790476D01*
X150173809Y-71980952D02*
X150173809Y-71580952D01*
X150326190Y-71580952D01*
X150364285Y-71600000D01*
X150383333Y-71619047D01*
X150402380Y-71657142D01*
X150402380Y-71714285D01*
X150383333Y-71752380D01*
X150364285Y-71771428D01*
X150326190Y-71790476D01*
X150173809Y-71790476D01*
X150554761Y-71619047D02*
X150573809Y-71600000D01*
X150611904Y-71580952D01*
X150707142Y-71580952D01*
X150745238Y-71600000D01*
X150764285Y-71619047D01*
X150783333Y-71657142D01*
X150783333Y-71695238D01*
X150764285Y-71752380D01*
X150535714Y-71980952D01*
X150783333Y-71980952D01*
X151030952Y-71580952D02*
X151069047Y-71580952D01*
X151107142Y-71600000D01*
X151126190Y-71619047D01*
X151145238Y-71657142D01*
X151164285Y-71733333D01*
X151164285Y-71828571D01*
X151145238Y-71904761D01*
X151126190Y-71942857D01*
X151107142Y-71961904D01*
X151069047Y-71980952D01*
X151030952Y-71980952D01*
X150992857Y-71961904D01*
X150973809Y-71942857D01*
X150954761Y-71904761D01*
X150935714Y-71828571D01*
X150935714Y-71733333D01*
X150954761Y-71657142D01*
X150973809Y-71619047D01*
X150992857Y-71600000D01*
X151030952Y-71580952D01*
X151354761Y-71980952D02*
X151430952Y-71980952D01*
X151469047Y-71961904D01*
X151488095Y-71942857D01*
X151526190Y-71885714D01*
X151545238Y-71809523D01*
X151545238Y-71657142D01*
X151526190Y-71619047D01*
X151507142Y-71600000D01*
X151469047Y-71580952D01*
X151392857Y-71580952D01*
X151354761Y-71600000D01*
X151335714Y-71619047D01*
X151316666Y-71657142D01*
X151316666Y-71752380D01*
X151335714Y-71790476D01*
X151354761Y-71809523D01*
X151392857Y-71828571D01*
X151469047Y-71828571D01*
X151507142Y-71809523D01*
X151526190Y-71790476D01*
X151545238Y-71752380D01*
%TO.C,R213*%
X149977380Y-76530952D02*
X149844047Y-76340476D01*
X149748809Y-76530952D02*
X149748809Y-76130952D01*
X149901190Y-76130952D01*
X149939285Y-76150000D01*
X149958333Y-76169047D01*
X149977380Y-76207142D01*
X149977380Y-76264285D01*
X149958333Y-76302380D01*
X149939285Y-76321428D01*
X149901190Y-76340476D01*
X149748809Y-76340476D01*
X150129761Y-76169047D02*
X150148809Y-76150000D01*
X150186904Y-76130952D01*
X150282142Y-76130952D01*
X150320238Y-76150000D01*
X150339285Y-76169047D01*
X150358333Y-76207142D01*
X150358333Y-76245238D01*
X150339285Y-76302380D01*
X150110714Y-76530952D01*
X150358333Y-76530952D01*
X150739285Y-76530952D02*
X150510714Y-76530952D01*
X150625000Y-76530952D02*
X150625000Y-76130952D01*
X150586904Y-76188095D01*
X150548809Y-76226190D01*
X150510714Y-76245238D01*
X150872619Y-76130952D02*
X151120238Y-76130952D01*
X150986904Y-76283333D01*
X151044047Y-76283333D01*
X151082142Y-76302380D01*
X151101190Y-76321428D01*
X151120238Y-76359523D01*
X151120238Y-76454761D01*
X151101190Y-76492857D01*
X151082142Y-76511904D01*
X151044047Y-76530952D01*
X150929761Y-76530952D01*
X150891666Y-76511904D01*
X150872619Y-76492857D01*
%TO.C,C301*%
X120404880Y-73842857D02*
X120385833Y-73861904D01*
X120328690Y-73880952D01*
X120290595Y-73880952D01*
X120233452Y-73861904D01*
X120195357Y-73823809D01*
X120176309Y-73785714D01*
X120157261Y-73709523D01*
X120157261Y-73652380D01*
X120176309Y-73576190D01*
X120195357Y-73538095D01*
X120233452Y-73500000D01*
X120290595Y-73480952D01*
X120328690Y-73480952D01*
X120385833Y-73500000D01*
X120404880Y-73519047D01*
X120538214Y-73480952D02*
X120785833Y-73480952D01*
X120652500Y-73633333D01*
X120709642Y-73633333D01*
X120747738Y-73652380D01*
X120766785Y-73671428D01*
X120785833Y-73709523D01*
X120785833Y-73804761D01*
X120766785Y-73842857D01*
X120747738Y-73861904D01*
X120709642Y-73880952D01*
X120595357Y-73880952D01*
X120557261Y-73861904D01*
X120538214Y-73842857D01*
X121033452Y-73480952D02*
X121071547Y-73480952D01*
X121109642Y-73500000D01*
X121128690Y-73519047D01*
X121147738Y-73557142D01*
X121166785Y-73633333D01*
X121166785Y-73728571D01*
X121147738Y-73804761D01*
X121128690Y-73842857D01*
X121109642Y-73861904D01*
X121071547Y-73880952D01*
X121033452Y-73880952D01*
X120995357Y-73861904D01*
X120976309Y-73842857D01*
X120957261Y-73804761D01*
X120938214Y-73728571D01*
X120938214Y-73633333D01*
X120957261Y-73557142D01*
X120976309Y-73519047D01*
X120995357Y-73500000D01*
X121033452Y-73480952D01*
X121547738Y-73880952D02*
X121319166Y-73880952D01*
X121433452Y-73880952D02*
X121433452Y-73480952D01*
X121395357Y-73538095D01*
X121357261Y-73576190D01*
X121319166Y-73595238D01*
%TO.C,R203*%
X158655952Y-80347619D02*
X158465476Y-80480952D01*
X158655952Y-80576190D02*
X158255952Y-80576190D01*
X158255952Y-80423809D01*
X158275000Y-80385714D01*
X158294047Y-80366666D01*
X158332142Y-80347619D01*
X158389285Y-80347619D01*
X158427380Y-80366666D01*
X158446428Y-80385714D01*
X158465476Y-80423809D01*
X158465476Y-80576190D01*
X158294047Y-80195238D02*
X158275000Y-80176190D01*
X158255952Y-80138095D01*
X158255952Y-80042857D01*
X158275000Y-80004761D01*
X158294047Y-79985714D01*
X158332142Y-79966666D01*
X158370238Y-79966666D01*
X158427380Y-79985714D01*
X158655952Y-80214285D01*
X158655952Y-79966666D01*
X158255952Y-79719047D02*
X158255952Y-79680952D01*
X158275000Y-79642857D01*
X158294047Y-79623809D01*
X158332142Y-79604761D01*
X158408333Y-79585714D01*
X158503571Y-79585714D01*
X158579761Y-79604761D01*
X158617857Y-79623809D01*
X158636904Y-79642857D01*
X158655952Y-79680952D01*
X158655952Y-79719047D01*
X158636904Y-79757142D01*
X158617857Y-79776190D01*
X158579761Y-79795238D01*
X158503571Y-79814285D01*
X158408333Y-79814285D01*
X158332142Y-79795238D01*
X158294047Y-79776190D01*
X158275000Y-79757142D01*
X158255952Y-79719047D01*
X158255952Y-79452380D02*
X158255952Y-79204761D01*
X158408333Y-79338095D01*
X158408333Y-79280952D01*
X158427380Y-79242857D01*
X158446428Y-79223809D01*
X158484523Y-79204761D01*
X158579761Y-79204761D01*
X158617857Y-79223809D01*
X158636904Y-79242857D01*
X158655952Y-79280952D01*
X158655952Y-79395238D01*
X158636904Y-79433333D01*
X158617857Y-79452380D01*
%TO.C,R212*%
X149977380Y-76005952D02*
X149844047Y-75815476D01*
X149748809Y-76005952D02*
X149748809Y-75605952D01*
X149901190Y-75605952D01*
X149939285Y-75625000D01*
X149958333Y-75644047D01*
X149977380Y-75682142D01*
X149977380Y-75739285D01*
X149958333Y-75777380D01*
X149939285Y-75796428D01*
X149901190Y-75815476D01*
X149748809Y-75815476D01*
X150129761Y-75644047D02*
X150148809Y-75625000D01*
X150186904Y-75605952D01*
X150282142Y-75605952D01*
X150320238Y-75625000D01*
X150339285Y-75644047D01*
X150358333Y-75682142D01*
X150358333Y-75720238D01*
X150339285Y-75777380D01*
X150110714Y-76005952D01*
X150358333Y-76005952D01*
X150739285Y-76005952D02*
X150510714Y-76005952D01*
X150625000Y-76005952D02*
X150625000Y-75605952D01*
X150586904Y-75663095D01*
X150548809Y-75701190D01*
X150510714Y-75720238D01*
X150891666Y-75644047D02*
X150910714Y-75625000D01*
X150948809Y-75605952D01*
X151044047Y-75605952D01*
X151082142Y-75625000D01*
X151101190Y-75644047D01*
X151120238Y-75682142D01*
X151120238Y-75720238D01*
X151101190Y-75777380D01*
X150872619Y-76005952D01*
X151120238Y-76005952D01*
%TO.C,C215*%
X150002380Y-75442857D02*
X149983333Y-75461904D01*
X149926190Y-75480952D01*
X149888095Y-75480952D01*
X149830952Y-75461904D01*
X149792857Y-75423809D01*
X149773809Y-75385714D01*
X149754761Y-75309523D01*
X149754761Y-75252380D01*
X149773809Y-75176190D01*
X149792857Y-75138095D01*
X149830952Y-75100000D01*
X149888095Y-75080952D01*
X149926190Y-75080952D01*
X149983333Y-75100000D01*
X150002380Y-75119047D01*
X150154761Y-75119047D02*
X150173809Y-75100000D01*
X150211904Y-75080952D01*
X150307142Y-75080952D01*
X150345238Y-75100000D01*
X150364285Y-75119047D01*
X150383333Y-75157142D01*
X150383333Y-75195238D01*
X150364285Y-75252380D01*
X150135714Y-75480952D01*
X150383333Y-75480952D01*
X150764285Y-75480952D02*
X150535714Y-75480952D01*
X150650000Y-75480952D02*
X150650000Y-75080952D01*
X150611904Y-75138095D01*
X150573809Y-75176190D01*
X150535714Y-75195238D01*
X151126190Y-75080952D02*
X150935714Y-75080952D01*
X150916666Y-75271428D01*
X150935714Y-75252380D01*
X150973809Y-75233333D01*
X151069047Y-75233333D01*
X151107142Y-75252380D01*
X151126190Y-75271428D01*
X151145238Y-75309523D01*
X151145238Y-75404761D01*
X151126190Y-75442857D01*
X151107142Y-75461904D01*
X151069047Y-75480952D01*
X150973809Y-75480952D01*
X150935714Y-75461904D01*
X150916666Y-75442857D01*
%TO.C,FID304*%
X170815476Y-74346428D02*
X170682142Y-74346428D01*
X170682142Y-74555952D02*
X170682142Y-74155952D01*
X170872619Y-74155952D01*
X171025000Y-74555952D02*
X171025000Y-74155952D01*
X171215476Y-74555952D02*
X171215476Y-74155952D01*
X171310714Y-74155952D01*
X171367857Y-74175000D01*
X171405952Y-74213095D01*
X171425000Y-74251190D01*
X171444047Y-74327380D01*
X171444047Y-74384523D01*
X171425000Y-74460714D01*
X171405952Y-74498809D01*
X171367857Y-74536904D01*
X171310714Y-74555952D01*
X171215476Y-74555952D01*
X171577380Y-74155952D02*
X171825000Y-74155952D01*
X171691666Y-74308333D01*
X171748809Y-74308333D01*
X171786904Y-74327380D01*
X171805952Y-74346428D01*
X171825000Y-74384523D01*
X171825000Y-74479761D01*
X171805952Y-74517857D01*
X171786904Y-74536904D01*
X171748809Y-74555952D01*
X171634523Y-74555952D01*
X171596428Y-74536904D01*
X171577380Y-74517857D01*
X172072619Y-74155952D02*
X172110714Y-74155952D01*
X172148809Y-74175000D01*
X172167857Y-74194047D01*
X172186904Y-74232142D01*
X172205952Y-74308333D01*
X172205952Y-74403571D01*
X172186904Y-74479761D01*
X172167857Y-74517857D01*
X172148809Y-74536904D01*
X172110714Y-74555952D01*
X172072619Y-74555952D01*
X172034523Y-74536904D01*
X172015476Y-74517857D01*
X171996428Y-74479761D01*
X171977380Y-74403571D01*
X171977380Y-74308333D01*
X171996428Y-74232142D01*
X172015476Y-74194047D01*
X172034523Y-74175000D01*
X172072619Y-74155952D01*
X172548809Y-74289285D02*
X172548809Y-74555952D01*
X172453571Y-74136904D02*
X172358333Y-74422619D01*
X172605952Y-74422619D01*
%TO.C,JP303*%
X140185714Y-74330952D02*
X140185714Y-74616666D01*
X140166666Y-74673809D01*
X140128571Y-74711904D01*
X140071428Y-74730952D01*
X140033333Y-74730952D01*
X140376190Y-74730952D02*
X140376190Y-74330952D01*
X140528571Y-74330952D01*
X140566666Y-74350000D01*
X140585714Y-74369047D01*
X140604761Y-74407142D01*
X140604761Y-74464285D01*
X140585714Y-74502380D01*
X140566666Y-74521428D01*
X140528571Y-74540476D01*
X140376190Y-74540476D01*
X140738095Y-74330952D02*
X140985714Y-74330952D01*
X140852380Y-74483333D01*
X140909523Y-74483333D01*
X140947619Y-74502380D01*
X140966666Y-74521428D01*
X140985714Y-74559523D01*
X140985714Y-74654761D01*
X140966666Y-74692857D01*
X140947619Y-74711904D01*
X140909523Y-74730952D01*
X140795238Y-74730952D01*
X140757142Y-74711904D01*
X140738095Y-74692857D01*
X141233333Y-74330952D02*
X141271428Y-74330952D01*
X141309523Y-74350000D01*
X141328571Y-74369047D01*
X141347619Y-74407142D01*
X141366666Y-74483333D01*
X141366666Y-74578571D01*
X141347619Y-74654761D01*
X141328571Y-74692857D01*
X141309523Y-74711904D01*
X141271428Y-74730952D01*
X141233333Y-74730952D01*
X141195238Y-74711904D01*
X141176190Y-74692857D01*
X141157142Y-74654761D01*
X141138095Y-74578571D01*
X141138095Y-74483333D01*
X141157142Y-74407142D01*
X141176190Y-74369047D01*
X141195238Y-74350000D01*
X141233333Y-74330952D01*
X141500000Y-74330952D02*
X141747619Y-74330952D01*
X141614285Y-74483333D01*
X141671428Y-74483333D01*
X141709523Y-74502380D01*
X141728571Y-74521428D01*
X141747619Y-74559523D01*
X141747619Y-74654761D01*
X141728571Y-74692857D01*
X141709523Y-74711904D01*
X141671428Y-74730952D01*
X141557142Y-74730952D01*
X141519047Y-74711904D01*
X141500000Y-74692857D01*
%TO.C,J201*%
X152410714Y-72730952D02*
X152410714Y-73016666D01*
X152391666Y-73073809D01*
X152353571Y-73111904D01*
X152296428Y-73130952D01*
X152258333Y-73130952D01*
X152582142Y-72769047D02*
X152601190Y-72750000D01*
X152639285Y-72730952D01*
X152734523Y-72730952D01*
X152772619Y-72750000D01*
X152791666Y-72769047D01*
X152810714Y-72807142D01*
X152810714Y-72845238D01*
X152791666Y-72902380D01*
X152563095Y-73130952D01*
X152810714Y-73130952D01*
X153058333Y-72730952D02*
X153096428Y-72730952D01*
X153134523Y-72750000D01*
X153153571Y-72769047D01*
X153172619Y-72807142D01*
X153191666Y-72883333D01*
X153191666Y-72978571D01*
X153172619Y-73054761D01*
X153153571Y-73092857D01*
X153134523Y-73111904D01*
X153096428Y-73130952D01*
X153058333Y-73130952D01*
X153020238Y-73111904D01*
X153001190Y-73092857D01*
X152982142Y-73054761D01*
X152963095Y-72978571D01*
X152963095Y-72883333D01*
X152982142Y-72807142D01*
X153001190Y-72769047D01*
X153020238Y-72750000D01*
X153058333Y-72730952D01*
X153572619Y-73130952D02*
X153344047Y-73130952D01*
X153458333Y-73130952D02*
X153458333Y-72730952D01*
X153420238Y-72788095D01*
X153382142Y-72826190D01*
X153344047Y-72845238D01*
%TO.C,R305*%
X117904880Y-76905952D02*
X117771547Y-76715476D01*
X117676309Y-76905952D02*
X117676309Y-76505952D01*
X117828690Y-76505952D01*
X117866785Y-76525000D01*
X117885833Y-76544047D01*
X117904880Y-76582142D01*
X117904880Y-76639285D01*
X117885833Y-76677380D01*
X117866785Y-76696428D01*
X117828690Y-76715476D01*
X117676309Y-76715476D01*
X118038214Y-76505952D02*
X118285833Y-76505952D01*
X118152500Y-76658333D01*
X118209642Y-76658333D01*
X118247738Y-76677380D01*
X118266785Y-76696428D01*
X118285833Y-76734523D01*
X118285833Y-76829761D01*
X118266785Y-76867857D01*
X118247738Y-76886904D01*
X118209642Y-76905952D01*
X118095357Y-76905952D01*
X118057261Y-76886904D01*
X118038214Y-76867857D01*
X118533452Y-76505952D02*
X118571547Y-76505952D01*
X118609642Y-76525000D01*
X118628690Y-76544047D01*
X118647738Y-76582142D01*
X118666785Y-76658333D01*
X118666785Y-76753571D01*
X118647738Y-76829761D01*
X118628690Y-76867857D01*
X118609642Y-76886904D01*
X118571547Y-76905952D01*
X118533452Y-76905952D01*
X118495357Y-76886904D01*
X118476309Y-76867857D01*
X118457261Y-76829761D01*
X118438214Y-76753571D01*
X118438214Y-76658333D01*
X118457261Y-76582142D01*
X118476309Y-76544047D01*
X118495357Y-76525000D01*
X118533452Y-76505952D01*
X119028690Y-76505952D02*
X118838214Y-76505952D01*
X118819166Y-76696428D01*
X118838214Y-76677380D01*
X118876309Y-76658333D01*
X118971547Y-76658333D01*
X119009642Y-76677380D01*
X119028690Y-76696428D01*
X119047738Y-76734523D01*
X119047738Y-76829761D01*
X119028690Y-76867857D01*
X119009642Y-76886904D01*
X118971547Y-76905952D01*
X118876309Y-76905952D01*
X118838214Y-76886904D01*
X118819166Y-76867857D01*
%TO.C,L201*%
X143452380Y-90130952D02*
X143261904Y-90130952D01*
X143261904Y-89730952D01*
X143566666Y-89769047D02*
X143585714Y-89750000D01*
X143623809Y-89730952D01*
X143719047Y-89730952D01*
X143757142Y-89750000D01*
X143776190Y-89769047D01*
X143795238Y-89807142D01*
X143795238Y-89845238D01*
X143776190Y-89902380D01*
X143547619Y-90130952D01*
X143795238Y-90130952D01*
X144042857Y-89730952D02*
X144080952Y-89730952D01*
X144119047Y-89750000D01*
X144138095Y-89769047D01*
X144157142Y-89807142D01*
X144176190Y-89883333D01*
X144176190Y-89978571D01*
X144157142Y-90054761D01*
X144138095Y-90092857D01*
X144119047Y-90111904D01*
X144080952Y-90130952D01*
X144042857Y-90130952D01*
X144004761Y-90111904D01*
X143985714Y-90092857D01*
X143966666Y-90054761D01*
X143947619Y-89978571D01*
X143947619Y-89883333D01*
X143966666Y-89807142D01*
X143985714Y-89769047D01*
X144004761Y-89750000D01*
X144042857Y-89730952D01*
X144557142Y-90130952D02*
X144328571Y-90130952D01*
X144442857Y-90130952D02*
X144442857Y-89730952D01*
X144404761Y-89788095D01*
X144366666Y-89826190D01*
X144328571Y-89845238D01*
%TO.C,C208*%
X149127380Y-82417857D02*
X149108333Y-82436904D01*
X149051190Y-82455952D01*
X149013095Y-82455952D01*
X148955952Y-82436904D01*
X148917857Y-82398809D01*
X148898809Y-82360714D01*
X148879761Y-82284523D01*
X148879761Y-82227380D01*
X148898809Y-82151190D01*
X148917857Y-82113095D01*
X148955952Y-82075000D01*
X149013095Y-82055952D01*
X149051190Y-82055952D01*
X149108333Y-82075000D01*
X149127380Y-82094047D01*
X149279761Y-82094047D02*
X149298809Y-82075000D01*
X149336904Y-82055952D01*
X149432142Y-82055952D01*
X149470238Y-82075000D01*
X149489285Y-82094047D01*
X149508333Y-82132142D01*
X149508333Y-82170238D01*
X149489285Y-82227380D01*
X149260714Y-82455952D01*
X149508333Y-82455952D01*
X149755952Y-82055952D02*
X149794047Y-82055952D01*
X149832142Y-82075000D01*
X149851190Y-82094047D01*
X149870238Y-82132142D01*
X149889285Y-82208333D01*
X149889285Y-82303571D01*
X149870238Y-82379761D01*
X149851190Y-82417857D01*
X149832142Y-82436904D01*
X149794047Y-82455952D01*
X149755952Y-82455952D01*
X149717857Y-82436904D01*
X149698809Y-82417857D01*
X149679761Y-82379761D01*
X149660714Y-82303571D01*
X149660714Y-82208333D01*
X149679761Y-82132142D01*
X149698809Y-82094047D01*
X149717857Y-82075000D01*
X149755952Y-82055952D01*
X150117857Y-82227380D02*
X150079761Y-82208333D01*
X150060714Y-82189285D01*
X150041666Y-82151190D01*
X150041666Y-82132142D01*
X150060714Y-82094047D01*
X150079761Y-82075000D01*
X150117857Y-82055952D01*
X150194047Y-82055952D01*
X150232142Y-82075000D01*
X150251190Y-82094047D01*
X150270238Y-82132142D01*
X150270238Y-82151190D01*
X150251190Y-82189285D01*
X150232142Y-82208333D01*
X150194047Y-82227380D01*
X150117857Y-82227380D01*
X150079761Y-82246428D01*
X150060714Y-82265476D01*
X150041666Y-82303571D01*
X150041666Y-82379761D01*
X150060714Y-82417857D01*
X150079761Y-82436904D01*
X150117857Y-82455952D01*
X150194047Y-82455952D01*
X150232142Y-82436904D01*
X150251190Y-82417857D01*
X150270238Y-82379761D01*
X150270238Y-82303571D01*
X150251190Y-82265476D01*
X150232142Y-82246428D01*
X150194047Y-82227380D01*
%TO.C,C310*%
X120002380Y-87592857D02*
X119983333Y-87611904D01*
X119926190Y-87630952D01*
X119888095Y-87630952D01*
X119830952Y-87611904D01*
X119792857Y-87573809D01*
X119773809Y-87535714D01*
X119754761Y-87459523D01*
X119754761Y-87402380D01*
X119773809Y-87326190D01*
X119792857Y-87288095D01*
X119830952Y-87250000D01*
X119888095Y-87230952D01*
X119926190Y-87230952D01*
X119983333Y-87250000D01*
X120002380Y-87269047D01*
X120135714Y-87230952D02*
X120383333Y-87230952D01*
X120250000Y-87383333D01*
X120307142Y-87383333D01*
X120345238Y-87402380D01*
X120364285Y-87421428D01*
X120383333Y-87459523D01*
X120383333Y-87554761D01*
X120364285Y-87592857D01*
X120345238Y-87611904D01*
X120307142Y-87630952D01*
X120192857Y-87630952D01*
X120154761Y-87611904D01*
X120135714Y-87592857D01*
X120764285Y-87630952D02*
X120535714Y-87630952D01*
X120650000Y-87630952D02*
X120650000Y-87230952D01*
X120611904Y-87288095D01*
X120573809Y-87326190D01*
X120535714Y-87345238D01*
X121011904Y-87230952D02*
X121050000Y-87230952D01*
X121088095Y-87250000D01*
X121107142Y-87269047D01*
X121126190Y-87307142D01*
X121145238Y-87383333D01*
X121145238Y-87478571D01*
X121126190Y-87554761D01*
X121107142Y-87592857D01*
X121088095Y-87611904D01*
X121050000Y-87630952D01*
X121011904Y-87630952D01*
X120973809Y-87611904D01*
X120954761Y-87592857D01*
X120935714Y-87554761D01*
X120916666Y-87478571D01*
X120916666Y-87383333D01*
X120935714Y-87307142D01*
X120954761Y-87269047D01*
X120973809Y-87250000D01*
X121011904Y-87230952D01*
%TO.C,R204*%
X164377380Y-76580952D02*
X164244047Y-76390476D01*
X164148809Y-76580952D02*
X164148809Y-76180952D01*
X164301190Y-76180952D01*
X164339285Y-76200000D01*
X164358333Y-76219047D01*
X164377380Y-76257142D01*
X164377380Y-76314285D01*
X164358333Y-76352380D01*
X164339285Y-76371428D01*
X164301190Y-76390476D01*
X164148809Y-76390476D01*
X164529761Y-76219047D02*
X164548809Y-76200000D01*
X164586904Y-76180952D01*
X164682142Y-76180952D01*
X164720238Y-76200000D01*
X164739285Y-76219047D01*
X164758333Y-76257142D01*
X164758333Y-76295238D01*
X164739285Y-76352380D01*
X164510714Y-76580952D01*
X164758333Y-76580952D01*
X165005952Y-76180952D02*
X165044047Y-76180952D01*
X165082142Y-76200000D01*
X165101190Y-76219047D01*
X165120238Y-76257142D01*
X165139285Y-76333333D01*
X165139285Y-76428571D01*
X165120238Y-76504761D01*
X165101190Y-76542857D01*
X165082142Y-76561904D01*
X165044047Y-76580952D01*
X165005952Y-76580952D01*
X164967857Y-76561904D01*
X164948809Y-76542857D01*
X164929761Y-76504761D01*
X164910714Y-76428571D01*
X164910714Y-76333333D01*
X164929761Y-76257142D01*
X164948809Y-76219047D01*
X164967857Y-76200000D01*
X165005952Y-76180952D01*
X165482142Y-76314285D02*
X165482142Y-76580952D01*
X165386904Y-76161904D02*
X165291666Y-76447619D01*
X165539285Y-76447619D01*
%TO.C,C309*%
X127727380Y-78467857D02*
X127708333Y-78486904D01*
X127651190Y-78505952D01*
X127613095Y-78505952D01*
X127555952Y-78486904D01*
X127517857Y-78448809D01*
X127498809Y-78410714D01*
X127479761Y-78334523D01*
X127479761Y-78277380D01*
X127498809Y-78201190D01*
X127517857Y-78163095D01*
X127555952Y-78125000D01*
X127613095Y-78105952D01*
X127651190Y-78105952D01*
X127708333Y-78125000D01*
X127727380Y-78144047D01*
X127860714Y-78105952D02*
X128108333Y-78105952D01*
X127975000Y-78258333D01*
X128032142Y-78258333D01*
X128070238Y-78277380D01*
X128089285Y-78296428D01*
X128108333Y-78334523D01*
X128108333Y-78429761D01*
X128089285Y-78467857D01*
X128070238Y-78486904D01*
X128032142Y-78505952D01*
X127917857Y-78505952D01*
X127879761Y-78486904D01*
X127860714Y-78467857D01*
X128355952Y-78105952D02*
X128394047Y-78105952D01*
X128432142Y-78125000D01*
X128451190Y-78144047D01*
X128470238Y-78182142D01*
X128489285Y-78258333D01*
X128489285Y-78353571D01*
X128470238Y-78429761D01*
X128451190Y-78467857D01*
X128432142Y-78486904D01*
X128394047Y-78505952D01*
X128355952Y-78505952D01*
X128317857Y-78486904D01*
X128298809Y-78467857D01*
X128279761Y-78429761D01*
X128260714Y-78353571D01*
X128260714Y-78258333D01*
X128279761Y-78182142D01*
X128298809Y-78144047D01*
X128317857Y-78125000D01*
X128355952Y-78105952D01*
X128679761Y-78505952D02*
X128755952Y-78505952D01*
X128794047Y-78486904D01*
X128813095Y-78467857D01*
X128851190Y-78410714D01*
X128870238Y-78334523D01*
X128870238Y-78182142D01*
X128851190Y-78144047D01*
X128832142Y-78125000D01*
X128794047Y-78105952D01*
X128717857Y-78105952D01*
X128679761Y-78125000D01*
X128660714Y-78144047D01*
X128641666Y-78182142D01*
X128641666Y-78277380D01*
X128660714Y-78315476D01*
X128679761Y-78334523D01*
X128717857Y-78353571D01*
X128794047Y-78353571D01*
X128832142Y-78334523D01*
X128851190Y-78315476D01*
X128870238Y-78277380D01*
%TO.C,J101*%
X163835714Y-93580952D02*
X163835714Y-93866666D01*
X163816666Y-93923809D01*
X163778571Y-93961904D01*
X163721428Y-93980952D01*
X163683333Y-93980952D01*
X164235714Y-93980952D02*
X164007142Y-93980952D01*
X164121428Y-93980952D02*
X164121428Y-93580952D01*
X164083333Y-93638095D01*
X164045238Y-93676190D01*
X164007142Y-93695238D01*
X164483333Y-93580952D02*
X164521428Y-93580952D01*
X164559523Y-93600000D01*
X164578571Y-93619047D01*
X164597619Y-93657142D01*
X164616666Y-93733333D01*
X164616666Y-93828571D01*
X164597619Y-93904761D01*
X164578571Y-93942857D01*
X164559523Y-93961904D01*
X164521428Y-93980952D01*
X164483333Y-93980952D01*
X164445238Y-93961904D01*
X164426190Y-93942857D01*
X164407142Y-93904761D01*
X164388095Y-93828571D01*
X164388095Y-93733333D01*
X164407142Y-93657142D01*
X164426190Y-93619047D01*
X164445238Y-93600000D01*
X164483333Y-93580952D01*
X164997619Y-93980952D02*
X164769047Y-93980952D01*
X164883333Y-93980952D02*
X164883333Y-93580952D01*
X164845238Y-93638095D01*
X164807142Y-93676190D01*
X164769047Y-93695238D01*
%TO.C,R313*%
X126167379Y-97035951D02*
X126034046Y-96845475D01*
X125938808Y-97035951D02*
X125938808Y-96635951D01*
X126091189Y-96635951D01*
X126129284Y-96654999D01*
X126148332Y-96674046D01*
X126167379Y-96712141D01*
X126167379Y-96769284D01*
X126148332Y-96807379D01*
X126129284Y-96826427D01*
X126091189Y-96845475D01*
X125938808Y-96845475D01*
X126300713Y-96635951D02*
X126548332Y-96635951D01*
X126414999Y-96788332D01*
X126472141Y-96788332D01*
X126510237Y-96807379D01*
X126529284Y-96826427D01*
X126548332Y-96864522D01*
X126548332Y-96959760D01*
X126529284Y-96997856D01*
X126510237Y-97016903D01*
X126472141Y-97035951D01*
X126357856Y-97035951D01*
X126319760Y-97016903D01*
X126300713Y-96997856D01*
X126929284Y-97035951D02*
X126700713Y-97035951D01*
X126814999Y-97035951D02*
X126814999Y-96635951D01*
X126776903Y-96693094D01*
X126738808Y-96731189D01*
X126700713Y-96750237D01*
X127062618Y-96635951D02*
X127310237Y-96635951D01*
X127176903Y-96788332D01*
X127234046Y-96788332D01*
X127272141Y-96807379D01*
X127291189Y-96826427D01*
X127310237Y-96864522D01*
X127310237Y-96959760D01*
X127291189Y-96997856D01*
X127272141Y-97016903D01*
X127234046Y-97035951D01*
X127119760Y-97035951D01*
X127081665Y-97016903D01*
X127062618Y-96997856D01*
%TO.C,U301*%
X129739285Y-75355952D02*
X129739285Y-75679761D01*
X129758333Y-75717857D01*
X129777380Y-75736904D01*
X129815476Y-75755952D01*
X129891666Y-75755952D01*
X129929761Y-75736904D01*
X129948809Y-75717857D01*
X129967857Y-75679761D01*
X129967857Y-75355952D01*
X130120238Y-75355952D02*
X130367857Y-75355952D01*
X130234523Y-75508333D01*
X130291666Y-75508333D01*
X130329761Y-75527380D01*
X130348809Y-75546428D01*
X130367857Y-75584523D01*
X130367857Y-75679761D01*
X130348809Y-75717857D01*
X130329761Y-75736904D01*
X130291666Y-75755952D01*
X130177380Y-75755952D01*
X130139285Y-75736904D01*
X130120238Y-75717857D01*
X130615476Y-75355952D02*
X130653571Y-75355952D01*
X130691666Y-75375000D01*
X130710714Y-75394047D01*
X130729761Y-75432142D01*
X130748809Y-75508333D01*
X130748809Y-75603571D01*
X130729761Y-75679761D01*
X130710714Y-75717857D01*
X130691666Y-75736904D01*
X130653571Y-75755952D01*
X130615476Y-75755952D01*
X130577380Y-75736904D01*
X130558333Y-75717857D01*
X130539285Y-75679761D01*
X130520238Y-75603571D01*
X130520238Y-75508333D01*
X130539285Y-75432142D01*
X130558333Y-75394047D01*
X130577380Y-75375000D01*
X130615476Y-75355952D01*
X131129761Y-75755952D02*
X130901190Y-75755952D01*
X131015476Y-75755952D02*
X131015476Y-75355952D01*
X130977380Y-75413095D01*
X130939285Y-75451190D01*
X130901190Y-75470238D01*
%TO.C,TP303*%
X172289285Y-68930952D02*
X172517857Y-68930952D01*
X172403571Y-69330952D02*
X172403571Y-68930952D01*
X172651190Y-69330952D02*
X172651190Y-68930952D01*
X172803571Y-68930952D01*
X172841666Y-68950000D01*
X172860714Y-68969047D01*
X172879761Y-69007142D01*
X172879761Y-69064285D01*
X172860714Y-69102380D01*
X172841666Y-69121428D01*
X172803571Y-69140476D01*
X172651190Y-69140476D01*
X173013095Y-68930952D02*
X173260714Y-68930952D01*
X173127380Y-69083333D01*
X173184523Y-69083333D01*
X173222619Y-69102380D01*
X173241666Y-69121428D01*
X173260714Y-69159523D01*
X173260714Y-69254761D01*
X173241666Y-69292857D01*
X173222619Y-69311904D01*
X173184523Y-69330952D01*
X173070238Y-69330952D01*
X173032142Y-69311904D01*
X173013095Y-69292857D01*
X173508333Y-68930952D02*
X173546428Y-68930952D01*
X173584523Y-68950000D01*
X173603571Y-68969047D01*
X173622619Y-69007142D01*
X173641666Y-69083333D01*
X173641666Y-69178571D01*
X173622619Y-69254761D01*
X173603571Y-69292857D01*
X173584523Y-69311904D01*
X173546428Y-69330952D01*
X173508333Y-69330952D01*
X173470238Y-69311904D01*
X173451190Y-69292857D01*
X173432142Y-69254761D01*
X173413095Y-69178571D01*
X173413095Y-69083333D01*
X173432142Y-69007142D01*
X173451190Y-68969047D01*
X173470238Y-68950000D01*
X173508333Y-68930952D01*
X173775000Y-68930952D02*
X174022619Y-68930952D01*
X173889285Y-69083333D01*
X173946428Y-69083333D01*
X173984523Y-69102380D01*
X174003571Y-69121428D01*
X174022619Y-69159523D01*
X174022619Y-69254761D01*
X174003571Y-69292857D01*
X173984523Y-69311904D01*
X173946428Y-69330952D01*
X173832142Y-69330952D01*
X173794047Y-69311904D01*
X173775000Y-69292857D01*
%TO.C,H302*%
X171364285Y-77830952D02*
X171364285Y-77430952D01*
X171364285Y-77621428D02*
X171592857Y-77621428D01*
X171592857Y-77830952D02*
X171592857Y-77430952D01*
X171745238Y-77430952D02*
X171992857Y-77430952D01*
X171859523Y-77583333D01*
X171916666Y-77583333D01*
X171954761Y-77602380D01*
X171973809Y-77621428D01*
X171992857Y-77659523D01*
X171992857Y-77754761D01*
X171973809Y-77792857D01*
X171954761Y-77811904D01*
X171916666Y-77830952D01*
X171802380Y-77830952D01*
X171764285Y-77811904D01*
X171745238Y-77792857D01*
X172240476Y-77430952D02*
X172278571Y-77430952D01*
X172316666Y-77450000D01*
X172335714Y-77469047D01*
X172354761Y-77507142D01*
X172373809Y-77583333D01*
X172373809Y-77678571D01*
X172354761Y-77754761D01*
X172335714Y-77792857D01*
X172316666Y-77811904D01*
X172278571Y-77830952D01*
X172240476Y-77830952D01*
X172202380Y-77811904D01*
X172183333Y-77792857D01*
X172164285Y-77754761D01*
X172145238Y-77678571D01*
X172145238Y-77583333D01*
X172164285Y-77507142D01*
X172183333Y-77469047D01*
X172202380Y-77450000D01*
X172240476Y-77430952D01*
X172526190Y-77469047D02*
X172545238Y-77450000D01*
X172583333Y-77430952D01*
X172678571Y-77430952D01*
X172716666Y-77450000D01*
X172735714Y-77469047D01*
X172754761Y-77507142D01*
X172754761Y-77545238D01*
X172735714Y-77602380D01*
X172507142Y-77830952D01*
X172754761Y-77830952D01*
%TO.C,R210*%
X150402380Y-72505952D02*
X150269047Y-72315476D01*
X150173809Y-72505952D02*
X150173809Y-72105952D01*
X150326190Y-72105952D01*
X150364285Y-72125000D01*
X150383333Y-72144047D01*
X150402380Y-72182142D01*
X150402380Y-72239285D01*
X150383333Y-72277380D01*
X150364285Y-72296428D01*
X150326190Y-72315476D01*
X150173809Y-72315476D01*
X150554761Y-72144047D02*
X150573809Y-72125000D01*
X150611904Y-72105952D01*
X150707142Y-72105952D01*
X150745238Y-72125000D01*
X150764285Y-72144047D01*
X150783333Y-72182142D01*
X150783333Y-72220238D01*
X150764285Y-72277380D01*
X150535714Y-72505952D01*
X150783333Y-72505952D01*
X151164285Y-72505952D02*
X150935714Y-72505952D01*
X151050000Y-72505952D02*
X151050000Y-72105952D01*
X151011904Y-72163095D01*
X150973809Y-72201190D01*
X150935714Y-72220238D01*
X151411904Y-72105952D02*
X151450000Y-72105952D01*
X151488095Y-72125000D01*
X151507142Y-72144047D01*
X151526190Y-72182142D01*
X151545238Y-72258333D01*
X151545238Y-72353571D01*
X151526190Y-72429761D01*
X151507142Y-72467857D01*
X151488095Y-72486904D01*
X151450000Y-72505952D01*
X151411904Y-72505952D01*
X151373809Y-72486904D01*
X151354761Y-72467857D01*
X151335714Y-72429761D01*
X151316666Y-72353571D01*
X151316666Y-72258333D01*
X151335714Y-72182142D01*
X151354761Y-72144047D01*
X151373809Y-72125000D01*
X151411904Y-72105952D01*
%TO.C,NT1*%
X150517857Y-84880952D02*
X150517857Y-84480952D01*
X150746428Y-84880952D01*
X150746428Y-84480952D01*
X150879761Y-84480952D02*
X151108333Y-84480952D01*
X150994047Y-84880952D02*
X150994047Y-84480952D01*
X151451190Y-84880952D02*
X151222619Y-84880952D01*
X151336904Y-84880952D02*
X151336904Y-84480952D01*
X151298809Y-84538095D01*
X151260714Y-84576190D01*
X151222619Y-84595238D01*
%TO.C,R311*%
X122677380Y-89880952D02*
X122544047Y-89690476D01*
X122448809Y-89880952D02*
X122448809Y-89480952D01*
X122601190Y-89480952D01*
X122639285Y-89500000D01*
X122658333Y-89519047D01*
X122677380Y-89557142D01*
X122677380Y-89614285D01*
X122658333Y-89652380D01*
X122639285Y-89671428D01*
X122601190Y-89690476D01*
X122448809Y-89690476D01*
X122810714Y-89480952D02*
X123058333Y-89480952D01*
X122925000Y-89633333D01*
X122982142Y-89633333D01*
X123020238Y-89652380D01*
X123039285Y-89671428D01*
X123058333Y-89709523D01*
X123058333Y-89804761D01*
X123039285Y-89842857D01*
X123020238Y-89861904D01*
X122982142Y-89880952D01*
X122867857Y-89880952D01*
X122829761Y-89861904D01*
X122810714Y-89842857D01*
X123439285Y-89880952D02*
X123210714Y-89880952D01*
X123325000Y-89880952D02*
X123325000Y-89480952D01*
X123286904Y-89538095D01*
X123248809Y-89576190D01*
X123210714Y-89595238D01*
X123820238Y-89880952D02*
X123591666Y-89880952D01*
X123705952Y-89880952D02*
X123705952Y-89480952D01*
X123667857Y-89538095D01*
X123629761Y-89576190D01*
X123591666Y-89595238D01*
%TO.C,H301*%
X126989285Y-84730952D02*
X126989285Y-84330952D01*
X126989285Y-84521428D02*
X127217857Y-84521428D01*
X127217857Y-84730952D02*
X127217857Y-84330952D01*
X127370238Y-84330952D02*
X127617857Y-84330952D01*
X127484523Y-84483333D01*
X127541666Y-84483333D01*
X127579761Y-84502380D01*
X127598809Y-84521428D01*
X127617857Y-84559523D01*
X127617857Y-84654761D01*
X127598809Y-84692857D01*
X127579761Y-84711904D01*
X127541666Y-84730952D01*
X127427380Y-84730952D01*
X127389285Y-84711904D01*
X127370238Y-84692857D01*
X127865476Y-84330952D02*
X127903571Y-84330952D01*
X127941666Y-84350000D01*
X127960714Y-84369047D01*
X127979761Y-84407142D01*
X127998809Y-84483333D01*
X127998809Y-84578571D01*
X127979761Y-84654761D01*
X127960714Y-84692857D01*
X127941666Y-84711904D01*
X127903571Y-84730952D01*
X127865476Y-84730952D01*
X127827380Y-84711904D01*
X127808333Y-84692857D01*
X127789285Y-84654761D01*
X127770238Y-84578571D01*
X127770238Y-84483333D01*
X127789285Y-84407142D01*
X127808333Y-84369047D01*
X127827380Y-84350000D01*
X127865476Y-84330952D01*
X128379761Y-84730952D02*
X128151190Y-84730952D01*
X128265476Y-84730952D02*
X128265476Y-84330952D01*
X128227380Y-84388095D01*
X128189285Y-84426190D01*
X128151190Y-84445238D01*
%TO.C,D203*%
X165523809Y-81980952D02*
X165523809Y-81580952D01*
X165619047Y-81580952D01*
X165676190Y-81600000D01*
X165714285Y-81638095D01*
X165733333Y-81676190D01*
X165752380Y-81752380D01*
X165752380Y-81809523D01*
X165733333Y-81885714D01*
X165714285Y-81923809D01*
X165676190Y-81961904D01*
X165619047Y-81980952D01*
X165523809Y-81980952D01*
X165904761Y-81619047D02*
X165923809Y-81600000D01*
X165961904Y-81580952D01*
X166057142Y-81580952D01*
X166095238Y-81600000D01*
X166114285Y-81619047D01*
X166133333Y-81657142D01*
X166133333Y-81695238D01*
X166114285Y-81752380D01*
X165885714Y-81980952D01*
X166133333Y-81980952D01*
X166380952Y-81580952D02*
X166419047Y-81580952D01*
X166457142Y-81600000D01*
X166476190Y-81619047D01*
X166495238Y-81657142D01*
X166514285Y-81733333D01*
X166514285Y-81828571D01*
X166495238Y-81904761D01*
X166476190Y-81942857D01*
X166457142Y-81961904D01*
X166419047Y-81980952D01*
X166380952Y-81980952D01*
X166342857Y-81961904D01*
X166323809Y-81942857D01*
X166304761Y-81904761D01*
X166285714Y-81828571D01*
X166285714Y-81733333D01*
X166304761Y-81657142D01*
X166323809Y-81619047D01*
X166342857Y-81600000D01*
X166380952Y-81580952D01*
X166647619Y-81580952D02*
X166895238Y-81580952D01*
X166761904Y-81733333D01*
X166819047Y-81733333D01*
X166857142Y-81752380D01*
X166876190Y-81771428D01*
X166895238Y-81809523D01*
X166895238Y-81904761D01*
X166876190Y-81942857D01*
X166857142Y-81961904D01*
X166819047Y-81980952D01*
X166704761Y-81980952D01*
X166666666Y-81961904D01*
X166647619Y-81942857D01*
%TO.C,C308*%
X117727380Y-86067857D02*
X117708333Y-86086904D01*
X117651190Y-86105952D01*
X117613095Y-86105952D01*
X117555952Y-86086904D01*
X117517857Y-86048809D01*
X117498809Y-86010714D01*
X117479761Y-85934523D01*
X117479761Y-85877380D01*
X117498809Y-85801190D01*
X117517857Y-85763095D01*
X117555952Y-85725000D01*
X117613095Y-85705952D01*
X117651190Y-85705952D01*
X117708333Y-85725000D01*
X117727380Y-85744047D01*
X117860714Y-85705952D02*
X118108333Y-85705952D01*
X117975000Y-85858333D01*
X118032142Y-85858333D01*
X118070238Y-85877380D01*
X118089285Y-85896428D01*
X118108333Y-85934523D01*
X118108333Y-86029761D01*
X118089285Y-86067857D01*
X118070238Y-86086904D01*
X118032142Y-86105952D01*
X117917857Y-86105952D01*
X117879761Y-86086904D01*
X117860714Y-86067857D01*
X118355952Y-85705952D02*
X118394047Y-85705952D01*
X118432142Y-85725000D01*
X118451190Y-85744047D01*
X118470238Y-85782142D01*
X118489285Y-85858333D01*
X118489285Y-85953571D01*
X118470238Y-86029761D01*
X118451190Y-86067857D01*
X118432142Y-86086904D01*
X118394047Y-86105952D01*
X118355952Y-86105952D01*
X118317857Y-86086904D01*
X118298809Y-86067857D01*
X118279761Y-86029761D01*
X118260714Y-85953571D01*
X118260714Y-85858333D01*
X118279761Y-85782142D01*
X118298809Y-85744047D01*
X118317857Y-85725000D01*
X118355952Y-85705952D01*
X118717857Y-85877380D02*
X118679761Y-85858333D01*
X118660714Y-85839285D01*
X118641666Y-85801190D01*
X118641666Y-85782142D01*
X118660714Y-85744047D01*
X118679761Y-85725000D01*
X118717857Y-85705952D01*
X118794047Y-85705952D01*
X118832142Y-85725000D01*
X118851190Y-85744047D01*
X118870238Y-85782142D01*
X118870238Y-85801190D01*
X118851190Y-85839285D01*
X118832142Y-85858333D01*
X118794047Y-85877380D01*
X118717857Y-85877380D01*
X118679761Y-85896428D01*
X118660714Y-85915476D01*
X118641666Y-85953571D01*
X118641666Y-86029761D01*
X118660714Y-86067857D01*
X118679761Y-86086904D01*
X118717857Y-86105952D01*
X118794047Y-86105952D01*
X118832142Y-86086904D01*
X118851190Y-86067857D01*
X118870238Y-86029761D01*
X118870238Y-85953571D01*
X118851190Y-85915476D01*
X118832142Y-85896428D01*
X118794047Y-85877380D01*
%TO.C,C203*%
X159777380Y-75492857D02*
X159758333Y-75511904D01*
X159701190Y-75530952D01*
X159663095Y-75530952D01*
X159605952Y-75511904D01*
X159567857Y-75473809D01*
X159548809Y-75435714D01*
X159529761Y-75359523D01*
X159529761Y-75302380D01*
X159548809Y-75226190D01*
X159567857Y-75188095D01*
X159605952Y-75150000D01*
X159663095Y-75130952D01*
X159701190Y-75130952D01*
X159758333Y-75150000D01*
X159777380Y-75169047D01*
X159929761Y-75169047D02*
X159948809Y-75150000D01*
X159986904Y-75130952D01*
X160082142Y-75130952D01*
X160120238Y-75150000D01*
X160139285Y-75169047D01*
X160158333Y-75207142D01*
X160158333Y-75245238D01*
X160139285Y-75302380D01*
X159910714Y-75530952D01*
X160158333Y-75530952D01*
X160405952Y-75130952D02*
X160444047Y-75130952D01*
X160482142Y-75150000D01*
X160501190Y-75169047D01*
X160520238Y-75207142D01*
X160539285Y-75283333D01*
X160539285Y-75378571D01*
X160520238Y-75454761D01*
X160501190Y-75492857D01*
X160482142Y-75511904D01*
X160444047Y-75530952D01*
X160405952Y-75530952D01*
X160367857Y-75511904D01*
X160348809Y-75492857D01*
X160329761Y-75454761D01*
X160310714Y-75378571D01*
X160310714Y-75283333D01*
X160329761Y-75207142D01*
X160348809Y-75169047D01*
X160367857Y-75150000D01*
X160405952Y-75130952D01*
X160672619Y-75130952D02*
X160920238Y-75130952D01*
X160786904Y-75283333D01*
X160844047Y-75283333D01*
X160882142Y-75302380D01*
X160901190Y-75321428D01*
X160920238Y-75359523D01*
X160920238Y-75454761D01*
X160901190Y-75492857D01*
X160882142Y-75511904D01*
X160844047Y-75530952D01*
X160729761Y-75530952D01*
X160691666Y-75511904D01*
X160672619Y-75492857D01*
%TO.C,C207*%
X161527380Y-84667857D02*
X161508333Y-84686904D01*
X161451190Y-84705952D01*
X161413095Y-84705952D01*
X161355952Y-84686904D01*
X161317857Y-84648809D01*
X161298809Y-84610714D01*
X161279761Y-84534523D01*
X161279761Y-84477380D01*
X161298809Y-84401190D01*
X161317857Y-84363095D01*
X161355952Y-84325000D01*
X161413095Y-84305952D01*
X161451190Y-84305952D01*
X161508333Y-84325000D01*
X161527380Y-84344047D01*
X161679761Y-84344047D02*
X161698809Y-84325000D01*
X161736904Y-84305952D01*
X161832142Y-84305952D01*
X161870238Y-84325000D01*
X161889285Y-84344047D01*
X161908333Y-84382142D01*
X161908333Y-84420238D01*
X161889285Y-84477380D01*
X161660714Y-84705952D01*
X161908333Y-84705952D01*
X162155952Y-84305952D02*
X162194047Y-84305952D01*
X162232142Y-84325000D01*
X162251190Y-84344047D01*
X162270238Y-84382142D01*
X162289285Y-84458333D01*
X162289285Y-84553571D01*
X162270238Y-84629761D01*
X162251190Y-84667857D01*
X162232142Y-84686904D01*
X162194047Y-84705952D01*
X162155952Y-84705952D01*
X162117857Y-84686904D01*
X162098809Y-84667857D01*
X162079761Y-84629761D01*
X162060714Y-84553571D01*
X162060714Y-84458333D01*
X162079761Y-84382142D01*
X162098809Y-84344047D01*
X162117857Y-84325000D01*
X162155952Y-84305952D01*
X162422619Y-84305952D02*
X162689285Y-84305952D01*
X162517857Y-84705952D01*
%TO.C,R301*%
X117904880Y-74805952D02*
X117771547Y-74615476D01*
X117676309Y-74805952D02*
X117676309Y-74405952D01*
X117828690Y-74405952D01*
X117866785Y-74425000D01*
X117885833Y-74444047D01*
X117904880Y-74482142D01*
X117904880Y-74539285D01*
X117885833Y-74577380D01*
X117866785Y-74596428D01*
X117828690Y-74615476D01*
X117676309Y-74615476D01*
X118038214Y-74405952D02*
X118285833Y-74405952D01*
X118152500Y-74558333D01*
X118209642Y-74558333D01*
X118247738Y-74577380D01*
X118266785Y-74596428D01*
X118285833Y-74634523D01*
X118285833Y-74729761D01*
X118266785Y-74767857D01*
X118247738Y-74786904D01*
X118209642Y-74805952D01*
X118095357Y-74805952D01*
X118057261Y-74786904D01*
X118038214Y-74767857D01*
X118533452Y-74405952D02*
X118571547Y-74405952D01*
X118609642Y-74425000D01*
X118628690Y-74444047D01*
X118647738Y-74482142D01*
X118666785Y-74558333D01*
X118666785Y-74653571D01*
X118647738Y-74729761D01*
X118628690Y-74767857D01*
X118609642Y-74786904D01*
X118571547Y-74805952D01*
X118533452Y-74805952D01*
X118495357Y-74786904D01*
X118476309Y-74767857D01*
X118457261Y-74729761D01*
X118438214Y-74653571D01*
X118438214Y-74558333D01*
X118457261Y-74482142D01*
X118476309Y-74444047D01*
X118495357Y-74425000D01*
X118533452Y-74405952D01*
X119047738Y-74805952D02*
X118819166Y-74805952D01*
X118933452Y-74805952D02*
X118933452Y-74405952D01*
X118895357Y-74463095D01*
X118857261Y-74501190D01*
X118819166Y-74520238D01*
%TO.C,C213*%
X144602380Y-73617857D02*
X144583333Y-73636904D01*
X144526190Y-73655952D01*
X144488095Y-73655952D01*
X144430952Y-73636904D01*
X144392857Y-73598809D01*
X144373809Y-73560714D01*
X144354761Y-73484523D01*
X144354761Y-73427380D01*
X144373809Y-73351190D01*
X144392857Y-73313095D01*
X144430952Y-73275000D01*
X144488095Y-73255952D01*
X144526190Y-73255952D01*
X144583333Y-73275000D01*
X144602380Y-73294047D01*
X144754761Y-73294047D02*
X144773809Y-73275000D01*
X144811904Y-73255952D01*
X144907142Y-73255952D01*
X144945238Y-73275000D01*
X144964285Y-73294047D01*
X144983333Y-73332142D01*
X144983333Y-73370238D01*
X144964285Y-73427380D01*
X144735714Y-73655952D01*
X144983333Y-73655952D01*
X145364285Y-73655952D02*
X145135714Y-73655952D01*
X145250000Y-73655952D02*
X145250000Y-73255952D01*
X145211904Y-73313095D01*
X145173809Y-73351190D01*
X145135714Y-73370238D01*
X145497619Y-73255952D02*
X145745238Y-73255952D01*
X145611904Y-73408333D01*
X145669047Y-73408333D01*
X145707142Y-73427380D01*
X145726190Y-73446428D01*
X145745238Y-73484523D01*
X145745238Y-73579761D01*
X145726190Y-73617857D01*
X145707142Y-73636904D01*
X145669047Y-73655952D01*
X145554761Y-73655952D01*
X145516666Y-73636904D01*
X145497619Y-73617857D01*
%TO.C,R320*%
X140102380Y-86630952D02*
X139969047Y-86440476D01*
X139873809Y-86630952D02*
X139873809Y-86230952D01*
X140026190Y-86230952D01*
X140064285Y-86250000D01*
X140083333Y-86269047D01*
X140102380Y-86307142D01*
X140102380Y-86364285D01*
X140083333Y-86402380D01*
X140064285Y-86421428D01*
X140026190Y-86440476D01*
X139873809Y-86440476D01*
X140235714Y-86230952D02*
X140483333Y-86230952D01*
X140350000Y-86383333D01*
X140407142Y-86383333D01*
X140445238Y-86402380D01*
X140464285Y-86421428D01*
X140483333Y-86459523D01*
X140483333Y-86554761D01*
X140464285Y-86592857D01*
X140445238Y-86611904D01*
X140407142Y-86630952D01*
X140292857Y-86630952D01*
X140254761Y-86611904D01*
X140235714Y-86592857D01*
X140635714Y-86269047D02*
X140654761Y-86250000D01*
X140692857Y-86230952D01*
X140788095Y-86230952D01*
X140826190Y-86250000D01*
X140845238Y-86269047D01*
X140864285Y-86307142D01*
X140864285Y-86345238D01*
X140845238Y-86402380D01*
X140616666Y-86630952D01*
X140864285Y-86630952D01*
X141111904Y-86230952D02*
X141150000Y-86230952D01*
X141188095Y-86250000D01*
X141207142Y-86269047D01*
X141226190Y-86307142D01*
X141245238Y-86383333D01*
X141245238Y-86478571D01*
X141226190Y-86554761D01*
X141207142Y-86592857D01*
X141188095Y-86611904D01*
X141150000Y-86630952D01*
X141111904Y-86630952D01*
X141073809Y-86611904D01*
X141054761Y-86592857D01*
X141035714Y-86554761D01*
X141016666Y-86478571D01*
X141016666Y-86383333D01*
X141035714Y-86307142D01*
X141054761Y-86269047D01*
X141073809Y-86250000D01*
X141111904Y-86230952D01*
%TO.C,R208*%
X150402380Y-73030952D02*
X150269047Y-72840476D01*
X150173809Y-73030952D02*
X150173809Y-72630952D01*
X150326190Y-72630952D01*
X150364285Y-72650000D01*
X150383333Y-72669047D01*
X150402380Y-72707142D01*
X150402380Y-72764285D01*
X150383333Y-72802380D01*
X150364285Y-72821428D01*
X150326190Y-72840476D01*
X150173809Y-72840476D01*
X150554761Y-72669047D02*
X150573809Y-72650000D01*
X150611904Y-72630952D01*
X150707142Y-72630952D01*
X150745238Y-72650000D01*
X150764285Y-72669047D01*
X150783333Y-72707142D01*
X150783333Y-72745238D01*
X150764285Y-72802380D01*
X150535714Y-73030952D01*
X150783333Y-73030952D01*
X151030952Y-72630952D02*
X151069047Y-72630952D01*
X151107142Y-72650000D01*
X151126190Y-72669047D01*
X151145238Y-72707142D01*
X151164285Y-72783333D01*
X151164285Y-72878571D01*
X151145238Y-72954761D01*
X151126190Y-72992857D01*
X151107142Y-73011904D01*
X151069047Y-73030952D01*
X151030952Y-73030952D01*
X150992857Y-73011904D01*
X150973809Y-72992857D01*
X150954761Y-72954761D01*
X150935714Y-72878571D01*
X150935714Y-72783333D01*
X150954761Y-72707142D01*
X150973809Y-72669047D01*
X150992857Y-72650000D01*
X151030952Y-72630952D01*
X151392857Y-72802380D02*
X151354761Y-72783333D01*
X151335714Y-72764285D01*
X151316666Y-72726190D01*
X151316666Y-72707142D01*
X151335714Y-72669047D01*
X151354761Y-72650000D01*
X151392857Y-72630952D01*
X151469047Y-72630952D01*
X151507142Y-72650000D01*
X151526190Y-72669047D01*
X151545238Y-72707142D01*
X151545238Y-72726190D01*
X151526190Y-72764285D01*
X151507142Y-72783333D01*
X151469047Y-72802380D01*
X151392857Y-72802380D01*
X151354761Y-72821428D01*
X151335714Y-72840476D01*
X151316666Y-72878571D01*
X151316666Y-72954761D01*
X151335714Y-72992857D01*
X151354761Y-73011904D01*
X151392857Y-73030952D01*
X151469047Y-73030952D01*
X151507142Y-73011904D01*
X151526190Y-72992857D01*
X151545238Y-72954761D01*
X151545238Y-72878571D01*
X151526190Y-72840476D01*
X151507142Y-72821428D01*
X151469047Y-72802380D01*
%TO.C,J302*%
X140160714Y-77080952D02*
X140160714Y-77366666D01*
X140141666Y-77423809D01*
X140103571Y-77461904D01*
X140046428Y-77480952D01*
X140008333Y-77480952D01*
X140313095Y-77080952D02*
X140560714Y-77080952D01*
X140427380Y-77233333D01*
X140484523Y-77233333D01*
X140522619Y-77252380D01*
X140541666Y-77271428D01*
X140560714Y-77309523D01*
X140560714Y-77404761D01*
X140541666Y-77442857D01*
X140522619Y-77461904D01*
X140484523Y-77480952D01*
X140370238Y-77480952D01*
X140332142Y-77461904D01*
X140313095Y-77442857D01*
X140808333Y-77080952D02*
X140846428Y-77080952D01*
X140884523Y-77100000D01*
X140903571Y-77119047D01*
X140922619Y-77157142D01*
X140941666Y-77233333D01*
X140941666Y-77328571D01*
X140922619Y-77404761D01*
X140903571Y-77442857D01*
X140884523Y-77461904D01*
X140846428Y-77480952D01*
X140808333Y-77480952D01*
X140770238Y-77461904D01*
X140751190Y-77442857D01*
X140732142Y-77404761D01*
X140713095Y-77328571D01*
X140713095Y-77233333D01*
X140732142Y-77157142D01*
X140751190Y-77119047D01*
X140770238Y-77100000D01*
X140808333Y-77080952D01*
X141094047Y-77119047D02*
X141113095Y-77100000D01*
X141151190Y-77080952D01*
X141246428Y-77080952D01*
X141284523Y-77100000D01*
X141303571Y-77119047D01*
X141322619Y-77157142D01*
X141322619Y-77195238D01*
X141303571Y-77252380D01*
X141075000Y-77480952D01*
X141322619Y-77480952D01*
%TO.C,R312*%
X137852380Y-79030952D02*
X137719047Y-78840476D01*
X137623809Y-79030952D02*
X137623809Y-78630952D01*
X137776190Y-78630952D01*
X137814285Y-78650000D01*
X137833333Y-78669047D01*
X137852380Y-78707142D01*
X137852380Y-78764285D01*
X137833333Y-78802380D01*
X137814285Y-78821428D01*
X137776190Y-78840476D01*
X137623809Y-78840476D01*
X137985714Y-78630952D02*
X138233333Y-78630952D01*
X138100000Y-78783333D01*
X138157142Y-78783333D01*
X138195238Y-78802380D01*
X138214285Y-78821428D01*
X138233333Y-78859523D01*
X138233333Y-78954761D01*
X138214285Y-78992857D01*
X138195238Y-79011904D01*
X138157142Y-79030952D01*
X138042857Y-79030952D01*
X138004761Y-79011904D01*
X137985714Y-78992857D01*
X138614285Y-79030952D02*
X138385714Y-79030952D01*
X138500000Y-79030952D02*
X138500000Y-78630952D01*
X138461904Y-78688095D01*
X138423809Y-78726190D01*
X138385714Y-78745238D01*
X138766666Y-78669047D02*
X138785714Y-78650000D01*
X138823809Y-78630952D01*
X138919047Y-78630952D01*
X138957142Y-78650000D01*
X138976190Y-78669047D01*
X138995238Y-78707142D01*
X138995238Y-78745238D01*
X138976190Y-78802380D01*
X138747619Y-79030952D01*
X138995238Y-79030952D01*
%TO.C,C204*%
X155027380Y-86817857D02*
X155008333Y-86836904D01*
X154951190Y-86855952D01*
X154913095Y-86855952D01*
X154855952Y-86836904D01*
X154817857Y-86798809D01*
X154798809Y-86760714D01*
X154779761Y-86684523D01*
X154779761Y-86627380D01*
X154798809Y-86551190D01*
X154817857Y-86513095D01*
X154855952Y-86475000D01*
X154913095Y-86455952D01*
X154951190Y-86455952D01*
X155008333Y-86475000D01*
X155027380Y-86494047D01*
X155179761Y-86494047D02*
X155198809Y-86475000D01*
X155236904Y-86455952D01*
X155332142Y-86455952D01*
X155370238Y-86475000D01*
X155389285Y-86494047D01*
X155408333Y-86532142D01*
X155408333Y-86570238D01*
X155389285Y-86627380D01*
X155160714Y-86855952D01*
X155408333Y-86855952D01*
X155655952Y-86455952D02*
X155694047Y-86455952D01*
X155732142Y-86475000D01*
X155751190Y-86494047D01*
X155770238Y-86532142D01*
X155789285Y-86608333D01*
X155789285Y-86703571D01*
X155770238Y-86779761D01*
X155751190Y-86817857D01*
X155732142Y-86836904D01*
X155694047Y-86855952D01*
X155655952Y-86855952D01*
X155617857Y-86836904D01*
X155598809Y-86817857D01*
X155579761Y-86779761D01*
X155560714Y-86703571D01*
X155560714Y-86608333D01*
X155579761Y-86532142D01*
X155598809Y-86494047D01*
X155617857Y-86475000D01*
X155655952Y-86455952D01*
X156132142Y-86589285D02*
X156132142Y-86855952D01*
X156036904Y-86436904D02*
X155941666Y-86722619D01*
X156189285Y-86722619D01*
%TO.C,R302*%
X117904880Y-75330952D02*
X117771547Y-75140476D01*
X117676309Y-75330952D02*
X117676309Y-74930952D01*
X117828690Y-74930952D01*
X117866785Y-74950000D01*
X117885833Y-74969047D01*
X117904880Y-75007142D01*
X117904880Y-75064285D01*
X117885833Y-75102380D01*
X117866785Y-75121428D01*
X117828690Y-75140476D01*
X117676309Y-75140476D01*
X118038214Y-74930952D02*
X118285833Y-74930952D01*
X118152500Y-75083333D01*
X118209642Y-75083333D01*
X118247738Y-75102380D01*
X118266785Y-75121428D01*
X118285833Y-75159523D01*
X118285833Y-75254761D01*
X118266785Y-75292857D01*
X118247738Y-75311904D01*
X118209642Y-75330952D01*
X118095357Y-75330952D01*
X118057261Y-75311904D01*
X118038214Y-75292857D01*
X118533452Y-74930952D02*
X118571547Y-74930952D01*
X118609642Y-74950000D01*
X118628690Y-74969047D01*
X118647738Y-75007142D01*
X118666785Y-75083333D01*
X118666785Y-75178571D01*
X118647738Y-75254761D01*
X118628690Y-75292857D01*
X118609642Y-75311904D01*
X118571547Y-75330952D01*
X118533452Y-75330952D01*
X118495357Y-75311904D01*
X118476309Y-75292857D01*
X118457261Y-75254761D01*
X118438214Y-75178571D01*
X118438214Y-75083333D01*
X118457261Y-75007142D01*
X118476309Y-74969047D01*
X118495357Y-74950000D01*
X118533452Y-74930952D01*
X118819166Y-74969047D02*
X118838214Y-74950000D01*
X118876309Y-74930952D01*
X118971547Y-74930952D01*
X119009642Y-74950000D01*
X119028690Y-74969047D01*
X119047738Y-75007142D01*
X119047738Y-75045238D01*
X119028690Y-75102380D01*
X118800119Y-75330952D01*
X119047738Y-75330952D01*
%TO.C,C306*%
X120404880Y-76467857D02*
X120385833Y-76486904D01*
X120328690Y-76505952D01*
X120290595Y-76505952D01*
X120233452Y-76486904D01*
X120195357Y-76448809D01*
X120176309Y-76410714D01*
X120157261Y-76334523D01*
X120157261Y-76277380D01*
X120176309Y-76201190D01*
X120195357Y-76163095D01*
X120233452Y-76125000D01*
X120290595Y-76105952D01*
X120328690Y-76105952D01*
X120385833Y-76125000D01*
X120404880Y-76144047D01*
X120538214Y-76105952D02*
X120785833Y-76105952D01*
X120652500Y-76258333D01*
X120709642Y-76258333D01*
X120747738Y-76277380D01*
X120766785Y-76296428D01*
X120785833Y-76334523D01*
X120785833Y-76429761D01*
X120766785Y-76467857D01*
X120747738Y-76486904D01*
X120709642Y-76505952D01*
X120595357Y-76505952D01*
X120557261Y-76486904D01*
X120538214Y-76467857D01*
X121033452Y-76105952D02*
X121071547Y-76105952D01*
X121109642Y-76125000D01*
X121128690Y-76144047D01*
X121147738Y-76182142D01*
X121166785Y-76258333D01*
X121166785Y-76353571D01*
X121147738Y-76429761D01*
X121128690Y-76467857D01*
X121109642Y-76486904D01*
X121071547Y-76505952D01*
X121033452Y-76505952D01*
X120995357Y-76486904D01*
X120976309Y-76467857D01*
X120957261Y-76429761D01*
X120938214Y-76353571D01*
X120938214Y-76258333D01*
X120957261Y-76182142D01*
X120976309Y-76144047D01*
X120995357Y-76125000D01*
X121033452Y-76105952D01*
X121509642Y-76105952D02*
X121433452Y-76105952D01*
X121395357Y-76125000D01*
X121376309Y-76144047D01*
X121338214Y-76201190D01*
X121319166Y-76277380D01*
X121319166Y-76429761D01*
X121338214Y-76467857D01*
X121357261Y-76486904D01*
X121395357Y-76505952D01*
X121471547Y-76505952D01*
X121509642Y-76486904D01*
X121528690Y-76467857D01*
X121547738Y-76429761D01*
X121547738Y-76334523D01*
X121528690Y-76296428D01*
X121509642Y-76277380D01*
X121471547Y-76258333D01*
X121395357Y-76258333D01*
X121357261Y-76277380D01*
X121338214Y-76296428D01*
X121319166Y-76334523D01*
%TO.C,C214*%
X144602380Y-73067857D02*
X144583333Y-73086904D01*
X144526190Y-73105952D01*
X144488095Y-73105952D01*
X144430952Y-73086904D01*
X144392857Y-73048809D01*
X144373809Y-73010714D01*
X144354761Y-72934523D01*
X144354761Y-72877380D01*
X144373809Y-72801190D01*
X144392857Y-72763095D01*
X144430952Y-72725000D01*
X144488095Y-72705952D01*
X144526190Y-72705952D01*
X144583333Y-72725000D01*
X144602380Y-72744047D01*
X144754761Y-72744047D02*
X144773809Y-72725000D01*
X144811904Y-72705952D01*
X144907142Y-72705952D01*
X144945238Y-72725000D01*
X144964285Y-72744047D01*
X144983333Y-72782142D01*
X144983333Y-72820238D01*
X144964285Y-72877380D01*
X144735714Y-73105952D01*
X144983333Y-73105952D01*
X145364285Y-73105952D02*
X145135714Y-73105952D01*
X145250000Y-73105952D02*
X145250000Y-72705952D01*
X145211904Y-72763095D01*
X145173809Y-72801190D01*
X145135714Y-72820238D01*
X145707142Y-72839285D02*
X145707142Y-73105952D01*
X145611904Y-72686904D02*
X145516666Y-72972619D01*
X145764285Y-72972619D01*
%TO.C,C216*%
X143052380Y-80042857D02*
X143033333Y-80061904D01*
X142976190Y-80080952D01*
X142938095Y-80080952D01*
X142880952Y-80061904D01*
X142842857Y-80023809D01*
X142823809Y-79985714D01*
X142804761Y-79909523D01*
X142804761Y-79852380D01*
X142823809Y-79776190D01*
X142842857Y-79738095D01*
X142880952Y-79700000D01*
X142938095Y-79680952D01*
X142976190Y-79680952D01*
X143033333Y-79700000D01*
X143052380Y-79719047D01*
X143204761Y-79719047D02*
X143223809Y-79700000D01*
X143261904Y-79680952D01*
X143357142Y-79680952D01*
X143395238Y-79700000D01*
X143414285Y-79719047D01*
X143433333Y-79757142D01*
X143433333Y-79795238D01*
X143414285Y-79852380D01*
X143185714Y-80080952D01*
X143433333Y-80080952D01*
X143814285Y-80080952D02*
X143585714Y-80080952D01*
X143700000Y-80080952D02*
X143700000Y-79680952D01*
X143661904Y-79738095D01*
X143623809Y-79776190D01*
X143585714Y-79795238D01*
X144157142Y-79680952D02*
X144080952Y-79680952D01*
X144042857Y-79700000D01*
X144023809Y-79719047D01*
X143985714Y-79776190D01*
X143966666Y-79852380D01*
X143966666Y-80004761D01*
X143985714Y-80042857D01*
X144004761Y-80061904D01*
X144042857Y-80080952D01*
X144119047Y-80080952D01*
X144157142Y-80061904D01*
X144176190Y-80042857D01*
X144195238Y-80004761D01*
X144195238Y-79909523D01*
X144176190Y-79871428D01*
X144157142Y-79852380D01*
X144119047Y-79833333D01*
X144042857Y-79833333D01*
X144004761Y-79852380D01*
X143985714Y-79871428D01*
X143966666Y-79909523D01*
%TO.C,C303*%
X120404880Y-74892857D02*
X120385833Y-74911904D01*
X120328690Y-74930952D01*
X120290595Y-74930952D01*
X120233452Y-74911904D01*
X120195357Y-74873809D01*
X120176309Y-74835714D01*
X120157261Y-74759523D01*
X120157261Y-74702380D01*
X120176309Y-74626190D01*
X120195357Y-74588095D01*
X120233452Y-74550000D01*
X120290595Y-74530952D01*
X120328690Y-74530952D01*
X120385833Y-74550000D01*
X120404880Y-74569047D01*
X120538214Y-74530952D02*
X120785833Y-74530952D01*
X120652500Y-74683333D01*
X120709642Y-74683333D01*
X120747738Y-74702380D01*
X120766785Y-74721428D01*
X120785833Y-74759523D01*
X120785833Y-74854761D01*
X120766785Y-74892857D01*
X120747738Y-74911904D01*
X120709642Y-74930952D01*
X120595357Y-74930952D01*
X120557261Y-74911904D01*
X120538214Y-74892857D01*
X121033452Y-74530952D02*
X121071547Y-74530952D01*
X121109642Y-74550000D01*
X121128690Y-74569047D01*
X121147738Y-74607142D01*
X121166785Y-74683333D01*
X121166785Y-74778571D01*
X121147738Y-74854761D01*
X121128690Y-74892857D01*
X121109642Y-74911904D01*
X121071547Y-74930952D01*
X121033452Y-74930952D01*
X120995357Y-74911904D01*
X120976309Y-74892857D01*
X120957261Y-74854761D01*
X120938214Y-74778571D01*
X120938214Y-74683333D01*
X120957261Y-74607142D01*
X120976309Y-74569047D01*
X120995357Y-74550000D01*
X121033452Y-74530952D01*
X121300119Y-74530952D02*
X121547738Y-74530952D01*
X121414404Y-74683333D01*
X121471547Y-74683333D01*
X121509642Y-74702380D01*
X121528690Y-74721428D01*
X121547738Y-74759523D01*
X121547738Y-74854761D01*
X121528690Y-74892857D01*
X121509642Y-74911904D01*
X121471547Y-74930952D01*
X121357261Y-74930952D01*
X121319166Y-74911904D01*
X121300119Y-74892857D01*
%TO.C,C212*%
X144602380Y-74167857D02*
X144583333Y-74186904D01*
X144526190Y-74205952D01*
X144488095Y-74205952D01*
X144430952Y-74186904D01*
X144392857Y-74148809D01*
X144373809Y-74110714D01*
X144354761Y-74034523D01*
X144354761Y-73977380D01*
X144373809Y-73901190D01*
X144392857Y-73863095D01*
X144430952Y-73825000D01*
X144488095Y-73805952D01*
X144526190Y-73805952D01*
X144583333Y-73825000D01*
X144602380Y-73844047D01*
X144754761Y-73844047D02*
X144773809Y-73825000D01*
X144811904Y-73805952D01*
X144907142Y-73805952D01*
X144945238Y-73825000D01*
X144964285Y-73844047D01*
X144983333Y-73882142D01*
X144983333Y-73920238D01*
X144964285Y-73977380D01*
X144735714Y-74205952D01*
X144983333Y-74205952D01*
X145364285Y-74205952D02*
X145135714Y-74205952D01*
X145250000Y-74205952D02*
X145250000Y-73805952D01*
X145211904Y-73863095D01*
X145173809Y-73901190D01*
X145135714Y-73920238D01*
X145516666Y-73844047D02*
X145535714Y-73825000D01*
X145573809Y-73805952D01*
X145669047Y-73805952D01*
X145707142Y-73825000D01*
X145726190Y-73844047D01*
X145745238Y-73882142D01*
X145745238Y-73920238D01*
X145726190Y-73977380D01*
X145497619Y-74205952D01*
X145745238Y-74205952D01*
%TO.C,R315*%
X126167379Y-98035951D02*
X126034046Y-97845475D01*
X125938808Y-98035951D02*
X125938808Y-97635951D01*
X126091189Y-97635951D01*
X126129284Y-97654999D01*
X126148332Y-97674046D01*
X126167379Y-97712141D01*
X126167379Y-97769284D01*
X126148332Y-97807379D01*
X126129284Y-97826427D01*
X126091189Y-97845475D01*
X125938808Y-97845475D01*
X126300713Y-97635951D02*
X126548332Y-97635951D01*
X126414999Y-97788332D01*
X126472141Y-97788332D01*
X126510237Y-97807379D01*
X126529284Y-97826427D01*
X126548332Y-97864522D01*
X126548332Y-97959760D01*
X126529284Y-97997856D01*
X126510237Y-98016903D01*
X126472141Y-98035951D01*
X126357856Y-98035951D01*
X126319760Y-98016903D01*
X126300713Y-97997856D01*
X126929284Y-98035951D02*
X126700713Y-98035951D01*
X126814999Y-98035951D02*
X126814999Y-97635951D01*
X126776903Y-97693094D01*
X126738808Y-97731189D01*
X126700713Y-97750237D01*
X127291189Y-97635951D02*
X127100713Y-97635951D01*
X127081665Y-97826427D01*
X127100713Y-97807379D01*
X127138808Y-97788332D01*
X127234046Y-97788332D01*
X127272141Y-97807379D01*
X127291189Y-97826427D01*
X127310237Y-97864522D01*
X127310237Y-97959760D01*
X127291189Y-97997856D01*
X127272141Y-98016903D01*
X127234046Y-98035951D01*
X127138808Y-98035951D01*
X127100713Y-98016903D01*
X127081665Y-97997856D01*
%TO.C,C311*%
X123017379Y-87597856D02*
X122998332Y-87616903D01*
X122941189Y-87635951D01*
X122903094Y-87635951D01*
X122845951Y-87616903D01*
X122807856Y-87578808D01*
X122788808Y-87540713D01*
X122769760Y-87464522D01*
X122769760Y-87407379D01*
X122788808Y-87331189D01*
X122807856Y-87293094D01*
X122845951Y-87254999D01*
X122903094Y-87235951D01*
X122941189Y-87235951D01*
X122998332Y-87254999D01*
X123017379Y-87274046D01*
X123150713Y-87235951D02*
X123398332Y-87235951D01*
X123264999Y-87388332D01*
X123322141Y-87388332D01*
X123360237Y-87407379D01*
X123379284Y-87426427D01*
X123398332Y-87464522D01*
X123398332Y-87559760D01*
X123379284Y-87597856D01*
X123360237Y-87616903D01*
X123322141Y-87635951D01*
X123207856Y-87635951D01*
X123169760Y-87616903D01*
X123150713Y-87597856D01*
X123779284Y-87635951D02*
X123550713Y-87635951D01*
X123664999Y-87635951D02*
X123664999Y-87235951D01*
X123626903Y-87293094D01*
X123588808Y-87331189D01*
X123550713Y-87350237D01*
X124160237Y-87635951D02*
X123931665Y-87635951D01*
X124045951Y-87635951D02*
X124045951Y-87235951D01*
X124007856Y-87293094D01*
X123969760Y-87331189D01*
X123931665Y-87350237D01*
%TO.C,TP301*%
X115839285Y-68955952D02*
X116067857Y-68955952D01*
X115953571Y-69355952D02*
X115953571Y-68955952D01*
X116201190Y-69355952D02*
X116201190Y-68955952D01*
X116353571Y-68955952D01*
X116391666Y-68975000D01*
X116410714Y-68994047D01*
X116429761Y-69032142D01*
X116429761Y-69089285D01*
X116410714Y-69127380D01*
X116391666Y-69146428D01*
X116353571Y-69165476D01*
X116201190Y-69165476D01*
X116563095Y-68955952D02*
X116810714Y-68955952D01*
X116677380Y-69108333D01*
X116734523Y-69108333D01*
X116772619Y-69127380D01*
X116791666Y-69146428D01*
X116810714Y-69184523D01*
X116810714Y-69279761D01*
X116791666Y-69317857D01*
X116772619Y-69336904D01*
X116734523Y-69355952D01*
X116620238Y-69355952D01*
X116582142Y-69336904D01*
X116563095Y-69317857D01*
X117058333Y-68955952D02*
X117096428Y-68955952D01*
X117134523Y-68975000D01*
X117153571Y-68994047D01*
X117172619Y-69032142D01*
X117191666Y-69108333D01*
X117191666Y-69203571D01*
X117172619Y-69279761D01*
X117153571Y-69317857D01*
X117134523Y-69336904D01*
X117096428Y-69355952D01*
X117058333Y-69355952D01*
X117020238Y-69336904D01*
X117001190Y-69317857D01*
X116982142Y-69279761D01*
X116963095Y-69203571D01*
X116963095Y-69108333D01*
X116982142Y-69032142D01*
X117001190Y-68994047D01*
X117020238Y-68975000D01*
X117058333Y-68955952D01*
X117572619Y-69355952D02*
X117344047Y-69355952D01*
X117458333Y-69355952D02*
X117458333Y-68955952D01*
X117420238Y-69013095D01*
X117382142Y-69051190D01*
X117344047Y-69070238D01*
%TO.C,C210*%
X145727380Y-80717857D02*
X145708333Y-80736904D01*
X145651190Y-80755952D01*
X145613095Y-80755952D01*
X145555952Y-80736904D01*
X145517857Y-80698809D01*
X145498809Y-80660714D01*
X145479761Y-80584523D01*
X145479761Y-80527380D01*
X145498809Y-80451190D01*
X145517857Y-80413095D01*
X145555952Y-80375000D01*
X145613095Y-80355952D01*
X145651190Y-80355952D01*
X145708333Y-80375000D01*
X145727380Y-80394047D01*
X145879761Y-80394047D02*
X145898809Y-80375000D01*
X145936904Y-80355952D01*
X146032142Y-80355952D01*
X146070238Y-80375000D01*
X146089285Y-80394047D01*
X146108333Y-80432142D01*
X146108333Y-80470238D01*
X146089285Y-80527380D01*
X145860714Y-80755952D01*
X146108333Y-80755952D01*
X146489285Y-80755952D02*
X146260714Y-80755952D01*
X146375000Y-80755952D02*
X146375000Y-80355952D01*
X146336904Y-80413095D01*
X146298809Y-80451190D01*
X146260714Y-80470238D01*
X146736904Y-80355952D02*
X146775000Y-80355952D01*
X146813095Y-80375000D01*
X146832142Y-80394047D01*
X146851190Y-80432142D01*
X146870238Y-80508333D01*
X146870238Y-80603571D01*
X146851190Y-80679761D01*
X146832142Y-80717857D01*
X146813095Y-80736904D01*
X146775000Y-80755952D01*
X146736904Y-80755952D01*
X146698809Y-80736904D01*
X146679761Y-80717857D01*
X146660714Y-80679761D01*
X146641666Y-80603571D01*
X146641666Y-80508333D01*
X146660714Y-80432142D01*
X146679761Y-80394047D01*
X146698809Y-80375000D01*
X146736904Y-80355952D01*
%TO.C,C205*%
X150402380Y-73517857D02*
X150383333Y-73536904D01*
X150326190Y-73555952D01*
X150288095Y-73555952D01*
X150230952Y-73536904D01*
X150192857Y-73498809D01*
X150173809Y-73460714D01*
X150154761Y-73384523D01*
X150154761Y-73327380D01*
X150173809Y-73251190D01*
X150192857Y-73213095D01*
X150230952Y-73175000D01*
X150288095Y-73155952D01*
X150326190Y-73155952D01*
X150383333Y-73175000D01*
X150402380Y-73194047D01*
X150554761Y-73194047D02*
X150573809Y-73175000D01*
X150611904Y-73155952D01*
X150707142Y-73155952D01*
X150745238Y-73175000D01*
X150764285Y-73194047D01*
X150783333Y-73232142D01*
X150783333Y-73270238D01*
X150764285Y-73327380D01*
X150535714Y-73555952D01*
X150783333Y-73555952D01*
X151030952Y-73155952D02*
X151069047Y-73155952D01*
X151107142Y-73175000D01*
X151126190Y-73194047D01*
X151145238Y-73232142D01*
X151164285Y-73308333D01*
X151164285Y-73403571D01*
X151145238Y-73479761D01*
X151126190Y-73517857D01*
X151107142Y-73536904D01*
X151069047Y-73555952D01*
X151030952Y-73555952D01*
X150992857Y-73536904D01*
X150973809Y-73517857D01*
X150954761Y-73479761D01*
X150935714Y-73403571D01*
X150935714Y-73308333D01*
X150954761Y-73232142D01*
X150973809Y-73194047D01*
X150992857Y-73175000D01*
X151030952Y-73155952D01*
X151526190Y-73155952D02*
X151335714Y-73155952D01*
X151316666Y-73346428D01*
X151335714Y-73327380D01*
X151373809Y-73308333D01*
X151469047Y-73308333D01*
X151507142Y-73327380D01*
X151526190Y-73346428D01*
X151545238Y-73384523D01*
X151545238Y-73479761D01*
X151526190Y-73517857D01*
X151507142Y-73536904D01*
X151469047Y-73555952D01*
X151373809Y-73555952D01*
X151335714Y-73536904D01*
X151316666Y-73517857D01*
%TO.C,R307*%
X126502380Y-75055952D02*
X126369047Y-74865476D01*
X126273809Y-75055952D02*
X126273809Y-74655952D01*
X126426190Y-74655952D01*
X126464285Y-74675000D01*
X126483333Y-74694047D01*
X126502380Y-74732142D01*
X126502380Y-74789285D01*
X126483333Y-74827380D01*
X126464285Y-74846428D01*
X126426190Y-74865476D01*
X126273809Y-74865476D01*
X126635714Y-74655952D02*
X126883333Y-74655952D01*
X126750000Y-74808333D01*
X126807142Y-74808333D01*
X126845238Y-74827380D01*
X126864285Y-74846428D01*
X126883333Y-74884523D01*
X126883333Y-74979761D01*
X126864285Y-75017857D01*
X126845238Y-75036904D01*
X126807142Y-75055952D01*
X126692857Y-75055952D01*
X126654761Y-75036904D01*
X126635714Y-75017857D01*
X127130952Y-74655952D02*
X127169047Y-74655952D01*
X127207142Y-74675000D01*
X127226190Y-74694047D01*
X127245238Y-74732142D01*
X127264285Y-74808333D01*
X127264285Y-74903571D01*
X127245238Y-74979761D01*
X127226190Y-75017857D01*
X127207142Y-75036904D01*
X127169047Y-75055952D01*
X127130952Y-75055952D01*
X127092857Y-75036904D01*
X127073809Y-75017857D01*
X127054761Y-74979761D01*
X127035714Y-74903571D01*
X127035714Y-74808333D01*
X127054761Y-74732142D01*
X127073809Y-74694047D01*
X127092857Y-74675000D01*
X127130952Y-74655952D01*
X127397619Y-74655952D02*
X127664285Y-74655952D01*
X127492857Y-75055952D01*
%TO.C,FID302*%
X137065476Y-93346428D02*
X136932142Y-93346428D01*
X136932142Y-93555952D02*
X136932142Y-93155952D01*
X137122619Y-93155952D01*
X137275000Y-93555952D02*
X137275000Y-93155952D01*
X137465476Y-93555952D02*
X137465476Y-93155952D01*
X137560714Y-93155952D01*
X137617857Y-93175000D01*
X137655952Y-93213095D01*
X137675000Y-93251190D01*
X137694047Y-93327380D01*
X137694047Y-93384523D01*
X137675000Y-93460714D01*
X137655952Y-93498809D01*
X137617857Y-93536904D01*
X137560714Y-93555952D01*
X137465476Y-93555952D01*
X137827380Y-93155952D02*
X138075000Y-93155952D01*
X137941666Y-93308333D01*
X137998809Y-93308333D01*
X138036904Y-93327380D01*
X138055952Y-93346428D01*
X138075000Y-93384523D01*
X138075000Y-93479761D01*
X138055952Y-93517857D01*
X138036904Y-93536904D01*
X137998809Y-93555952D01*
X137884523Y-93555952D01*
X137846428Y-93536904D01*
X137827380Y-93517857D01*
X138322619Y-93155952D02*
X138360714Y-93155952D01*
X138398809Y-93175000D01*
X138417857Y-93194047D01*
X138436904Y-93232142D01*
X138455952Y-93308333D01*
X138455952Y-93403571D01*
X138436904Y-93479761D01*
X138417857Y-93517857D01*
X138398809Y-93536904D01*
X138360714Y-93555952D01*
X138322619Y-93555952D01*
X138284523Y-93536904D01*
X138265476Y-93517857D01*
X138246428Y-93479761D01*
X138227380Y-93403571D01*
X138227380Y-93308333D01*
X138246428Y-93232142D01*
X138265476Y-93194047D01*
X138284523Y-93175000D01*
X138322619Y-93155952D01*
X138608333Y-93194047D02*
X138627380Y-93175000D01*
X138665476Y-93155952D01*
X138760714Y-93155952D01*
X138798809Y-93175000D01*
X138817857Y-93194047D01*
X138836904Y-93232142D01*
X138836904Y-93270238D01*
X138817857Y-93327380D01*
X138589285Y-93555952D01*
X138836904Y-93555952D01*
%TO.C,Q2*%
X149461904Y-94644047D02*
X149423809Y-94625000D01*
X149385714Y-94586904D01*
X149328571Y-94529761D01*
X149290476Y-94510714D01*
X149252380Y-94510714D01*
X149271428Y-94605952D02*
X149233333Y-94586904D01*
X149195238Y-94548809D01*
X149176190Y-94472619D01*
X149176190Y-94339285D01*
X149195238Y-94263095D01*
X149233333Y-94225000D01*
X149271428Y-94205952D01*
X149347619Y-94205952D01*
X149385714Y-94225000D01*
X149423809Y-94263095D01*
X149442857Y-94339285D01*
X149442857Y-94472619D01*
X149423809Y-94548809D01*
X149385714Y-94586904D01*
X149347619Y-94605952D01*
X149271428Y-94605952D01*
X149595238Y-94244047D02*
X149614285Y-94225000D01*
X149652380Y-94205952D01*
X149747619Y-94205952D01*
X149785714Y-94225000D01*
X149804761Y-94244047D01*
X149823809Y-94282142D01*
X149823809Y-94320238D01*
X149804761Y-94377380D01*
X149576190Y-94605952D01*
X149823809Y-94605952D01*
%TO.C,TP302*%
X115789285Y-93630952D02*
X116017857Y-93630952D01*
X115903571Y-94030952D02*
X115903571Y-93630952D01*
X116151190Y-94030952D02*
X116151190Y-93630952D01*
X116303571Y-93630952D01*
X116341666Y-93650000D01*
X116360714Y-93669047D01*
X116379761Y-93707142D01*
X116379761Y-93764285D01*
X116360714Y-93802380D01*
X116341666Y-93821428D01*
X116303571Y-93840476D01*
X116151190Y-93840476D01*
X116513095Y-93630952D02*
X116760714Y-93630952D01*
X116627380Y-93783333D01*
X116684523Y-93783333D01*
X116722619Y-93802380D01*
X116741666Y-93821428D01*
X116760714Y-93859523D01*
X116760714Y-93954761D01*
X116741666Y-93992857D01*
X116722619Y-94011904D01*
X116684523Y-94030952D01*
X116570238Y-94030952D01*
X116532142Y-94011904D01*
X116513095Y-93992857D01*
X117008333Y-93630952D02*
X117046428Y-93630952D01*
X117084523Y-93650000D01*
X117103571Y-93669047D01*
X117122619Y-93707142D01*
X117141666Y-93783333D01*
X117141666Y-93878571D01*
X117122619Y-93954761D01*
X117103571Y-93992857D01*
X117084523Y-94011904D01*
X117046428Y-94030952D01*
X117008333Y-94030952D01*
X116970238Y-94011904D01*
X116951190Y-93992857D01*
X116932142Y-93954761D01*
X116913095Y-93878571D01*
X116913095Y-93783333D01*
X116932142Y-93707142D01*
X116951190Y-93669047D01*
X116970238Y-93650000D01*
X117008333Y-93630952D01*
X117294047Y-93669047D02*
X117313095Y-93650000D01*
X117351190Y-93630952D01*
X117446428Y-93630952D01*
X117484523Y-93650000D01*
X117503571Y-93669047D01*
X117522619Y-93707142D01*
X117522619Y-93745238D01*
X117503571Y-93802380D01*
X117275000Y-94030952D01*
X117522619Y-94030952D01*
%TO.C,R206*%
X165427380Y-79680952D02*
X165294047Y-79490476D01*
X165198809Y-79680952D02*
X165198809Y-79280952D01*
X165351190Y-79280952D01*
X165389285Y-79300000D01*
X165408333Y-79319047D01*
X165427380Y-79357142D01*
X165427380Y-79414285D01*
X165408333Y-79452380D01*
X165389285Y-79471428D01*
X165351190Y-79490476D01*
X165198809Y-79490476D01*
X165579761Y-79319047D02*
X165598809Y-79300000D01*
X165636904Y-79280952D01*
X165732142Y-79280952D01*
X165770238Y-79300000D01*
X165789285Y-79319047D01*
X165808333Y-79357142D01*
X165808333Y-79395238D01*
X165789285Y-79452380D01*
X165560714Y-79680952D01*
X165808333Y-79680952D01*
X166055952Y-79280952D02*
X166094047Y-79280952D01*
X166132142Y-79300000D01*
X166151190Y-79319047D01*
X166170238Y-79357142D01*
X166189285Y-79433333D01*
X166189285Y-79528571D01*
X166170238Y-79604761D01*
X166151190Y-79642857D01*
X166132142Y-79661904D01*
X166094047Y-79680952D01*
X166055952Y-79680952D01*
X166017857Y-79661904D01*
X165998809Y-79642857D01*
X165979761Y-79604761D01*
X165960714Y-79528571D01*
X165960714Y-79433333D01*
X165979761Y-79357142D01*
X165998809Y-79319047D01*
X166017857Y-79300000D01*
X166055952Y-79280952D01*
X166532142Y-79280952D02*
X166455952Y-79280952D01*
X166417857Y-79300000D01*
X166398809Y-79319047D01*
X166360714Y-79376190D01*
X166341666Y-79452380D01*
X166341666Y-79604761D01*
X166360714Y-79642857D01*
X166379761Y-79661904D01*
X166417857Y-79680952D01*
X166494047Y-79680952D01*
X166532142Y-79661904D01*
X166551190Y-79642857D01*
X166570238Y-79604761D01*
X166570238Y-79509523D01*
X166551190Y-79471428D01*
X166532142Y-79452380D01*
X166494047Y-79433333D01*
X166417857Y-79433333D01*
X166379761Y-79452380D01*
X166360714Y-79471428D01*
X166341666Y-79509523D01*
%TO.C,C209*%
X152577380Y-85442857D02*
X152558333Y-85461904D01*
X152501190Y-85480952D01*
X152463095Y-85480952D01*
X152405952Y-85461904D01*
X152367857Y-85423809D01*
X152348809Y-85385714D01*
X152329761Y-85309523D01*
X152329761Y-85252380D01*
X152348809Y-85176190D01*
X152367857Y-85138095D01*
X152405952Y-85100000D01*
X152463095Y-85080952D01*
X152501190Y-85080952D01*
X152558333Y-85100000D01*
X152577380Y-85119047D01*
X152729761Y-85119047D02*
X152748809Y-85100000D01*
X152786904Y-85080952D01*
X152882142Y-85080952D01*
X152920238Y-85100000D01*
X152939285Y-85119047D01*
X152958333Y-85157142D01*
X152958333Y-85195238D01*
X152939285Y-85252380D01*
X152710714Y-85480952D01*
X152958333Y-85480952D01*
X153205952Y-85080952D02*
X153244047Y-85080952D01*
X153282142Y-85100000D01*
X153301190Y-85119047D01*
X153320238Y-85157142D01*
X153339285Y-85233333D01*
X153339285Y-85328571D01*
X153320238Y-85404761D01*
X153301190Y-85442857D01*
X153282142Y-85461904D01*
X153244047Y-85480952D01*
X153205952Y-85480952D01*
X153167857Y-85461904D01*
X153148809Y-85442857D01*
X153129761Y-85404761D01*
X153110714Y-85328571D01*
X153110714Y-85233333D01*
X153129761Y-85157142D01*
X153148809Y-85119047D01*
X153167857Y-85100000D01*
X153205952Y-85080952D01*
X153529761Y-85480952D02*
X153605952Y-85480952D01*
X153644047Y-85461904D01*
X153663095Y-85442857D01*
X153701190Y-85385714D01*
X153720238Y-85309523D01*
X153720238Y-85157142D01*
X153701190Y-85119047D01*
X153682142Y-85100000D01*
X153644047Y-85080952D01*
X153567857Y-85080952D01*
X153529761Y-85100000D01*
X153510714Y-85119047D01*
X153491666Y-85157142D01*
X153491666Y-85252380D01*
X153510714Y-85290476D01*
X153529761Y-85309523D01*
X153567857Y-85328571D01*
X153644047Y-85328571D01*
X153682142Y-85309523D01*
X153701190Y-85290476D01*
X153720238Y-85252380D01*
%TO.C,R304*%
X117904880Y-76380952D02*
X117771547Y-76190476D01*
X117676309Y-76380952D02*
X117676309Y-75980952D01*
X117828690Y-75980952D01*
X117866785Y-76000000D01*
X117885833Y-76019047D01*
X117904880Y-76057142D01*
X117904880Y-76114285D01*
X117885833Y-76152380D01*
X117866785Y-76171428D01*
X117828690Y-76190476D01*
X117676309Y-76190476D01*
X118038214Y-75980952D02*
X118285833Y-75980952D01*
X118152500Y-76133333D01*
X118209642Y-76133333D01*
X118247738Y-76152380D01*
X118266785Y-76171428D01*
X118285833Y-76209523D01*
X118285833Y-76304761D01*
X118266785Y-76342857D01*
X118247738Y-76361904D01*
X118209642Y-76380952D01*
X118095357Y-76380952D01*
X118057261Y-76361904D01*
X118038214Y-76342857D01*
X118533452Y-75980952D02*
X118571547Y-75980952D01*
X118609642Y-76000000D01*
X118628690Y-76019047D01*
X118647738Y-76057142D01*
X118666785Y-76133333D01*
X118666785Y-76228571D01*
X118647738Y-76304761D01*
X118628690Y-76342857D01*
X118609642Y-76361904D01*
X118571547Y-76380952D01*
X118533452Y-76380952D01*
X118495357Y-76361904D01*
X118476309Y-76342857D01*
X118457261Y-76304761D01*
X118438214Y-76228571D01*
X118438214Y-76133333D01*
X118457261Y-76057142D01*
X118476309Y-76019047D01*
X118495357Y-76000000D01*
X118533452Y-75980952D01*
X119009642Y-76114285D02*
X119009642Y-76380952D01*
X118914404Y-75961904D02*
X118819166Y-76247619D01*
X119066785Y-76247619D01*
%TO.C,R319*%
X136792379Y-93735951D02*
X136659046Y-93545475D01*
X136563808Y-93735951D02*
X136563808Y-93335951D01*
X136716189Y-93335951D01*
X136754284Y-93354999D01*
X136773332Y-93374046D01*
X136792379Y-93412141D01*
X136792379Y-93469284D01*
X136773332Y-93507379D01*
X136754284Y-93526427D01*
X136716189Y-93545475D01*
X136563808Y-93545475D01*
X136925713Y-93335951D02*
X137173332Y-93335951D01*
X137039999Y-93488332D01*
X137097141Y-93488332D01*
X137135237Y-93507379D01*
X137154284Y-93526427D01*
X137173332Y-93564522D01*
X137173332Y-93659760D01*
X137154284Y-93697856D01*
X137135237Y-93716903D01*
X137097141Y-93735951D01*
X136982856Y-93735951D01*
X136944760Y-93716903D01*
X136925713Y-93697856D01*
X137554284Y-93735951D02*
X137325713Y-93735951D01*
X137439999Y-93735951D02*
X137439999Y-93335951D01*
X137401903Y-93393094D01*
X137363808Y-93431189D01*
X137325713Y-93450237D01*
X137744760Y-93735951D02*
X137820951Y-93735951D01*
X137859046Y-93716903D01*
X137878094Y-93697856D01*
X137916189Y-93640713D01*
X137935237Y-93564522D01*
X137935237Y-93412141D01*
X137916189Y-93374046D01*
X137897141Y-93354999D01*
X137859046Y-93335951D01*
X137782856Y-93335951D01*
X137744760Y-93354999D01*
X137725713Y-93374046D01*
X137706665Y-93412141D01*
X137706665Y-93507379D01*
X137725713Y-93545475D01*
X137744760Y-93564522D01*
X137782856Y-93583570D01*
X137859046Y-93583570D01*
X137897141Y-93564522D01*
X137916189Y-93545475D01*
X137935237Y-93507379D01*
%TO.C,R318*%
X133742379Y-89660951D02*
X133609046Y-89470475D01*
X133513808Y-89660951D02*
X133513808Y-89260951D01*
X133666189Y-89260951D01*
X133704284Y-89279999D01*
X133723332Y-89299046D01*
X133742379Y-89337141D01*
X133742379Y-89394284D01*
X133723332Y-89432379D01*
X133704284Y-89451427D01*
X133666189Y-89470475D01*
X133513808Y-89470475D01*
X133875713Y-89260951D02*
X134123332Y-89260951D01*
X133989999Y-89413332D01*
X134047141Y-89413332D01*
X134085237Y-89432379D01*
X134104284Y-89451427D01*
X134123332Y-89489522D01*
X134123332Y-89584760D01*
X134104284Y-89622856D01*
X134085237Y-89641903D01*
X134047141Y-89660951D01*
X133932856Y-89660951D01*
X133894760Y-89641903D01*
X133875713Y-89622856D01*
X134504284Y-89660951D02*
X134275713Y-89660951D01*
X134389999Y-89660951D02*
X134389999Y-89260951D01*
X134351903Y-89318094D01*
X134313808Y-89356189D01*
X134275713Y-89375237D01*
X134732856Y-89432379D02*
X134694760Y-89413332D01*
X134675713Y-89394284D01*
X134656665Y-89356189D01*
X134656665Y-89337141D01*
X134675713Y-89299046D01*
X134694760Y-89279999D01*
X134732856Y-89260951D01*
X134809046Y-89260951D01*
X134847141Y-89279999D01*
X134866189Y-89299046D01*
X134885237Y-89337141D01*
X134885237Y-89356189D01*
X134866189Y-89394284D01*
X134847141Y-89413332D01*
X134809046Y-89432379D01*
X134732856Y-89432379D01*
X134694760Y-89451427D01*
X134675713Y-89470475D01*
X134656665Y-89508570D01*
X134656665Y-89584760D01*
X134675713Y-89622856D01*
X134694760Y-89641903D01*
X134732856Y-89660951D01*
X134809046Y-89660951D01*
X134847141Y-89641903D01*
X134866189Y-89622856D01*
X134885237Y-89584760D01*
X134885237Y-89508570D01*
X134866189Y-89470475D01*
X134847141Y-89451427D01*
X134809046Y-89432379D01*
%TO.C,C201*%
X156277380Y-74517857D02*
X156258333Y-74536904D01*
X156201190Y-74555952D01*
X156163095Y-74555952D01*
X156105952Y-74536904D01*
X156067857Y-74498809D01*
X156048809Y-74460714D01*
X156029761Y-74384523D01*
X156029761Y-74327380D01*
X156048809Y-74251190D01*
X156067857Y-74213095D01*
X156105952Y-74175000D01*
X156163095Y-74155952D01*
X156201190Y-74155952D01*
X156258333Y-74175000D01*
X156277380Y-74194047D01*
X156429761Y-74194047D02*
X156448809Y-74175000D01*
X156486904Y-74155952D01*
X156582142Y-74155952D01*
X156620238Y-74175000D01*
X156639285Y-74194047D01*
X156658333Y-74232142D01*
X156658333Y-74270238D01*
X156639285Y-74327380D01*
X156410714Y-74555952D01*
X156658333Y-74555952D01*
X156905952Y-74155952D02*
X156944047Y-74155952D01*
X156982142Y-74175000D01*
X157001190Y-74194047D01*
X157020238Y-74232142D01*
X157039285Y-74308333D01*
X157039285Y-74403571D01*
X157020238Y-74479761D01*
X157001190Y-74517857D01*
X156982142Y-74536904D01*
X156944047Y-74555952D01*
X156905952Y-74555952D01*
X156867857Y-74536904D01*
X156848809Y-74517857D01*
X156829761Y-74479761D01*
X156810714Y-74403571D01*
X156810714Y-74308333D01*
X156829761Y-74232142D01*
X156848809Y-74194047D01*
X156867857Y-74175000D01*
X156905952Y-74155952D01*
X157420238Y-74555952D02*
X157191666Y-74555952D01*
X157305952Y-74555952D02*
X157305952Y-74155952D01*
X157267857Y-74213095D01*
X157229761Y-74251190D01*
X157191666Y-74270238D01*
%TO.C,FID303*%
X170815476Y-93346428D02*
X170682142Y-93346428D01*
X170682142Y-93555952D02*
X170682142Y-93155952D01*
X170872619Y-93155952D01*
X171025000Y-93555952D02*
X171025000Y-93155952D01*
X171215476Y-93555952D02*
X171215476Y-93155952D01*
X171310714Y-93155952D01*
X171367857Y-93175000D01*
X171405952Y-93213095D01*
X171425000Y-93251190D01*
X171444047Y-93327380D01*
X171444047Y-93384523D01*
X171425000Y-93460714D01*
X171405952Y-93498809D01*
X171367857Y-93536904D01*
X171310714Y-93555952D01*
X171215476Y-93555952D01*
X171577380Y-93155952D02*
X171825000Y-93155952D01*
X171691666Y-93308333D01*
X171748809Y-93308333D01*
X171786904Y-93327380D01*
X171805952Y-93346428D01*
X171825000Y-93384523D01*
X171825000Y-93479761D01*
X171805952Y-93517857D01*
X171786904Y-93536904D01*
X171748809Y-93555952D01*
X171634523Y-93555952D01*
X171596428Y-93536904D01*
X171577380Y-93517857D01*
X172072619Y-93155952D02*
X172110714Y-93155952D01*
X172148809Y-93175000D01*
X172167857Y-93194047D01*
X172186904Y-93232142D01*
X172205952Y-93308333D01*
X172205952Y-93403571D01*
X172186904Y-93479761D01*
X172167857Y-93517857D01*
X172148809Y-93536904D01*
X172110714Y-93555952D01*
X172072619Y-93555952D01*
X172034523Y-93536904D01*
X172015476Y-93517857D01*
X171996428Y-93479761D01*
X171977380Y-93403571D01*
X171977380Y-93308333D01*
X171996428Y-93232142D01*
X172015476Y-93194047D01*
X172034523Y-93175000D01*
X172072619Y-93155952D01*
X172339285Y-93155952D02*
X172586904Y-93155952D01*
X172453571Y-93308333D01*
X172510714Y-93308333D01*
X172548809Y-93327380D01*
X172567857Y-93346428D01*
X172586904Y-93384523D01*
X172586904Y-93479761D01*
X172567857Y-93517857D01*
X172548809Y-93536904D01*
X172510714Y-93555952D01*
X172396428Y-93555952D01*
X172358333Y-93536904D01*
X172339285Y-93517857D01*
D14*
%TO.C,kibuzzard-623A0E03*%
X169723046Y-78209546D02*
X169723046Y-78209292D01*
X169723070Y-78209450D02*
X169723143Y-78209546D01*
X169723143Y-78209377D02*
X169723046Y-78209474D01*
X169723252Y-78209546D02*
X169723252Y-78209377D01*
X169723252Y-78209292D02*
X169723240Y-78209305D01*
X169723252Y-78209317D01*
X169723264Y-78209305D01*
X169723252Y-78209292D01*
X169723252Y-78209317D01*
X169723373Y-78209546D02*
X169723373Y-78209292D01*
X169723373Y-78209389D02*
X169723397Y-78209377D01*
X169723445Y-78209377D01*
X169723469Y-78209389D01*
X169723482Y-78209401D01*
X169723494Y-78209425D01*
X169723494Y-78209498D01*
X169723482Y-78209522D01*
X169723469Y-78209534D01*
X169723445Y-78209546D01*
X169723397Y-78209546D01*
X169723373Y-78209534D01*
X169723711Y-78209377D02*
X169723711Y-78209546D01*
X169723603Y-78209377D02*
X169723603Y-78209510D01*
X169723615Y-78209534D01*
X169723639Y-78209546D01*
X169723675Y-78209546D01*
X169723699Y-78209534D01*
X169723711Y-78209522D01*
X169723808Y-78209377D02*
X169723941Y-78209377D01*
X169723808Y-78209546D01*
X169723941Y-78209546D01*
X169724014Y-78209377D02*
X169724147Y-78209377D01*
X169724014Y-78209546D01*
X169724147Y-78209546D01*
X169724352Y-78209546D02*
X169724352Y-78209413D01*
X169724340Y-78209389D01*
X169724316Y-78209377D01*
X169724268Y-78209377D01*
X169724244Y-78209389D01*
X169724352Y-78209534D02*
X169724328Y-78209546D01*
X169724268Y-78209546D01*
X169724244Y-78209534D01*
X169724231Y-78209510D01*
X169724231Y-78209486D01*
X169724244Y-78209462D01*
X169724268Y-78209450D01*
X169724328Y-78209450D01*
X169724352Y-78209438D01*
X169724473Y-78209546D02*
X169724473Y-78209377D01*
X169724473Y-78209425D02*
X169724485Y-78209401D01*
X169724498Y-78209389D01*
X169724522Y-78209377D01*
X169724546Y-78209377D01*
X169724739Y-78209546D02*
X169724739Y-78209292D01*
X169724739Y-78209534D02*
X169724715Y-78209546D01*
X169724667Y-78209546D01*
X169724643Y-78209534D01*
X169724631Y-78209522D01*
X169724619Y-78209498D01*
X169724619Y-78209425D01*
X169724631Y-78209401D01*
X169724643Y-78209389D01*
X169724667Y-78209377D01*
X169724715Y-78209377D01*
X169724739Y-78209389D01*
X169724860Y-78209450D02*
X169725054Y-78209450D01*
X169725284Y-78209292D02*
X169725235Y-78209292D01*
X169725211Y-78209305D01*
X169725199Y-78209317D01*
X169725175Y-78209353D01*
X169725163Y-78209401D01*
X169725163Y-78209498D01*
X169725175Y-78209522D01*
X169725187Y-78209534D01*
X169725211Y-78209546D01*
X169725260Y-78209546D01*
X169725284Y-78209534D01*
X169725296Y-78209522D01*
X169725308Y-78209498D01*
X169725308Y-78209438D01*
X169725296Y-78209413D01*
X169725284Y-78209401D01*
X169725260Y-78209389D01*
X169725211Y-78209389D01*
X169725187Y-78209401D01*
X169725175Y-78209413D01*
X169725163Y-78209438D01*
X169725405Y-78209317D02*
X169725417Y-78209305D01*
X169725441Y-78209292D01*
X169725501Y-78209292D01*
X169725526Y-78209305D01*
X169725538Y-78209317D01*
X169725550Y-78209341D01*
X169725550Y-78209365D01*
X169725538Y-78209401D01*
X169725393Y-78209546D01*
X169725550Y-78209546D01*
X169725635Y-78209292D02*
X169725792Y-78209292D01*
X169725707Y-78209389D01*
X169725743Y-78209389D01*
X169725768Y-78209401D01*
X169725780Y-78209413D01*
X169725792Y-78209438D01*
X169725792Y-78209498D01*
X169725780Y-78209522D01*
X169725768Y-78209534D01*
X169725743Y-78209546D01*
X169725671Y-78209546D01*
X169725647Y-78209534D01*
X169725635Y-78209522D01*
X169725889Y-78209474D02*
X169726009Y-78209474D01*
X169725864Y-78209546D02*
X169725949Y-78209292D01*
X169726034Y-78209546D01*
X169726167Y-78209292D02*
X169726191Y-78209292D01*
X169726215Y-78209305D01*
X169726227Y-78209317D01*
X169726239Y-78209341D01*
X169726251Y-78209389D01*
X169726251Y-78209450D01*
X169726239Y-78209498D01*
X169726227Y-78209522D01*
X169726215Y-78209534D01*
X169726191Y-78209546D01*
X169726167Y-78209546D01*
X169726143Y-78209534D01*
X169726130Y-78209522D01*
X169726118Y-78209498D01*
X169726106Y-78209450D01*
X169726106Y-78209389D01*
X169726118Y-78209341D01*
X169726130Y-78209317D01*
X169726143Y-78209305D01*
X169726167Y-78209292D01*
X169726360Y-78209413D02*
X169726445Y-78209413D01*
X169726481Y-78209546D02*
X169726360Y-78209546D01*
X169726360Y-78209292D01*
X169726481Y-78209292D01*
X169726638Y-78209292D02*
X169726663Y-78209292D01*
X169726687Y-78209305D01*
X169726699Y-78209317D01*
X169726711Y-78209341D01*
X169726723Y-78209389D01*
X169726723Y-78209450D01*
X169726711Y-78209498D01*
X169726699Y-78209522D01*
X169726687Y-78209534D01*
X169726663Y-78209546D01*
X169726638Y-78209546D01*
X169726614Y-78209534D01*
X169726602Y-78209522D01*
X169726590Y-78209498D01*
X169726578Y-78209450D01*
X169726578Y-78209389D01*
X169726590Y-78209341D01*
X169726602Y-78209317D01*
X169726614Y-78209305D01*
X169726638Y-78209292D01*
X169726808Y-78209292D02*
X169726965Y-78209292D01*
X169726880Y-78209389D01*
X169726917Y-78209389D01*
X169726941Y-78209401D01*
X169726953Y-78209413D01*
X169726965Y-78209438D01*
X169726965Y-78209498D01*
X169726953Y-78209522D01*
X169726941Y-78209534D01*
X169726917Y-78209546D01*
X169726844Y-78209546D01*
X169726820Y-78209534D01*
X169726808Y-78209522D01*
D15*
%TO.C,Q3*%
X129026903Y-96849046D02*
X128988808Y-96829999D01*
X128950713Y-96791903D01*
X128893570Y-96734760D01*
X128855475Y-96715713D01*
X128817379Y-96715713D01*
X128836427Y-96810951D02*
X128798332Y-96791903D01*
X128760237Y-96753808D01*
X128741189Y-96677618D01*
X128741189Y-96544284D01*
X128760237Y-96468094D01*
X128798332Y-96429999D01*
X128836427Y-96410951D01*
X128912618Y-96410951D01*
X128950713Y-96429999D01*
X128988808Y-96468094D01*
X129007856Y-96544284D01*
X129007856Y-96677618D01*
X128988808Y-96753808D01*
X128950713Y-96791903D01*
X128912618Y-96810951D01*
X128836427Y-96810951D01*
X129141189Y-96410951D02*
X129388808Y-96410951D01*
X129255475Y-96563332D01*
X129312618Y-96563332D01*
X129350713Y-96582379D01*
X129369760Y-96601427D01*
X129388808Y-96639522D01*
X129388808Y-96734760D01*
X129369760Y-96772856D01*
X129350713Y-96791903D01*
X129312618Y-96810951D01*
X129198332Y-96810951D01*
X129160237Y-96791903D01*
X129141189Y-96772856D01*
%TO.C,R303*%
X117904880Y-75855952D02*
X117771547Y-75665476D01*
X117676309Y-75855952D02*
X117676309Y-75455952D01*
X117828690Y-75455952D01*
X117866785Y-75475000D01*
X117885833Y-75494047D01*
X117904880Y-75532142D01*
X117904880Y-75589285D01*
X117885833Y-75627380D01*
X117866785Y-75646428D01*
X117828690Y-75665476D01*
X117676309Y-75665476D01*
X118038214Y-75455952D02*
X118285833Y-75455952D01*
X118152500Y-75608333D01*
X118209642Y-75608333D01*
X118247738Y-75627380D01*
X118266785Y-75646428D01*
X118285833Y-75684523D01*
X118285833Y-75779761D01*
X118266785Y-75817857D01*
X118247738Y-75836904D01*
X118209642Y-75855952D01*
X118095357Y-75855952D01*
X118057261Y-75836904D01*
X118038214Y-75817857D01*
X118533452Y-75455952D02*
X118571547Y-75455952D01*
X118609642Y-75475000D01*
X118628690Y-75494047D01*
X118647738Y-75532142D01*
X118666785Y-75608333D01*
X118666785Y-75703571D01*
X118647738Y-75779761D01*
X118628690Y-75817857D01*
X118609642Y-75836904D01*
X118571547Y-75855952D01*
X118533452Y-75855952D01*
X118495357Y-75836904D01*
X118476309Y-75817857D01*
X118457261Y-75779761D01*
X118438214Y-75703571D01*
X118438214Y-75608333D01*
X118457261Y-75532142D01*
X118476309Y-75494047D01*
X118495357Y-75475000D01*
X118533452Y-75455952D01*
X118800119Y-75455952D02*
X119047738Y-75455952D01*
X118914404Y-75608333D01*
X118971547Y-75608333D01*
X119009642Y-75627380D01*
X119028690Y-75646428D01*
X119047738Y-75684523D01*
X119047738Y-75779761D01*
X119028690Y-75817857D01*
X119009642Y-75836904D01*
X118971547Y-75855952D01*
X118857261Y-75855952D01*
X118819166Y-75836904D01*
X118800119Y-75817857D01*
%TO.C,J301*%
X111160714Y-88655952D02*
X111160714Y-88941666D01*
X111141666Y-88998809D01*
X111103571Y-89036904D01*
X111046428Y-89055952D01*
X111008333Y-89055952D01*
X111313095Y-88655952D02*
X111560714Y-88655952D01*
X111427380Y-88808333D01*
X111484523Y-88808333D01*
X111522619Y-88827380D01*
X111541666Y-88846428D01*
X111560714Y-88884523D01*
X111560714Y-88979761D01*
X111541666Y-89017857D01*
X111522619Y-89036904D01*
X111484523Y-89055952D01*
X111370238Y-89055952D01*
X111332142Y-89036904D01*
X111313095Y-89017857D01*
X111808333Y-88655952D02*
X111846428Y-88655952D01*
X111884523Y-88675000D01*
X111903571Y-88694047D01*
X111922619Y-88732142D01*
X111941666Y-88808333D01*
X111941666Y-88903571D01*
X111922619Y-88979761D01*
X111903571Y-89017857D01*
X111884523Y-89036904D01*
X111846428Y-89055952D01*
X111808333Y-89055952D01*
X111770238Y-89036904D01*
X111751190Y-89017857D01*
X111732142Y-88979761D01*
X111713095Y-88903571D01*
X111713095Y-88808333D01*
X111732142Y-88732142D01*
X111751190Y-88694047D01*
X111770238Y-88675000D01*
X111808333Y-88655952D01*
X112322619Y-89055952D02*
X112094047Y-89055952D01*
X112208333Y-89055952D02*
X112208333Y-88655952D01*
X112170238Y-88713095D01*
X112132142Y-88751190D01*
X112094047Y-88770238D01*
%TO.C,R205*%
X164377380Y-78105952D02*
X164244047Y-77915476D01*
X164148809Y-78105952D02*
X164148809Y-77705952D01*
X164301190Y-77705952D01*
X164339285Y-77725000D01*
X164358333Y-77744047D01*
X164377380Y-77782142D01*
X164377380Y-77839285D01*
X164358333Y-77877380D01*
X164339285Y-77896428D01*
X164301190Y-77915476D01*
X164148809Y-77915476D01*
X164529761Y-77744047D02*
X164548809Y-77725000D01*
X164586904Y-77705952D01*
X164682142Y-77705952D01*
X164720238Y-77725000D01*
X164739285Y-77744047D01*
X164758333Y-77782142D01*
X164758333Y-77820238D01*
X164739285Y-77877380D01*
X164510714Y-78105952D01*
X164758333Y-78105952D01*
X165005952Y-77705952D02*
X165044047Y-77705952D01*
X165082142Y-77725000D01*
X165101190Y-77744047D01*
X165120238Y-77782142D01*
X165139285Y-77858333D01*
X165139285Y-77953571D01*
X165120238Y-78029761D01*
X165101190Y-78067857D01*
X165082142Y-78086904D01*
X165044047Y-78105952D01*
X165005952Y-78105952D01*
X164967857Y-78086904D01*
X164948809Y-78067857D01*
X164929761Y-78029761D01*
X164910714Y-77953571D01*
X164910714Y-77858333D01*
X164929761Y-77782142D01*
X164948809Y-77744047D01*
X164967857Y-77725000D01*
X165005952Y-77705952D01*
X165501190Y-77705952D02*
X165310714Y-77705952D01*
X165291666Y-77896428D01*
X165310714Y-77877380D01*
X165348809Y-77858333D01*
X165444047Y-77858333D01*
X165482142Y-77877380D01*
X165501190Y-77896428D01*
X165520238Y-77934523D01*
X165520238Y-78029761D01*
X165501190Y-78067857D01*
X165482142Y-78086904D01*
X165444047Y-78105952D01*
X165348809Y-78105952D01*
X165310714Y-78086904D01*
X165291666Y-78067857D01*
%TO.C,C211*%
X143052380Y-80567857D02*
X143033333Y-80586904D01*
X142976190Y-80605952D01*
X142938095Y-80605952D01*
X142880952Y-80586904D01*
X142842857Y-80548809D01*
X142823809Y-80510714D01*
X142804761Y-80434523D01*
X142804761Y-80377380D01*
X142823809Y-80301190D01*
X142842857Y-80263095D01*
X142880952Y-80225000D01*
X142938095Y-80205952D01*
X142976190Y-80205952D01*
X143033333Y-80225000D01*
X143052380Y-80244047D01*
X143204761Y-80244047D02*
X143223809Y-80225000D01*
X143261904Y-80205952D01*
X143357142Y-80205952D01*
X143395238Y-80225000D01*
X143414285Y-80244047D01*
X143433333Y-80282142D01*
X143433333Y-80320238D01*
X143414285Y-80377380D01*
X143185714Y-80605952D01*
X143433333Y-80605952D01*
X143814285Y-80605952D02*
X143585714Y-80605952D01*
X143700000Y-80605952D02*
X143700000Y-80205952D01*
X143661904Y-80263095D01*
X143623809Y-80301190D01*
X143585714Y-80320238D01*
X144195238Y-80605952D02*
X143966666Y-80605952D01*
X144080952Y-80605952D02*
X144080952Y-80205952D01*
X144042857Y-80263095D01*
X144004761Y-80301190D01*
X143966666Y-80320238D01*
%TO.C,R207*%
X156952380Y-81655952D02*
X156819047Y-81465476D01*
X156723809Y-81655952D02*
X156723809Y-81255952D01*
X156876190Y-81255952D01*
X156914285Y-81275000D01*
X156933333Y-81294047D01*
X156952380Y-81332142D01*
X156952380Y-81389285D01*
X156933333Y-81427380D01*
X156914285Y-81446428D01*
X156876190Y-81465476D01*
X156723809Y-81465476D01*
X157104761Y-81294047D02*
X157123809Y-81275000D01*
X157161904Y-81255952D01*
X157257142Y-81255952D01*
X157295238Y-81275000D01*
X157314285Y-81294047D01*
X157333333Y-81332142D01*
X157333333Y-81370238D01*
X157314285Y-81427380D01*
X157085714Y-81655952D01*
X157333333Y-81655952D01*
X157580952Y-81255952D02*
X157619047Y-81255952D01*
X157657142Y-81275000D01*
X157676190Y-81294047D01*
X157695238Y-81332142D01*
X157714285Y-81408333D01*
X157714285Y-81503571D01*
X157695238Y-81579761D01*
X157676190Y-81617857D01*
X157657142Y-81636904D01*
X157619047Y-81655952D01*
X157580952Y-81655952D01*
X157542857Y-81636904D01*
X157523809Y-81617857D01*
X157504761Y-81579761D01*
X157485714Y-81503571D01*
X157485714Y-81408333D01*
X157504761Y-81332142D01*
X157523809Y-81294047D01*
X157542857Y-81275000D01*
X157580952Y-81255952D01*
X157847619Y-81255952D02*
X158114285Y-81255952D01*
X157942857Y-81655952D01*
%TO.C,C202*%
X158092857Y-80347619D02*
X158111904Y-80366666D01*
X158130952Y-80423809D01*
X158130952Y-80461904D01*
X158111904Y-80519047D01*
X158073809Y-80557142D01*
X158035714Y-80576190D01*
X157959523Y-80595238D01*
X157902380Y-80595238D01*
X157826190Y-80576190D01*
X157788095Y-80557142D01*
X157750000Y-80519047D01*
X157730952Y-80461904D01*
X157730952Y-80423809D01*
X157750000Y-80366666D01*
X157769047Y-80347619D01*
X157769047Y-80195238D02*
X157750000Y-80176190D01*
X157730952Y-80138095D01*
X157730952Y-80042857D01*
X157750000Y-80004761D01*
X157769047Y-79985714D01*
X157807142Y-79966666D01*
X157845238Y-79966666D01*
X157902380Y-79985714D01*
X158130952Y-80214285D01*
X158130952Y-79966666D01*
X157730952Y-79719047D02*
X157730952Y-79680952D01*
X157750000Y-79642857D01*
X157769047Y-79623809D01*
X157807142Y-79604761D01*
X157883333Y-79585714D01*
X157978571Y-79585714D01*
X158054761Y-79604761D01*
X158092857Y-79623809D01*
X158111904Y-79642857D01*
X158130952Y-79680952D01*
X158130952Y-79719047D01*
X158111904Y-79757142D01*
X158092857Y-79776190D01*
X158054761Y-79795238D01*
X157978571Y-79814285D01*
X157883333Y-79814285D01*
X157807142Y-79795238D01*
X157769047Y-79776190D01*
X157750000Y-79757142D01*
X157730952Y-79719047D01*
X157769047Y-79433333D02*
X157750000Y-79414285D01*
X157730952Y-79376190D01*
X157730952Y-79280952D01*
X157750000Y-79242857D01*
X157769047Y-79223809D01*
X157807142Y-79204761D01*
X157845238Y-79204761D01*
X157902380Y-79223809D01*
X158130952Y-79452380D01*
X158130952Y-79204761D01*
%TO.C,R321*%
X138027380Y-86630952D02*
X137894047Y-86440476D01*
X137798809Y-86630952D02*
X137798809Y-86230952D01*
X137951190Y-86230952D01*
X137989285Y-86250000D01*
X138008333Y-86269047D01*
X138027380Y-86307142D01*
X138027380Y-86364285D01*
X138008333Y-86402380D01*
X137989285Y-86421428D01*
X137951190Y-86440476D01*
X137798809Y-86440476D01*
X138160714Y-86230952D02*
X138408333Y-86230952D01*
X138275000Y-86383333D01*
X138332142Y-86383333D01*
X138370238Y-86402380D01*
X138389285Y-86421428D01*
X138408333Y-86459523D01*
X138408333Y-86554761D01*
X138389285Y-86592857D01*
X138370238Y-86611904D01*
X138332142Y-86630952D01*
X138217857Y-86630952D01*
X138179761Y-86611904D01*
X138160714Y-86592857D01*
X138560714Y-86269047D02*
X138579761Y-86250000D01*
X138617857Y-86230952D01*
X138713095Y-86230952D01*
X138751190Y-86250000D01*
X138770238Y-86269047D01*
X138789285Y-86307142D01*
X138789285Y-86345238D01*
X138770238Y-86402380D01*
X138541666Y-86630952D01*
X138789285Y-86630952D01*
X139170238Y-86630952D02*
X138941666Y-86630952D01*
X139055952Y-86630952D02*
X139055952Y-86230952D01*
X139017857Y-86288095D01*
X138979761Y-86326190D01*
X138941666Y-86345238D01*
%TO.C,C206*%
X161527380Y-87067857D02*
X161508333Y-87086904D01*
X161451190Y-87105952D01*
X161413095Y-87105952D01*
X161355952Y-87086904D01*
X161317857Y-87048809D01*
X161298809Y-87010714D01*
X161279761Y-86934523D01*
X161279761Y-86877380D01*
X161298809Y-86801190D01*
X161317857Y-86763095D01*
X161355952Y-86725000D01*
X161413095Y-86705952D01*
X161451190Y-86705952D01*
X161508333Y-86725000D01*
X161527380Y-86744047D01*
X161679761Y-86744047D02*
X161698809Y-86725000D01*
X161736904Y-86705952D01*
X161832142Y-86705952D01*
X161870238Y-86725000D01*
X161889285Y-86744047D01*
X161908333Y-86782142D01*
X161908333Y-86820238D01*
X161889285Y-86877380D01*
X161660714Y-87105952D01*
X161908333Y-87105952D01*
X162155952Y-86705952D02*
X162194047Y-86705952D01*
X162232142Y-86725000D01*
X162251190Y-86744047D01*
X162270238Y-86782142D01*
X162289285Y-86858333D01*
X162289285Y-86953571D01*
X162270238Y-87029761D01*
X162251190Y-87067857D01*
X162232142Y-87086904D01*
X162194047Y-87105952D01*
X162155952Y-87105952D01*
X162117857Y-87086904D01*
X162098809Y-87067857D01*
X162079761Y-87029761D01*
X162060714Y-86953571D01*
X162060714Y-86858333D01*
X162079761Y-86782142D01*
X162098809Y-86744047D01*
X162117857Y-86725000D01*
X162155952Y-86705952D01*
X162632142Y-86705952D02*
X162555952Y-86705952D01*
X162517857Y-86725000D01*
X162498809Y-86744047D01*
X162460714Y-86801190D01*
X162441666Y-86877380D01*
X162441666Y-87029761D01*
X162460714Y-87067857D01*
X162479761Y-87086904D01*
X162517857Y-87105952D01*
X162594047Y-87105952D01*
X162632142Y-87086904D01*
X162651190Y-87067857D01*
X162670238Y-87029761D01*
X162670238Y-86934523D01*
X162651190Y-86896428D01*
X162632142Y-86877380D01*
X162594047Y-86858333D01*
X162517857Y-86858333D01*
X162479761Y-86877380D01*
X162460714Y-86896428D01*
X162441666Y-86934523D01*
%TO.C,D201*%
X159523809Y-74480952D02*
X159523809Y-74080952D01*
X159619047Y-74080952D01*
X159676190Y-74100000D01*
X159714285Y-74138095D01*
X159733333Y-74176190D01*
X159752380Y-74252380D01*
X159752380Y-74309523D01*
X159733333Y-74385714D01*
X159714285Y-74423809D01*
X159676190Y-74461904D01*
X159619047Y-74480952D01*
X159523809Y-74480952D01*
X159904761Y-74119047D02*
X159923809Y-74100000D01*
X159961904Y-74080952D01*
X160057142Y-74080952D01*
X160095238Y-74100000D01*
X160114285Y-74119047D01*
X160133333Y-74157142D01*
X160133333Y-74195238D01*
X160114285Y-74252380D01*
X159885714Y-74480952D01*
X160133333Y-74480952D01*
X160380952Y-74080952D02*
X160419047Y-74080952D01*
X160457142Y-74100000D01*
X160476190Y-74119047D01*
X160495238Y-74157142D01*
X160514285Y-74233333D01*
X160514285Y-74328571D01*
X160495238Y-74404761D01*
X160476190Y-74442857D01*
X160457142Y-74461904D01*
X160419047Y-74480952D01*
X160380952Y-74480952D01*
X160342857Y-74461904D01*
X160323809Y-74442857D01*
X160304761Y-74404761D01*
X160285714Y-74328571D01*
X160285714Y-74233333D01*
X160304761Y-74157142D01*
X160323809Y-74119047D01*
X160342857Y-74100000D01*
X160380952Y-74080952D01*
X160895238Y-74480952D02*
X160666666Y-74480952D01*
X160780952Y-74480952D02*
X160780952Y-74080952D01*
X160742857Y-74138095D01*
X160704761Y-74176190D01*
X160666666Y-74195238D01*
%TO.C,Q1*%
X155586904Y-94844047D02*
X155548809Y-94825000D01*
X155510714Y-94786904D01*
X155453571Y-94729761D01*
X155415476Y-94710714D01*
X155377380Y-94710714D01*
X155396428Y-94805952D02*
X155358333Y-94786904D01*
X155320238Y-94748809D01*
X155301190Y-94672619D01*
X155301190Y-94539285D01*
X155320238Y-94463095D01*
X155358333Y-94425000D01*
X155396428Y-94405952D01*
X155472619Y-94405952D01*
X155510714Y-94425000D01*
X155548809Y-94463095D01*
X155567857Y-94539285D01*
X155567857Y-94672619D01*
X155548809Y-94748809D01*
X155510714Y-94786904D01*
X155472619Y-94805952D01*
X155396428Y-94805952D01*
X155948809Y-94805952D02*
X155720238Y-94805952D01*
X155834523Y-94805952D02*
X155834523Y-94405952D01*
X155796428Y-94463095D01*
X155758333Y-94501190D01*
X155720238Y-94520238D01*
%TO.C,C304*%
X120404880Y-75417857D02*
X120385833Y-75436904D01*
X120328690Y-75455952D01*
X120290595Y-75455952D01*
X120233452Y-75436904D01*
X120195357Y-75398809D01*
X120176309Y-75360714D01*
X120157261Y-75284523D01*
X120157261Y-75227380D01*
X120176309Y-75151190D01*
X120195357Y-75113095D01*
X120233452Y-75075000D01*
X120290595Y-75055952D01*
X120328690Y-75055952D01*
X120385833Y-75075000D01*
X120404880Y-75094047D01*
X120538214Y-75055952D02*
X120785833Y-75055952D01*
X120652500Y-75208333D01*
X120709642Y-75208333D01*
X120747738Y-75227380D01*
X120766785Y-75246428D01*
X120785833Y-75284523D01*
X120785833Y-75379761D01*
X120766785Y-75417857D01*
X120747738Y-75436904D01*
X120709642Y-75455952D01*
X120595357Y-75455952D01*
X120557261Y-75436904D01*
X120538214Y-75417857D01*
X121033452Y-75055952D02*
X121071547Y-75055952D01*
X121109642Y-75075000D01*
X121128690Y-75094047D01*
X121147738Y-75132142D01*
X121166785Y-75208333D01*
X121166785Y-75303571D01*
X121147738Y-75379761D01*
X121128690Y-75417857D01*
X121109642Y-75436904D01*
X121071547Y-75455952D01*
X121033452Y-75455952D01*
X120995357Y-75436904D01*
X120976309Y-75417857D01*
X120957261Y-75379761D01*
X120938214Y-75303571D01*
X120938214Y-75208333D01*
X120957261Y-75132142D01*
X120976309Y-75094047D01*
X120995357Y-75075000D01*
X121033452Y-75055952D01*
X121509642Y-75189285D02*
X121509642Y-75455952D01*
X121414404Y-75036904D02*
X121319166Y-75322619D01*
X121566785Y-75322619D01*
%TO.C,Q4*%
X136001903Y-96849046D02*
X135963808Y-96829999D01*
X135925713Y-96791903D01*
X135868570Y-96734760D01*
X135830475Y-96715713D01*
X135792379Y-96715713D01*
X135811427Y-96810951D02*
X135773332Y-96791903D01*
X135735237Y-96753808D01*
X135716189Y-96677618D01*
X135716189Y-96544284D01*
X135735237Y-96468094D01*
X135773332Y-96429999D01*
X135811427Y-96410951D01*
X135887618Y-96410951D01*
X135925713Y-96429999D01*
X135963808Y-96468094D01*
X135982856Y-96544284D01*
X135982856Y-96677618D01*
X135963808Y-96753808D01*
X135925713Y-96791903D01*
X135887618Y-96810951D01*
X135811427Y-96810951D01*
X136325713Y-96544284D02*
X136325713Y-96810951D01*
X136230475Y-96391903D02*
X136135237Y-96677618D01*
X136382856Y-96677618D01*
%TO.C,R309*%
X137577380Y-75505952D02*
X137444047Y-75315476D01*
X137348809Y-75505952D02*
X137348809Y-75105952D01*
X137501190Y-75105952D01*
X137539285Y-75125000D01*
X137558333Y-75144047D01*
X137577380Y-75182142D01*
X137577380Y-75239285D01*
X137558333Y-75277380D01*
X137539285Y-75296428D01*
X137501190Y-75315476D01*
X137348809Y-75315476D01*
X137710714Y-75105952D02*
X137958333Y-75105952D01*
X137825000Y-75258333D01*
X137882142Y-75258333D01*
X137920238Y-75277380D01*
X137939285Y-75296428D01*
X137958333Y-75334523D01*
X137958333Y-75429761D01*
X137939285Y-75467857D01*
X137920238Y-75486904D01*
X137882142Y-75505952D01*
X137767857Y-75505952D01*
X137729761Y-75486904D01*
X137710714Y-75467857D01*
X138205952Y-75105952D02*
X138244047Y-75105952D01*
X138282142Y-75125000D01*
X138301190Y-75144047D01*
X138320238Y-75182142D01*
X138339285Y-75258333D01*
X138339285Y-75353571D01*
X138320238Y-75429761D01*
X138301190Y-75467857D01*
X138282142Y-75486904D01*
X138244047Y-75505952D01*
X138205952Y-75505952D01*
X138167857Y-75486904D01*
X138148809Y-75467857D01*
X138129761Y-75429761D01*
X138110714Y-75353571D01*
X138110714Y-75258333D01*
X138129761Y-75182142D01*
X138148809Y-75144047D01*
X138167857Y-75125000D01*
X138205952Y-75105952D01*
X138529761Y-75505952D02*
X138605952Y-75505952D01*
X138644047Y-75486904D01*
X138663095Y-75467857D01*
X138701190Y-75410714D01*
X138720238Y-75334523D01*
X138720238Y-75182142D01*
X138701190Y-75144047D01*
X138682142Y-75125000D01*
X138644047Y-75105952D01*
X138567857Y-75105952D01*
X138529761Y-75125000D01*
X138510714Y-75144047D01*
X138491666Y-75182142D01*
X138491666Y-75277380D01*
X138510714Y-75315476D01*
X138529761Y-75334523D01*
X138567857Y-75353571D01*
X138644047Y-75353571D01*
X138682142Y-75334523D01*
X138701190Y-75315476D01*
X138720238Y-75277380D01*
%TO.C,D301*%
X136338808Y-87635951D02*
X136338808Y-87235951D01*
X136434046Y-87235951D01*
X136491189Y-87254999D01*
X136529284Y-87293094D01*
X136548332Y-87331189D01*
X136567379Y-87407379D01*
X136567379Y-87464522D01*
X136548332Y-87540713D01*
X136529284Y-87578808D01*
X136491189Y-87616903D01*
X136434046Y-87635951D01*
X136338808Y-87635951D01*
X136700713Y-87235951D02*
X136948332Y-87235951D01*
X136814999Y-87388332D01*
X136872141Y-87388332D01*
X136910237Y-87407379D01*
X136929284Y-87426427D01*
X136948332Y-87464522D01*
X136948332Y-87559760D01*
X136929284Y-87597856D01*
X136910237Y-87616903D01*
X136872141Y-87635951D01*
X136757856Y-87635951D01*
X136719760Y-87616903D01*
X136700713Y-87597856D01*
X137195951Y-87235951D02*
X137234046Y-87235951D01*
X137272141Y-87254999D01*
X137291189Y-87274046D01*
X137310237Y-87312141D01*
X137329284Y-87388332D01*
X137329284Y-87483570D01*
X137310237Y-87559760D01*
X137291189Y-87597856D01*
X137272141Y-87616903D01*
X137234046Y-87635951D01*
X137195951Y-87635951D01*
X137157856Y-87616903D01*
X137138808Y-87597856D01*
X137119760Y-87559760D01*
X137100713Y-87483570D01*
X137100713Y-87388332D01*
X137119760Y-87312141D01*
X137138808Y-87274046D01*
X137157856Y-87254999D01*
X137195951Y-87235951D01*
X137710237Y-87635951D02*
X137481665Y-87635951D01*
X137595951Y-87635951D02*
X137595951Y-87235951D01*
X137557856Y-87293094D01*
X137519760Y-87331189D01*
X137481665Y-87350237D01*
%TO.C,R308*%
X117327380Y-89880952D02*
X117194047Y-89690476D01*
X117098809Y-89880952D02*
X117098809Y-89480952D01*
X117251190Y-89480952D01*
X117289285Y-89500000D01*
X117308333Y-89519047D01*
X117327380Y-89557142D01*
X117327380Y-89614285D01*
X117308333Y-89652380D01*
X117289285Y-89671428D01*
X117251190Y-89690476D01*
X117098809Y-89690476D01*
X117460714Y-89480952D02*
X117708333Y-89480952D01*
X117575000Y-89633333D01*
X117632142Y-89633333D01*
X117670238Y-89652380D01*
X117689285Y-89671428D01*
X117708333Y-89709523D01*
X117708333Y-89804761D01*
X117689285Y-89842857D01*
X117670238Y-89861904D01*
X117632142Y-89880952D01*
X117517857Y-89880952D01*
X117479761Y-89861904D01*
X117460714Y-89842857D01*
X117955952Y-89480952D02*
X117994047Y-89480952D01*
X118032142Y-89500000D01*
X118051190Y-89519047D01*
X118070238Y-89557142D01*
X118089285Y-89633333D01*
X118089285Y-89728571D01*
X118070238Y-89804761D01*
X118051190Y-89842857D01*
X118032142Y-89861904D01*
X117994047Y-89880952D01*
X117955952Y-89880952D01*
X117917857Y-89861904D01*
X117898809Y-89842857D01*
X117879761Y-89804761D01*
X117860714Y-89728571D01*
X117860714Y-89633333D01*
X117879761Y-89557142D01*
X117898809Y-89519047D01*
X117917857Y-89500000D01*
X117955952Y-89480952D01*
X118317857Y-89652380D02*
X118279761Y-89633333D01*
X118260714Y-89614285D01*
X118241666Y-89576190D01*
X118241666Y-89557142D01*
X118260714Y-89519047D01*
X118279761Y-89500000D01*
X118317857Y-89480952D01*
X118394047Y-89480952D01*
X118432142Y-89500000D01*
X118451190Y-89519047D01*
X118470238Y-89557142D01*
X118470238Y-89576190D01*
X118451190Y-89614285D01*
X118432142Y-89633333D01*
X118394047Y-89652380D01*
X118317857Y-89652380D01*
X118279761Y-89671428D01*
X118260714Y-89690476D01*
X118241666Y-89728571D01*
X118241666Y-89804761D01*
X118260714Y-89842857D01*
X118279761Y-89861904D01*
X118317857Y-89880952D01*
X118394047Y-89880952D01*
X118432142Y-89861904D01*
X118451190Y-89842857D01*
X118470238Y-89804761D01*
X118470238Y-89728571D01*
X118451190Y-89690476D01*
X118432142Y-89671428D01*
X118394047Y-89652380D01*
%TO.C,R211*%
X147477380Y-80755952D02*
X147344047Y-80565476D01*
X147248809Y-80755952D02*
X147248809Y-80355952D01*
X147401190Y-80355952D01*
X147439285Y-80375000D01*
X147458333Y-80394047D01*
X147477380Y-80432142D01*
X147477380Y-80489285D01*
X147458333Y-80527380D01*
X147439285Y-80546428D01*
X147401190Y-80565476D01*
X147248809Y-80565476D01*
X147629761Y-80394047D02*
X147648809Y-80375000D01*
X147686904Y-80355952D01*
X147782142Y-80355952D01*
X147820238Y-80375000D01*
X147839285Y-80394047D01*
X147858333Y-80432142D01*
X147858333Y-80470238D01*
X147839285Y-80527380D01*
X147610714Y-80755952D01*
X147858333Y-80755952D01*
X148239285Y-80755952D02*
X148010714Y-80755952D01*
X148125000Y-80755952D02*
X148125000Y-80355952D01*
X148086904Y-80413095D01*
X148048809Y-80451190D01*
X148010714Y-80470238D01*
X148620238Y-80755952D02*
X148391666Y-80755952D01*
X148505952Y-80755952D02*
X148505952Y-80355952D01*
X148467857Y-80413095D01*
X148429761Y-80451190D01*
X148391666Y-80470238D01*
%TO.C,R314*%
X119652380Y-97280952D02*
X119519047Y-97090476D01*
X119423809Y-97280952D02*
X119423809Y-96880952D01*
X119576190Y-96880952D01*
X119614285Y-96900000D01*
X119633333Y-96919047D01*
X119652380Y-96957142D01*
X119652380Y-97014285D01*
X119633333Y-97052380D01*
X119614285Y-97071428D01*
X119576190Y-97090476D01*
X119423809Y-97090476D01*
X119785714Y-96880952D02*
X120033333Y-96880952D01*
X119900000Y-97033333D01*
X119957142Y-97033333D01*
X119995238Y-97052380D01*
X120014285Y-97071428D01*
X120033333Y-97109523D01*
X120033333Y-97204761D01*
X120014285Y-97242857D01*
X119995238Y-97261904D01*
X119957142Y-97280952D01*
X119842857Y-97280952D01*
X119804761Y-97261904D01*
X119785714Y-97242857D01*
X120414285Y-97280952D02*
X120185714Y-97280952D01*
X120300000Y-97280952D02*
X120300000Y-96880952D01*
X120261904Y-96938095D01*
X120223809Y-96976190D01*
X120185714Y-96995238D01*
X120757142Y-97014285D02*
X120757142Y-97280952D01*
X120661904Y-96861904D02*
X120566666Y-97147619D01*
X120814285Y-97147619D01*
%TO.C,R306*%
X117904880Y-77430952D02*
X117771547Y-77240476D01*
X117676309Y-77430952D02*
X117676309Y-77030952D01*
X117828690Y-77030952D01*
X117866785Y-77050000D01*
X117885833Y-77069047D01*
X117904880Y-77107142D01*
X117904880Y-77164285D01*
X117885833Y-77202380D01*
X117866785Y-77221428D01*
X117828690Y-77240476D01*
X117676309Y-77240476D01*
X118038214Y-77030952D02*
X118285833Y-77030952D01*
X118152500Y-77183333D01*
X118209642Y-77183333D01*
X118247738Y-77202380D01*
X118266785Y-77221428D01*
X118285833Y-77259523D01*
X118285833Y-77354761D01*
X118266785Y-77392857D01*
X118247738Y-77411904D01*
X118209642Y-77430952D01*
X118095357Y-77430952D01*
X118057261Y-77411904D01*
X118038214Y-77392857D01*
X118533452Y-77030952D02*
X118571547Y-77030952D01*
X118609642Y-77050000D01*
X118628690Y-77069047D01*
X118647738Y-77107142D01*
X118666785Y-77183333D01*
X118666785Y-77278571D01*
X118647738Y-77354761D01*
X118628690Y-77392857D01*
X118609642Y-77411904D01*
X118571547Y-77430952D01*
X118533452Y-77430952D01*
X118495357Y-77411904D01*
X118476309Y-77392857D01*
X118457261Y-77354761D01*
X118438214Y-77278571D01*
X118438214Y-77183333D01*
X118457261Y-77107142D01*
X118476309Y-77069047D01*
X118495357Y-77050000D01*
X118533452Y-77030952D01*
X119009642Y-77030952D02*
X118933452Y-77030952D01*
X118895357Y-77050000D01*
X118876309Y-77069047D01*
X118838214Y-77126190D01*
X118819166Y-77202380D01*
X118819166Y-77354761D01*
X118838214Y-77392857D01*
X118857261Y-77411904D01*
X118895357Y-77430952D01*
X118971547Y-77430952D01*
X119009642Y-77411904D01*
X119028690Y-77392857D01*
X119047738Y-77354761D01*
X119047738Y-77259523D01*
X119028690Y-77221428D01*
X119009642Y-77202380D01*
X118971547Y-77183333D01*
X118895357Y-77183333D01*
X118857261Y-77202380D01*
X118838214Y-77221428D01*
X118819166Y-77259523D01*
%TO.C,R202*%
X156252380Y-75080952D02*
X156119047Y-74890476D01*
X156023809Y-75080952D02*
X156023809Y-74680952D01*
X156176190Y-74680952D01*
X156214285Y-74700000D01*
X156233333Y-74719047D01*
X156252380Y-74757142D01*
X156252380Y-74814285D01*
X156233333Y-74852380D01*
X156214285Y-74871428D01*
X156176190Y-74890476D01*
X156023809Y-74890476D01*
X156404761Y-74719047D02*
X156423809Y-74700000D01*
X156461904Y-74680952D01*
X156557142Y-74680952D01*
X156595238Y-74700000D01*
X156614285Y-74719047D01*
X156633333Y-74757142D01*
X156633333Y-74795238D01*
X156614285Y-74852380D01*
X156385714Y-75080952D01*
X156633333Y-75080952D01*
X156880952Y-74680952D02*
X156919047Y-74680952D01*
X156957142Y-74700000D01*
X156976190Y-74719047D01*
X156995238Y-74757142D01*
X157014285Y-74833333D01*
X157014285Y-74928571D01*
X156995238Y-75004761D01*
X156976190Y-75042857D01*
X156957142Y-75061904D01*
X156919047Y-75080952D01*
X156880952Y-75080952D01*
X156842857Y-75061904D01*
X156823809Y-75042857D01*
X156804761Y-75004761D01*
X156785714Y-74928571D01*
X156785714Y-74833333D01*
X156804761Y-74757142D01*
X156823809Y-74719047D01*
X156842857Y-74700000D01*
X156880952Y-74680952D01*
X157166666Y-74719047D02*
X157185714Y-74700000D01*
X157223809Y-74680952D01*
X157319047Y-74680952D01*
X157357142Y-74700000D01*
X157376190Y-74719047D01*
X157395238Y-74757142D01*
X157395238Y-74795238D01*
X157376190Y-74852380D01*
X157147619Y-75080952D01*
X157395238Y-75080952D01*
%TO.C,R201*%
X156252380Y-74030952D02*
X156119047Y-73840476D01*
X156023809Y-74030952D02*
X156023809Y-73630952D01*
X156176190Y-73630952D01*
X156214285Y-73650000D01*
X156233333Y-73669047D01*
X156252380Y-73707142D01*
X156252380Y-73764285D01*
X156233333Y-73802380D01*
X156214285Y-73821428D01*
X156176190Y-73840476D01*
X156023809Y-73840476D01*
X156404761Y-73669047D02*
X156423809Y-73650000D01*
X156461904Y-73630952D01*
X156557142Y-73630952D01*
X156595238Y-73650000D01*
X156614285Y-73669047D01*
X156633333Y-73707142D01*
X156633333Y-73745238D01*
X156614285Y-73802380D01*
X156385714Y-74030952D01*
X156633333Y-74030952D01*
X156880952Y-73630952D02*
X156919047Y-73630952D01*
X156957142Y-73650000D01*
X156976190Y-73669047D01*
X156995238Y-73707142D01*
X157014285Y-73783333D01*
X157014285Y-73878571D01*
X156995238Y-73954761D01*
X156976190Y-73992857D01*
X156957142Y-74011904D01*
X156919047Y-74030952D01*
X156880952Y-74030952D01*
X156842857Y-74011904D01*
X156823809Y-73992857D01*
X156804761Y-73954761D01*
X156785714Y-73878571D01*
X156785714Y-73783333D01*
X156804761Y-73707142D01*
X156823809Y-73669047D01*
X156842857Y-73650000D01*
X156880952Y-73630952D01*
X157395238Y-74030952D02*
X157166666Y-74030952D01*
X157280952Y-74030952D02*
X157280952Y-73630952D01*
X157242857Y-73688095D01*
X157204761Y-73726190D01*
X157166666Y-73745238D01*
%TO.C,R317*%
X134642379Y-87635951D02*
X134509046Y-87445475D01*
X134413808Y-87635951D02*
X134413808Y-87235951D01*
X134566189Y-87235951D01*
X134604284Y-87254999D01*
X134623332Y-87274046D01*
X134642379Y-87312141D01*
X134642379Y-87369284D01*
X134623332Y-87407379D01*
X134604284Y-87426427D01*
X134566189Y-87445475D01*
X134413808Y-87445475D01*
X134775713Y-87235951D02*
X135023332Y-87235951D01*
X134889999Y-87388332D01*
X134947141Y-87388332D01*
X134985237Y-87407379D01*
X135004284Y-87426427D01*
X135023332Y-87464522D01*
X135023332Y-87559760D01*
X135004284Y-87597856D01*
X134985237Y-87616903D01*
X134947141Y-87635951D01*
X134832856Y-87635951D01*
X134794760Y-87616903D01*
X134775713Y-87597856D01*
X135404284Y-87635951D02*
X135175713Y-87635951D01*
X135289999Y-87635951D02*
X135289999Y-87235951D01*
X135251903Y-87293094D01*
X135213808Y-87331189D01*
X135175713Y-87350237D01*
X135537618Y-87235951D02*
X135804284Y-87235951D01*
X135632856Y-87635951D01*
%TO.C,JP301*%
X122935714Y-72680952D02*
X122935714Y-72966666D01*
X122916666Y-73023809D01*
X122878571Y-73061904D01*
X122821428Y-73080952D01*
X122783333Y-73080952D01*
X123126190Y-73080952D02*
X123126190Y-72680952D01*
X123278571Y-72680952D01*
X123316666Y-72700000D01*
X123335714Y-72719047D01*
X123354761Y-72757142D01*
X123354761Y-72814285D01*
X123335714Y-72852380D01*
X123316666Y-72871428D01*
X123278571Y-72890476D01*
X123126190Y-72890476D01*
X123488095Y-72680952D02*
X123735714Y-72680952D01*
X123602380Y-72833333D01*
X123659523Y-72833333D01*
X123697619Y-72852380D01*
X123716666Y-72871428D01*
X123735714Y-72909523D01*
X123735714Y-73004761D01*
X123716666Y-73042857D01*
X123697619Y-73061904D01*
X123659523Y-73080952D01*
X123545238Y-73080952D01*
X123507142Y-73061904D01*
X123488095Y-73042857D01*
X123983333Y-72680952D02*
X124021428Y-72680952D01*
X124059523Y-72700000D01*
X124078571Y-72719047D01*
X124097619Y-72757142D01*
X124116666Y-72833333D01*
X124116666Y-72928571D01*
X124097619Y-73004761D01*
X124078571Y-73042857D01*
X124059523Y-73061904D01*
X124021428Y-73080952D01*
X123983333Y-73080952D01*
X123945238Y-73061904D01*
X123926190Y-73042857D01*
X123907142Y-73004761D01*
X123888095Y-72928571D01*
X123888095Y-72833333D01*
X123907142Y-72757142D01*
X123926190Y-72719047D01*
X123945238Y-72700000D01*
X123983333Y-72680952D01*
X124497619Y-73080952D02*
X124269047Y-73080952D01*
X124383333Y-73080952D02*
X124383333Y-72680952D01*
X124345238Y-72738095D01*
X124307142Y-72776190D01*
X124269047Y-72795238D01*
%TO.C,R310*%
X118767379Y-96435951D02*
X118634046Y-96245475D01*
X118538808Y-96435951D02*
X118538808Y-96035951D01*
X118691189Y-96035951D01*
X118729284Y-96054999D01*
X118748332Y-96074046D01*
X118767379Y-96112141D01*
X118767379Y-96169284D01*
X118748332Y-96207379D01*
X118729284Y-96226427D01*
X118691189Y-96245475D01*
X118538808Y-96245475D01*
X118900713Y-96035951D02*
X119148332Y-96035951D01*
X119014999Y-96188332D01*
X119072141Y-96188332D01*
X119110237Y-96207379D01*
X119129284Y-96226427D01*
X119148332Y-96264522D01*
X119148332Y-96359760D01*
X119129284Y-96397856D01*
X119110237Y-96416903D01*
X119072141Y-96435951D01*
X118957856Y-96435951D01*
X118919760Y-96416903D01*
X118900713Y-96397856D01*
X119529284Y-96435951D02*
X119300713Y-96435951D01*
X119414999Y-96435951D02*
X119414999Y-96035951D01*
X119376903Y-96093094D01*
X119338808Y-96131189D01*
X119300713Y-96150237D01*
X119776903Y-96035951D02*
X119814999Y-96035951D01*
X119853094Y-96054999D01*
X119872141Y-96074046D01*
X119891189Y-96112141D01*
X119910237Y-96188332D01*
X119910237Y-96283570D01*
X119891189Y-96359760D01*
X119872141Y-96397856D01*
X119853094Y-96416903D01*
X119814999Y-96435951D01*
X119776903Y-96435951D01*
X119738808Y-96416903D01*
X119719760Y-96397856D01*
X119700713Y-96359760D01*
X119681665Y-96283570D01*
X119681665Y-96188332D01*
X119700713Y-96112141D01*
X119719760Y-96074046D01*
X119738808Y-96054999D01*
X119776903Y-96035951D01*
%TO.C,C307*%
X128452380Y-73242857D02*
X128433333Y-73261904D01*
X128376190Y-73280952D01*
X128338095Y-73280952D01*
X128280952Y-73261904D01*
X128242857Y-73223809D01*
X128223809Y-73185714D01*
X128204761Y-73109523D01*
X128204761Y-73052380D01*
X128223809Y-72976190D01*
X128242857Y-72938095D01*
X128280952Y-72900000D01*
X128338095Y-72880952D01*
X128376190Y-72880952D01*
X128433333Y-72900000D01*
X128452380Y-72919047D01*
X128585714Y-72880952D02*
X128833333Y-72880952D01*
X128700000Y-73033333D01*
X128757142Y-73033333D01*
X128795238Y-73052380D01*
X128814285Y-73071428D01*
X128833333Y-73109523D01*
X128833333Y-73204761D01*
X128814285Y-73242857D01*
X128795238Y-73261904D01*
X128757142Y-73280952D01*
X128642857Y-73280952D01*
X128604761Y-73261904D01*
X128585714Y-73242857D01*
X129080952Y-72880952D02*
X129119047Y-72880952D01*
X129157142Y-72900000D01*
X129176190Y-72919047D01*
X129195238Y-72957142D01*
X129214285Y-73033333D01*
X129214285Y-73128571D01*
X129195238Y-73204761D01*
X129176190Y-73242857D01*
X129157142Y-73261904D01*
X129119047Y-73280952D01*
X129080952Y-73280952D01*
X129042857Y-73261904D01*
X129023809Y-73242857D01*
X129004761Y-73204761D01*
X128985714Y-73128571D01*
X128985714Y-73033333D01*
X129004761Y-72957142D01*
X129023809Y-72919047D01*
X129042857Y-72900000D01*
X129080952Y-72880952D01*
X129347619Y-72880952D02*
X129614285Y-72880952D01*
X129442857Y-73280952D01*
%TO.C,D202*%
X159523809Y-75005952D02*
X159523809Y-74605952D01*
X159619047Y-74605952D01*
X159676190Y-74625000D01*
X159714285Y-74663095D01*
X159733333Y-74701190D01*
X159752380Y-74777380D01*
X159752380Y-74834523D01*
X159733333Y-74910714D01*
X159714285Y-74948809D01*
X159676190Y-74986904D01*
X159619047Y-75005952D01*
X159523809Y-75005952D01*
X159904761Y-74644047D02*
X159923809Y-74625000D01*
X159961904Y-74605952D01*
X160057142Y-74605952D01*
X160095238Y-74625000D01*
X160114285Y-74644047D01*
X160133333Y-74682142D01*
X160133333Y-74720238D01*
X160114285Y-74777380D01*
X159885714Y-75005952D01*
X160133333Y-75005952D01*
X160380952Y-74605952D02*
X160419047Y-74605952D01*
X160457142Y-74625000D01*
X160476190Y-74644047D01*
X160495238Y-74682142D01*
X160514285Y-74758333D01*
X160514285Y-74853571D01*
X160495238Y-74929761D01*
X160476190Y-74967857D01*
X160457142Y-74986904D01*
X160419047Y-75005952D01*
X160380952Y-75005952D01*
X160342857Y-74986904D01*
X160323809Y-74967857D01*
X160304761Y-74929761D01*
X160285714Y-74853571D01*
X160285714Y-74758333D01*
X160304761Y-74682142D01*
X160323809Y-74644047D01*
X160342857Y-74625000D01*
X160380952Y-74605952D01*
X160666666Y-74644047D02*
X160685714Y-74625000D01*
X160723809Y-74605952D01*
X160819047Y-74605952D01*
X160857142Y-74625000D01*
X160876190Y-74644047D01*
X160895238Y-74682142D01*
X160895238Y-74720238D01*
X160876190Y-74777380D01*
X160647619Y-75005952D01*
X160895238Y-75005952D01*
%TO.C,C302*%
X120404880Y-74367857D02*
X120385833Y-74386904D01*
X120328690Y-74405952D01*
X120290595Y-74405952D01*
X120233452Y-74386904D01*
X120195357Y-74348809D01*
X120176309Y-74310714D01*
X120157261Y-74234523D01*
X120157261Y-74177380D01*
X120176309Y-74101190D01*
X120195357Y-74063095D01*
X120233452Y-74025000D01*
X120290595Y-74005952D01*
X120328690Y-74005952D01*
X120385833Y-74025000D01*
X120404880Y-74044047D01*
X120538214Y-74005952D02*
X120785833Y-74005952D01*
X120652500Y-74158333D01*
X120709642Y-74158333D01*
X120747738Y-74177380D01*
X120766785Y-74196428D01*
X120785833Y-74234523D01*
X120785833Y-74329761D01*
X120766785Y-74367857D01*
X120747738Y-74386904D01*
X120709642Y-74405952D01*
X120595357Y-74405952D01*
X120557261Y-74386904D01*
X120538214Y-74367857D01*
X121033452Y-74005952D02*
X121071547Y-74005952D01*
X121109642Y-74025000D01*
X121128690Y-74044047D01*
X121147738Y-74082142D01*
X121166785Y-74158333D01*
X121166785Y-74253571D01*
X121147738Y-74329761D01*
X121128690Y-74367857D01*
X121109642Y-74386904D01*
X121071547Y-74405952D01*
X121033452Y-74405952D01*
X120995357Y-74386904D01*
X120976309Y-74367857D01*
X120957261Y-74329761D01*
X120938214Y-74253571D01*
X120938214Y-74158333D01*
X120957261Y-74082142D01*
X120976309Y-74044047D01*
X120995357Y-74025000D01*
X121033452Y-74005952D01*
X121319166Y-74044047D02*
X121338214Y-74025000D01*
X121376309Y-74005952D01*
X121471547Y-74005952D01*
X121509642Y-74025000D01*
X121528690Y-74044047D01*
X121547738Y-74082142D01*
X121547738Y-74120238D01*
X121528690Y-74177380D01*
X121300119Y-74405952D01*
X121547738Y-74405952D01*
%TO.C,U201*%
X149014285Y-80705952D02*
X149014285Y-81029761D01*
X149033333Y-81067857D01*
X149052380Y-81086904D01*
X149090476Y-81105952D01*
X149166666Y-81105952D01*
X149204761Y-81086904D01*
X149223809Y-81067857D01*
X149242857Y-81029761D01*
X149242857Y-80705952D01*
X149414285Y-80744047D02*
X149433333Y-80725000D01*
X149471428Y-80705952D01*
X149566666Y-80705952D01*
X149604761Y-80725000D01*
X149623809Y-80744047D01*
X149642857Y-80782142D01*
X149642857Y-80820238D01*
X149623809Y-80877380D01*
X149395238Y-81105952D01*
X149642857Y-81105952D01*
X149890476Y-80705952D02*
X149928571Y-80705952D01*
X149966666Y-80725000D01*
X149985714Y-80744047D01*
X150004761Y-80782142D01*
X150023809Y-80858333D01*
X150023809Y-80953571D01*
X150004761Y-81029761D01*
X149985714Y-81067857D01*
X149966666Y-81086904D01*
X149928571Y-81105952D01*
X149890476Y-81105952D01*
X149852380Y-81086904D01*
X149833333Y-81067857D01*
X149814285Y-81029761D01*
X149795238Y-80953571D01*
X149795238Y-80858333D01*
X149814285Y-80782142D01*
X149833333Y-80744047D01*
X149852380Y-80725000D01*
X149890476Y-80705952D01*
X150404761Y-81105952D02*
X150176190Y-81105952D01*
X150290476Y-81105952D02*
X150290476Y-80705952D01*
X150252380Y-80763095D01*
X150214285Y-80801190D01*
X150176190Y-80820238D01*
%TO.C,kibuzzard-623A4100*%
G36*
X133492650Y-72730130D02*
G01*
X125360770Y-72730130D01*
X124921650Y-72071450D01*
X125873400Y-72071450D01*
X125942615Y-72071450D01*
X125942615Y-71849200D01*
X126055645Y-71849200D01*
X126055645Y-72071450D01*
X126127400Y-72071450D01*
X126127400Y-71792685D01*
X126219475Y-71792685D01*
X126303930Y-71792685D01*
X126303930Y-72071450D01*
X126375050Y-72071450D01*
X126375050Y-71896825D01*
X126508400Y-71896825D01*
X126511787Y-71946302D01*
X126521947Y-71986783D01*
X126538880Y-72018269D01*
X126562587Y-72040758D01*
X126593067Y-72054252D01*
X126630320Y-72058750D01*
X126659212Y-72055575D01*
X126686200Y-72046050D01*
X126686200Y-72055575D01*
X126677389Y-72101295D01*
X126650957Y-72135585D01*
X126624041Y-72151460D01*
X126590280Y-72160985D01*
X126549675Y-72164160D01*
X126549675Y-72217500D01*
X126595851Y-72214643D01*
X126612450Y-72211150D01*
X130008520Y-72211150D01*
X130078370Y-72211150D01*
X130078370Y-72169875D01*
X131639200Y-72169875D01*
X131810650Y-72169875D01*
X131810650Y-72124155D01*
X131703970Y-72124155D01*
X131703970Y-72071450D01*
X131881770Y-72071450D01*
X131952890Y-72071450D01*
X131977020Y-71949530D01*
X132085605Y-71949530D01*
X132109735Y-72071450D01*
X132183395Y-72071450D01*
X132073540Y-71607900D01*
X131990990Y-71607900D01*
X131881770Y-72071450D01*
X131703970Y-72071450D01*
X131703970Y-71628220D01*
X131810650Y-71628220D01*
X131810650Y-71582500D01*
X132255150Y-71582500D01*
X132255150Y-71628220D01*
X132361830Y-71628220D01*
X132361830Y-72124155D01*
X132255150Y-72124155D01*
X132255150Y-72169875D01*
X132426600Y-72169875D01*
X132426600Y-71582500D01*
X132255150Y-71582500D01*
X131810650Y-71582500D01*
X131639200Y-71582500D01*
X131639200Y-72169875D01*
X130078370Y-72169875D01*
X130078370Y-72065100D01*
X130105358Y-72074625D01*
X130134250Y-72077800D01*
X130171503Y-72073038D01*
X130201983Y-72058750D01*
X130225690Y-72034938D01*
X130242623Y-72001600D01*
X130249848Y-71971120D01*
X130321575Y-71971120D01*
X130330068Y-72016205D01*
X130355548Y-72049860D01*
X130381336Y-72065382D01*
X130413403Y-72074696D01*
X130451750Y-72077800D01*
X130490344Y-72075542D01*
X130527386Y-72068769D01*
X130562875Y-72057480D01*
X130562875Y-71860630D01*
X130560159Y-71816180D01*
X130557528Y-71805385D01*
X130639075Y-71805385D01*
X130704480Y-71805385D01*
X130704480Y-71976200D01*
X130710116Y-72025413D01*
X130727023Y-72056210D01*
X130758376Y-72072403D01*
X130807350Y-72077800D01*
X130842434Y-72075895D01*
X130867005Y-72071450D01*
X130962925Y-72071450D01*
X131032775Y-72071450D01*
X131032775Y-71812370D01*
X131058651Y-71793320D01*
X131088020Y-71786970D01*
X131126755Y-71802845D01*
X131134375Y-71827134D01*
X131136915Y-71868250D01*
X131136280Y-72071450D01*
X131204225Y-72071450D01*
X131204225Y-71850470D01*
X131198351Y-71797527D01*
X131180730Y-71761887D01*
X131150250Y-71741647D01*
X131105800Y-71734900D01*
X131068494Y-71739662D01*
X131032775Y-71753950D01*
X131032775Y-71595200D01*
X130962925Y-71595200D01*
X130962925Y-72071450D01*
X130867005Y-72071450D01*
X130874025Y-72070180D01*
X130874025Y-72012395D01*
X130846879Y-72019539D01*
X130820050Y-72021920D01*
X130781950Y-72011443D01*
X130773695Y-71963500D01*
X130773695Y-71805385D01*
X130880375Y-71805385D01*
X130880375Y-71753950D01*
X130773695Y-71753950D01*
X130773695Y-71633300D01*
X130704480Y-71633300D01*
X130704480Y-71753950D01*
X130639075Y-71753950D01*
X130639075Y-71805385D01*
X130557528Y-71805385D01*
X130552009Y-71782737D01*
X130538428Y-71760300D01*
X130502629Y-71741250D01*
X130444130Y-71734900D01*
X130409981Y-71737158D01*
X130374421Y-71743931D01*
X130337450Y-71755220D01*
X130337450Y-71809830D01*
X130374280Y-71797130D01*
X130408570Y-71789510D01*
X130440320Y-71786970D01*
X130483818Y-71798717D01*
X130493660Y-71847930D01*
X130493660Y-71858725D01*
X130475880Y-71858725D01*
X130428573Y-71861935D01*
X130389943Y-71871566D01*
X130359993Y-71887617D01*
X130331179Y-71922939D01*
X130321575Y-71971120D01*
X130249848Y-71971120D01*
X130252783Y-71958738D01*
X130256170Y-71906350D01*
X130252466Y-71850787D01*
X130241353Y-71806867D01*
X130222833Y-71774587D01*
X130196198Y-71752539D01*
X130160744Y-71739310D01*
X130116470Y-71734900D01*
X130078511Y-71737158D01*
X130042528Y-71743931D01*
X130008520Y-71755220D01*
X130008520Y-72211150D01*
X126612450Y-72211150D01*
X126636591Y-72206070D01*
X126671893Y-72191783D01*
X126701757Y-72171780D01*
X126731920Y-72137490D01*
X126750017Y-72095580D01*
X126752956Y-72071450D01*
X126835425Y-72071450D01*
X126905275Y-72071450D01*
X126905275Y-71812370D01*
X126931151Y-71793320D01*
X126960520Y-71786970D01*
X126999255Y-71802845D01*
X127006875Y-71827134D01*
X127009415Y-71868250D01*
X127008780Y-72071450D01*
X127076725Y-72071450D01*
X127076725Y-71906350D01*
X127465345Y-71906350D01*
X127469719Y-71958420D01*
X127482843Y-72001177D01*
X127504715Y-72034620D01*
X127534560Y-72058609D01*
X127571602Y-72073002D01*
X127615840Y-72077800D01*
X127655686Y-72073831D01*
X127693945Y-72061925D01*
X127693945Y-72009855D01*
X127658385Y-72023666D01*
X127624095Y-72028270D01*
X127587741Y-72020650D01*
X127559960Y-71997790D01*
X127545570Y-71966675D01*
X127787925Y-71966675D01*
X127794434Y-72020650D01*
X127813960Y-72054305D01*
X127836397Y-72067358D01*
X127868993Y-72075189D01*
X127911750Y-72077800D01*
X127952602Y-72074837D01*
X127966714Y-72071450D01*
X128125745Y-72071450D01*
X128195595Y-72071450D01*
X128443245Y-72071450D01*
X128513095Y-72071450D01*
X128512700Y-71906350D01*
X128728995Y-71906350D01*
X128733052Y-71958738D01*
X128745223Y-72001600D01*
X128765507Y-72034938D01*
X128793906Y-72058750D01*
X128830419Y-72073038D01*
X128875045Y-72077800D01*
X128919336Y-72073831D01*
X128928638Y-72071450D01*
X129054750Y-72071450D01*
X129124600Y-72071450D01*
X129124600Y-71800940D01*
X129167780Y-71786970D01*
X129214770Y-71799670D01*
X129227470Y-71846025D01*
X129227470Y-72071450D01*
X129296050Y-72071450D01*
X129296050Y-71849200D01*
X129290928Y-71805385D01*
X129369075Y-71805385D01*
X129434480Y-71805385D01*
X129434480Y-71976200D01*
X129440116Y-72025413D01*
X129457023Y-72056210D01*
X129488376Y-72072403D01*
X129537350Y-72077800D01*
X129572434Y-72075895D01*
X129604025Y-72070180D01*
X129604025Y-72012395D01*
X129576879Y-72019539D01*
X129550050Y-72021920D01*
X129511950Y-72011443D01*
X129503695Y-71963500D01*
X129503695Y-71805385D01*
X129610375Y-71805385D01*
X129610375Y-71753950D01*
X129503695Y-71753950D01*
X129503695Y-71633300D01*
X129434480Y-71633300D01*
X129434480Y-71753950D01*
X129369075Y-71753950D01*
X129369075Y-71805385D01*
X129290928Y-71805385D01*
X129289462Y-71792844D01*
X129269698Y-71758395D01*
X129246449Y-71745342D01*
X129211842Y-71737511D01*
X129165875Y-71734900D01*
X129125023Y-71737863D01*
X129087982Y-71746753D01*
X129054750Y-71761570D01*
X129054750Y-72071450D01*
X128928638Y-72071450D01*
X128965850Y-72061925D01*
X128965850Y-72009220D01*
X128922352Y-72022079D01*
X128883300Y-72026365D01*
X128849248Y-72020888D01*
X128824562Y-72004458D01*
X128808767Y-71975009D01*
X128801385Y-71930480D01*
X128981725Y-71930480D01*
X128982995Y-71905080D01*
X128979679Y-71850858D01*
X128969731Y-71807572D01*
X128953150Y-71775222D01*
X128929796Y-71752821D01*
X128899528Y-71739380D01*
X128862345Y-71734900D01*
X128821599Y-71739662D01*
X128788262Y-71753950D01*
X128762332Y-71777762D01*
X128743812Y-71811100D01*
X128732699Y-71853962D01*
X128728995Y-71906350D01*
X128512700Y-71906350D01*
X128512460Y-71806020D01*
X128557404Y-71795789D01*
X128604182Y-71789651D01*
X128652795Y-71787605D01*
X128652795Y-71734900D01*
X128609463Y-71736221D01*
X128566841Y-71740183D01*
X128524931Y-71746787D01*
X128483733Y-71756033D01*
X128443245Y-71767920D01*
X128443245Y-72071450D01*
X128195595Y-72071450D01*
X128194960Y-71806020D01*
X128239904Y-71795789D01*
X128286682Y-71789651D01*
X128335295Y-71787605D01*
X128335295Y-71734900D01*
X128291963Y-71736221D01*
X128249341Y-71740183D01*
X128207431Y-71746787D01*
X128166233Y-71756033D01*
X128125745Y-71767920D01*
X128125745Y-72071450D01*
X127966714Y-72071450D01*
X127989643Y-72065947D01*
X128022875Y-72051130D01*
X128022875Y-71741250D01*
X127953025Y-71741250D01*
X127953660Y-72013030D01*
X127910480Y-72025730D01*
X127867617Y-72013348D01*
X127855870Y-71966675D01*
X127855870Y-71741250D01*
X127787925Y-71741250D01*
X127787925Y-71966675D01*
X127545570Y-71966675D01*
X127542339Y-71959690D01*
X127536465Y-71906350D01*
X127541545Y-71854518D01*
X127556785Y-71817132D01*
X127581074Y-71794511D01*
X127613300Y-71786970D01*
X127630445Y-71788875D01*
X127630445Y-71861900D01*
X127697120Y-71861900D01*
X127697120Y-71747600D01*
X127658067Y-71738075D01*
X127614570Y-71734900D01*
X127574980Y-71738399D01*
X127541480Y-71748896D01*
X127514072Y-71766391D01*
X127492754Y-71790884D01*
X127477527Y-71822374D01*
X127468390Y-71860863D01*
X127465345Y-71906350D01*
X127076725Y-71906350D01*
X127076725Y-71850470D01*
X127070851Y-71797527D01*
X127053230Y-71761887D01*
X127022750Y-71741647D01*
X126978300Y-71734900D01*
X126940994Y-71739662D01*
X126905275Y-71753950D01*
X126905275Y-71595200D01*
X126835425Y-71595200D01*
X126835425Y-72071450D01*
X126752956Y-72071450D01*
X126756050Y-72046050D01*
X126756050Y-71748870D01*
X126707790Y-71738392D01*
X126654450Y-71734900D01*
X126607601Y-71739063D01*
X126570348Y-71751551D01*
X126542690Y-71772365D01*
X126523640Y-71802845D01*
X126512210Y-71844332D01*
X126508400Y-71896825D01*
X126375050Y-71896825D01*
X126375050Y-71741250D01*
X126219475Y-71741250D01*
X126219475Y-71792685D01*
X126127400Y-71792685D01*
X126127400Y-71668225D01*
X126291230Y-71668225D01*
X126375050Y-71668225D01*
X126375050Y-71588850D01*
X126291230Y-71588850D01*
X126291230Y-71668225D01*
X126127400Y-71668225D01*
X126127400Y-71607900D01*
X126055645Y-71607900D01*
X126055645Y-71795225D01*
X125942615Y-71795225D01*
X125942615Y-71607900D01*
X125873400Y-71607900D01*
X125873400Y-72071450D01*
X124921650Y-72071450D01*
X124807350Y-71900000D01*
X125360770Y-71069870D01*
X133492650Y-71069870D01*
X132939230Y-71900000D01*
X133492650Y-72730130D01*
G37*
G36*
X130149411Y-71793717D02*
G01*
X130170128Y-71813957D01*
X130182272Y-71850549D01*
X130186320Y-71906350D01*
X130182550Y-71958857D01*
X130171239Y-71996361D01*
X130152387Y-72018864D01*
X130125995Y-72026365D01*
X130078370Y-72011760D01*
X130078370Y-71793955D01*
X130119645Y-71786970D01*
X130149411Y-71793717D01*
G37*
G36*
X126686200Y-71790780D02*
G01*
X126686200Y-71992710D01*
X126638575Y-72007315D01*
X126612183Y-72000409D01*
X126593331Y-71979693D01*
X126582020Y-71945164D01*
X126578250Y-71896825D01*
X126582616Y-71845390D01*
X126595712Y-71811735D01*
X126618334Y-71793161D01*
X126651275Y-71786970D01*
X126686200Y-71790780D01*
G37*
G36*
X132074810Y-71895555D02*
G01*
X131987815Y-71895555D01*
X132030995Y-71677750D01*
X132031630Y-71677750D01*
X132074810Y-71895555D01*
G37*
G36*
X130493660Y-72020015D02*
G01*
X130451750Y-72028270D01*
X130405395Y-72013348D01*
X130388885Y-71971120D01*
X130394044Y-71942386D01*
X130409523Y-71922225D01*
X130436431Y-71910319D01*
X130475880Y-71906350D01*
X130493660Y-71906350D01*
X130493660Y-72020015D01*
G37*
G36*
X128900445Y-71806972D02*
G01*
X128910605Y-71836421D01*
X128914415Y-71880950D01*
X128801385Y-71880950D01*
X128806782Y-71835230D01*
X128817895Y-71806020D01*
X128835516Y-71790304D01*
X128860440Y-71785065D01*
X128900445Y-71806972D01*
G37*
%TO.C,kibuzzard-623A40DC*%
G36*
X147939230Y-97230130D02*
G01*
X139807350Y-97230130D01*
X140246470Y-96571450D01*
X140873400Y-96571450D01*
X140942615Y-96571450D01*
X140942615Y-96349200D01*
X141055645Y-96349200D01*
X141055645Y-96571450D01*
X141127400Y-96571450D01*
X141127400Y-96292685D01*
X141219475Y-96292685D01*
X141303930Y-96292685D01*
X141303930Y-96571450D01*
X141375050Y-96571450D01*
X141375050Y-96396825D01*
X141508400Y-96396825D01*
X141511787Y-96446302D01*
X141521947Y-96486783D01*
X141538880Y-96518269D01*
X141562587Y-96540758D01*
X141593067Y-96554252D01*
X141630320Y-96558750D01*
X141659212Y-96555575D01*
X141686200Y-96546050D01*
X141686200Y-96555575D01*
X141677389Y-96601295D01*
X141650957Y-96635585D01*
X141624041Y-96651460D01*
X141590280Y-96660985D01*
X141549675Y-96664160D01*
X141549675Y-96717500D01*
X141595851Y-96714643D01*
X141612450Y-96711150D01*
X145008520Y-96711150D01*
X145078370Y-96711150D01*
X145078370Y-96669875D01*
X146639200Y-96669875D01*
X146810650Y-96669875D01*
X146810650Y-96624155D01*
X146703970Y-96624155D01*
X146703970Y-96571450D01*
X146881770Y-96571450D01*
X146952890Y-96571450D01*
X146977020Y-96449530D01*
X147085605Y-96449530D01*
X147109735Y-96571450D01*
X147183395Y-96571450D01*
X147073540Y-96107900D01*
X146990990Y-96107900D01*
X146881770Y-96571450D01*
X146703970Y-96571450D01*
X146703970Y-96128220D01*
X146810650Y-96128220D01*
X146810650Y-96082500D01*
X147255150Y-96082500D01*
X147255150Y-96128220D01*
X147361830Y-96128220D01*
X147361830Y-96624155D01*
X147255150Y-96624155D01*
X147255150Y-96669875D01*
X147426600Y-96669875D01*
X147426600Y-96082500D01*
X147255150Y-96082500D01*
X146810650Y-96082500D01*
X146639200Y-96082500D01*
X146639200Y-96669875D01*
X145078370Y-96669875D01*
X145078370Y-96565100D01*
X145105358Y-96574625D01*
X145134250Y-96577800D01*
X145171503Y-96573038D01*
X145201983Y-96558750D01*
X145225690Y-96534938D01*
X145242623Y-96501600D01*
X145249848Y-96471120D01*
X145321575Y-96471120D01*
X145330068Y-96516205D01*
X145355548Y-96549860D01*
X145381336Y-96565382D01*
X145413403Y-96574696D01*
X145451750Y-96577800D01*
X145490344Y-96575542D01*
X145527386Y-96568769D01*
X145562875Y-96557480D01*
X145562875Y-96360630D01*
X145560159Y-96316180D01*
X145557528Y-96305385D01*
X145639075Y-96305385D01*
X145704480Y-96305385D01*
X145704480Y-96476200D01*
X145710116Y-96525413D01*
X145727023Y-96556210D01*
X145758376Y-96572403D01*
X145807350Y-96577800D01*
X145842434Y-96575895D01*
X145867005Y-96571450D01*
X145962925Y-96571450D01*
X146032775Y-96571450D01*
X146032775Y-96312370D01*
X146058651Y-96293320D01*
X146088020Y-96286970D01*
X146126755Y-96302845D01*
X146134375Y-96327134D01*
X146136915Y-96368250D01*
X146136280Y-96571450D01*
X146204225Y-96571450D01*
X146204225Y-96350470D01*
X146198351Y-96297527D01*
X146180730Y-96261887D01*
X146150250Y-96241647D01*
X146105800Y-96234900D01*
X146068494Y-96239662D01*
X146032775Y-96253950D01*
X146032775Y-96095200D01*
X145962925Y-96095200D01*
X145962925Y-96571450D01*
X145867005Y-96571450D01*
X145874025Y-96570180D01*
X145874025Y-96512395D01*
X145846879Y-96519539D01*
X145820050Y-96521920D01*
X145781950Y-96511443D01*
X145773695Y-96463500D01*
X145773695Y-96305385D01*
X145880375Y-96305385D01*
X145880375Y-96253950D01*
X145773695Y-96253950D01*
X145773695Y-96133300D01*
X145704480Y-96133300D01*
X145704480Y-96253950D01*
X145639075Y-96253950D01*
X145639075Y-96305385D01*
X145557528Y-96305385D01*
X145552009Y-96282737D01*
X145538428Y-96260300D01*
X145502629Y-96241250D01*
X145444130Y-96234900D01*
X145409981Y-96237158D01*
X145374421Y-96243931D01*
X145337450Y-96255220D01*
X145337450Y-96309830D01*
X145374280Y-96297130D01*
X145408570Y-96289510D01*
X145440320Y-96286970D01*
X145483818Y-96298717D01*
X145493660Y-96347930D01*
X145493660Y-96358725D01*
X145475880Y-96358725D01*
X145428573Y-96361935D01*
X145389943Y-96371566D01*
X145359993Y-96387617D01*
X145331179Y-96422939D01*
X145321575Y-96471120D01*
X145249848Y-96471120D01*
X145252783Y-96458738D01*
X145256170Y-96406350D01*
X145252466Y-96350787D01*
X145241353Y-96306867D01*
X145222833Y-96274587D01*
X145196198Y-96252539D01*
X145160744Y-96239310D01*
X145116470Y-96234900D01*
X145078511Y-96237158D01*
X145042528Y-96243931D01*
X145008520Y-96255220D01*
X145008520Y-96711150D01*
X141612450Y-96711150D01*
X141636591Y-96706070D01*
X141671893Y-96691783D01*
X141701757Y-96671780D01*
X141731920Y-96637490D01*
X141750017Y-96595580D01*
X141752956Y-96571450D01*
X141835425Y-96571450D01*
X141905275Y-96571450D01*
X141905275Y-96312370D01*
X141931151Y-96293320D01*
X141960520Y-96286970D01*
X141999255Y-96302845D01*
X142006875Y-96327134D01*
X142009415Y-96368250D01*
X142008780Y-96571450D01*
X142076725Y-96571450D01*
X142076725Y-96406350D01*
X142465345Y-96406350D01*
X142469719Y-96458420D01*
X142482843Y-96501177D01*
X142504715Y-96534620D01*
X142534560Y-96558609D01*
X142571602Y-96573002D01*
X142615840Y-96577800D01*
X142655686Y-96573831D01*
X142693945Y-96561925D01*
X142693945Y-96509855D01*
X142658385Y-96523666D01*
X142624095Y-96528270D01*
X142587741Y-96520650D01*
X142559960Y-96497790D01*
X142545570Y-96466675D01*
X142787925Y-96466675D01*
X142794434Y-96520650D01*
X142813960Y-96554305D01*
X142836397Y-96567358D01*
X142868993Y-96575189D01*
X142911750Y-96577800D01*
X142952602Y-96574837D01*
X142966714Y-96571450D01*
X143125745Y-96571450D01*
X143195595Y-96571450D01*
X143443245Y-96571450D01*
X143513095Y-96571450D01*
X143512700Y-96406350D01*
X143728995Y-96406350D01*
X143733052Y-96458738D01*
X143745223Y-96501600D01*
X143765507Y-96534938D01*
X143793906Y-96558750D01*
X143830419Y-96573038D01*
X143875045Y-96577800D01*
X143919336Y-96573831D01*
X143928638Y-96571450D01*
X144054750Y-96571450D01*
X144124600Y-96571450D01*
X144124600Y-96300940D01*
X144167780Y-96286970D01*
X144214770Y-96299670D01*
X144227470Y-96346025D01*
X144227470Y-96571450D01*
X144296050Y-96571450D01*
X144296050Y-96349200D01*
X144290928Y-96305385D01*
X144369075Y-96305385D01*
X144434480Y-96305385D01*
X144434480Y-96476200D01*
X144440116Y-96525413D01*
X144457023Y-96556210D01*
X144488376Y-96572403D01*
X144537350Y-96577800D01*
X144572434Y-96575895D01*
X144604025Y-96570180D01*
X144604025Y-96512395D01*
X144576879Y-96519539D01*
X144550050Y-96521920D01*
X144511950Y-96511443D01*
X144503695Y-96463500D01*
X144503695Y-96305385D01*
X144610375Y-96305385D01*
X144610375Y-96253950D01*
X144503695Y-96253950D01*
X144503695Y-96133300D01*
X144434480Y-96133300D01*
X144434480Y-96253950D01*
X144369075Y-96253950D01*
X144369075Y-96305385D01*
X144290928Y-96305385D01*
X144289462Y-96292844D01*
X144269698Y-96258395D01*
X144246449Y-96245342D01*
X144211842Y-96237511D01*
X144165875Y-96234900D01*
X144125023Y-96237863D01*
X144087982Y-96246753D01*
X144054750Y-96261570D01*
X144054750Y-96571450D01*
X143928638Y-96571450D01*
X143965850Y-96561925D01*
X143965850Y-96509220D01*
X143922352Y-96522079D01*
X143883300Y-96526365D01*
X143849248Y-96520888D01*
X143824562Y-96504458D01*
X143808767Y-96475009D01*
X143801385Y-96430480D01*
X143981725Y-96430480D01*
X143982995Y-96405080D01*
X143979679Y-96350858D01*
X143969731Y-96307572D01*
X143953150Y-96275222D01*
X143929796Y-96252821D01*
X143899528Y-96239380D01*
X143862345Y-96234900D01*
X143821599Y-96239662D01*
X143788262Y-96253950D01*
X143762332Y-96277762D01*
X143743812Y-96311100D01*
X143732699Y-96353962D01*
X143728995Y-96406350D01*
X143512700Y-96406350D01*
X143512460Y-96306020D01*
X143557404Y-96295789D01*
X143604182Y-96289651D01*
X143652795Y-96287605D01*
X143652795Y-96234900D01*
X143609463Y-96236221D01*
X143566841Y-96240183D01*
X143524931Y-96246787D01*
X143483733Y-96256033D01*
X143443245Y-96267920D01*
X143443245Y-96571450D01*
X143195595Y-96571450D01*
X143194960Y-96306020D01*
X143239904Y-96295789D01*
X143286682Y-96289651D01*
X143335295Y-96287605D01*
X143335295Y-96234900D01*
X143291963Y-96236221D01*
X143249341Y-96240183D01*
X143207431Y-96246787D01*
X143166233Y-96256033D01*
X143125745Y-96267920D01*
X143125745Y-96571450D01*
X142966714Y-96571450D01*
X142989643Y-96565947D01*
X143022875Y-96551130D01*
X143022875Y-96241250D01*
X142953025Y-96241250D01*
X142953660Y-96513030D01*
X142910480Y-96525730D01*
X142867617Y-96513348D01*
X142855870Y-96466675D01*
X142855870Y-96241250D01*
X142787925Y-96241250D01*
X142787925Y-96466675D01*
X142545570Y-96466675D01*
X142542339Y-96459690D01*
X142536465Y-96406350D01*
X142541545Y-96354518D01*
X142556785Y-96317132D01*
X142581074Y-96294511D01*
X142613300Y-96286970D01*
X142630445Y-96288875D01*
X142630445Y-96361900D01*
X142697120Y-96361900D01*
X142697120Y-96247600D01*
X142658067Y-96238075D01*
X142614570Y-96234900D01*
X142574980Y-96238399D01*
X142541480Y-96248896D01*
X142514072Y-96266391D01*
X142492754Y-96290884D01*
X142477527Y-96322374D01*
X142468390Y-96360863D01*
X142465345Y-96406350D01*
X142076725Y-96406350D01*
X142076725Y-96350470D01*
X142070851Y-96297527D01*
X142053230Y-96261887D01*
X142022750Y-96241647D01*
X141978300Y-96234900D01*
X141940994Y-96239662D01*
X141905275Y-96253950D01*
X141905275Y-96095200D01*
X141835425Y-96095200D01*
X141835425Y-96571450D01*
X141752956Y-96571450D01*
X141756050Y-96546050D01*
X141756050Y-96248870D01*
X141707790Y-96238392D01*
X141654450Y-96234900D01*
X141607601Y-96239063D01*
X141570348Y-96251551D01*
X141542690Y-96272365D01*
X141523640Y-96302845D01*
X141512210Y-96344332D01*
X141508400Y-96396825D01*
X141375050Y-96396825D01*
X141375050Y-96241250D01*
X141219475Y-96241250D01*
X141219475Y-96292685D01*
X141127400Y-96292685D01*
X141127400Y-96168225D01*
X141291230Y-96168225D01*
X141375050Y-96168225D01*
X141375050Y-96088850D01*
X141291230Y-96088850D01*
X141291230Y-96168225D01*
X141127400Y-96168225D01*
X141127400Y-96107900D01*
X141055645Y-96107900D01*
X141055645Y-96295225D01*
X140942615Y-96295225D01*
X140942615Y-96107900D01*
X140873400Y-96107900D01*
X140873400Y-96571450D01*
X140246470Y-96571450D01*
X140360770Y-96400000D01*
X139807350Y-95569870D01*
X147939230Y-95569870D01*
X148492650Y-96400000D01*
X147939230Y-97230130D01*
G37*
G36*
X145149411Y-96293717D02*
G01*
X145170128Y-96313957D01*
X145182272Y-96350549D01*
X145186320Y-96406350D01*
X145182550Y-96458857D01*
X145171239Y-96496361D01*
X145152387Y-96518864D01*
X145125995Y-96526365D01*
X145078370Y-96511760D01*
X145078370Y-96293955D01*
X145119645Y-96286970D01*
X145149411Y-96293717D01*
G37*
G36*
X141686200Y-96290780D02*
G01*
X141686200Y-96492710D01*
X141638575Y-96507315D01*
X141612183Y-96500409D01*
X141593331Y-96479693D01*
X141582020Y-96445164D01*
X141578250Y-96396825D01*
X141582616Y-96345390D01*
X141595712Y-96311735D01*
X141618334Y-96293161D01*
X141651275Y-96286970D01*
X141686200Y-96290780D01*
G37*
G36*
X147074810Y-96395555D02*
G01*
X146987815Y-96395555D01*
X147030995Y-96177750D01*
X147031630Y-96177750D01*
X147074810Y-96395555D01*
G37*
G36*
X145493660Y-96520015D02*
G01*
X145451750Y-96528270D01*
X145405395Y-96513348D01*
X145388885Y-96471120D01*
X145394044Y-96442386D01*
X145409523Y-96422225D01*
X145436431Y-96410319D01*
X145475880Y-96406350D01*
X145493660Y-96406350D01*
X145493660Y-96520015D01*
G37*
G36*
X143900445Y-96306972D02*
G01*
X143910605Y-96336421D01*
X143914415Y-96380950D01*
X143801385Y-96380950D01*
X143806782Y-96335230D01*
X143817895Y-96306020D01*
X143835516Y-96290304D01*
X143860440Y-96285065D01*
X143900445Y-96306972D01*
G37*
D10*
%TO.C,R316*%
X139442258Y-82297500D02*
X138967742Y-82297500D01*
X139442258Y-81252500D02*
X138967742Y-81252500D01*
%TO.C,D302*%
X138174999Y-88749999D02*
X138174999Y-92599999D01*
X140174999Y-88749999D02*
X138174999Y-88749999D01*
X140174999Y-88749999D02*
X140174999Y-92599999D01*
%TO.C,JP302*%
X122650000Y-79600000D02*
X122650000Y-76800000D01*
X122650000Y-76800000D02*
X124650000Y-76800000D01*
X124650000Y-79600000D02*
X122650000Y-79600000D01*
X124650000Y-76800000D02*
X124650000Y-79600000D01*
%TO.C,TP304*%
X178550000Y-93625000D02*
X178550000Y-98025000D01*
X174150000Y-93625000D02*
X178550000Y-93625000D01*
X174150000Y-98025000D02*
X174150000Y-93625000D01*
X178550000Y-98025000D02*
X174150000Y-98025000D01*
%TO.C,D204*%
X149525000Y-85700000D02*
X151375000Y-85700000D01*
X149525000Y-86900000D02*
X151375000Y-86900000D01*
X151375000Y-86900000D02*
X151375000Y-85700000D01*
%TO.C,C305*%
X120990580Y-83935000D02*
X120709420Y-83935000D01*
X120990580Y-82915000D02*
X120709420Y-82915000D01*
%TO.C,R209*%
X153171359Y-76795000D02*
X153478641Y-76795000D01*
X153171359Y-77555000D02*
X153478641Y-77555000D01*
%TO.C,R213*%
X150187742Y-79352500D02*
X150662258Y-79352500D01*
X150187742Y-80397500D02*
X150662258Y-80397500D01*
%TO.C,C301*%
X120990580Y-77835000D02*
X120709420Y-77835000D01*
X120990580Y-76815000D02*
X120709420Y-76815000D01*
%TO.C,R203*%
X157555000Y-79803641D02*
X157555000Y-79496359D01*
X156795000Y-79803641D02*
X156795000Y-79496359D01*
%TO.C,R212*%
X150662258Y-77827500D02*
X150187742Y-77827500D01*
X150662258Y-78872500D02*
X150187742Y-78872500D01*
%TO.C,C215*%
X150532836Y-76740000D02*
X150317164Y-76740000D01*
X150532836Y-77460000D02*
X150317164Y-77460000D01*
%TO.C,JP303*%
X138847500Y-76872500D02*
X138847500Y-74872500D01*
X142947500Y-74872500D02*
X142947500Y-76872500D01*
X138847500Y-74872500D02*
X142947500Y-74872500D01*
X139297500Y-77372500D02*
X139897500Y-77372500D01*
X139597500Y-77072500D02*
X139297500Y-77372500D01*
X142947500Y-76872500D02*
X138847500Y-76872500D01*
X139597500Y-77072500D02*
X139897500Y-77372500D01*
%TO.C,J201*%
X155260000Y-74750000D02*
X155260000Y-75435000D01*
X153950000Y-73650000D02*
X152640000Y-73650000D01*
X153004102Y-75270000D02*
X152640000Y-75270000D01*
X155260000Y-75435000D02*
X154450000Y-75435000D01*
X153950000Y-73650000D02*
X153950000Y-74065000D01*
X152640000Y-73650000D02*
X152640000Y-75270000D01*
%TO.C,R305*%
X118206359Y-83380000D02*
X118513641Y-83380000D01*
X118206359Y-82620000D02*
X118513641Y-82620000D01*
D16*
%TO.C,L201*%
X149227500Y-89877500D02*
G75*
G03*
X149227500Y-89877500I-100000J0D01*
G01*
D11*
X143227500Y-89627500D02*
X148877500Y-89627500D01*
X148877500Y-89627500D02*
X148877500Y-83977500D01*
X148877500Y-83977500D02*
X143227500Y-83977500D01*
X143227500Y-83977500D02*
X143227500Y-89627500D01*
D10*
%TO.C,C208*%
X149190000Y-84190580D02*
X149190000Y-83909420D01*
X150210000Y-84190580D02*
X150210000Y-83909420D01*
%TO.C,C310*%
X120590579Y-88959999D02*
X120309419Y-88959999D01*
X120590579Y-87939999D02*
X120309419Y-87939999D01*
%TO.C,R204*%
X162583859Y-76020000D02*
X162891141Y-76020000D01*
X162583859Y-76780000D02*
X162891141Y-76780000D01*
%TO.C,C309*%
X128006920Y-76612500D02*
X128288080Y-76612500D01*
X128006920Y-77632500D02*
X128288080Y-77632500D01*
%TO.C,J101*%
X164100000Y-92950000D02*
X164100000Y-90950000D01*
X170000000Y-83750000D02*
X178600000Y-83750000D01*
X164100000Y-83750000D02*
X165400000Y-83750000D01*
X178600000Y-92950000D02*
X164100000Y-92950000D01*
X163800000Y-91550000D02*
X163800000Y-93250000D01*
X178600000Y-83750000D02*
X178600000Y-92950000D01*
X163800000Y-93250000D02*
X165100000Y-93250000D01*
X164100000Y-85750000D02*
X164100000Y-83750000D01*
%TO.C,R313*%
X124746358Y-96469999D02*
X125053640Y-96469999D01*
X124746358Y-97229999D02*
X125053640Y-97229999D01*
D16*
%TO.C,U301*%
X129547500Y-76472500D02*
G75*
G03*
X129547500Y-76472500I-100000J0D01*
G01*
D11*
X129697500Y-75847500D02*
X137497500Y-75847500D01*
X137497500Y-75847500D02*
X137497500Y-84247500D01*
X137497500Y-84247500D02*
X129697500Y-84247500D01*
X129697500Y-84247500D02*
X129697500Y-75847500D01*
D10*
%TO.C,TP303*%
X174150000Y-68950000D02*
X178550000Y-68950000D01*
X178550000Y-73350000D02*
X174150000Y-73350000D01*
X178550000Y-68950000D02*
X178550000Y-73350000D01*
X174150000Y-73350000D02*
X174150000Y-68950000D01*
%TO.C,R210*%
X153478641Y-76555000D02*
X153171359Y-76555000D01*
X153478641Y-75795000D02*
X153171359Y-75795000D01*
%TO.C,R311*%
X121563640Y-89329999D02*
X121256358Y-89329999D01*
X121563640Y-90089999D02*
X121256358Y-90089999D01*
%TO.C,D203*%
X158820000Y-83160000D02*
X163800000Y-83160000D01*
X158820000Y-80440000D02*
X158820000Y-83160000D01*
X158820000Y-80440000D02*
X163800000Y-80440000D01*
%TO.C,C308*%
X118689999Y-87559419D02*
X118689999Y-87840579D01*
X117669999Y-87559419D02*
X117669999Y-87840579D01*
%TO.C,C203*%
X160084420Y-80010000D02*
X160365580Y-80010000D01*
X160084420Y-78990000D02*
X160365580Y-78990000D01*
%TO.C,C207*%
X157788748Y-85435000D02*
X159211252Y-85435000D01*
X157788748Y-83615000D02*
X159211252Y-83615000D01*
%TO.C,R301*%
X118206359Y-78380000D02*
X118513641Y-78380000D01*
X118206359Y-77620000D02*
X118513641Y-77620000D01*
%TO.C,C213*%
X145863748Y-77860000D02*
X147286252Y-77860000D01*
X145863748Y-76040000D02*
X147286252Y-76040000D01*
%TO.C,R320*%
X140457500Y-84512258D02*
X140457500Y-84037742D01*
X139412500Y-84512258D02*
X139412500Y-84037742D01*
%TO.C,R208*%
X153478641Y-77795000D02*
X153171359Y-77795000D01*
X153478641Y-78555000D02*
X153171359Y-78555000D01*
%TO.C,J302*%
X141293398Y-77637500D02*
X141657500Y-77637500D01*
X141657500Y-79257500D02*
X141657500Y-77637500D01*
X139037500Y-78157500D02*
X139037500Y-77472500D01*
X140347500Y-79257500D02*
X141657500Y-79257500D01*
X139037500Y-77472500D02*
X139847500Y-77472500D01*
X140347500Y-79257500D02*
X140347500Y-78842500D01*
%TO.C,R312*%
X138427500Y-79893859D02*
X138427500Y-80201141D01*
X137667500Y-79893859D02*
X137667500Y-80201141D01*
%TO.C,C204*%
X154890000Y-84990580D02*
X154890000Y-84709420D01*
X155910000Y-84990580D02*
X155910000Y-84709420D01*
%TO.C,R302*%
X118206359Y-79630000D02*
X118513641Y-79630000D01*
X118206359Y-78870000D02*
X118513641Y-78870000D01*
%TO.C,C306*%
X120709420Y-85460000D02*
X120990580Y-85460000D01*
X120709420Y-84440000D02*
X120990580Y-84440000D01*
%TO.C,C214*%
X146409420Y-75510000D02*
X146690580Y-75510000D01*
X146409420Y-74490000D02*
X146690580Y-74490000D01*
%TO.C,C216*%
X143759420Y-80940000D02*
X144040580Y-80940000D01*
X143759420Y-81960000D02*
X144040580Y-81960000D01*
%TO.C,C303*%
X120990580Y-80885000D02*
X120709420Y-80885000D01*
X120990580Y-79865000D02*
X120709420Y-79865000D01*
%TO.C,C212*%
X145863748Y-78415000D02*
X147286252Y-78415000D01*
X145863748Y-80235000D02*
X147286252Y-80235000D01*
%TO.C,R315*%
X124746358Y-97469999D02*
X125053640Y-97469999D01*
X124746358Y-98229999D02*
X125053640Y-98229999D01*
%TO.C,C311*%
X123610579Y-88959999D02*
X123329419Y-88959999D01*
X123610579Y-87939999D02*
X123329419Y-87939999D01*
%TO.C,TP301*%
X115700000Y-73350000D02*
X111300000Y-73350000D01*
X111300000Y-68950000D02*
X115700000Y-68950000D01*
X111300000Y-73350000D02*
X111300000Y-68950000D01*
X115700000Y-68950000D02*
X115700000Y-73350000D01*
%TO.C,C210*%
X146685000Y-82365580D02*
X146685000Y-82084420D01*
X145665000Y-82365580D02*
X145665000Y-82084420D01*
%TO.C,C205*%
X153765580Y-79960000D02*
X153484420Y-79960000D01*
X153765580Y-78940000D02*
X153484420Y-78940000D01*
%TO.C,R307*%
X127018859Y-75242500D02*
X127326141Y-75242500D01*
X127018859Y-76002500D02*
X127326141Y-76002500D01*
D16*
%TO.C,Q2*%
X149450000Y-93667500D02*
G75*
G03*
X149450000Y-93667500I-100000J0D01*
G01*
D11*
X148974500Y-87049500D02*
X155025500Y-87049500D01*
X155025500Y-87049500D02*
X155025500Y-93985000D01*
X155025500Y-93985000D02*
X148974500Y-93985000D01*
X148974500Y-93985000D02*
X148974500Y-87049500D01*
D10*
%TO.C,TP302*%
X111250000Y-98025000D02*
X111250000Y-93625000D01*
X111250000Y-93625000D02*
X115650000Y-93625000D01*
X115650000Y-98025000D02*
X111250000Y-98025000D01*
X115650000Y-93625000D02*
X115650000Y-98025000D01*
%TO.C,R206*%
X163012742Y-80022500D02*
X163487258Y-80022500D01*
X163012742Y-78977500D02*
X163487258Y-78977500D01*
%TO.C,C209*%
X153165580Y-85790000D02*
X152884420Y-85790000D01*
X153165580Y-86810000D02*
X152884420Y-86810000D01*
%TO.C,R304*%
X118206359Y-81370000D02*
X118513641Y-81370000D01*
X118206359Y-82130000D02*
X118513641Y-82130000D01*
%TO.C,R319*%
X136702499Y-91987257D02*
X136702499Y-91512741D01*
X137747499Y-91987257D02*
X137747499Y-91512741D01*
%TO.C,R318*%
X136712257Y-88952499D02*
X136237741Y-88952499D01*
X136712257Y-89997499D02*
X136237741Y-89997499D01*
%TO.C,C201*%
X156009420Y-76415000D02*
X156290580Y-76415000D01*
X156009420Y-77435000D02*
X156290580Y-77435000D01*
%TO.C,kibuzzard-623A0E03*%
G36*
X169342783Y-78814249D02*
G01*
X169378621Y-78840680D01*
X169399695Y-78886877D01*
X169406719Y-78954980D01*
X169399695Y-79028204D01*
X169378621Y-79076424D01*
X169342783Y-79103213D01*
X169291467Y-79112143D01*
X169236222Y-79105475D01*
X169236222Y-78813058D01*
X169291467Y-78805438D01*
X169342783Y-78814249D01*
G37*
G36*
X170746199Y-80327968D02*
G01*
X170780920Y-80372387D01*
X170792494Y-80432238D01*
X170781650Y-80495320D01*
X170749118Y-80533170D01*
X170694898Y-80545787D01*
X170654077Y-80538631D01*
X170623578Y-80517165D01*
X170604575Y-80481622D01*
X170598240Y-80432238D01*
X170608250Y-80372387D01*
X170638280Y-80327968D01*
X170688329Y-80298981D01*
X170746199Y-80327968D01*
G37*
G36*
X170763872Y-80028715D02*
G01*
X170784987Y-80100036D01*
X170775603Y-80154881D01*
X170747450Y-80195546D01*
X170700529Y-80222031D01*
X170654650Y-80196797D01*
X170627123Y-80156132D01*
X170617947Y-80100036D01*
X170623226Y-80057572D01*
X170639062Y-80027777D01*
X170704282Y-80004316D01*
X170763872Y-80028715D01*
G37*
G36*
X171893516Y-81140060D02*
G01*
X166677448Y-81140060D01*
X167031714Y-80608661D01*
X168166785Y-80608661D01*
X168237401Y-80622738D01*
X168314117Y-80627430D01*
X168392007Y-80619336D01*
X168453004Y-80595054D01*
X168499339Y-80550831D01*
X168533239Y-80482912D01*
X168548619Y-80423375D01*
X168557847Y-80351116D01*
X168560923Y-80266137D01*
X168629428Y-80266137D01*
X168633137Y-80350815D01*
X168644267Y-80424202D01*
X168662815Y-80486299D01*
X168688783Y-80537106D01*
X168722170Y-80576623D01*
X168762977Y-80604849D01*
X168811203Y-80621784D01*
X168866849Y-80627430D01*
X168929489Y-80621564D01*
X168986029Y-80603969D01*
X168986029Y-80517634D01*
X168932539Y-80539452D01*
X168882802Y-80546725D01*
X168836924Y-80538931D01*
X168799387Y-80515549D01*
X168770191Y-80476578D01*
X168749337Y-80422019D01*
X168736825Y-80351872D01*
X168732654Y-80266137D01*
X168738097Y-80172557D01*
X168754426Y-80099773D01*
X168781640Y-80047784D01*
X168819740Y-80016591D01*
X168868726Y-80006193D01*
X168890309Y-80009947D01*
X168890309Y-80156341D01*
X168990721Y-80156341D01*
X168990721Y-80120681D01*
X170063339Y-80120681D01*
X170224748Y-80030592D01*
X170226625Y-80031531D01*
X170226625Y-80618045D01*
X170331728Y-80618045D01*
X170331728Y-80439745D01*
X170501583Y-80439745D01*
X170507213Y-80495685D01*
X170524105Y-80542137D01*
X170552258Y-80579101D01*
X170590837Y-80605950D01*
X170639010Y-80622060D01*
X170696775Y-80627430D01*
X170754749Y-80622060D01*
X170803547Y-80605950D01*
X170843169Y-80579101D01*
X170872364Y-80542137D01*
X170889882Y-80495685D01*
X170895721Y-80439745D01*
X170888331Y-80378982D01*
X170866160Y-80326196D01*
X170830618Y-80283497D01*
X170783110Y-80252999D01*
X170783110Y-80251122D01*
X170824166Y-80220975D01*
X170855369Y-80183086D01*
X170875075Y-80139567D01*
X170881644Y-80092528D01*
X170869680Y-80021560D01*
X170833785Y-79968187D01*
X170776072Y-79934756D01*
X170763845Y-79932996D01*
X170953903Y-79932996D01*
X171105928Y-80618045D01*
X171227923Y-80618045D01*
X171380886Y-79932996D01*
X171276721Y-79932996D01*
X171169740Y-80524203D01*
X171168802Y-80524203D01*
X171061822Y-79932996D01*
X170953903Y-79932996D01*
X170763845Y-79932996D01*
X170698652Y-79923612D01*
X170621232Y-79934873D01*
X170563519Y-79968656D01*
X170527624Y-80022146D01*
X170515659Y-80092528D01*
X170522111Y-80142968D01*
X170541466Y-80191063D01*
X170571378Y-80232588D01*
X170609502Y-80263321D01*
X170609502Y-80264260D01*
X170562287Y-80295286D01*
X170528563Y-80334876D01*
X170508328Y-80383029D01*
X170501583Y-80439745D01*
X170331728Y-80439745D01*
X170331728Y-79932996D01*
X170227563Y-79932996D01*
X170063339Y-80028715D01*
X170063339Y-80120681D01*
X168990721Y-80120681D01*
X168990721Y-79944257D01*
X168930896Y-79928773D01*
X168864034Y-79923612D01*
X168809048Y-79928964D01*
X168761394Y-79945020D01*
X168721071Y-79971779D01*
X168688079Y-80009243D01*
X168662419Y-80057411D01*
X168644091Y-80116282D01*
X168633093Y-80185857D01*
X168629428Y-80266137D01*
X168560923Y-80266137D01*
X168557316Y-80178423D01*
X168546495Y-80104845D01*
X168528459Y-80045402D01*
X168503210Y-80000093D01*
X168456549Y-79957604D01*
X168393518Y-79932110D01*
X168314117Y-79923612D01*
X168240216Y-79928304D01*
X168166785Y-79942380D01*
X168166785Y-80608661D01*
X167031714Y-80608661D01*
X167654155Y-79675000D01*
X167080797Y-78814963D01*
X168194187Y-78814963D01*
X168300867Y-78814963D01*
X168300867Y-79344553D01*
X168194187Y-79344553D01*
X168194187Y-79427420D01*
X168518037Y-79427420D01*
X168651387Y-79427420D01*
X168756162Y-79427420D01*
X168756162Y-78922595D01*
X168758067Y-78922595D01*
X168906657Y-79427420D01*
X169013337Y-79427420D01*
X169129542Y-79427420D01*
X169236222Y-79427420D01*
X169236222Y-79246445D01*
X169594362Y-79246445D01*
X169599283Y-79308464D01*
X169614047Y-79357359D01*
X169638653Y-79393130D01*
X169674583Y-79417472D01*
X169723320Y-79432077D01*
X169784862Y-79436945D01*
X169846404Y-79432077D01*
X169895140Y-79417472D01*
X169931071Y-79393130D01*
X169955677Y-79357359D01*
X169970441Y-79308464D01*
X169975362Y-79246445D01*
X169975362Y-78814963D01*
X170065849Y-78814963D01*
X170207772Y-78814963D01*
X170207772Y-79427420D01*
X170314452Y-79427420D01*
X170314452Y-78814963D01*
X170456374Y-78814963D01*
X170456374Y-78732095D01*
X170065849Y-78732095D01*
X170065849Y-78814963D01*
X169975362Y-78814963D01*
X169975362Y-78732095D01*
X169871539Y-78732095D01*
X169871539Y-79227395D01*
X169866777Y-79289665D01*
X169852489Y-79327884D01*
X169786767Y-79354078D01*
X169747000Y-79347410D01*
X169721044Y-79327408D01*
X169706757Y-79289070D01*
X169701994Y-79227395D01*
X169701994Y-78732095D01*
X169594362Y-78732095D01*
X169594362Y-79246445D01*
X169236222Y-79246445D01*
X169236222Y-79189295D01*
X169291467Y-79194058D01*
X169359359Y-79187708D01*
X169414445Y-79168658D01*
X169456726Y-79136908D01*
X169486623Y-79091294D01*
X169504562Y-79030651D01*
X169510542Y-78954980D01*
X169504721Y-78880632D01*
X169487258Y-78821419D01*
X169458154Y-78777339D01*
X169416350Y-78746912D01*
X169360788Y-78728656D01*
X169291467Y-78722570D01*
X169236645Y-78724687D01*
X169182670Y-78731037D01*
X169129542Y-78741620D01*
X169129542Y-79427420D01*
X169013337Y-79427420D01*
X169013337Y-78732095D01*
X168913324Y-78732095D01*
X168913324Y-79236920D01*
X168910467Y-79236920D01*
X168761877Y-78732095D01*
X168651387Y-78732095D01*
X168651387Y-79427420D01*
X168518037Y-79427420D01*
X168518037Y-79344553D01*
X168411357Y-79344553D01*
X168411357Y-78814963D01*
X168518037Y-78814963D01*
X168518037Y-78732095D01*
X168194187Y-78732095D01*
X168194187Y-78814963D01*
X167080797Y-78814963D01*
X166677448Y-78209940D01*
X172772552Y-78209940D01*
X171893516Y-81140060D01*
G37*
G36*
X168379103Y-80019800D02*
G01*
X168423913Y-80063437D01*
X168443203Y-80111818D01*
X168454777Y-80179384D01*
X168458635Y-80266137D01*
X168454829Y-80361960D01*
X168443411Y-80435470D01*
X168424382Y-80486666D01*
X168379690Y-80531710D01*
X168314117Y-80546725D01*
X168271888Y-80538279D01*
X168271888Y-80013701D01*
X168314117Y-80005255D01*
X168379103Y-80019800D01*
G37*
D16*
%TO.C,Q3*%
X122889999Y-90634999D02*
G75*
G03*
X122889999Y-90634999I-100000J0D01*
G01*
D11*
X129407999Y-90259499D02*
X122472499Y-90259499D01*
X122472499Y-90259499D02*
X122472499Y-96310499D01*
X122472499Y-96310499D02*
X129407999Y-96310499D01*
X129407999Y-96310499D02*
X129407999Y-90259499D01*
D10*
%TO.C,R303*%
X118206359Y-80120000D02*
X118513641Y-80120000D01*
X118206359Y-80880000D02*
X118513641Y-80880000D01*
D16*
%TO.C,J301*%
X116312500Y-77000000D02*
G75*
G03*
X116312500Y-77000000I-100000J0D01*
G01*
D10*
X117287500Y-73725000D02*
X110962500Y-73725000D01*
X110962500Y-73725000D02*
X110962500Y-88525000D01*
X110962500Y-88525000D02*
X117287500Y-88525000D01*
X117287500Y-88525000D02*
X117287500Y-73725000D01*
%TO.C,R205*%
X162583859Y-77545000D02*
X162891141Y-77545000D01*
X162583859Y-78305000D02*
X162891141Y-78305000D01*
%TO.C,C211*%
X143759420Y-83510000D02*
X144040580Y-83510000D01*
X143759420Y-82490000D02*
X144040580Y-82490000D01*
%TO.C,R207*%
X156962742Y-82052500D02*
X157437258Y-82052500D01*
X156962742Y-83097500D02*
X157437258Y-83097500D01*
%TO.C,C202*%
X155390000Y-80059420D02*
X155390000Y-80340580D01*
X156410000Y-80059420D02*
X156410000Y-80340580D01*
%TO.C,R321*%
X137892500Y-84512258D02*
X137892500Y-84037742D01*
X138937500Y-84512258D02*
X138937500Y-84037742D01*
%TO.C,C206*%
X157788748Y-87835000D02*
X159211252Y-87835000D01*
X157788748Y-86015000D02*
X159211252Y-86015000D01*
%TO.C,D201*%
X158777500Y-77135000D02*
X161062500Y-77135000D01*
X158777500Y-75665000D02*
X158777500Y-77135000D01*
X161062500Y-75665000D02*
X158777500Y-75665000D01*
D16*
%TO.C,Q1*%
X155500000Y-88500000D02*
G75*
G03*
X155500000Y-88500000I-100000J0D01*
G01*
D11*
X162018000Y-88124500D02*
X155082500Y-88124500D01*
X155082500Y-88124500D02*
X155082500Y-94175500D01*
X155082500Y-94175500D02*
X162018000Y-94175500D01*
X162018000Y-94175500D02*
X162018000Y-88124500D01*
D10*
%TO.C,C304*%
X120990580Y-81390000D02*
X120709420Y-81390000D01*
X120990580Y-82410000D02*
X120709420Y-82410000D01*
D16*
%TO.C,Q4*%
X136207499Y-95934999D02*
G75*
G03*
X136207499Y-95934999I-100000J0D01*
G01*
D11*
X129489499Y-96310499D02*
X136424999Y-96310499D01*
X136424999Y-96310499D02*
X136424999Y-90259499D01*
X136424999Y-90259499D02*
X129489499Y-90259499D01*
X129489499Y-90259499D02*
X129489499Y-96310499D01*
D10*
%TO.C,R309*%
X138402500Y-76993859D02*
X138402500Y-77301141D01*
X137642500Y-76993859D02*
X137642500Y-77301141D01*
D15*
%TO.C,D301*%
X138164999Y-88199999D02*
G75*
G03*
X138164999Y-88199999I-50000J0D01*
G01*
D10*
%TO.C,R308*%
X119336358Y-90089999D02*
X119643640Y-90089999D01*
X119336358Y-89329999D02*
X119643640Y-89329999D01*
%TO.C,R211*%
X147190000Y-82452064D02*
X147190000Y-81997936D01*
X148660000Y-82452064D02*
X148660000Y-81997936D01*
%TO.C,R314*%
X122162741Y-97622499D02*
X122637257Y-97622499D01*
X122162741Y-96577499D02*
X122637257Y-96577499D01*
%TO.C,R306*%
X118206359Y-83870000D02*
X118513641Y-83870000D01*
X118206359Y-84630000D02*
X118513641Y-84630000D01*
%TO.C,R202*%
X156546359Y-77795000D02*
X156853641Y-77795000D01*
X156546359Y-78555000D02*
X156853641Y-78555000D01*
%TO.C,R201*%
X156546359Y-75295000D02*
X156853641Y-75295000D01*
X156546359Y-76055000D02*
X156853641Y-76055000D01*
%TO.C,R317*%
X135246140Y-87819999D02*
X134938858Y-87819999D01*
X135246140Y-88579999D02*
X134938858Y-88579999D01*
%TO.C,JP301*%
X124650000Y-73425000D02*
X124650000Y-76225000D01*
X122650000Y-73425000D02*
X124650000Y-73425000D01*
X124650000Y-76225000D02*
X122650000Y-76225000D01*
X122650000Y-76225000D02*
X122650000Y-73425000D01*
%TO.C,R310*%
X120088747Y-90479999D02*
X120811251Y-90479999D01*
X120088747Y-95699999D02*
X120811251Y-95699999D01*
%TO.C,C307*%
X129407500Y-74706920D02*
X129407500Y-74988080D01*
X128387500Y-74706920D02*
X128387500Y-74988080D01*
%TO.C,D202*%
X158777500Y-77190000D02*
X158777500Y-78660000D01*
X158777500Y-78660000D02*
X161062500Y-78660000D01*
X161062500Y-77190000D02*
X158777500Y-77190000D01*
%TO.C,C302*%
X120990580Y-78340000D02*
X120709420Y-78340000D01*
X120990580Y-79360000D02*
X120709420Y-79360000D01*
D16*
%TO.C,U201*%
X154450000Y-84525000D02*
G75*
G03*
X154450000Y-84525000I-100000J0D01*
G01*
D11*
X153550000Y-81175000D02*
X154100000Y-81175000D01*
X151550000Y-84275000D02*
X151000000Y-84275000D01*
X154100000Y-83725000D02*
X154100000Y-84275000D01*
X154100000Y-81725000D02*
X154100000Y-81175000D01*
X151550000Y-81175000D02*
X151000000Y-81175000D01*
X151000000Y-83725000D02*
X151000000Y-84275000D01*
X151000000Y-81175000D02*
X151000000Y-81725000D01*
X153550000Y-84275000D02*
X154100000Y-84275000D01*
%TD*%
M02*
