%TF.GenerationSoftware,KiCad,Pcbnew,6.0.3-a3aad9c10e~116~ubuntu20.04.1*%
%TF.CreationDate,2022-03-23T21:19:15+01:00*%
%TF.ProjectId,Smart_Charger,536d6172-745f-4436-9861-726765722e6b,ED A0*%
%TF.SameCoordinates,Original*%
%TF.FileFunction,Copper,L3,Inr*%
%TF.FilePolarity,Positive*%
%FSLAX46Y46*%
G04 Gerber Fmt 4.6, Leading zero omitted, Abs format (unit mm)*
G04 Created by KiCad (PCBNEW 6.0.3-a3aad9c10e~116~ubuntu20.04.1) date 2022-03-23 21:19:15*
%MOMM*%
%LPD*%
G01*
G04 APERTURE LIST*
%ADD10C,0.150000*%
%TA.AperFunction,NonConductor*%
%ADD11C,0.150000*%
%TD*%
%TA.AperFunction,ComponentPad*%
%ADD12O,0.850000X0.850000*%
%TD*%
%TA.AperFunction,ComponentPad*%
%ADD13R,0.850000X0.850000*%
%TD*%
%TA.AperFunction,ComponentPad*%
%ADD14O,4.200000X2.000000*%
%TD*%
%TA.AperFunction,ComponentPad*%
%ADD15O,2.000000X4.200000*%
%TD*%
%TA.AperFunction,ComponentPad*%
%ADD16R,2.000000X4.600000*%
%TD*%
%TA.AperFunction,ComponentPad*%
%ADD17C,4.700000*%
%TD*%
%TA.AperFunction,HeatsinkPad*%
%ADD18C,0.600000*%
%TD*%
%TA.AperFunction,ViaPad*%
%ADD19C,0.500000*%
%TD*%
G04 APERTURE END LIST*
D10*
D11*
X112041666Y-89827380D02*
X112660714Y-89827380D01*
X112327380Y-90208333D01*
X112470238Y-90208333D01*
X112565476Y-90255952D01*
X112613095Y-90303571D01*
X112660714Y-90398809D01*
X112660714Y-90636904D01*
X112613095Y-90732142D01*
X112565476Y-90779761D01*
X112470238Y-90827380D01*
X112184523Y-90827380D01*
X112089285Y-90779761D01*
X112041666Y-90732142D01*
D12*
%TO.N,GND*%
%TO.C,J201*%
X153450000Y-74750000D03*
D13*
%TO.N,/BQ24600RVAT/TS*%
X154450000Y-74750000D03*
%TD*%
D14*
%TO.N,GNDPWR*%
%TO.C,J101*%
X167700000Y-83550000D03*
D15*
X171100000Y-88350000D03*
D16*
%TO.N,/BQ24600RVAT/ADAPTER+*%
X164800000Y-88350000D03*
%TD*%
D17*
%TO.N,GNDPWR*%
%TO.C,H302*%
X175450000Y-77650000D03*
%TD*%
%TO.N,GNDPWR*%
%TO.C,H301*%
X127675000Y-87425000D03*
%TD*%
D12*
%TO.N,GND*%
%TO.C,J302*%
X140847500Y-78157500D03*
D13*
%TO.N,/BQ7791502PWR/TS*%
X139847500Y-78157500D03*
%TD*%
D18*
%TO.N,GND*%
%TO.C,U201*%
X153050000Y-82225000D03*
X152050000Y-83225000D03*
X153050000Y-83225000D03*
X152050000Y-82225000D03*
%TD*%
D19*
%TO.N,/BQ7791502PWR/BQ7791502PWR_CHG*%
X137450000Y-85225000D03*
X126275000Y-96825000D03*
%TO.N,GND*%
X143844466Y-82214944D03*
%TO.N,GNDPWR*%
X145900000Y-74000000D03*
X144500000Y-74000000D03*
X145900000Y-75800000D03*
X145900000Y-78200000D03*
%TO.N,/BQ7791502PWR/BATT-*%
X113900000Y-92400000D03*
%TO.N,GND*%
X116825000Y-74550000D03*
X142150000Y-79650000D03*
X149575000Y-80800000D03*
X133650000Y-81900000D03*
X122550000Y-84950000D03*
X117850000Y-84975000D03*
X111575000Y-74650000D03*
X154150000Y-73150000D03*
X111625000Y-86000000D03*
X132150000Y-74900000D03*
X151464874Y-76496245D03*
X143150000Y-73400000D03*
X123875945Y-83882885D03*
X154475000Y-85100000D03*
X137334416Y-75890283D03*
X158350614Y-77159841D03*
X149600000Y-73325000D03*
X158400000Y-74900000D03*
X126900000Y-73150000D03*
X153881971Y-80913849D03*
X111500000Y-79700000D03*
X130900000Y-73400000D03*
X122650000Y-82400000D03*
X124925000Y-75300000D03*
X157024684Y-81498454D03*
X125250000Y-77325000D03*
X125650000Y-74150000D03*
X120900000Y-84150000D03*
X142275000Y-83000000D03*
X124600000Y-87425000D03*
X116750000Y-86025000D03*
X121900000Y-73650000D03*
X119400000Y-76150000D03*
X127375000Y-77950500D03*
X119400000Y-74400000D03*
X151450000Y-74525000D03*
X142275000Y-81450000D03*
X143422500Y-75872500D03*
X138988921Y-80903225D03*
X154800000Y-86150000D03*
X155249455Y-78550385D03*
X139400000Y-73400000D03*
X143150000Y-77150000D03*
X120400000Y-73150000D03*
X127150000Y-83900000D03*
X135150000Y-74900000D03*
X157850000Y-73500000D03*
X142588060Y-83857608D03*
X157981025Y-75739744D03*
X158110270Y-78582449D03*
X120150000Y-85900000D03*
X154182307Y-75635731D03*
X123900000Y-73150000D03*
X114700000Y-79800000D03*
X129472500Y-81672500D03*
X129847500Y-74072500D03*
X113300000Y-83100000D03*
X151225000Y-80850000D03*
X127486890Y-81856232D03*
X135150000Y-83650000D03*
X126425000Y-77125000D03*
X124150000Y-81650000D03*
X154000000Y-84275000D03*
X132150000Y-79900000D03*
X127650000Y-74150000D03*
X125150000Y-82400000D03*
X150507144Y-76382890D03*
X129062249Y-83443953D03*
X121400000Y-87400000D03*
X155425000Y-77900000D03*
X114725000Y-87250000D03*
X141400000Y-74150000D03*
X137471848Y-81698825D03*
X142900000Y-78150000D03*
X126325000Y-81025000D03*
X114175000Y-76675000D03*
X124237770Y-76360564D03*
X123025000Y-76525000D03*
X122550000Y-83425000D03*
X136400000Y-73400000D03*
X140895000Y-81775000D03*
X133150000Y-73400000D03*
X124650000Y-86400000D03*
X158050000Y-81350000D03*
X132150000Y-83650000D03*
X133650000Y-78150000D03*
X140150000Y-79650000D03*
X150225000Y-81450000D03*
X115050000Y-84250000D03*
X135150000Y-79900000D03*
X119139999Y-86929999D03*
X122425000Y-75050000D03*
X120884203Y-76600075D03*
%TO.N,/BQ24600RVAT/ADAPTER+*%
X165075000Y-84400000D03*
X162700000Y-87625000D03*
X164100000Y-92375000D03*
X162650000Y-91025000D03*
X162675000Y-93600000D03*
X165450000Y-91150000D03*
X163825000Y-77150000D03*
X165425000Y-93600000D03*
X165450000Y-78925000D03*
X162700000Y-81875000D03*
X165700000Y-76925000D03*
X162700000Y-84475000D03*
X165450000Y-81225000D03*
%TO.N,/BQ7791502PWR/BATT-*%
X117900000Y-92400000D03*
X115900000Y-97400000D03*
X117900000Y-90725000D03*
X115900000Y-94900000D03*
X117900000Y-97400000D03*
X117900000Y-94900000D03*
X111900000Y-92400000D03*
X115900000Y-92400000D03*
%TO.N,Net-(Q3-Pad5)*%
X126875000Y-90675000D03*
X126750000Y-95825000D03*
X134175000Y-95800000D03*
X124600000Y-90600000D03*
X129400000Y-93650000D03*
X134175000Y-90625000D03*
X129425000Y-92125000D03*
X132463692Y-95797828D03*
X131925000Y-90575000D03*
X129450000Y-95650500D03*
X124650000Y-95825000D03*
X129425000Y-90675000D03*
%TO.N,GNDPWR*%
X159150000Y-74900000D03*
X158031269Y-87828058D03*
X167400000Y-91150000D03*
X146650000Y-95900000D03*
X170900000Y-78150000D03*
X167150000Y-86900000D03*
X161751151Y-78675807D03*
X173400000Y-80900000D03*
X157975334Y-85798406D03*
X177400000Y-86400000D03*
X133425000Y-84650000D03*
X146400000Y-97400000D03*
X177900000Y-79900000D03*
X177650000Y-92900000D03*
X130400000Y-84650000D03*
X173650000Y-74900000D03*
X144150000Y-93900000D03*
X152150000Y-95900000D03*
X161900000Y-74900000D03*
X138400000Y-88400000D03*
X156650000Y-85725000D03*
X125900000Y-89650000D03*
X146925000Y-86600000D03*
X145925000Y-86600000D03*
X151375000Y-94150000D03*
X169650000Y-81900000D03*
X124150000Y-89650000D03*
X159400000Y-97400000D03*
X144925000Y-86600000D03*
X131400000Y-87900000D03*
X174400000Y-88400000D03*
X160227641Y-78675807D03*
X142875000Y-84875000D03*
X170400000Y-84900000D03*
X142900000Y-97400000D03*
X165900000Y-97400000D03*
X156073534Y-87244733D03*
X170650000Y-91150000D03*
X130150000Y-97400000D03*
X144150000Y-91400000D03*
X150100000Y-94150000D03*
X130288556Y-89788556D03*
X165650000Y-74900000D03*
X142400000Y-88400000D03*
X167400000Y-94150000D03*
X144500000Y-75800000D03*
X150194194Y-85547510D03*
X169400000Y-95900000D03*
X141400000Y-91900000D03*
X160240775Y-77174187D03*
X140600000Y-87100000D03*
X135150000Y-86150000D03*
X133150000Y-87650000D03*
X177650000Y-90150000D03*
X136650000Y-84650000D03*
X169150000Y-75150000D03*
X153900000Y-97400000D03*
X162650000Y-95900000D03*
X141150000Y-83150000D03*
X177900000Y-75150000D03*
X136400000Y-97400000D03*
X136600000Y-86825000D03*
X143925000Y-86600000D03*
X127650000Y-97400000D03*
X146900000Y-92900000D03*
X174650000Y-92150000D03*
X132900000Y-89650000D03*
X166900000Y-78150000D03*
X174650000Y-84400000D03*
X172650000Y-97400000D03*
X150150000Y-97400000D03*
X141400000Y-95900000D03*
X139400000Y-97400000D03*
X170650000Y-93650000D03*
X147925000Y-86600000D03*
X139935000Y-85925000D03*
X149500000Y-85484700D03*
X152650000Y-94100000D03*
X134800000Y-89975000D03*
X144500000Y-78200000D03*
X133400000Y-97400000D03*
X138375000Y-85925000D03*
X155290440Y-86837204D03*
X158023278Y-83784736D03*
X156900000Y-95900000D03*
%TD*%
%TA.AperFunction,Conductor*%
%TO.N,/BQ7791502PWR/BATT-*%
G36*
X119892183Y-90393907D02*
G01*
X119903996Y-90403996D01*
X120096004Y-90596004D01*
X120123781Y-90650521D01*
X120125000Y-90666008D01*
X120125000Y-98083992D01*
X120106093Y-98142183D01*
X120096004Y-98153996D01*
X120079496Y-98170504D01*
X120024979Y-98198281D01*
X120009492Y-98199500D01*
X112846833Y-98199500D01*
X112788642Y-98180593D01*
X112752678Y-98131093D01*
X112750051Y-98121337D01*
X112710019Y-97935400D01*
X112697607Y-97877747D01*
X112685881Y-97845960D01*
X112607301Y-97632960D01*
X112606088Y-97629672D01*
X112558377Y-97541248D01*
X112482188Y-97400045D01*
X112482187Y-97400043D01*
X112480527Y-97396967D01*
X112429377Y-97327714D01*
X112325509Y-97187088D01*
X112325507Y-97187085D01*
X112323431Y-97184275D01*
X112210613Y-97069671D01*
X112140390Y-96998336D01*
X112140383Y-96998330D01*
X112137933Y-96995841D01*
X111927735Y-96835423D01*
X111924678Y-96833711D01*
X111924675Y-96833709D01*
X111700090Y-96707936D01*
X111700089Y-96707935D01*
X111697031Y-96706223D01*
X111450424Y-96610818D01*
X111447018Y-96610029D01*
X111447013Y-96610027D01*
X111287530Y-96573061D01*
X111192835Y-96551112D01*
X111189343Y-96550810D01*
X111185887Y-96550262D01*
X111186103Y-96548900D01*
X111134598Y-96527076D01*
X111103052Y-96474650D01*
X111100500Y-96452318D01*
X111100500Y-92224000D01*
X111119407Y-92165809D01*
X111168907Y-92129845D01*
X111199500Y-92125000D01*
X116625000Y-92125000D01*
X116875000Y-91875000D01*
X116875000Y-90666008D01*
X116893907Y-90607817D01*
X116903996Y-90596004D01*
X117096004Y-90403996D01*
X117150521Y-90376219D01*
X117166008Y-90375000D01*
X119833992Y-90375000D01*
X119892183Y-90393907D01*
G37*
%TD.AperFunction*%
%TD*%
%TA.AperFunction,Conductor*%
%TO.N,/BQ24600RVAT/ADAPTER+*%
G36*
X165864352Y-75864352D02*
G01*
X165935648Y-75935648D01*
X165950000Y-75970296D01*
X165950000Y-82512430D01*
X165935648Y-82547078D01*
X165930318Y-82551691D01*
X165795072Y-82652685D01*
X165793267Y-82654033D01*
X165643499Y-82816051D01*
X165525764Y-83002650D01*
X165444006Y-83207579D01*
X165400962Y-83423976D01*
X165398074Y-83644594D01*
X165435438Y-83862043D01*
X165511804Y-84069043D01*
X165624614Y-84258659D01*
X165626094Y-84260347D01*
X165626095Y-84260348D01*
X165646793Y-84283949D01*
X165770090Y-84424543D01*
X165771847Y-84425928D01*
X165771850Y-84425931D01*
X165931335Y-84551657D01*
X165949660Y-84584378D01*
X165950000Y-84590138D01*
X165950000Y-93879704D01*
X165935648Y-93914352D01*
X165864352Y-93985648D01*
X165829704Y-94000000D01*
X162345296Y-94000000D01*
X162310648Y-93985648D01*
X162239352Y-93914352D01*
X162225000Y-93879704D01*
X162225000Y-81520296D01*
X162239352Y-81485648D01*
X163250000Y-80475000D01*
X163250000Y-78975000D01*
X162764352Y-78489352D01*
X162750000Y-78454704D01*
X162750000Y-75995296D01*
X162764352Y-75960648D01*
X162860648Y-75864352D01*
X162895296Y-75850000D01*
X165829704Y-75850000D01*
X165864352Y-75864352D01*
G37*
%TD.AperFunction*%
%TD*%
%TA.AperFunction,Conductor*%
%TO.N,Net-(Q3-Pad5)*%
G36*
X134367182Y-90318906D02*
G01*
X134378995Y-90328995D01*
X134421003Y-90371003D01*
X134448780Y-90425520D01*
X134449999Y-90441007D01*
X134449999Y-95958991D01*
X134431092Y-96017182D01*
X134421003Y-96028995D01*
X134378995Y-96071003D01*
X134324478Y-96098780D01*
X134308991Y-96099999D01*
X124491007Y-96099999D01*
X124432816Y-96081092D01*
X124421003Y-96071003D01*
X124378995Y-96028995D01*
X124351218Y-95974478D01*
X124349999Y-95958991D01*
X124349999Y-90441007D01*
X124368906Y-90382816D01*
X124378995Y-90371003D01*
X124421003Y-90328995D01*
X124475520Y-90301218D01*
X124491007Y-90299999D01*
X134308991Y-90299999D01*
X134367182Y-90318906D01*
G37*
%TD.AperFunction*%
%TD*%
%TA.AperFunction,Conductor*%
%TO.N,GNDPWR*%
G36*
X178070461Y-68675826D02*
G01*
X178085086Y-68675826D01*
X178100000Y-68680672D01*
X178108732Y-68677835D01*
X178111999Y-68678896D01*
X178112215Y-68676703D01*
X178231641Y-68688465D01*
X178250671Y-68692251D01*
X178309298Y-68710035D01*
X178367924Y-68727819D01*
X178385854Y-68735246D01*
X178493910Y-68793003D01*
X178510047Y-68803785D01*
X178604765Y-68881518D01*
X178618482Y-68895235D01*
X178651513Y-68935483D01*
X178696215Y-68989953D01*
X178706997Y-69006090D01*
X178764754Y-69114146D01*
X178772181Y-69132076D01*
X178807749Y-69249327D01*
X178811535Y-69268361D01*
X178823297Y-69387785D01*
X178822181Y-69387895D01*
X178822603Y-69389920D01*
X178819328Y-69400000D01*
X178824174Y-69414914D01*
X178824174Y-69429539D01*
X178824500Y-69431597D01*
X178824500Y-97543403D01*
X178824174Y-97545461D01*
X178824174Y-97560086D01*
X178819328Y-97575000D01*
X178822165Y-97583732D01*
X178821104Y-97586999D01*
X178823297Y-97587215D01*
X178813275Y-97688976D01*
X178811535Y-97706639D01*
X178807749Y-97725673D01*
X178772181Y-97842924D01*
X178764754Y-97860854D01*
X178706997Y-97968910D01*
X178696215Y-97985047D01*
X178618482Y-98079765D01*
X178604765Y-98093482D01*
X178547588Y-98140406D01*
X178510047Y-98171215D01*
X178493910Y-98181997D01*
X178385854Y-98239754D01*
X178367924Y-98247181D01*
X178309298Y-98264965D01*
X178250671Y-98282749D01*
X178231641Y-98286535D01*
X178112215Y-98298297D01*
X178112105Y-98297181D01*
X178110080Y-98297603D01*
X178100000Y-98294328D01*
X178085086Y-98299174D01*
X178070461Y-98299174D01*
X178068403Y-98299500D01*
X120407315Y-98299500D01*
X120349124Y-98280593D01*
X120313160Y-98231093D01*
X120313161Y-98169906D01*
X120319239Y-98151201D01*
X120319240Y-98151196D01*
X120320443Y-98147494D01*
X120329189Y-98092274D01*
X120329891Y-98087840D01*
X120329891Y-98087835D01*
X120330500Y-98083992D01*
X120330500Y-95958991D01*
X124144499Y-95958991D01*
X124145133Y-95975116D01*
X124146352Y-95990603D01*
X124168115Y-96067771D01*
X124195892Y-96122288D01*
X124198179Y-96125436D01*
X124198181Y-96125439D01*
X124231397Y-96171156D01*
X124233685Y-96174305D01*
X124275693Y-96216313D01*
X124287543Y-96227268D01*
X124288293Y-96227908D01*
X124288307Y-96227921D01*
X124295652Y-96234194D01*
X124295655Y-96234196D01*
X124299356Y-96237357D01*
X124303607Y-96239737D01*
X124303606Y-96239737D01*
X124365067Y-96274157D01*
X124365070Y-96274158D01*
X124369314Y-96276535D01*
X124427505Y-96295442D01*
X124431349Y-96296051D01*
X124431354Y-96296052D01*
X124487159Y-96304890D01*
X124487164Y-96304890D01*
X124491007Y-96305499D01*
X125915644Y-96305499D01*
X125973835Y-96324406D01*
X126009799Y-96373906D01*
X126009799Y-96435092D01*
X125981382Y-96477539D01*
X125980019Y-96478399D01*
X125894596Y-96575122D01*
X125839754Y-96691932D01*
X125819901Y-96819440D01*
X125820816Y-96826437D01*
X125820816Y-96826438D01*
X125823094Y-96843859D01*
X125836633Y-96947394D01*
X125839471Y-96953845D01*
X125839472Y-96953847D01*
X125846458Y-96969724D01*
X125888605Y-97065510D01*
X125930122Y-97114900D01*
X125967100Y-97158892D01*
X125967103Y-97158894D01*
X125971639Y-97164291D01*
X126079060Y-97235796D01*
X126085788Y-97237898D01*
X126085790Y-97237899D01*
X126140647Y-97255037D01*
X126202233Y-97274278D01*
X126266744Y-97275460D01*
X126324202Y-97276514D01*
X126324204Y-97276514D01*
X126331255Y-97276643D01*
X126338058Y-97274788D01*
X126338060Y-97274788D01*
X126379828Y-97263400D01*
X126455755Y-97242700D01*
X126565724Y-97175179D01*
X126652322Y-97079507D01*
X126708588Y-96963375D01*
X126727138Y-96853116D01*
X126729363Y-96839891D01*
X126729363Y-96839886D01*
X126729997Y-96836120D01*
X126730133Y-96825000D01*
X126711839Y-96697259D01*
X126658428Y-96579788D01*
X126574193Y-96482028D01*
X126569089Y-96478720D01*
X126537896Y-96426599D01*
X126543336Y-96365656D01*
X126583559Y-96319550D01*
X126634398Y-96305499D01*
X134308991Y-96305499D01*
X134309923Y-96305462D01*
X134309941Y-96305462D01*
X134324161Y-96304903D01*
X134324184Y-96304902D01*
X134325116Y-96304865D01*
X134326056Y-96304791D01*
X134326073Y-96304790D01*
X134335754Y-96304028D01*
X134335757Y-96304027D01*
X134340603Y-96303646D01*
X134417771Y-96281883D01*
X134425318Y-96278038D01*
X134437351Y-96271907D01*
X134472288Y-96254106D01*
X134499695Y-96234194D01*
X134521156Y-96218601D01*
X134521157Y-96218600D01*
X134524305Y-96216313D01*
X134566313Y-96174305D01*
X134577268Y-96162455D01*
X134587357Y-96150642D01*
X134626535Y-96080684D01*
X134645442Y-96022493D01*
X134651261Y-95985754D01*
X134654890Y-95962839D01*
X134654890Y-95962834D01*
X134655499Y-95958991D01*
X134655499Y-94125000D01*
X153504570Y-94125000D01*
X153505789Y-94132697D01*
X153517320Y-94205500D01*
X153524168Y-94248740D01*
X153581045Y-94360367D01*
X153669633Y-94448955D01*
X153676570Y-94452490D01*
X153676572Y-94452491D01*
X153774320Y-94502296D01*
X153781260Y-94505832D01*
X153788953Y-94507050D01*
X153788955Y-94507051D01*
X153897303Y-94524211D01*
X153905000Y-94525430D01*
X153912697Y-94524211D01*
X154021045Y-94507051D01*
X154021047Y-94507050D01*
X154028740Y-94505832D01*
X154035680Y-94502296D01*
X154133428Y-94452491D01*
X154133430Y-94452490D01*
X154140367Y-94448955D01*
X154228955Y-94360367D01*
X154285832Y-94248740D01*
X154292681Y-94205500D01*
X154301471Y-94150000D01*
X154624570Y-94150000D01*
X154625789Y-94157697D01*
X154641308Y-94255680D01*
X154644168Y-94273740D01*
X154647704Y-94280679D01*
X154647704Y-94280680D01*
X154688307Y-94360367D01*
X154701045Y-94385367D01*
X154789633Y-94473955D01*
X154796570Y-94477490D01*
X154796572Y-94477491D01*
X154890658Y-94525430D01*
X154901260Y-94530832D01*
X154908953Y-94532050D01*
X154908955Y-94532051D01*
X155017303Y-94549211D01*
X155025000Y-94550430D01*
X155032697Y-94549211D01*
X155141045Y-94532051D01*
X155141047Y-94532050D01*
X155148740Y-94530832D01*
X155159342Y-94525430D01*
X155253428Y-94477491D01*
X155253430Y-94477490D01*
X155260367Y-94473955D01*
X155348955Y-94385367D01*
X155361694Y-94360367D01*
X155402296Y-94280680D01*
X155402296Y-94280679D01*
X155405832Y-94273740D01*
X155408693Y-94255680D01*
X155424211Y-94157697D01*
X155425430Y-94150000D01*
X155421870Y-94127523D01*
X155407051Y-94033955D01*
X155407050Y-94033953D01*
X155405832Y-94026260D01*
X155386593Y-93988502D01*
X155352491Y-93921572D01*
X155352490Y-93921570D01*
X155348955Y-93914633D01*
X155314026Y-93879704D01*
X162019500Y-93879704D01*
X162035143Y-93958347D01*
X162037003Y-93962836D01*
X162037004Y-93962841D01*
X162045856Y-93984209D01*
X162049495Y-93992995D01*
X162094042Y-94059662D01*
X162165338Y-94130958D01*
X162232005Y-94175505D01*
X162236499Y-94177366D01*
X162236498Y-94177366D01*
X162262159Y-94187996D01*
X162262164Y-94187997D01*
X162266653Y-94189857D01*
X162271421Y-94190805D01*
X162271423Y-94190806D01*
X162294399Y-94195376D01*
X162345296Y-94205500D01*
X165829704Y-94205500D01*
X165880601Y-94195376D01*
X165903577Y-94190806D01*
X165903579Y-94190805D01*
X165908347Y-94189857D01*
X165912836Y-94187997D01*
X165912841Y-94187996D01*
X165938502Y-94177366D01*
X165938501Y-94177366D01*
X165942995Y-94175505D01*
X166009662Y-94130958D01*
X166080958Y-94059662D01*
X166125505Y-93992995D01*
X166129144Y-93984209D01*
X166137996Y-93962841D01*
X166137997Y-93962836D01*
X166139857Y-93958347D01*
X166155500Y-93879704D01*
X166155500Y-84590138D01*
X166155143Y-84578029D01*
X166154803Y-84572269D01*
X166128957Y-84483965D01*
X166110632Y-84451244D01*
X166058558Y-84390273D01*
X165944591Y-84300430D01*
X165919282Y-84280478D01*
X165906140Y-84268006D01*
X165801296Y-84148454D01*
X165801295Y-84148452D01*
X165797565Y-84144199D01*
X165786916Y-84129542D01*
X165725470Y-84026260D01*
X165702716Y-83988015D01*
X165694918Y-83971666D01*
X165673878Y-83914633D01*
X165637920Y-83817165D01*
X165633232Y-83799668D01*
X165605344Y-83637367D01*
X165603922Y-83619306D01*
X165606078Y-83454642D01*
X165607972Y-83436624D01*
X165640099Y-83275109D01*
X165645245Y-83257737D01*
X165706265Y-83104791D01*
X165714490Y-83088650D01*
X165802367Y-82949372D01*
X165813396Y-82934998D01*
X165925177Y-82814073D01*
X165938641Y-82801950D01*
X166052552Y-82716888D01*
X166052556Y-82716885D01*
X166053275Y-82716348D01*
X166064801Y-82707076D01*
X166065467Y-82706500D01*
X166065779Y-82706230D01*
X166065781Y-82706228D01*
X166070131Y-82702463D01*
X166125505Y-82625721D01*
X166133207Y-82607127D01*
X166137996Y-82595567D01*
X166137997Y-82595562D01*
X166139857Y-82591073D01*
X166155500Y-82512430D01*
X166155500Y-75970296D01*
X166139857Y-75891653D01*
X166137997Y-75887164D01*
X166137996Y-75887159D01*
X166127366Y-75861498D01*
X166125505Y-75857005D01*
X166080958Y-75790338D01*
X166009662Y-75719042D01*
X165942995Y-75674495D01*
X165934209Y-75670856D01*
X165912841Y-75662004D01*
X165912836Y-75662003D01*
X165908347Y-75660143D01*
X165903579Y-75659195D01*
X165903577Y-75659194D01*
X165880601Y-75654624D01*
X165829704Y-75644500D01*
X162895296Y-75644500D01*
X162844399Y-75654624D01*
X162821423Y-75659194D01*
X162821421Y-75659195D01*
X162816653Y-75660143D01*
X162812164Y-75662003D01*
X162812159Y-75662004D01*
X162790791Y-75670856D01*
X162782005Y-75674495D01*
X162715338Y-75719042D01*
X162619042Y-75815338D01*
X162574495Y-75882005D01*
X162572634Y-75886498D01*
X162562004Y-75912159D01*
X162562003Y-75912164D01*
X162560143Y-75916653D01*
X162544500Y-75995296D01*
X162544500Y-78454704D01*
X162560143Y-78533347D01*
X162562003Y-78537836D01*
X162562004Y-78537841D01*
X162567219Y-78550430D01*
X162574495Y-78567995D01*
X162619042Y-78634662D01*
X163015504Y-79031124D01*
X163043281Y-79085641D01*
X163044500Y-79101128D01*
X163044500Y-80348872D01*
X163025593Y-80407063D01*
X163015504Y-80418876D01*
X162094042Y-81340338D01*
X162049495Y-81407005D01*
X162047634Y-81411498D01*
X162037004Y-81437159D01*
X162037003Y-81437164D01*
X162035143Y-81441653D01*
X162034195Y-81446421D01*
X162034194Y-81446423D01*
X162030806Y-81463458D01*
X162019500Y-81520296D01*
X162019500Y-93879704D01*
X155314026Y-93879704D01*
X155260367Y-93826045D01*
X155253430Y-93822510D01*
X155253428Y-93822509D01*
X155155680Y-93772704D01*
X155155679Y-93772704D01*
X155148740Y-93769168D01*
X155141047Y-93767950D01*
X155141045Y-93767949D01*
X155032697Y-93750789D01*
X155025000Y-93749570D01*
X155017303Y-93750789D01*
X154908955Y-93767949D01*
X154908953Y-93767950D01*
X154901260Y-93769168D01*
X154894321Y-93772704D01*
X154894320Y-93772704D01*
X154796572Y-93822509D01*
X154796570Y-93822510D01*
X154789633Y-93826045D01*
X154701045Y-93914633D01*
X154697510Y-93921570D01*
X154697509Y-93921572D01*
X154663407Y-93988502D01*
X154644168Y-94026260D01*
X154642950Y-94033953D01*
X154642949Y-94033955D01*
X154628130Y-94127523D01*
X154624570Y-94150000D01*
X154301471Y-94150000D01*
X154304211Y-94132697D01*
X154305430Y-94125000D01*
X154289792Y-94026260D01*
X154287051Y-94008955D01*
X154287050Y-94008953D01*
X154285832Y-94001260D01*
X154281621Y-93992995D01*
X154232491Y-93896572D01*
X154232490Y-93896570D01*
X154228955Y-93889633D01*
X154140367Y-93801045D01*
X154133430Y-93797510D01*
X154133428Y-93797509D01*
X154035680Y-93747704D01*
X154035679Y-93747704D01*
X154028740Y-93744168D01*
X154021047Y-93742950D01*
X154021045Y-93742949D01*
X153912697Y-93725789D01*
X153905000Y-93724570D01*
X153897303Y-93725789D01*
X153788955Y-93742949D01*
X153788953Y-93742950D01*
X153781260Y-93744168D01*
X153774321Y-93747704D01*
X153774320Y-93747704D01*
X153676572Y-93797509D01*
X153676570Y-93797510D01*
X153669633Y-93801045D01*
X153581045Y-93889633D01*
X153577510Y-93896570D01*
X153577509Y-93896572D01*
X153528379Y-93992995D01*
X153524168Y-94001260D01*
X153522950Y-94008953D01*
X153522949Y-94008955D01*
X153520208Y-94026260D01*
X153504570Y-94125000D01*
X134655499Y-94125000D01*
X134655499Y-90441007D01*
X134654865Y-90424882D01*
X134653646Y-90409395D01*
X134631883Y-90332227D01*
X134604106Y-90277710D01*
X134589814Y-90258038D01*
X134568601Y-90228842D01*
X134568600Y-90228841D01*
X134566313Y-90225693D01*
X134524305Y-90183685D01*
X134512455Y-90172730D01*
X134511705Y-90172090D01*
X134511691Y-90172077D01*
X134504346Y-90165804D01*
X134504343Y-90165802D01*
X134500642Y-90162641D01*
X134447173Y-90132697D01*
X134434931Y-90125841D01*
X134434928Y-90125840D01*
X134430684Y-90123463D01*
X134372493Y-90104556D01*
X134368649Y-90103947D01*
X134368644Y-90103946D01*
X134312839Y-90095108D01*
X134312834Y-90095108D01*
X134308991Y-90094499D01*
X124491007Y-90094499D01*
X124490075Y-90094536D01*
X124490057Y-90094536D01*
X124475837Y-90095095D01*
X124475814Y-90095096D01*
X124474882Y-90095133D01*
X124473942Y-90095207D01*
X124473925Y-90095208D01*
X124464244Y-90095970D01*
X124464241Y-90095971D01*
X124459395Y-90096352D01*
X124382227Y-90118115D01*
X124377893Y-90120323D01*
X124377891Y-90120324D01*
X124368714Y-90125000D01*
X124327710Y-90145892D01*
X124324562Y-90148179D01*
X124324559Y-90148181D01*
X124279719Y-90180760D01*
X124275693Y-90183685D01*
X124233685Y-90225693D01*
X124222730Y-90237543D01*
X124212641Y-90249356D01*
X124173463Y-90319314D01*
X124154556Y-90377505D01*
X124153947Y-90381349D01*
X124153946Y-90381354D01*
X124145108Y-90437159D01*
X124144499Y-90441007D01*
X124144499Y-95958991D01*
X120330500Y-95958991D01*
X120330500Y-90666008D01*
X120329866Y-90649883D01*
X120328647Y-90634396D01*
X120306884Y-90557228D01*
X120279107Y-90502711D01*
X120258507Y-90474357D01*
X120243602Y-90453843D01*
X120243601Y-90453842D01*
X120241314Y-90450694D01*
X120049306Y-90258686D01*
X120037456Y-90247731D01*
X120036706Y-90247091D01*
X120036692Y-90247078D01*
X120029347Y-90240805D01*
X120029344Y-90240803D01*
X120025643Y-90237642D01*
X119999823Y-90223182D01*
X119959932Y-90200842D01*
X119959929Y-90200841D01*
X119955685Y-90198464D01*
X119897494Y-90179557D01*
X119893650Y-90178948D01*
X119893645Y-90178947D01*
X119837840Y-90170109D01*
X119837835Y-90170109D01*
X119833992Y-90169500D01*
X117166008Y-90169500D01*
X117165076Y-90169537D01*
X117165058Y-90169537D01*
X117150838Y-90170096D01*
X117150815Y-90170097D01*
X117149883Y-90170134D01*
X117148943Y-90170208D01*
X117148926Y-90170209D01*
X117139245Y-90170971D01*
X117139242Y-90170972D01*
X117134396Y-90171353D01*
X117057228Y-90193116D01*
X117052894Y-90195324D01*
X117052892Y-90195325D01*
X117042064Y-90200842D01*
X117002711Y-90220893D01*
X116999563Y-90223180D01*
X116999560Y-90223182D01*
X116966671Y-90247078D01*
X116950694Y-90258686D01*
X116758686Y-90450694D01*
X116747731Y-90462544D01*
X116737642Y-90474357D01*
X116735262Y-90478607D01*
X116709723Y-90524211D01*
X116698464Y-90544315D01*
X116679557Y-90602506D01*
X116678948Y-90606350D01*
X116678947Y-90606355D01*
X116670109Y-90662160D01*
X116669500Y-90666008D01*
X116669500Y-91748872D01*
X116650593Y-91807063D01*
X116640504Y-91818876D01*
X116568876Y-91890504D01*
X116514359Y-91918281D01*
X116498872Y-91919500D01*
X111199500Y-91919500D01*
X111167356Y-91922030D01*
X111159141Y-91923331D01*
X111142532Y-91925961D01*
X111142529Y-91925962D01*
X111136763Y-91926875D01*
X111131369Y-91929109D01*
X111126370Y-91930519D01*
X111065231Y-91928115D01*
X111017183Y-91890234D01*
X111000500Y-91835235D01*
X111000500Y-91474000D01*
X111019407Y-91415809D01*
X111068907Y-91379845D01*
X111099500Y-91375000D01*
X111524310Y-91375000D01*
X111582501Y-91393907D01*
X111618465Y-91443407D01*
X111623310Y-91474000D01*
X111623310Y-91493000D01*
X113126691Y-91493000D01*
X113126691Y-90125000D01*
X114274570Y-90125000D01*
X114275789Y-90132697D01*
X114292516Y-90238307D01*
X114294168Y-90248740D01*
X114297704Y-90255679D01*
X114297704Y-90255680D01*
X114339094Y-90336911D01*
X114351045Y-90360367D01*
X114439633Y-90448955D01*
X114446570Y-90452490D01*
X114446572Y-90452491D01*
X114544320Y-90502296D01*
X114551260Y-90505832D01*
X114558953Y-90507050D01*
X114558955Y-90507051D01*
X114667303Y-90524211D01*
X114675000Y-90525430D01*
X114682697Y-90524211D01*
X114791045Y-90507051D01*
X114791047Y-90507050D01*
X114798740Y-90505832D01*
X114805680Y-90502296D01*
X114903428Y-90452491D01*
X114903430Y-90452490D01*
X114910367Y-90448955D01*
X114998955Y-90360367D01*
X115010907Y-90336911D01*
X115052296Y-90255680D01*
X115052296Y-90255679D01*
X115055832Y-90248740D01*
X115057485Y-90238307D01*
X115074211Y-90132697D01*
X115075430Y-90125000D01*
X115072192Y-90104556D01*
X115057051Y-90008955D01*
X115057050Y-90008953D01*
X115055832Y-90001260D01*
X114998955Y-89889633D01*
X114910367Y-89801045D01*
X114903430Y-89797510D01*
X114903428Y-89797509D01*
X114805680Y-89747704D01*
X114805679Y-89747704D01*
X114798740Y-89744168D01*
X114791047Y-89742950D01*
X114791045Y-89742949D01*
X114682697Y-89725789D01*
X114675000Y-89724570D01*
X114667303Y-89725789D01*
X114558955Y-89742949D01*
X114558953Y-89742950D01*
X114551260Y-89744168D01*
X114544321Y-89747704D01*
X114544320Y-89747704D01*
X114446572Y-89797509D01*
X114446570Y-89797510D01*
X114439633Y-89801045D01*
X114351045Y-89889633D01*
X114294168Y-90001260D01*
X114292950Y-90008953D01*
X114292949Y-90008955D01*
X114277808Y-90104556D01*
X114274570Y-90125000D01*
X113126691Y-90125000D01*
X113126691Y-89474000D01*
X113145598Y-89415809D01*
X113195098Y-89379845D01*
X113225691Y-89375000D01*
X124875000Y-89375000D01*
X125125000Y-89125000D01*
X125125000Y-85920533D01*
X125143907Y-85862342D01*
X125159572Y-85845367D01*
X125889820Y-85219440D01*
X136994901Y-85219440D01*
X136995816Y-85226437D01*
X136995816Y-85226438D01*
X136997575Y-85239891D01*
X137011633Y-85347394D01*
X137014471Y-85353845D01*
X137014472Y-85353847D01*
X137055223Y-85446461D01*
X137063605Y-85465510D01*
X137101099Y-85510115D01*
X137142100Y-85558892D01*
X137142103Y-85558894D01*
X137146639Y-85564291D01*
X137254060Y-85635796D01*
X137260788Y-85637898D01*
X137260790Y-85637899D01*
X137315646Y-85655037D01*
X137377233Y-85674278D01*
X137441744Y-85675461D01*
X137499202Y-85676514D01*
X137499204Y-85676514D01*
X137506255Y-85676643D01*
X137513058Y-85674788D01*
X137513060Y-85674788D01*
X137554828Y-85663400D01*
X137630755Y-85642700D01*
X137665157Y-85621577D01*
X150491112Y-85621577D01*
X150492331Y-85629274D01*
X150507887Y-85727491D01*
X150510710Y-85745317D01*
X150514246Y-85752256D01*
X150514246Y-85752257D01*
X150538792Y-85800430D01*
X150567587Y-85856944D01*
X150656175Y-85945532D01*
X150663112Y-85949067D01*
X150663114Y-85949068D01*
X150760862Y-85998873D01*
X150767802Y-86002409D01*
X150775495Y-86003627D01*
X150775497Y-86003628D01*
X150883845Y-86020788D01*
X150891542Y-86022007D01*
X150899239Y-86020788D01*
X151007587Y-86003628D01*
X151007589Y-86003627D01*
X151015282Y-86002409D01*
X151022222Y-85998873D01*
X151119970Y-85949068D01*
X151119972Y-85949067D01*
X151126909Y-85945532D01*
X151215497Y-85856944D01*
X151244293Y-85800430D01*
X151268838Y-85752257D01*
X151268838Y-85752256D01*
X151272374Y-85745317D01*
X151275198Y-85727491D01*
X151278563Y-85706241D01*
X151306340Y-85651724D01*
X151360857Y-85623947D01*
X151391830Y-85623947D01*
X151500000Y-85641079D01*
X151507697Y-85639860D01*
X151616045Y-85622700D01*
X151616047Y-85622699D01*
X151623740Y-85621481D01*
X151638658Y-85613880D01*
X151728428Y-85568140D01*
X151728430Y-85568139D01*
X151735367Y-85564604D01*
X151823955Y-85476016D01*
X151829739Y-85464666D01*
X151877296Y-85371329D01*
X151877296Y-85371328D01*
X151880832Y-85364389D01*
X151882095Y-85356418D01*
X151899211Y-85248346D01*
X151900430Y-85240649D01*
X151895589Y-85210082D01*
X151882051Y-85124604D01*
X151882050Y-85124602D01*
X151880832Y-85116909D01*
X151874378Y-85104243D01*
X151827491Y-85012221D01*
X151827490Y-85012219D01*
X151823955Y-85005282D01*
X151735367Y-84916694D01*
X151728430Y-84913159D01*
X151728428Y-84913158D01*
X151630680Y-84863353D01*
X151630679Y-84863353D01*
X151623740Y-84859817D01*
X151616047Y-84858599D01*
X151616045Y-84858598D01*
X151507697Y-84841438D01*
X151500000Y-84840219D01*
X151492303Y-84841438D01*
X151383955Y-84858598D01*
X151383953Y-84858599D01*
X151376260Y-84859817D01*
X151369321Y-84863353D01*
X151369320Y-84863353D01*
X151271572Y-84913158D01*
X151271570Y-84913159D01*
X151264633Y-84916694D01*
X151176045Y-85005282D01*
X151172510Y-85012219D01*
X151172509Y-85012221D01*
X151125622Y-85104243D01*
X151119168Y-85116909D01*
X151117950Y-85124602D01*
X151117949Y-85124604D01*
X151112979Y-85155985D01*
X151085202Y-85210502D01*
X151030685Y-85238279D01*
X150999712Y-85238279D01*
X150924949Y-85226438D01*
X150899239Y-85222366D01*
X150891542Y-85221147D01*
X150883845Y-85222366D01*
X150775497Y-85239526D01*
X150775495Y-85239527D01*
X150767802Y-85240745D01*
X150760863Y-85244281D01*
X150760862Y-85244281D01*
X150663114Y-85294086D01*
X150663112Y-85294087D01*
X150656175Y-85297622D01*
X150567587Y-85386210D01*
X150564052Y-85393147D01*
X150564051Y-85393149D01*
X150519023Y-85481522D01*
X150510710Y-85497837D01*
X150509492Y-85505530D01*
X150509491Y-85505532D01*
X150498323Y-85576045D01*
X150491112Y-85621577D01*
X137665157Y-85621577D01*
X137740724Y-85575179D01*
X137747042Y-85568199D01*
X137822590Y-85484735D01*
X137822590Y-85484734D01*
X137827322Y-85479507D01*
X137866576Y-85398488D01*
X137880512Y-85369724D01*
X137880512Y-85369723D01*
X137883588Y-85363375D01*
X137896358Y-85287470D01*
X137904363Y-85239891D01*
X137904363Y-85239886D01*
X137904997Y-85236120D01*
X137905133Y-85225000D01*
X137886839Y-85097259D01*
X137851333Y-85019168D01*
X137836349Y-84986212D01*
X137836348Y-84986211D01*
X137833428Y-84979788D01*
X137762483Y-84897452D01*
X137753798Y-84887372D01*
X137753797Y-84887371D01*
X137749193Y-84882028D01*
X137743276Y-84878193D01*
X137743274Y-84878191D01*
X137646824Y-84815677D01*
X137640906Y-84811841D01*
X137634150Y-84809821D01*
X137634149Y-84809820D01*
X137591335Y-84797016D01*
X137517273Y-84774866D01*
X137440644Y-84774398D01*
X137395282Y-84774121D01*
X137388231Y-84774078D01*
X137381454Y-84776015D01*
X137381453Y-84776015D01*
X137270935Y-84807601D01*
X137270933Y-84807602D01*
X137264155Y-84809539D01*
X137155019Y-84878399D01*
X137069596Y-84975122D01*
X137014754Y-85091932D01*
X136994901Y-85219440D01*
X125889820Y-85219440D01*
X126847194Y-84398834D01*
X126903680Y-84375319D01*
X126911622Y-84375000D01*
X137375000Y-84375000D01*
X137625000Y-84125000D01*
X137625000Y-82916008D01*
X137643907Y-82857817D01*
X137653996Y-82846004D01*
X137846004Y-82653996D01*
X137900521Y-82626219D01*
X137916008Y-82625000D01*
X141333992Y-82625000D01*
X141392183Y-82643907D01*
X141403996Y-82653996D01*
X141596004Y-82846004D01*
X141623781Y-82900521D01*
X141625000Y-82916008D01*
X141625000Y-84125000D01*
X141875000Y-84375000D01*
X148875000Y-84375000D01*
X149096004Y-84153996D01*
X149150521Y-84126219D01*
X149166008Y-84125000D01*
X150330178Y-84125000D01*
X150388369Y-84143907D01*
X150399578Y-84153399D01*
X150625000Y-84375000D01*
X153333992Y-84375000D01*
X153392183Y-84393907D01*
X153403996Y-84403996D01*
X153596004Y-84596004D01*
X153623781Y-84650521D01*
X153625000Y-84666008D01*
X153625000Y-84984619D01*
X153606093Y-85042810D01*
X153577419Y-85067301D01*
X153577876Y-85067930D01*
X153571575Y-85072508D01*
X153564633Y-85076045D01*
X153476045Y-85164633D01*
X153472509Y-85171572D01*
X153472508Y-85171574D01*
X153465656Y-85185022D01*
X153422392Y-85228287D01*
X153361960Y-85237859D01*
X153307443Y-85210082D01*
X153284687Y-85165424D01*
X153282569Y-85166112D01*
X153280162Y-85158702D01*
X153278943Y-85151008D01*
X153275407Y-85144068D01*
X153225602Y-85046320D01*
X153225601Y-85046318D01*
X153222066Y-85039381D01*
X153133478Y-84950793D01*
X153126541Y-84947258D01*
X153126539Y-84947257D01*
X153028791Y-84897452D01*
X153028790Y-84897452D01*
X153021851Y-84893916D01*
X153014158Y-84892698D01*
X153014156Y-84892697D01*
X152905808Y-84875537D01*
X152898111Y-84874318D01*
X152890414Y-84875537D01*
X152782066Y-84892697D01*
X152782064Y-84892698D01*
X152774371Y-84893916D01*
X152767432Y-84897452D01*
X152767431Y-84897452D01*
X152669683Y-84947257D01*
X152669681Y-84947258D01*
X152662744Y-84950793D01*
X152574156Y-85039381D01*
X152570621Y-85046318D01*
X152570620Y-85046320D01*
X152520815Y-85144068D01*
X152517279Y-85151008D01*
X152516061Y-85158701D01*
X152516060Y-85158703D01*
X152498900Y-85267051D01*
X152497681Y-85274748D01*
X152498900Y-85282445D01*
X152512978Y-85371329D01*
X152517279Y-85398488D01*
X152520815Y-85405427D01*
X152520815Y-85405428D01*
X152559236Y-85480832D01*
X152574156Y-85510115D01*
X152662744Y-85598703D01*
X152669681Y-85602238D01*
X152669683Y-85602239D01*
X152752731Y-85644554D01*
X152774371Y-85655580D01*
X152782064Y-85656798D01*
X152782066Y-85656799D01*
X152890414Y-85673959D01*
X152898111Y-85675178D01*
X152905808Y-85673959D01*
X153014156Y-85656799D01*
X153014158Y-85656798D01*
X153021851Y-85655580D01*
X153043491Y-85644554D01*
X153126539Y-85602239D01*
X153126541Y-85602238D01*
X153133478Y-85598703D01*
X153222066Y-85510115D01*
X153232455Y-85489726D01*
X153275719Y-85446461D01*
X153336151Y-85436889D01*
X153390668Y-85464666D01*
X153413424Y-85509324D01*
X153415542Y-85508636D01*
X153417949Y-85516046D01*
X153419168Y-85523740D01*
X153422704Y-85530679D01*
X153422704Y-85530680D01*
X153470544Y-85624570D01*
X153476045Y-85635367D01*
X153564633Y-85723955D01*
X153571570Y-85727490D01*
X153571572Y-85727491D01*
X153653368Y-85769168D01*
X153676260Y-85780832D01*
X153683953Y-85782050D01*
X153683955Y-85782051D01*
X153798976Y-85800268D01*
X153853492Y-85828045D01*
X153875000Y-85863142D01*
X153875000Y-85875000D01*
X154096004Y-86096004D01*
X154123781Y-86150521D01*
X154125000Y-86166008D01*
X154125000Y-86375000D01*
X154375000Y-86625000D01*
X156125000Y-86625000D01*
X156375000Y-86375000D01*
X156375000Y-83916008D01*
X156393907Y-83857817D01*
X156403996Y-83846004D01*
X156596004Y-83653996D01*
X156650521Y-83626219D01*
X156666008Y-83625000D01*
X157125000Y-83625000D01*
X157375000Y-83375000D01*
X157375000Y-82416008D01*
X157393907Y-82357817D01*
X157403996Y-82346004D01*
X157646004Y-82103996D01*
X157700521Y-82076219D01*
X157716008Y-82075000D01*
X158675000Y-82075000D01*
X158875000Y-81875000D01*
X158875000Y-78275330D01*
X158893907Y-78217139D01*
X158903996Y-78205326D01*
X158948955Y-78160367D01*
X158954238Y-78150000D01*
X159002296Y-78055680D01*
X159002296Y-78055679D01*
X159005832Y-78048740D01*
X159009393Y-78026260D01*
X159024211Y-77932697D01*
X159025430Y-77925000D01*
X159023788Y-77914633D01*
X159007051Y-77808955D01*
X159007050Y-77808953D01*
X159005832Y-77801260D01*
X158948955Y-77689633D01*
X158903996Y-77644674D01*
X158876219Y-77590157D01*
X158875000Y-77574670D01*
X158875000Y-76750330D01*
X158893907Y-76692139D01*
X158903996Y-76680326D01*
X158948955Y-76635367D01*
X158966938Y-76600075D01*
X159002296Y-76530680D01*
X159002296Y-76530679D01*
X159005832Y-76523740D01*
X159025430Y-76400000D01*
X159021075Y-76372505D01*
X159007051Y-76283955D01*
X159007050Y-76283953D01*
X159005832Y-76276260D01*
X159002296Y-76269320D01*
X158952491Y-76171572D01*
X158952490Y-76171570D01*
X158948955Y-76164633D01*
X158903996Y-76119674D01*
X158876219Y-76065157D01*
X158875000Y-76049670D01*
X158875000Y-73375000D01*
X158125000Y-72625000D01*
X149625000Y-72625000D01*
X148925000Y-73325000D01*
X148925000Y-80033992D01*
X148906093Y-80092183D01*
X148896004Y-80103996D01*
X148653996Y-80346004D01*
X148599479Y-80373781D01*
X148583992Y-80375000D01*
X144416008Y-80375000D01*
X144357817Y-80356093D01*
X144346004Y-80346004D01*
X144153996Y-80153996D01*
X144126219Y-80099479D01*
X144125000Y-80083992D01*
X144125000Y-73375000D01*
X143375000Y-72625000D01*
X119875000Y-72625000D01*
X118854701Y-73863935D01*
X118803114Y-73896835D01*
X118778280Y-73900000D01*
X111099500Y-73900000D01*
X111041309Y-73881093D01*
X111005345Y-73831593D01*
X111000500Y-73801000D01*
X111000500Y-69431597D01*
X111000826Y-69429539D01*
X111000826Y-69414914D01*
X111005672Y-69400000D01*
X111002835Y-69391268D01*
X111003896Y-69388001D01*
X111001703Y-69387785D01*
X111013465Y-69268361D01*
X111017251Y-69249327D01*
X111052819Y-69132076D01*
X111060246Y-69114146D01*
X111118003Y-69006090D01*
X111128785Y-68989953D01*
X111173487Y-68935483D01*
X111206518Y-68895235D01*
X111220235Y-68881518D01*
X111314953Y-68803785D01*
X111331090Y-68793003D01*
X111439146Y-68735246D01*
X111457076Y-68727819D01*
X111515702Y-68710035D01*
X111574329Y-68692251D01*
X111593359Y-68688465D01*
X111712785Y-68676703D01*
X111712895Y-68677819D01*
X111714920Y-68677397D01*
X111725000Y-68680672D01*
X111739914Y-68675826D01*
X111754539Y-68675826D01*
X111756597Y-68675500D01*
X178068403Y-68675500D01*
X178070461Y-68675826D01*
G37*
%TD.AperFunction*%
%TD*%
%TA.AperFunction,Conductor*%
%TO.N,GND*%
G36*
X143142183Y-72893907D02*
G01*
X143153996Y-72903996D01*
X143846004Y-73596004D01*
X143873781Y-73650521D01*
X143875000Y-73666008D01*
X143875000Y-80375000D01*
X144125000Y-80625000D01*
X148600000Y-80650000D01*
X148950000Y-80300000D01*
X153074570Y-80300000D01*
X153075789Y-80307697D01*
X153086449Y-80375000D01*
X153094168Y-80423740D01*
X153097704Y-80430679D01*
X153097704Y-80430680D01*
X153133025Y-80500000D01*
X153151045Y-80535367D01*
X153239633Y-80623955D01*
X153246570Y-80627490D01*
X153246572Y-80627491D01*
X153344320Y-80677296D01*
X153351260Y-80680832D01*
X153358953Y-80682050D01*
X153358955Y-80682051D01*
X153467303Y-80699211D01*
X153475000Y-80700430D01*
X153482697Y-80699211D01*
X153591045Y-80682051D01*
X153591047Y-80682050D01*
X153598740Y-80680832D01*
X153605680Y-80677296D01*
X153703428Y-80627491D01*
X153703430Y-80627490D01*
X153710367Y-80623955D01*
X153798955Y-80535367D01*
X153816976Y-80500000D01*
X153852296Y-80430680D01*
X153852296Y-80430679D01*
X153855832Y-80423740D01*
X153863552Y-80375000D01*
X153874211Y-80307697D01*
X153875430Y-80300000D01*
X153855832Y-80176260D01*
X153826121Y-80117949D01*
X153802491Y-80071572D01*
X153802490Y-80071570D01*
X153798955Y-80064633D01*
X153710367Y-79976045D01*
X153703430Y-79972510D01*
X153703428Y-79972509D01*
X153605680Y-79922704D01*
X153605679Y-79922704D01*
X153598740Y-79919168D01*
X153591047Y-79917950D01*
X153591045Y-79917949D01*
X153482697Y-79900789D01*
X153475000Y-79899570D01*
X153467303Y-79900789D01*
X153358955Y-79917949D01*
X153358953Y-79917950D01*
X153351260Y-79919168D01*
X153344321Y-79922704D01*
X153344320Y-79922704D01*
X153246572Y-79972509D01*
X153246570Y-79972510D01*
X153239633Y-79976045D01*
X153151045Y-80064633D01*
X153147510Y-80071570D01*
X153147509Y-80071572D01*
X153123879Y-80117949D01*
X153094168Y-80176260D01*
X153074570Y-80300000D01*
X148950000Y-80300000D01*
X149125000Y-80125000D01*
X149125090Y-80100789D01*
X149132100Y-78201056D01*
X154125626Y-78201056D01*
X154126845Y-78208753D01*
X154143230Y-78312203D01*
X154145224Y-78324796D01*
X154148760Y-78331735D01*
X154148760Y-78331736D01*
X154197451Y-78427296D01*
X154202101Y-78436423D01*
X154290689Y-78525011D01*
X154297626Y-78528546D01*
X154297628Y-78528547D01*
X154395376Y-78578352D01*
X154402316Y-78581888D01*
X154410009Y-78583106D01*
X154410011Y-78583107D01*
X154518359Y-78600267D01*
X154526056Y-78601486D01*
X154533753Y-78600267D01*
X154642101Y-78583107D01*
X154642103Y-78583106D01*
X154649796Y-78581888D01*
X154656736Y-78578352D01*
X154754484Y-78528547D01*
X154754486Y-78528546D01*
X154761423Y-78525011D01*
X154850011Y-78436423D01*
X154854662Y-78427296D01*
X154903352Y-78331736D01*
X154903352Y-78331735D01*
X154906888Y-78324796D01*
X154908883Y-78312203D01*
X154925267Y-78208753D01*
X154926486Y-78201056D01*
X154906888Y-78077316D01*
X154850011Y-77965689D01*
X154761423Y-77877101D01*
X154754486Y-77873566D01*
X154754484Y-77873565D01*
X154656736Y-77823760D01*
X154656735Y-77823760D01*
X154649796Y-77820224D01*
X154642103Y-77819006D01*
X154642101Y-77819005D01*
X154533753Y-77801845D01*
X154526056Y-77800626D01*
X154518359Y-77801845D01*
X154410011Y-77819005D01*
X154410009Y-77819006D01*
X154402316Y-77820224D01*
X154395377Y-77823760D01*
X154395376Y-77823760D01*
X154297628Y-77873565D01*
X154297626Y-77873566D01*
X154290689Y-77877101D01*
X154202101Y-77965689D01*
X154145224Y-78077316D01*
X154125626Y-78201056D01*
X149132100Y-78201056D01*
X149137570Y-76718449D01*
X149143192Y-75194748D01*
X153824500Y-75194748D01*
X153836133Y-75253231D01*
X153880448Y-75319552D01*
X153946769Y-75363867D01*
X153956332Y-75365769D01*
X153956334Y-75365770D01*
X153979005Y-75370279D01*
X154005252Y-75375500D01*
X154894748Y-75375500D01*
X154920995Y-75370279D01*
X154943666Y-75365770D01*
X154943668Y-75365769D01*
X154953231Y-75363867D01*
X155019552Y-75319552D01*
X155063867Y-75253231D01*
X155075500Y-75194748D01*
X155075500Y-74305252D01*
X155063867Y-74246769D01*
X155019552Y-74180448D01*
X154953231Y-74136133D01*
X154943668Y-74134231D01*
X154943666Y-74134230D01*
X154920995Y-74129721D01*
X154894748Y-74124500D01*
X154005252Y-74124500D01*
X153979005Y-74129721D01*
X153956334Y-74134230D01*
X153956332Y-74134231D01*
X153946769Y-74136133D01*
X153880448Y-74180448D01*
X153836133Y-74246769D01*
X153824500Y-74305252D01*
X153824500Y-75194748D01*
X149143192Y-75194748D01*
X149149849Y-73390794D01*
X149168971Y-73332674D01*
X149178844Y-73321156D01*
X149596004Y-72903996D01*
X149650521Y-72876219D01*
X149666008Y-72875000D01*
X157833992Y-72875000D01*
X157892183Y-72893907D01*
X157903996Y-72903996D01*
X158596004Y-73596004D01*
X158623781Y-73650521D01*
X158625000Y-73666008D01*
X158625000Y-75915016D01*
X158606093Y-75973207D01*
X158556593Y-76009171D01*
X158541486Y-76012797D01*
X158508955Y-76017949D01*
X158508953Y-76017950D01*
X158501260Y-76019168D01*
X158494321Y-76022704D01*
X158494320Y-76022704D01*
X158396572Y-76072509D01*
X158396570Y-76072510D01*
X158389633Y-76076045D01*
X158301045Y-76164633D01*
X158297510Y-76171570D01*
X158297509Y-76171572D01*
X158247704Y-76269320D01*
X158244168Y-76276260D01*
X158242950Y-76283953D01*
X158242949Y-76283955D01*
X158225789Y-76392303D01*
X158224570Y-76400000D01*
X158244168Y-76523740D01*
X158301045Y-76635367D01*
X158389633Y-76723955D01*
X158396570Y-76727490D01*
X158396572Y-76727491D01*
X158494320Y-76777296D01*
X158501260Y-76780832D01*
X158508953Y-76782050D01*
X158508955Y-76782051D01*
X158541486Y-76787203D01*
X158596003Y-76814980D01*
X158623781Y-76869496D01*
X158625000Y-76884984D01*
X158625000Y-77440016D01*
X158606093Y-77498207D01*
X158556593Y-77534171D01*
X158541486Y-77537797D01*
X158508955Y-77542949D01*
X158508953Y-77542950D01*
X158501260Y-77544168D01*
X158494321Y-77547704D01*
X158494320Y-77547704D01*
X158396572Y-77597509D01*
X158396570Y-77597510D01*
X158389633Y-77601045D01*
X158301045Y-77689633D01*
X158297510Y-77696570D01*
X158297509Y-77696572D01*
X158252688Y-77784539D01*
X158244168Y-77801260D01*
X158242950Y-77808953D01*
X158242949Y-77808955D01*
X158232156Y-77877101D01*
X158224570Y-77925000D01*
X158244168Y-78048740D01*
X158247704Y-78055679D01*
X158247704Y-78055680D01*
X158256152Y-78072259D01*
X158301045Y-78160367D01*
X158389633Y-78248955D01*
X158396570Y-78252490D01*
X158396572Y-78252491D01*
X158461095Y-78285367D01*
X158501260Y-78305832D01*
X158508953Y-78307050D01*
X158508955Y-78307051D01*
X158541486Y-78312203D01*
X158596003Y-78339980D01*
X158623781Y-78394496D01*
X158625000Y-78409984D01*
X158625000Y-81583992D01*
X158606093Y-81642183D01*
X158596004Y-81653996D01*
X158403996Y-81846004D01*
X158349479Y-81873781D01*
X158333992Y-81875000D01*
X157375000Y-81875000D01*
X157125000Y-82125000D01*
X157125000Y-83083992D01*
X157106093Y-83142183D01*
X157096004Y-83153996D01*
X156903996Y-83346004D01*
X156849479Y-83373781D01*
X156833992Y-83375000D01*
X156375000Y-83375000D01*
X156125000Y-83625000D01*
X156125000Y-86083992D01*
X156106093Y-86142183D01*
X156096004Y-86153996D01*
X155903996Y-86346004D01*
X155849479Y-86373781D01*
X155833992Y-86375000D01*
X154666008Y-86375000D01*
X154607817Y-86356093D01*
X154596004Y-86346004D01*
X154403996Y-86153996D01*
X154376219Y-86099479D01*
X154375000Y-86083992D01*
X154375000Y-85875000D01*
X154178668Y-85678668D01*
X154150891Y-85624151D01*
X154160462Y-85563719D01*
X154177296Y-85530681D01*
X154177297Y-85530678D01*
X154180832Y-85523740D01*
X154188639Y-85474451D01*
X154199211Y-85407697D01*
X154200430Y-85400000D01*
X154188735Y-85326157D01*
X154182051Y-85283955D01*
X154182050Y-85283953D01*
X154180832Y-85276260D01*
X154177296Y-85269320D01*
X154135790Y-85187860D01*
X154125000Y-85142915D01*
X154125000Y-85125000D01*
X153903996Y-84903996D01*
X153876219Y-84849479D01*
X153875000Y-84833992D01*
X153875000Y-84375000D01*
X153625000Y-84125000D01*
X150766008Y-84125000D01*
X150707817Y-84106093D01*
X150696004Y-84096004D01*
X150475000Y-83875000D01*
X148875000Y-83875000D01*
X148653996Y-84096004D01*
X148599479Y-84123781D01*
X148583992Y-84125000D01*
X142166008Y-84125000D01*
X142107817Y-84106093D01*
X142096004Y-84096004D01*
X141903996Y-83903996D01*
X141876219Y-83849479D01*
X141875000Y-83833992D01*
X141875000Y-83024121D01*
X154576397Y-83024121D01*
X154595995Y-83147861D01*
X154652872Y-83259488D01*
X154741460Y-83348076D01*
X154748397Y-83351611D01*
X154748399Y-83351612D01*
X154794301Y-83375000D01*
X154853087Y-83404953D01*
X154860780Y-83406171D01*
X154860782Y-83406172D01*
X154969130Y-83423332D01*
X154976827Y-83424551D01*
X154984524Y-83423332D01*
X155092872Y-83406172D01*
X155092874Y-83406171D01*
X155100567Y-83404953D01*
X155159353Y-83375000D01*
X155205255Y-83351612D01*
X155205257Y-83351611D01*
X155212194Y-83348076D01*
X155300782Y-83259488D01*
X155357659Y-83147861D01*
X155377257Y-83024121D01*
X155357659Y-82900381D01*
X155300782Y-82788754D01*
X155212194Y-82700166D01*
X155205257Y-82696631D01*
X155205255Y-82696630D01*
X155107507Y-82646825D01*
X155107506Y-82646825D01*
X155100567Y-82643289D01*
X155092874Y-82642071D01*
X155092872Y-82642070D01*
X154984524Y-82624910D01*
X154976827Y-82623691D01*
X154969130Y-82624910D01*
X154860782Y-82642070D01*
X154860780Y-82642071D01*
X154853087Y-82643289D01*
X154846148Y-82646825D01*
X154846147Y-82646825D01*
X154748399Y-82696630D01*
X154748397Y-82696631D01*
X154741460Y-82700166D01*
X154652872Y-82788754D01*
X154595995Y-82900381D01*
X154576397Y-83024121D01*
X141875000Y-83024121D01*
X141875000Y-82625000D01*
X141625000Y-82375000D01*
X137625000Y-82375000D01*
X137375000Y-82625000D01*
X137375000Y-83833992D01*
X137356093Y-83892183D01*
X137346004Y-83903996D01*
X137153996Y-84096004D01*
X137099479Y-84123781D01*
X137083992Y-84125000D01*
X126625000Y-84125000D01*
X124875000Y-85625000D01*
X124875000Y-88833992D01*
X124856093Y-88892183D01*
X124846004Y-88903996D01*
X124653996Y-89096004D01*
X124599479Y-89123781D01*
X124583992Y-89125000D01*
X111166008Y-89125000D01*
X111107817Y-89106093D01*
X111096004Y-89096004D01*
X111029496Y-89029496D01*
X111001719Y-88974979D01*
X111000500Y-88959492D01*
X111000500Y-82038556D01*
X155138126Y-82038556D01*
X155157724Y-82162296D01*
X155214601Y-82273923D01*
X155303189Y-82362511D01*
X155310126Y-82366046D01*
X155310128Y-82366047D01*
X155407876Y-82415852D01*
X155414816Y-82419388D01*
X155422509Y-82420606D01*
X155422511Y-82420607D01*
X155530859Y-82437767D01*
X155538556Y-82438986D01*
X155546253Y-82437767D01*
X155654601Y-82420607D01*
X155654603Y-82420606D01*
X155662296Y-82419388D01*
X155669236Y-82415852D01*
X155766984Y-82366047D01*
X155766986Y-82366046D01*
X155773923Y-82362511D01*
X155862511Y-82273923D01*
X155919388Y-82162296D01*
X155938986Y-82038556D01*
X155919388Y-81914816D01*
X155898480Y-81873781D01*
X155866047Y-81810128D01*
X155866046Y-81810126D01*
X155862511Y-81803189D01*
X155773923Y-81714601D01*
X155766986Y-81711066D01*
X155766984Y-81711065D01*
X155669236Y-81661260D01*
X155669235Y-81661260D01*
X155662296Y-81657724D01*
X155654603Y-81656506D01*
X155654601Y-81656505D01*
X155546253Y-81639345D01*
X155538556Y-81638126D01*
X155530859Y-81639345D01*
X155422511Y-81656505D01*
X155422509Y-81656506D01*
X155414816Y-81657724D01*
X155407877Y-81661260D01*
X155407876Y-81661260D01*
X155310128Y-81711065D01*
X155310126Y-81711066D01*
X155303189Y-81714601D01*
X155214601Y-81803189D01*
X155211066Y-81810126D01*
X155211065Y-81810128D01*
X155178632Y-81873781D01*
X155157724Y-81914816D01*
X155138126Y-82038556D01*
X111000500Y-82038556D01*
X111000500Y-80500000D01*
X116899570Y-80500000D01*
X116919168Y-80623740D01*
X116922704Y-80630679D01*
X116922704Y-80630680D01*
X116958244Y-80700430D01*
X116976045Y-80735367D01*
X117064633Y-80823955D01*
X117071570Y-80827490D01*
X117071572Y-80827491D01*
X117169320Y-80877296D01*
X117176260Y-80880832D01*
X117183953Y-80882050D01*
X117183955Y-80882051D01*
X117292303Y-80899211D01*
X117300000Y-80900430D01*
X117307697Y-80899211D01*
X117416045Y-80882051D01*
X117416047Y-80882050D01*
X117423740Y-80880832D01*
X117430680Y-80877296D01*
X117528428Y-80827491D01*
X117528430Y-80827490D01*
X117535367Y-80823955D01*
X117623955Y-80735367D01*
X117641757Y-80700430D01*
X117677296Y-80630680D01*
X117677296Y-80630679D01*
X117680832Y-80623740D01*
X117700430Y-80500000D01*
X117680832Y-80376260D01*
X117677296Y-80369320D01*
X117627491Y-80271572D01*
X117627490Y-80271570D01*
X117623955Y-80264633D01*
X117535367Y-80176045D01*
X117528430Y-80172510D01*
X117528428Y-80172509D01*
X117430680Y-80122704D01*
X117430679Y-80122704D01*
X117423740Y-80119168D01*
X117416047Y-80117950D01*
X117416045Y-80117949D01*
X117307697Y-80100789D01*
X117300000Y-80099570D01*
X117292303Y-80100789D01*
X117183955Y-80117949D01*
X117183953Y-80117950D01*
X117176260Y-80119168D01*
X117169321Y-80122704D01*
X117169320Y-80122704D01*
X117071572Y-80172509D01*
X117071570Y-80172510D01*
X117064633Y-80176045D01*
X116976045Y-80264633D01*
X116972510Y-80271570D01*
X116972509Y-80271572D01*
X116922704Y-80369320D01*
X116919168Y-80376260D01*
X116899570Y-80500000D01*
X111000500Y-80500000D01*
X111000500Y-78602248D01*
X139222000Y-78602248D01*
X139225074Y-78617700D01*
X139231355Y-78649278D01*
X139233633Y-78660731D01*
X139277948Y-78727052D01*
X139344269Y-78771367D01*
X139353832Y-78773269D01*
X139353834Y-78773270D01*
X139376505Y-78777779D01*
X139402752Y-78783000D01*
X140292248Y-78783000D01*
X140318495Y-78777779D01*
X140341166Y-78773270D01*
X140341168Y-78773269D01*
X140350731Y-78771367D01*
X140417052Y-78727052D01*
X140461367Y-78660731D01*
X140463646Y-78649278D01*
X140469926Y-78617700D01*
X140473000Y-78602248D01*
X140473000Y-77712752D01*
X140461367Y-77654269D01*
X140417052Y-77587948D01*
X140350731Y-77543633D01*
X140341168Y-77541731D01*
X140341166Y-77541730D01*
X140318495Y-77537221D01*
X140292248Y-77532000D01*
X139402752Y-77532000D01*
X139376505Y-77537221D01*
X139353834Y-77541730D01*
X139353832Y-77541731D01*
X139344269Y-77543633D01*
X139277948Y-77587948D01*
X139233633Y-77654269D01*
X139222000Y-77712752D01*
X139222000Y-78602248D01*
X111000500Y-78602248D01*
X111000500Y-78050000D01*
X127949570Y-78050000D01*
X127969168Y-78173740D01*
X127972704Y-78180679D01*
X127972704Y-78180680D01*
X128009294Y-78252491D01*
X128026045Y-78285367D01*
X128114633Y-78373955D01*
X128121570Y-78377490D01*
X128121572Y-78377491D01*
X128219320Y-78427296D01*
X128226260Y-78430832D01*
X128233953Y-78432050D01*
X128233955Y-78432051D01*
X128342303Y-78449211D01*
X128350000Y-78450430D01*
X128357697Y-78449211D01*
X128466045Y-78432051D01*
X128466047Y-78432050D01*
X128473740Y-78430832D01*
X128480680Y-78427296D01*
X128578428Y-78377491D01*
X128578430Y-78377490D01*
X128585367Y-78373955D01*
X128673955Y-78285367D01*
X128690707Y-78252491D01*
X128727296Y-78180680D01*
X128727296Y-78180679D01*
X128730832Y-78173740D01*
X128750430Y-78050000D01*
X128736205Y-77960183D01*
X128732051Y-77933955D01*
X128732050Y-77933953D01*
X128730832Y-77926260D01*
X128705246Y-77876045D01*
X128677491Y-77821572D01*
X128677490Y-77821570D01*
X128673955Y-77814633D01*
X128585367Y-77726045D01*
X128578430Y-77722510D01*
X128578428Y-77722509D01*
X128480680Y-77672704D01*
X128480679Y-77672704D01*
X128473740Y-77669168D01*
X128466047Y-77667950D01*
X128466045Y-77667949D01*
X128357697Y-77650789D01*
X128350000Y-77649570D01*
X128342303Y-77650789D01*
X128233955Y-77667949D01*
X128233953Y-77667950D01*
X128226260Y-77669168D01*
X128219321Y-77672704D01*
X128219320Y-77672704D01*
X128121572Y-77722509D01*
X128121570Y-77722510D01*
X128114633Y-77726045D01*
X128026045Y-77814633D01*
X128022510Y-77821570D01*
X128022509Y-77821572D01*
X127994754Y-77876045D01*
X127969168Y-77926260D01*
X127967950Y-77933953D01*
X127967949Y-77933955D01*
X127963795Y-77960183D01*
X127949570Y-78050000D01*
X111000500Y-78050000D01*
X111000500Y-76100000D01*
X137624570Y-76100000D01*
X137625789Y-76107697D01*
X137640803Y-76202491D01*
X137644168Y-76223740D01*
X137647704Y-76230679D01*
X137647704Y-76230680D01*
X137697508Y-76328425D01*
X137701045Y-76335367D01*
X137789633Y-76423955D01*
X137796570Y-76427490D01*
X137796572Y-76427491D01*
X137894320Y-76477296D01*
X137901260Y-76480832D01*
X137908953Y-76482050D01*
X137908955Y-76482051D01*
X138017303Y-76499211D01*
X138025000Y-76500430D01*
X138032697Y-76499211D01*
X138141045Y-76482051D01*
X138141047Y-76482050D01*
X138148740Y-76480832D01*
X138155680Y-76477296D01*
X138253428Y-76427491D01*
X138253430Y-76427490D01*
X138260367Y-76423955D01*
X138348955Y-76335367D01*
X138352491Y-76328428D01*
X138352493Y-76328425D01*
X138383033Y-76268487D01*
X138426297Y-76225223D01*
X138486730Y-76215652D01*
X138516187Y-76225224D01*
X138569314Y-76252294D01*
X138569320Y-76252296D01*
X138576260Y-76255832D01*
X138583953Y-76257050D01*
X138583955Y-76257051D01*
X138692303Y-76274211D01*
X138700000Y-76275430D01*
X138707697Y-76274211D01*
X138816045Y-76257051D01*
X138816047Y-76257050D01*
X138823740Y-76255832D01*
X138830684Y-76252294D01*
X138928428Y-76202491D01*
X138928430Y-76202490D01*
X138935367Y-76198955D01*
X139023955Y-76110367D01*
X139029238Y-76100000D01*
X139077296Y-76005680D01*
X139077296Y-76005679D01*
X139080832Y-75998740D01*
X139084393Y-75976260D01*
X139099211Y-75882697D01*
X139100430Y-75875000D01*
X139097916Y-75859127D01*
X139082051Y-75758955D01*
X139082050Y-75758953D01*
X139080832Y-75751260D01*
X139054495Y-75699570D01*
X139027491Y-75646572D01*
X139027490Y-75646570D01*
X139023955Y-75639633D01*
X138935367Y-75551045D01*
X138928430Y-75547510D01*
X138928428Y-75547509D01*
X138830680Y-75497704D01*
X138830679Y-75497704D01*
X138823740Y-75494168D01*
X138816047Y-75492950D01*
X138816045Y-75492949D01*
X138707697Y-75475789D01*
X138700000Y-75474570D01*
X138692303Y-75475789D01*
X138583955Y-75492949D01*
X138583953Y-75492950D01*
X138576260Y-75494168D01*
X138569321Y-75497704D01*
X138569320Y-75497704D01*
X138471572Y-75547509D01*
X138471570Y-75547510D01*
X138464633Y-75551045D01*
X138376045Y-75639633D01*
X138372510Y-75646571D01*
X138372507Y-75646575D01*
X138341967Y-75706513D01*
X138298703Y-75749777D01*
X138238270Y-75759348D01*
X138208813Y-75749776D01*
X138155686Y-75722706D01*
X138155680Y-75722704D01*
X138148740Y-75719168D01*
X138141047Y-75717950D01*
X138141045Y-75717949D01*
X138032697Y-75700789D01*
X138025000Y-75699570D01*
X138017303Y-75700789D01*
X137908955Y-75717949D01*
X137908953Y-75717950D01*
X137901260Y-75719168D01*
X137894321Y-75722704D01*
X137894320Y-75722704D01*
X137796572Y-75772509D01*
X137796570Y-75772510D01*
X137789633Y-75776045D01*
X137701045Y-75864633D01*
X137697510Y-75871570D01*
X137697509Y-75871572D01*
X137691841Y-75882697D01*
X137644168Y-75976260D01*
X137642950Y-75983953D01*
X137642949Y-75983955D01*
X137633992Y-76040510D01*
X137624570Y-76100000D01*
X111000500Y-76100000D01*
X111000500Y-74900000D01*
X126249570Y-74900000D01*
X126269168Y-75023740D01*
X126326045Y-75135367D01*
X126414633Y-75223955D01*
X126421570Y-75227490D01*
X126421572Y-75227491D01*
X126472090Y-75253231D01*
X126526260Y-75280832D01*
X126533953Y-75282050D01*
X126533955Y-75282051D01*
X126642303Y-75299211D01*
X126650000Y-75300430D01*
X126657697Y-75299211D01*
X126766045Y-75282051D01*
X126766047Y-75282050D01*
X126773740Y-75280832D01*
X126827910Y-75253231D01*
X126878428Y-75227491D01*
X126878430Y-75227490D01*
X126885367Y-75223955D01*
X126973955Y-75135367D01*
X127030832Y-75023740D01*
X127050430Y-74900000D01*
X127274570Y-74900000D01*
X127294168Y-75023740D01*
X127351045Y-75135367D01*
X127439633Y-75223955D01*
X127446570Y-75227490D01*
X127446572Y-75227491D01*
X127497090Y-75253231D01*
X127551260Y-75280832D01*
X127558953Y-75282050D01*
X127558955Y-75282051D01*
X127667303Y-75299211D01*
X127675000Y-75300430D01*
X127682697Y-75299211D01*
X127791045Y-75282051D01*
X127791047Y-75282050D01*
X127798740Y-75280832D01*
X127852910Y-75253231D01*
X127903428Y-75227491D01*
X127903430Y-75227490D01*
X127910367Y-75223955D01*
X127998955Y-75135367D01*
X128055832Y-75023740D01*
X128075430Y-74900000D01*
X128055832Y-74776260D01*
X127998955Y-74664633D01*
X127910367Y-74576045D01*
X127903430Y-74572510D01*
X127903428Y-74572509D01*
X127805680Y-74522704D01*
X127805679Y-74522704D01*
X127798740Y-74519168D01*
X127791047Y-74517950D01*
X127791045Y-74517949D01*
X127682697Y-74500789D01*
X127675000Y-74499570D01*
X127667303Y-74500789D01*
X127558955Y-74517949D01*
X127558953Y-74517950D01*
X127551260Y-74519168D01*
X127544321Y-74522704D01*
X127544320Y-74522704D01*
X127446572Y-74572509D01*
X127446570Y-74572510D01*
X127439633Y-74576045D01*
X127351045Y-74664633D01*
X127294168Y-74776260D01*
X127274570Y-74900000D01*
X127050430Y-74900000D01*
X127030832Y-74776260D01*
X126973955Y-74664633D01*
X126885367Y-74576045D01*
X126878430Y-74572510D01*
X126878428Y-74572509D01*
X126780680Y-74522704D01*
X126780679Y-74522704D01*
X126773740Y-74519168D01*
X126766047Y-74517950D01*
X126766045Y-74517949D01*
X126657697Y-74500789D01*
X126650000Y-74499570D01*
X126642303Y-74500789D01*
X126533955Y-74517949D01*
X126533953Y-74517950D01*
X126526260Y-74519168D01*
X126519321Y-74522704D01*
X126519320Y-74522704D01*
X126421572Y-74572509D01*
X126421570Y-74572510D01*
X126414633Y-74576045D01*
X126326045Y-74664633D01*
X126269168Y-74776260D01*
X126249570Y-74900000D01*
X111000500Y-74900000D01*
X111000500Y-74329704D01*
X111019407Y-74271513D01*
X111032905Y-74256450D01*
X111121679Y-74175746D01*
X111177455Y-74150593D01*
X111188274Y-74150000D01*
X118900000Y-74150000D01*
X119920300Y-72911064D01*
X119971886Y-72878165D01*
X119996720Y-72875000D01*
X143083992Y-72875000D01*
X143142183Y-72893907D01*
G37*
%TD.AperFunction*%
%TD*%
M02*
