%TF.GenerationSoftware,KiCad,Pcbnew,6.0.3-a3aad9c10e~116~ubuntu20.04.1*%
%TF.CreationDate,2022-03-23T21:19:16+01:00*%
%TF.ProjectId,Smart_Charger,536d6172-745f-4436-9861-726765722e6b,ED A0*%
%TF.SameCoordinates,Original*%
%TF.FileFunction,Other,User*%
%FSLAX46Y46*%
G04 Gerber Fmt 4.6, Leading zero omitted, Abs format (unit mm)*
G04 Created by KiCad (PCBNEW 6.0.3-a3aad9c10e~116~ubuntu20.04.1) date 2022-03-23 21:19:16*
%MOMM*%
%LPD*%
G01*
G04 APERTURE LIST*
%ADD10C,0.050000*%
G04 APERTURE END LIST*
D10*
%TO.C,R316*%
X137725000Y-82505000D02*
X137725000Y-81045000D01*
X140685000Y-81045000D02*
X140685000Y-82505000D01*
X140685000Y-82505000D02*
X137725000Y-82505000D01*
X137725000Y-81045000D02*
X140685000Y-81045000D01*
%TO.C,D302*%
X140324999Y-88749999D02*
X138024999Y-88749999D01*
X140324999Y-88749999D02*
X140324999Y-93149999D01*
X138024999Y-93149999D02*
X138024999Y-88749999D01*
X140324999Y-93149999D02*
X138024999Y-93149999D01*
%TO.C,JP302*%
X124900000Y-76550000D02*
X124900000Y-79850000D01*
X122400000Y-79850000D02*
X122400000Y-76550000D01*
X122400000Y-79850000D02*
X124900000Y-79850000D01*
X124900000Y-76550000D02*
X122400000Y-76550000D01*
%TO.C,TP304*%
X173850000Y-93325000D02*
X178850000Y-93325000D01*
X178850000Y-98325000D02*
X178850000Y-93325000D01*
X178850000Y-98325000D02*
X173850000Y-98325000D01*
X173850000Y-93325000D02*
X173850000Y-98325000D01*
%TO.C,FID301*%
X138875000Y-74125000D02*
G75*
G03*
X138875000Y-74125000I-1000000J0D01*
G01*
%TO.C,D204*%
X151475000Y-85600000D02*
X151475000Y-87000000D01*
X151475000Y-87000000D02*
X148975000Y-87000000D01*
X148975000Y-87000000D02*
X148975000Y-85600000D01*
X148975000Y-85600000D02*
X151475000Y-85600000D01*
%TO.C,C305*%
X122330000Y-82695000D02*
X122330000Y-84155000D01*
X119370000Y-84155000D02*
X119370000Y-82695000D01*
X122330000Y-84155000D02*
X119370000Y-84155000D01*
X119370000Y-82695000D02*
X122330000Y-82695000D01*
%TO.C,R209*%
X154255000Y-77645000D02*
X152395000Y-77645000D01*
X152395000Y-77645000D02*
X152395000Y-76705000D01*
X154255000Y-76705000D02*
X154255000Y-77645000D01*
X152395000Y-76705000D02*
X154255000Y-76705000D01*
%TO.C,R213*%
X148945000Y-79145000D02*
X151905000Y-79145000D01*
X151905000Y-80605000D02*
X148945000Y-80605000D01*
X151905000Y-79145000D02*
X151905000Y-80605000D01*
X148945000Y-80605000D02*
X148945000Y-79145000D01*
%TO.C,C301*%
X122330000Y-78055000D02*
X119370000Y-78055000D01*
X119370000Y-76595000D02*
X122330000Y-76595000D01*
X119370000Y-78055000D02*
X119370000Y-76595000D01*
X122330000Y-76595000D02*
X122330000Y-78055000D01*
%TO.C,R203*%
X156705000Y-80580000D02*
X156705000Y-78720000D01*
X157645000Y-80580000D02*
X156705000Y-80580000D01*
X157645000Y-78720000D02*
X157645000Y-80580000D01*
X156705000Y-78720000D02*
X157645000Y-78720000D01*
%TO.C,R212*%
X151905000Y-77620000D02*
X151905000Y-79080000D01*
X151905000Y-79080000D02*
X148945000Y-79080000D01*
X148945000Y-79080000D02*
X148945000Y-77620000D01*
X148945000Y-77620000D02*
X151905000Y-77620000D01*
%TO.C,C215*%
X149515000Y-77560000D02*
X149515000Y-76640000D01*
X149515000Y-76640000D02*
X151335000Y-76640000D01*
X151335000Y-77560000D02*
X149515000Y-77560000D01*
X151335000Y-76640000D02*
X151335000Y-77560000D01*
%TO.C,FID304*%
X172625000Y-76375000D02*
G75*
G03*
X172625000Y-76375000I-1000000J0D01*
G01*
%TO.C,JP303*%
X138597500Y-74622500D02*
X138597500Y-77122500D01*
X143197500Y-77122500D02*
X143197500Y-74622500D01*
X138597500Y-74622500D02*
X143197500Y-74622500D01*
X143197500Y-77122500D02*
X138597500Y-77122500D01*
%TO.C,J201*%
X155700000Y-73210000D02*
X155700000Y-75710000D01*
X152200000Y-75710000D02*
X152200000Y-73210000D01*
X152200000Y-73210000D02*
X155700000Y-73210000D01*
X155700000Y-75710000D02*
X152200000Y-75710000D01*
%TO.C,R305*%
X119290000Y-82530000D02*
X119290000Y-83470000D01*
X117430000Y-82530000D02*
X119290000Y-82530000D01*
X119290000Y-83470000D02*
X117430000Y-83470000D01*
X117430000Y-83470000D02*
X117430000Y-82530000D01*
%TO.C,L201*%
X143227500Y-89627500D02*
X148877500Y-89627500D01*
X148877500Y-89627500D02*
X148877500Y-83977500D01*
X148877500Y-83977500D02*
X143227500Y-83977500D01*
X143227500Y-83977500D02*
X143227500Y-89627500D01*
%TO.C,C208*%
X150430000Y-82570000D02*
X150430000Y-85530000D01*
X148970000Y-82570000D02*
X150430000Y-82570000D01*
X148970000Y-85530000D02*
X148970000Y-82570000D01*
X150430000Y-85530000D02*
X148970000Y-85530000D01*
%TO.C,C310*%
X121929999Y-89179999D02*
X118969999Y-89179999D01*
X118969999Y-89179999D02*
X118969999Y-87719999D01*
X121929999Y-87719999D02*
X121929999Y-89179999D01*
X118969999Y-87719999D02*
X121929999Y-87719999D01*
%TO.C,R204*%
X163667500Y-76870000D02*
X161807500Y-76870000D01*
X163667500Y-75930000D02*
X163667500Y-76870000D01*
X161807500Y-76870000D02*
X161807500Y-75930000D01*
X161807500Y-75930000D02*
X163667500Y-75930000D01*
%TO.C,C309*%
X126667500Y-77852500D02*
X126667500Y-76392500D01*
X129627500Y-76392500D02*
X129627500Y-77852500D01*
X129627500Y-77852500D02*
X126667500Y-77852500D01*
X126667500Y-76392500D02*
X129627500Y-76392500D01*
%TO.C,J101*%
X163300000Y-83350000D02*
X163300000Y-93350000D01*
X179000000Y-83350000D02*
X170300000Y-83350000D01*
X163300000Y-93350000D02*
X179000000Y-93350000D01*
X165100000Y-82050000D02*
X170300000Y-82050000D01*
X170300000Y-82050000D02*
X170300000Y-83350000D01*
X165100000Y-83350000D02*
X163300000Y-83350000D01*
X179000000Y-93350000D02*
X179000000Y-83350000D01*
X165100000Y-82050000D02*
X165100000Y-83350000D01*
%TO.C,R313*%
X123969999Y-97319999D02*
X123969999Y-96379999D01*
X125829999Y-97319999D02*
X123969999Y-97319999D01*
X125829999Y-96379999D02*
X125829999Y-97319999D01*
X123969999Y-96379999D02*
X125829999Y-96379999D01*
%TO.C,U301*%
X131097500Y-75847500D02*
X136097500Y-75847500D01*
X136097500Y-75847500D02*
X136097500Y-84247500D01*
X136097500Y-84247500D02*
X131097500Y-84247500D01*
X131097500Y-84247500D02*
X131097500Y-75847500D01*
%TO.C,TP303*%
X178850000Y-73650000D02*
X173850000Y-73650000D01*
X173850000Y-68650000D02*
X178850000Y-68650000D01*
X178850000Y-73650000D02*
X178850000Y-68650000D01*
X173850000Y-68650000D02*
X173850000Y-73650000D01*
%TO.C,H302*%
X178050000Y-77650000D02*
G75*
G03*
X178050000Y-77650000I-2600000J0D01*
G01*
%TO.C,R210*%
X154255000Y-76645000D02*
X152395000Y-76645000D01*
X154255000Y-75705000D02*
X154255000Y-76645000D01*
X152395000Y-75705000D02*
X154255000Y-75705000D01*
X152395000Y-76645000D02*
X152395000Y-75705000D01*
%TO.C,NT1*%
X151985660Y-83921447D02*
X151278553Y-83214340D01*
X150571447Y-85335660D02*
X151985660Y-83921447D01*
X151278553Y-83214340D02*
X149864340Y-84628553D01*
X149864340Y-84628553D02*
X150571447Y-85335660D01*
%TO.C,R311*%
X122339999Y-89239999D02*
X122339999Y-90179999D01*
X120479999Y-89239999D02*
X122339999Y-89239999D01*
X122339999Y-90179999D02*
X120479999Y-90179999D01*
X120479999Y-90179999D02*
X120479999Y-89239999D01*
%TO.C,H301*%
X130275000Y-87425000D02*
G75*
G03*
X130275000Y-87425000I-2600000J0D01*
G01*
%TO.C,D203*%
X158750000Y-80300000D02*
X158750000Y-83300000D01*
X165050000Y-80300000D02*
X165050000Y-83300000D01*
X165050000Y-83300000D02*
X158750000Y-83300000D01*
X158750000Y-80300000D02*
X165050000Y-80300000D01*
%TO.C,C308*%
X117449999Y-86219999D02*
X118909999Y-86219999D01*
X118909999Y-86219999D02*
X118909999Y-89179999D01*
X118909999Y-89179999D02*
X117449999Y-89179999D01*
X117449999Y-89179999D02*
X117449999Y-86219999D01*
%TO.C,C203*%
X161705000Y-78770000D02*
X161705000Y-80230000D01*
X161705000Y-80230000D02*
X158745000Y-80230000D01*
X158745000Y-80230000D02*
X158745000Y-78770000D01*
X158745000Y-78770000D02*
X161705000Y-78770000D01*
%TO.C,C207*%
X160800000Y-83375000D02*
X160800000Y-85675000D01*
X156200000Y-85675000D02*
X156200000Y-83375000D01*
X160800000Y-85675000D02*
X156200000Y-85675000D01*
X156200000Y-83375000D02*
X160800000Y-83375000D01*
%TO.C,R301*%
X117430000Y-78470000D02*
X117430000Y-77530000D01*
X119290000Y-78470000D02*
X117430000Y-78470000D01*
X117430000Y-77530000D02*
X119290000Y-77530000D01*
X119290000Y-77530000D02*
X119290000Y-78470000D01*
%TO.C,C213*%
X144275000Y-75800000D02*
X148875000Y-75800000D01*
X148875000Y-75800000D02*
X148875000Y-78100000D01*
X144275000Y-78100000D02*
X144275000Y-75800000D01*
X148875000Y-78100000D02*
X144275000Y-78100000D01*
%TO.C,R320*%
X140665000Y-82795000D02*
X140665000Y-85755000D01*
X139205000Y-85755000D02*
X139205000Y-82795000D01*
X139205000Y-82795000D02*
X140665000Y-82795000D01*
X140665000Y-85755000D02*
X139205000Y-85755000D01*
%TO.C,R208*%
X154255000Y-78645000D02*
X152395000Y-78645000D01*
X152395000Y-77705000D02*
X154255000Y-77705000D01*
X154255000Y-77705000D02*
X154255000Y-78645000D01*
X152395000Y-78645000D02*
X152395000Y-77705000D01*
%TO.C,J302*%
X138597500Y-77197500D02*
X142097500Y-77197500D01*
X142097500Y-79697500D02*
X138597500Y-79697500D01*
X142097500Y-77197500D02*
X142097500Y-79697500D01*
X138597500Y-79697500D02*
X138597500Y-77197500D01*
%TO.C,R312*%
X137577500Y-79117500D02*
X138517500Y-79117500D01*
X137577500Y-80977500D02*
X137577500Y-79117500D01*
X138517500Y-79117500D02*
X138517500Y-80977500D01*
X138517500Y-80977500D02*
X137577500Y-80977500D01*
%TO.C,C204*%
X156130000Y-83370000D02*
X156130000Y-86330000D01*
X154670000Y-86330000D02*
X154670000Y-83370000D01*
X154670000Y-83370000D02*
X156130000Y-83370000D01*
X156130000Y-86330000D02*
X154670000Y-86330000D01*
%TO.C,R302*%
X119290000Y-78780000D02*
X119290000Y-79720000D01*
X119290000Y-79720000D02*
X117430000Y-79720000D01*
X117430000Y-79720000D02*
X117430000Y-78780000D01*
X117430000Y-78780000D02*
X119290000Y-78780000D01*
%TO.C,C306*%
X119370000Y-84220000D02*
X122330000Y-84220000D01*
X122330000Y-85680000D02*
X119370000Y-85680000D01*
X119370000Y-85680000D02*
X119370000Y-84220000D01*
X122330000Y-84220000D02*
X122330000Y-85680000D01*
%TO.C,C214*%
X145070000Y-75730000D02*
X145070000Y-74270000D01*
X148030000Y-75730000D02*
X145070000Y-75730000D01*
X145070000Y-74270000D02*
X148030000Y-74270000D01*
X148030000Y-74270000D02*
X148030000Y-75730000D01*
%TO.C,C216*%
X145380000Y-80720000D02*
X145380000Y-82180000D01*
X145380000Y-82180000D02*
X142420000Y-82180000D01*
X142420000Y-82180000D02*
X142420000Y-80720000D01*
X142420000Y-80720000D02*
X145380000Y-80720000D01*
%TO.C,C303*%
X119370000Y-81105000D02*
X119370000Y-79645000D01*
X119370000Y-79645000D02*
X122330000Y-79645000D01*
X122330000Y-81105000D02*
X119370000Y-81105000D01*
X122330000Y-79645000D02*
X122330000Y-81105000D01*
%TO.C,C212*%
X144275000Y-80475000D02*
X144275000Y-78175000D01*
X148875000Y-80475000D02*
X144275000Y-80475000D01*
X144275000Y-78175000D02*
X148875000Y-78175000D01*
X148875000Y-78175000D02*
X148875000Y-80475000D01*
%TO.C,R315*%
X125829999Y-98319999D02*
X123969999Y-98319999D01*
X123969999Y-98319999D02*
X123969999Y-97379999D01*
X123969999Y-97379999D02*
X125829999Y-97379999D01*
X125829999Y-97379999D02*
X125829999Y-98319999D01*
%TO.C,C311*%
X124949999Y-89179999D02*
X121989999Y-89179999D01*
X121989999Y-87719999D02*
X124949999Y-87719999D01*
X121989999Y-89179999D02*
X121989999Y-87719999D01*
X124949999Y-87719999D02*
X124949999Y-89179999D01*
%TO.C,TP301*%
X116000000Y-73650000D02*
X111000000Y-73650000D01*
X111000000Y-68650000D02*
X111000000Y-73650000D01*
X111000000Y-68650000D02*
X116000000Y-68650000D01*
X116000000Y-73650000D02*
X116000000Y-68650000D01*
%TO.C,C210*%
X145445000Y-83705000D02*
X145445000Y-80745000D01*
X145445000Y-80745000D02*
X146905000Y-80745000D01*
X146905000Y-83705000D02*
X145445000Y-83705000D01*
X146905000Y-80745000D02*
X146905000Y-83705000D01*
%TO.C,C205*%
X152145000Y-78720000D02*
X155105000Y-78720000D01*
X152145000Y-80180000D02*
X152145000Y-78720000D01*
X155105000Y-80180000D02*
X152145000Y-80180000D01*
X155105000Y-78720000D02*
X155105000Y-80180000D01*
%TO.C,R307*%
X128102500Y-76092500D02*
X126242500Y-76092500D01*
X126242500Y-75152500D02*
X128102500Y-75152500D01*
X126242500Y-76092500D02*
X126242500Y-75152500D01*
X128102500Y-75152500D02*
X128102500Y-76092500D01*
%TO.C,FID302*%
X138875000Y-95375000D02*
G75*
G03*
X138875000Y-95375000I-1000000J0D01*
G01*
%TO.C,Q2*%
X149100000Y-87117500D02*
X154900000Y-87117500D01*
X154900000Y-87117500D02*
X154900000Y-93917500D01*
X154900000Y-93917500D02*
X149100000Y-93917500D01*
X149100000Y-93917500D02*
X149100000Y-87117500D01*
%TO.C,TP302*%
X110950000Y-93325000D02*
X110950000Y-98325000D01*
X110950000Y-93325000D02*
X115950000Y-93325000D01*
X115950000Y-98325000D02*
X110950000Y-98325000D01*
X115950000Y-98325000D02*
X115950000Y-93325000D01*
%TO.C,R206*%
X164730000Y-78770000D02*
X164730000Y-80230000D01*
X164730000Y-80230000D02*
X161770000Y-80230000D01*
X161770000Y-80230000D02*
X161770000Y-78770000D01*
X161770000Y-78770000D02*
X164730000Y-78770000D01*
%TO.C,C209*%
X154505000Y-87030000D02*
X151545000Y-87030000D01*
X151545000Y-87030000D02*
X151545000Y-85570000D01*
X154505000Y-85570000D02*
X154505000Y-87030000D01*
X151545000Y-85570000D02*
X154505000Y-85570000D01*
%TO.C,R304*%
X117430000Y-81280000D02*
X119290000Y-81280000D01*
X119290000Y-82220000D02*
X117430000Y-82220000D01*
X117430000Y-82220000D02*
X117430000Y-81280000D01*
X119290000Y-81280000D02*
X119290000Y-82220000D01*
%TO.C,R319*%
X136494999Y-93229999D02*
X136494999Y-90269999D01*
X136494999Y-90269999D02*
X137954999Y-90269999D01*
X137954999Y-93229999D02*
X136494999Y-93229999D01*
X137954999Y-90269999D02*
X137954999Y-93229999D01*
%TO.C,R318*%
X137954999Y-90204999D02*
X134994999Y-90204999D01*
X134994999Y-90204999D02*
X134994999Y-88744999D01*
X137954999Y-88744999D02*
X137954999Y-90204999D01*
X134994999Y-88744999D02*
X137954999Y-88744999D01*
%TO.C,C201*%
X157630000Y-76195000D02*
X157630000Y-77655000D01*
X157630000Y-77655000D02*
X154670000Y-77655000D01*
X154670000Y-77655000D02*
X154670000Y-76195000D01*
X154670000Y-76195000D02*
X157630000Y-76195000D01*
%TO.C,FID303*%
X172625000Y-95375000D02*
G75*
G03*
X172625000Y-95375000I-1000000J0D01*
G01*
%TO.C,Q3*%
X129339999Y-90384999D02*
X122539999Y-90384999D01*
X122539999Y-90384999D02*
X122539999Y-96184999D01*
X122539999Y-96184999D02*
X129339999Y-96184999D01*
X129339999Y-96184999D02*
X129339999Y-90384999D01*
%TO.C,R303*%
X119290000Y-80970000D02*
X117430000Y-80970000D01*
X117430000Y-80970000D02*
X117430000Y-80030000D01*
X119290000Y-80030000D02*
X119290000Y-80970000D01*
X117430000Y-80030000D02*
X119290000Y-80030000D01*
%TO.C,J301*%
X115637500Y-76100000D02*
X110937500Y-76100000D01*
X110937500Y-76100000D02*
X110937500Y-86150000D01*
X110937500Y-86150000D02*
X115637500Y-86150000D01*
X115637500Y-86150000D02*
X115637500Y-76100000D01*
%TO.C,R205*%
X163667500Y-78395000D02*
X161807500Y-78395000D01*
X163667500Y-77455000D02*
X163667500Y-78395000D01*
X161807500Y-78395000D02*
X161807500Y-77455000D01*
X161807500Y-77455000D02*
X163667500Y-77455000D01*
%TO.C,C211*%
X142420000Y-83730000D02*
X142420000Y-82270000D01*
X145380000Y-83730000D02*
X142420000Y-83730000D01*
X145380000Y-82270000D02*
X145380000Y-83730000D01*
X142420000Y-82270000D02*
X145380000Y-82270000D01*
%TO.C,R207*%
X158680000Y-83305000D02*
X155720000Y-83305000D01*
X158680000Y-81845000D02*
X158680000Y-83305000D01*
X155720000Y-81845000D02*
X158680000Y-81845000D01*
X155720000Y-83305000D02*
X155720000Y-81845000D01*
%TO.C,C202*%
X155170000Y-78720000D02*
X156630000Y-78720000D01*
X155170000Y-81680000D02*
X155170000Y-78720000D01*
X156630000Y-81680000D02*
X155170000Y-81680000D01*
X156630000Y-78720000D02*
X156630000Y-81680000D01*
%TO.C,R321*%
X139145000Y-85755000D02*
X137685000Y-85755000D01*
X137685000Y-82795000D02*
X139145000Y-82795000D01*
X139145000Y-82795000D02*
X139145000Y-85755000D01*
X137685000Y-85755000D02*
X137685000Y-82795000D01*
%TO.C,C206*%
X160800000Y-85775000D02*
X160800000Y-88075000D01*
X160800000Y-88075000D02*
X156200000Y-88075000D01*
X156200000Y-88075000D02*
X156200000Y-85775000D01*
X156200000Y-85775000D02*
X160800000Y-85775000D01*
%TO.C,D201*%
X161742500Y-75670000D02*
X161742500Y-77130000D01*
X161742500Y-77130000D02*
X158782500Y-77130000D01*
X158782500Y-77130000D02*
X158782500Y-75670000D01*
X158782500Y-75670000D02*
X161742500Y-75670000D01*
%TO.C,Q1*%
X161950000Y-88250000D02*
X155150000Y-88250000D01*
X155150000Y-88250000D02*
X155150000Y-94050000D01*
X155150000Y-94050000D02*
X161950000Y-94050000D01*
X161950000Y-94050000D02*
X161950000Y-88250000D01*
%TO.C,C304*%
X119370000Y-82630000D02*
X119370000Y-81170000D01*
X122330000Y-81170000D02*
X122330000Y-82630000D01*
X122330000Y-82630000D02*
X119370000Y-82630000D01*
X119370000Y-81170000D02*
X122330000Y-81170000D01*
%TO.C,Q4*%
X129557499Y-96184999D02*
X136357499Y-96184999D01*
X136357499Y-96184999D02*
X136357499Y-90384999D01*
X136357499Y-90384999D02*
X129557499Y-90384999D01*
X129557499Y-90384999D02*
X129557499Y-96184999D01*
%TO.C,R309*%
X137552500Y-78077500D02*
X137552500Y-76217500D01*
X138492500Y-76217500D02*
X138492500Y-78077500D01*
X138492500Y-78077500D02*
X137552500Y-78077500D01*
X137552500Y-76217500D02*
X138492500Y-76217500D01*
%TO.C,D301*%
X136094999Y-88669999D02*
X136094999Y-87729999D01*
X137954999Y-87729999D02*
X137954999Y-88669999D01*
X137954999Y-88669999D02*
X136094999Y-88669999D01*
X136094999Y-87729999D02*
X137954999Y-87729999D01*
%TO.C,R308*%
X118559999Y-90179999D02*
X118559999Y-89239999D01*
X118559999Y-89239999D02*
X120419999Y-89239999D01*
X120419999Y-90179999D02*
X118559999Y-90179999D01*
X120419999Y-89239999D02*
X120419999Y-90179999D01*
%TO.C,R211*%
X148875000Y-83905000D02*
X146975000Y-83905000D01*
X146975000Y-83905000D02*
X146975000Y-80545000D01*
X146975000Y-80545000D02*
X148875000Y-80545000D01*
X148875000Y-80545000D02*
X148875000Y-83905000D01*
%TO.C,R314*%
X123879999Y-97829999D02*
X120919999Y-97829999D01*
X120919999Y-96369999D02*
X123879999Y-96369999D01*
X123879999Y-96369999D02*
X123879999Y-97829999D01*
X120919999Y-97829999D02*
X120919999Y-96369999D01*
%TO.C,R306*%
X117430000Y-83780000D02*
X119290000Y-83780000D01*
X117430000Y-84720000D02*
X117430000Y-83780000D01*
X119290000Y-84720000D02*
X117430000Y-84720000D01*
X119290000Y-83780000D02*
X119290000Y-84720000D01*
%TO.C,R202*%
X155770000Y-78645000D02*
X155770000Y-77705000D01*
X157630000Y-77705000D02*
X157630000Y-78645000D01*
X155770000Y-77705000D02*
X157630000Y-77705000D01*
X157630000Y-78645000D02*
X155770000Y-78645000D01*
%TO.C,R201*%
X155770000Y-76145000D02*
X155770000Y-75205000D01*
X155770000Y-75205000D02*
X157630000Y-75205000D01*
X157630000Y-76145000D02*
X155770000Y-76145000D01*
X157630000Y-75205000D02*
X157630000Y-76145000D01*
%TO.C,R317*%
X136022499Y-87729999D02*
X136022499Y-88669999D01*
X134162499Y-88669999D02*
X134162499Y-87729999D01*
X134162499Y-87729999D02*
X136022499Y-87729999D01*
X136022499Y-88669999D02*
X134162499Y-88669999D01*
%TO.C,JP301*%
X122400000Y-76475000D02*
X124900000Y-76475000D01*
X122400000Y-76475000D02*
X122400000Y-73175000D01*
X124900000Y-73175000D02*
X124900000Y-76475000D01*
X124900000Y-73175000D02*
X122400000Y-73175000D01*
%TO.C,R310*%
X118499999Y-90239999D02*
X122399999Y-90239999D01*
X118499999Y-95939999D02*
X118499999Y-90239999D01*
X122399999Y-90239999D02*
X122399999Y-95939999D01*
X122399999Y-95939999D02*
X118499999Y-95939999D01*
%TO.C,C307*%
X128167500Y-73367500D02*
X129627500Y-73367500D01*
X128167500Y-76327500D02*
X128167500Y-73367500D01*
X129627500Y-73367500D02*
X129627500Y-76327500D01*
X129627500Y-76327500D02*
X128167500Y-76327500D01*
%TO.C,D202*%
X158782500Y-77195000D02*
X161742500Y-77195000D01*
X158782500Y-78655000D02*
X158782500Y-77195000D01*
X161742500Y-78655000D02*
X158782500Y-78655000D01*
X161742500Y-77195000D02*
X161742500Y-78655000D01*
%TO.C,C302*%
X119370000Y-79580000D02*
X119370000Y-78120000D01*
X122330000Y-78120000D02*
X122330000Y-79580000D01*
X119370000Y-78120000D02*
X122330000Y-78120000D01*
X122330000Y-79580000D02*
X119370000Y-79580000D01*
%TO.C,U201*%
X154600000Y-80675000D02*
X150500000Y-80675000D01*
X150500000Y-80675000D02*
X150500000Y-84775000D01*
X150500000Y-84775000D02*
X154600000Y-84775000D01*
X154600000Y-84775000D02*
X154600000Y-80675000D01*
%TD*%
M02*
